<svg xmlns="http://www.w3.org/2000/svg" xmlns:xlink="http://www.w3.org/1999/xlink" style="width:0;height:0;visibility:hidden;">
  <defs/>
  <symbol id="rd-icon-spotter" viewBox="0 0 100 100" fill="#043347">
<path d="M34.104 44.5635V44.5554H33.7936V44.5473H33.6424V44.5392H33.4992V44.5312H33.3559V44.5231H33.2047V44.515H33.1171V44.5069H33.0296V44.4989H32.95V44.4908H32.8625V44.4827H32.7749V44.4746H32.6953V44.4666H32.6078V44.4585H32.5441V44.4504H32.4884V44.4423H32.4327V44.4343H32.369V44.4262H32.3133V44.4181H32.2496V44.41H32.1939V44.402H32.1382V44.3939H32.0745V44.3858H32.0268V44.3777H31.979V44.3696H31.9313V44.3616H31.8915V44.3535H31.8437V44.3454H31.804V44.3373H31.7562V44.3293H31.7164V44.3212H31.6687V44.3131H31.6209V44.305H31.5811V44.297H31.5334V44.2889H31.4936V44.2808H31.4617V44.2727H31.4219V44.2647H31.3901V44.2566H31.3583V44.2485H31.3185V44.2404H31.2866V44.2323H31.2468V44.2243H31.215V44.2162H31.1832V44.2081H31.1434V44.2H31.1115V44.192H31.0718V44.1839H31.0399V44.1758H31.0081V44.1677H30.9763V44.1597H30.9444V44.1516H30.9205V44.1435H30.8887V44.1354H30.8648V44.1274H30.833V44.1193H30.8012V44.1112H30.7773V44.1031H30.7455V44.0951H30.7216V44.087H30.6897V44.0789H30.6579V44.0708H30.634V44.0627H30.6022V44.0547H30.5704V44.0466H30.5465V44.0385H30.5226V44.0304H30.4987V44.0224H30.4749V44.0143H30.451V44.0062H30.4271V43.9981H30.4032V43.9901H30.3794V43.982H30.3555V43.9739H30.3316V43.9658H30.3077V43.9578H30.2759V43.9497H30.252V43.9416H30.2281V43.9335H30.2043V43.9255H30.1804V43.9174H30.1565V43.9093H30.1326V43.9012H30.1088V43.8931H30.0928V43.8851H30.069V43.877H30.0451V43.8689H30.0292V43.8608H30.0053V43.8528H29.9894V43.8447H29.9655V43.8366H29.9416V43.8285H29.9257V43.8205H29.9018V43.8124H29.8859V43.8043H29.862V43.7962H29.8461V43.7882H29.8222V43.7801H29.7984V43.772H29.7825V43.7639H29.7586V43.7558H29.7427V43.7478H29.7188V43.7397H29.6949V43.7316H29.679V43.7235H29.6631V43.7155H29.6472V43.7074H29.6233V43.6993H29.6074V43.6912H29.5914V43.6832H29.5755V43.6751H29.5517V43.667H29.5357V43.6589H29.5198V43.6509H29.5039V43.6428H29.488V43.6347H29.4641V43.6266H29.4482V43.6186H29.4323V43.6105H29.4164V43.6024H29.3925V43.5943H29.3766V43.5862H29.3606V43.5782H29.3447V43.5701H29.3209V43.562H29.3049V43.5539H29.289V43.5459H29.2731V43.5378H29.2572V43.5297H29.2413V43.5216H29.2253V43.5136H29.2174V43.5055H29.2015V43.4974H29.1856V43.4893H29.1696V43.4813H29.1537V43.4732H29.1378V43.4651H29.1219V43.457H29.106V43.449H29.09V43.4409H29.0741V43.4328H29.0582V43.4247H29.0423V43.4166H29.0264V43.4086H29.0105V43.4005H28.9945V43.3924H28.9786V43.3843H28.9627V43.3763H28.9468V43.3682H28.9388V43.3601H28.9229V43.352H28.907V43.344H28.8911V43.3359H28.8831V43.3278H28.8672V43.3197H28.8513V43.3117H28.8433V43.3036H28.8274V43.2955H28.8115V43.2874H28.7956V43.2793H28.7876V43.2713H28.7717V43.2632H28.7558V43.2551H28.7478V43.247H28.7319V43.239H28.716V43.2309H28.7001V43.2228H28.6921V43.2147H28.6762V43.2067H28.6603V43.1986H28.6523V43.1905H28.6364V43.1824H28.6205V43.1744H28.6125V43.1663H28.5966V43.1582H28.5807V43.1501H28.5727V43.1421H28.5568V43.134H28.5489V43.1259H28.5329V43.1178H28.525V43.1097H28.5091V43.1017H28.5011V43.0936H28.4852V43.0855H28.4772V43.0774H28.4613V43.0694H28.4534V43.0613H28.4374V43.0532H28.4295V43.0451H28.4136V43.0371H28.4056V43.029H28.3897V43.0209H28.3817V43.0128H28.3658V43.0048H28.3579V42.9967H28.3419V42.9886H28.334V42.9805H28.3181V42.9724H28.3101V42.9644H28.2942V42.9563H28.2862V42.9482H28.2703V42.9401H28.2623V42.9321H28.2544V42.924H28.2385V42.9159H28.2305V42.9078H28.2226V42.8998H28.2066V42.8917H28.1987V42.8836H28.1907V42.8755H28.1748V42.8675H28.1668V42.8594H28.1589V42.8513H28.143V42.8432H28.135V42.8352H28.1271V42.8271H28.1111V42.819H28.1032V42.8109H28.0952V42.8028H28.0793V42.7948H28.0713V42.7867H28.0634V42.7786H28.0475V42.7705H28.0395V42.7625H28.0236V42.7544H28.0156V42.7463H28.0077V42.7382H27.9997V42.7302H27.9838V42.7221H27.9758V42.714H27.9679V42.7059H27.9599V42.6979H27.952V42.6898H27.936V42.6817H27.9281V42.6736H27.9201V42.6656H27.9122V42.6575H27.9042V42.6494H27.8883V42.6413H27.8803V42.6332H27.8724V42.6252H27.8644V42.6171H27.8565V42.609H27.8405V42.6009H27.8326V42.5929H27.8246V42.5848H27.8167V42.5767H27.8087V42.5686H27.7928V42.5606H27.7848V42.5525H27.7769V42.5444H27.7689V42.5363H27.761V42.5283H27.745V42.5202H27.7371V42.5121H27.7291V42.504H27.7212V42.4959H27.7132V42.4879H27.7052V42.4798H27.6973V42.4717H27.6893V42.4636H27.6814V42.4556H27.6734V42.4475H27.6575V42.4394H27.6495V42.4313H27.6416V42.4233H27.6336V42.4152H27.6257V42.4071H27.6177V42.399H27.6097V42.391H27.6018V42.3829H27.5938V42.3748H27.5859V42.3667H27.5779V42.3587H27.5699V42.3506H27.562V42.3425H27.5461V42.3344H27.5381V42.3263H27.5301V42.3183H27.5222V42.3102H27.5142V42.3021H27.5063V42.294H27.4983V42.286H27.4904V42.2779H27.4824V42.2698H27.4744V42.2617H27.4665V42.2537H27.4585V42.2456H27.4506V42.2375H27.4426V42.2294H27.4346V42.2214H27.4267V42.2133H27.4187V42.2052H27.4108V42.1971H27.4028V42.1891H27.3949V42.181H27.3869V42.1729H27.3789V42.1648H27.371V42.1487H27.363V42.1406H27.3551V42.1325H27.3471V42.1244H27.3391V42.1164H27.3312V42.1083H27.3232V42.1002H27.3153V42.0921H27.3073V42.0841H27.2993V42.076H27.2914V42.0679H27.2834V42.0598H27.2755V42.0518H27.2675V42.0437H27.2596V42.0356H27.2516V42.0275H27.2436V42.0194H27.2357V42.0033H27.2277V41.9952H27.2198V41.9871H27.2118V41.9791H27.2038V41.971H27.1959V41.9629H27.1879V41.9468H27.18V41.9387H27.172V41.9306H27.1641V41.9225H27.1561V41.9145H27.1481V41.9064H27.1402V41.8983H27.1322V41.8822H27.1243V41.8741H27.1163V41.866H27.1083V41.8579H27.1004V41.8498H27.0924V41.8418H27.0845V41.8337H27.0765V41.8175H27.0685V41.8095H27.0606V41.8014H27.0526V41.7933H27.0447V41.7772H27.0367V41.7691H27.0288V41.761H27.0208V41.7529H27.0128V41.7368H27.0049V41.7287H26.9969V41.7206H26.989V41.7126H26.981V41.6964H26.973V41.6883H26.9651V41.6802H26.9571V41.6641H26.9492V41.656H26.9412V41.6479H26.9332V41.6399H26.9253V41.6237H26.9173V41.6156H26.9094V41.6076H26.9014V41.5914H26.8935V41.5833H26.8855V41.5753H26.8775V41.5672H26.8696V41.551H26.8616V41.5429H26.8537V41.5268H26.8457V41.5187H26.8377V41.5106H26.8298V41.4945H26.8218V41.4864H26.8139V41.4703H26.8059V41.4622H26.798V41.446H26.79V41.438H26.782V41.4299H26.7741V41.4137H26.7661V41.4057H26.7582V41.3895H26.7502V41.3814H26.7422V41.3653H26.7343V41.3572H26.7263V41.3491H26.7184V41.333H26.7104V41.3249H26.7024V41.3087H26.6945V41.3007H26.6865V41.2845H26.6786V41.2764H26.6706V41.2603H26.6627V41.2441H26.6547V41.236H26.6467V41.2199H26.6388V41.2118H26.6308V41.1957H26.6229V41.1876H26.6149V41.1714H26.6069V41.1553H26.599V41.1472H26.591V41.1311H26.5831V41.123H26.5751V41.1068H26.5672V41.0988H26.5592V41.0826H26.5512V41.0664H26.5433V41.0584H26.5353V41.0422H26.5274V41.0261H26.5194V41.0099H26.5114V41.0018H26.5035V40.9857H26.4955V40.9695H26.4876V40.9534H26.4796V40.9453H26.4716V40.9292H26.4637V40.913H26.4557V40.8968H26.4478V40.8888H26.4398V40.8726H26.4319V40.8565H26.4239V40.8403H26.4159V40.8322H26.408V40.8161H26.4V40.7999H26.3921V40.7838H26.3841V40.7676H26.3761V40.7515H26.3682V40.7353H26.3602V40.7192H26.3523V40.703H26.3443V40.6869H26.3364V40.6707H26.3284V40.6546H26.3204V40.6384H26.3125V40.6223H26.3045V40.6142H26.2966V40.598H26.2886V40.5819H26.2806V40.5657H26.2727V40.5415H26.2647V40.5253H26.2568V40.5092H26.2488V40.493H26.2408V40.4769H26.2329V40.4607H26.2249V40.4365H26.217V40.4203H26.209V40.4042H26.2011V40.388H26.1931V40.3719H26.1851V40.3557H26.1772V40.3315H26.1692V40.3154H26.1613V40.2992H26.1533V40.275H26.1453V40.2588H26.1374V40.2346H26.1294V40.2184H26.1215V40.2023H26.1135V40.1781H26.1055V40.1619H26.0976V40.1377H26.0896V40.1215H26.0817V40.0973H26.0737V40.0811H26.0658V40.0569H26.0578V40.0408H26.0498V40.0165H26.0419V39.9923H26.0339V39.9681H26.026V39.9519H26.018V39.9277H26.01V39.9035H26.0021V39.8873H25.9941V39.8631H25.9862V39.8389H25.9782V39.8146H25.9703V39.7904H25.9623V39.7662H25.9543V39.7419H25.9464V39.7177H25.9384V39.6935H25.9305V39.6693H25.9225V39.645H25.9145V39.6208H25.9066V39.5885H25.8986V39.5643H25.8907V39.54H25.8827V39.5077H25.8747V39.4835H25.8668V39.4512H25.8588V39.427H25.8509V39.3947H25.8429V39.3704H25.835V39.3381H25.827V39.3058H25.819V39.2735H25.8111V39.2412H25.8031V39.2089H25.7952V39.1766H25.7872V39.1443H25.7792V39.112H25.7713V39.0716H25.7633V39.0393H25.7554V39.007H25.7474V38.9666H25.7395V38.9262H25.7315V38.8859H25.7235V38.8455H25.7156V38.8051H25.7076V38.7647H25.6997V38.7243H25.6917V38.6759H25.6837V38.6274H25.6758V38.579H25.6678V38.5628H30.3714V38.587H30.3794V38.6113H30.3873V38.6274H30.3953V38.6516H30.4032V38.6759H30.4112V38.7001H30.4191V38.7243H30.4271V38.7405H30.4351V38.7647H30.443V38.7809H30.451V38.8051H30.4589V38.8212H30.4669V38.8455H30.4749V38.8616H30.4828V38.8859H30.4908V38.902H30.4987V38.9262H30.5067V38.9424H30.5147V38.9585H30.5226V38.9747H30.5306V38.9908H30.5385V39.007H30.5465V39.0312H30.5544V39.0474H30.5624V39.0635H30.5704V39.0797H30.5783V39.0958H30.5863V39.112H30.5942V39.1281H30.6022V39.1443H30.6102V39.1604H30.6181V39.1766H30.6261V39.1847H30.634V39.2008H30.642V39.217H30.6499V39.2331H30.6579V39.2493H30.6659V39.2574H30.6738V39.2735H30.6818V39.2897H30.6897V39.3058H30.6977V39.3139H30.7057V39.33H30.7136V39.3462H30.7216V39.3543H30.7295V39.3704H30.7375V39.3866H30.7455V39.3947H30.7534V39.4108H30.7614V39.4189H30.7693V39.435H30.7773V39.4431H30.7852V39.4593H30.7932V39.4673H30.8012V39.4835H30.8091V39.4916H30.8171V39.4997H30.825V39.5158H30.833V39.5239H30.841V39.54H30.8489V39.5481H30.8569V39.5562H30.8648V39.5723H30.8728V39.5804H30.8807V39.5966H30.8887V39.6046H30.8967V39.6127H30.9046V39.6208H30.9126V39.6369H30.9205V39.645H30.9285V39.6531H30.9365V39.6612H30.9444V39.6773H30.9524V39.6854H30.9603V39.6935H30.9683V39.7016H30.9763V39.7177H30.9842V39.7258H30.9922V39.7339H31.0001V39.7419H31.0081V39.75H31.016V39.7581H31.024V39.7662H31.032V39.7823H31.0399V39.7904H31.0479V39.7985H31.0558V39.8065H31.0638V39.8146H31.0718V39.8227H31.0797V39.8308H31.0877V39.8389H31.0956V39.8469H31.1036V39.855H31.1115V39.8631H31.1195V39.8712H31.1275V39.8792H31.1354V39.8873H31.1434V39.8954H31.1513V39.9035H31.1593V39.9115H31.1673V39.9196H31.1752V39.9277H31.1832V39.9358H31.1911V39.9438H31.1991V39.9519H31.2071V39.96H31.215V39.9681H31.223V39.9762H31.2309V39.9842H31.2389V39.9923H31.2468V40.0004H31.2548V40.0085H31.2628V40.0165H31.2707V40.0246H31.2866V40.0327H31.2946V40.0408H31.3026V40.0488H31.3105V40.0569H31.3185V40.065H31.3264V40.0731H31.3424V40.0811H31.3503V40.0892H31.3583V40.0973H31.3662V40.1054H31.3742V40.1134H31.3901V40.1215H31.3981V40.1296H31.406V40.1377H31.4219V40.1458H31.4299V40.1538H31.4379V40.1619H31.4458V40.17H31.4617V40.1781H31.4697V40.1861H31.4776V40.1942H31.4936V40.2023H31.5015V40.2104H31.5174V40.2184H31.5254V40.2265H31.5334V40.2346H31.5493V40.2427H31.5572V40.2507H31.5732V40.2588H31.5811V40.2669H31.5891V40.275H31.605V40.283H31.6129V40.2911H31.6289V40.2992H31.6448V40.3073H31.6527V40.3154H31.6687V40.3234H31.6766V40.3315H31.6925V40.3396H31.7085V40.3477H31.7164V40.3557H31.7323V40.3638H31.7403V40.3719H31.7562V40.38H31.7721V40.388H31.788V40.3961H31.796V40.4042H31.8119V40.4123H31.8278V40.4203H31.8437V40.4284H31.8517V40.4365H31.8676V40.4446H31.8835V40.4527H31.8995V40.4607H31.9154V40.4688H31.9313V40.4769H31.9472V40.485H31.9631V40.493H31.979V40.5011H31.995V40.5092H32.0109V40.5173H32.0268V40.5253H32.0427V40.5334H32.0586V40.5415H32.0745V40.5496H32.0984V40.5576H32.1143V40.5657H32.1303V40.5738H32.1462V40.5819H32.1621V40.5899H32.186V40.598H32.2019V40.6061H32.2258V40.6142H32.2417V40.6223H32.2656V40.6303H32.2815V40.6384H32.3053V40.6465H32.3213V40.6546H32.3451V40.6626H32.369V40.6707H32.3849V40.6788H32.4088V40.6869H32.4327V40.6949H32.4566V40.703H32.4804V40.7111H32.4964V40.7192H32.5282V40.7272H32.5521V40.7353H32.5759V40.7434H32.5998V40.7515H32.6237V40.7595H32.6555V40.7676H32.6794V40.7757H32.7112V40.7838H32.7351V40.7919H32.767V40.7999H32.7988V40.808H32.8227V40.8161H32.8545V40.8242H32.8863V40.8322H32.9182V40.8403H32.958V40.8484H32.9898V40.8565H33.0296V40.8645H33.0614V40.8726H33.1012V40.8807H33.141V40.8888H33.1808V40.8968H33.2206V40.9049H33.2683V40.913H33.3161V40.9211H33.3639V40.9292H33.4116V40.9372H33.4673V40.9453H33.523V40.9534H33.5867V40.9615H33.6504V40.9695H33.714V40.9776H33.7936V40.9857H33.8732V40.9938H33.9608V41.0018H34.0801V41.0099H34.1995V41.018H34.4064V41.0261H35.0193V41.018H35.1784V41.0099H35.3058V41.0018H35.4251V40.9938H35.4968V40.9857H35.5684V40.9776H35.64V40.9695H35.7117V40.9615H35.7753V40.9534H35.8231V40.9453H35.8708V40.9372H35.9186V40.9292H35.9663V40.9211H36.0141V40.913H36.0618V40.9049H36.1016V40.8968H36.1335V40.8888H36.1733V40.8807H36.2051V40.8726H36.2449V40.8645H36.2767V40.8565H36.3165V40.8484H36.3484V40.8403H36.3802V40.8322H36.4041V40.8242H36.4359V40.8161H36.4677V40.808H36.4916V40.7999H36.5234V40.7919H36.5473V40.7838H36.5792V40.7757H36.603V40.7676H36.6269V40.7595H36.6508V40.7515H36.6747V40.7434H36.6985V40.7353H36.7224V40.7272H36.7463V40.7192H36.7702V40.7111H36.794V40.703H36.81V40.6949H36.8338V40.6869H36.8577V40.6788H36.8816V40.6707H36.8975V40.6626H36.9214V40.6546H36.9373V40.6465H36.9532V40.6384H36.9771V40.6303H36.993V40.6223H37.0089V40.6142H37.0328V40.6061H37.0487V40.598H37.0726V40.5899H37.0885V40.5819H37.1044V40.5738H37.1203V40.5657H37.1363V40.5576H37.1522V40.5496H37.1681V40.5415H37.184V40.5334H37.1999V40.5253H37.2158V40.5173H37.2318V40.5092H37.2477V40.5011H37.2636V40.493H37.2795V40.485H37.2954V40.4769H37.3114V40.4688H37.3273V40.4607H37.3432V40.4527H37.3591V40.4446H37.3671V40.4365H37.383V40.4284H37.3989V40.4203H37.4148V40.4123H37.4228V40.4042H37.4387V40.3961H37.4546V40.388H37.4626V40.38H37.4785V40.3719H37.4944V40.3638H37.5024V40.3557H37.5183V40.3477H37.5342V40.3396H37.5422V40.3315H37.5581V40.3234H37.566V40.3154H37.5819V40.3073H37.5899V40.2992H37.6058V40.2911H37.6138V40.283H37.6297V40.275H37.6377V40.2669H37.6536V40.2588H37.6615V40.2507H37.6695V40.2427H37.6854V40.2346H37.6934V40.2265H37.7093V40.2184H37.7172V40.2104H37.7332V40.2023H37.7411V40.1942H37.7491V40.1861H37.765V40.1781H37.773V40.17H37.7809V40.1619H37.7889V40.1538H37.8048V40.1458H37.8127V40.1377H37.8207V40.1296H37.8287V40.1215H37.8446V40.1134H37.8525V40.1054H37.8605V40.0973H37.8685V40.0892H37.8844V40.0811H37.8923V40.0731H37.9003V40.065H37.9083V40.0569H37.9242V40.0488H37.9321V40.0408H37.9401V40.0327H37.948V40.0246H37.956V40.0165H37.964V40.0085H37.9719V40.0004H37.9799V39.9923H37.9878V39.9842H37.9958V39.9762H38.0038V39.9681H38.0197V39.96H38.0276V39.9519H38.0356V39.9438H38.0435V39.9358H38.0515V39.9277H38.0595V39.9196H38.0674V39.9115H38.0754V39.9035H38.0833V39.8954H38.0913V39.8873H38.0993V39.8792H38.1072V39.8712H38.1152V39.8631H38.1231V39.855H38.1311V39.8469H38.1391V39.8389H38.147V39.8308H38.155V39.8227H38.1629V39.8146H38.1709V39.8065H38.1788V39.7985H38.1868V39.7904H38.1948V39.7742H38.2027V39.7662H38.2107V39.7581H38.2186V39.75H38.2266V39.7419H38.2346V39.7339H38.2425V39.7258H38.2505V39.7177H38.2584V39.7096H38.2664V39.7016H38.2743V39.6854H38.2823V39.6773H38.2903V39.6693H38.2982V39.6612H38.3062V39.645H38.3141V39.6369H38.3221V39.6289H38.3301V39.6208H38.338V39.6127H38.346V39.5966H38.3539V39.5885H38.3619V39.5804H38.3699V39.5723H38.3778V39.5562H38.3858V39.5481H38.3937V39.54H38.4017V39.532H38.4096V39.5158H38.4176V39.5077H38.4256V39.4916H38.4335V39.4835H38.4415V39.4754H38.4494V39.4593H38.4574V39.4512H38.4654V39.435H38.4733V39.427H38.4813V39.4189H38.4892V39.4027H38.4972V39.3947H38.5051V39.3785H38.5131V39.3704H38.5211V39.3624H38.529V39.3462H38.537V39.3381H38.5449V39.322H38.5529V39.3058H38.5609V39.2977H38.5688V39.2816H38.5768V39.2735H38.5847V39.2574H38.5927V39.2412H38.6007V39.2331H38.6086V39.217H38.6166V39.2008H38.6245V39.1928H38.6325V39.1766H38.6404V39.1685H38.6484V39.1524H38.6564V39.1362H38.6643V39.1281H38.6723V39.112H38.6802V39.0958H38.6882V39.0797H38.6962V39.0635H38.7041V39.0474H38.7121V39.0312H38.72V39.0231H38.728V39.007H38.736V38.9908H38.7439V38.9747H38.7519V38.9585H38.7598V38.9424H38.7678V38.9262H38.7757V38.9101H38.7837V38.8939H38.7917V38.8778H38.7996V38.8616H38.8076V38.8455H38.8155V38.8293H38.8235V38.8051H38.8315V38.7889H38.8394V38.7728H38.8474V38.7566H38.8553V38.7405H38.8633V38.7243H38.8713V38.7082H38.8792V38.6839H38.8872V38.6678H38.8951V38.6436H38.9031V38.6274H38.911V38.6032H38.919V38.587H38.927V38.5628H38.9349V38.5466H38.9429V38.5224H38.9508V38.5063H38.9588V38.482H38.9668V38.4659H38.9747V38.4417H38.9827V38.4174H38.9906V38.3932H38.9986V38.369H39.0065V38.3447H39.0145V38.3205H39.0225V38.2963H39.0304V38.2801H39.0384V38.2559H39.0463V38.2317H39.0543V38.1994H39.0623V38.1751H39.0702V38.1509H39.0782V38.1186H39.0861V38.0944H39.0941V38.0621H39.1021V38.0378H39.11V38.0136H39.118V37.9813H39.1259V37.949H39.1339V37.9167H39.1418V37.8844H39.1498V37.8521H39.1578V37.8198H39.1657V37.7956H39.1737V37.7632H39.1816V37.7229H39.1896V37.6906H39.1976V37.6502H39.2055V37.6098H39.2135V37.5775H39.2214V37.5371H39.2294V37.4967H39.2373V37.4564H39.2453V37.4079H39.2533V37.3675H39.2612V37.3191H39.2692V37.2706H39.2771V37.2302H39.2851V37.1737H39.2931V37.1252H39.301V37.0687H39.309V37.0122H39.3169V36.9556H39.3249V36.891H39.3329V36.8183H39.3408V36.7456H39.3488V36.681H39.3567V36.5922H39.3647V36.5034H39.3726V36.4145H39.3806V36.3095H39.3886V36.1884H39.3965V36.0592H39.4045V35.8734H39.4124V35.6311H39.4204V34.4116H39.4124V34.4277H39.4045V34.4358H39.3965V34.452H39.3886V34.4601H39.3806V34.4762H39.3726V34.4843H39.3647V34.5004H39.3567V34.5085H39.3488V34.5247H39.3408V34.5327H39.3329V34.5489H39.3249V34.557H39.3169V34.5731H39.309V34.5812H39.301V34.5973H39.2931V34.6054H39.2851V34.6135H39.2771V34.6297H39.2692V34.6377H39.2612V34.6539H39.2533V34.662H39.2453V34.6781H39.2373V34.6862H39.2294V34.6943H39.2214V34.7104H39.2135V34.7185H39.2055V34.7266H39.1976V34.7427H39.1896V34.7508H39.1816V34.767H39.1737V34.775H39.1657V34.7831H39.1578V34.7993H39.1498V34.8073H39.1418V34.8154H39.1339V34.8316H39.1259V34.8396H39.118V34.8477H39.11V34.8639H39.1021V34.8719H39.0941V34.88H39.0861V34.8881H39.0782V34.9042H39.0702V34.9123H39.0623V34.9204H39.0543V34.9366H39.0463V34.9446H39.0384V34.9527H39.0304V34.9608H39.0225V34.9769H39.0145V34.985H39.0065V34.9931H38.9986V35.0012H38.9906V35.0092H38.9827V35.0254H38.9747V35.0335H38.9668V35.0415H38.9588V35.0496H38.9508V35.0577H38.9429V35.0738H38.9349V35.0819H38.927V35.09H38.919V35.0981H38.911V35.1062H38.9031V35.1223H38.8951V35.1304H38.8872V35.1385H38.8792V35.1465H38.8713V35.1546H38.8633V35.1627H38.8553V35.1708H38.8474V35.1869H38.8394V35.195H38.8315V35.2031H38.8235V35.2111H38.8155V35.2192H38.8076V35.2273H38.7996V35.2354H38.7917V35.2435H38.7837V35.2515H38.7757V35.2596H38.7678V35.2677H38.7598V35.2838H38.7519V35.2919H38.7439V35.3H38.736V35.3081H38.728V35.3161H38.72V35.3242H38.7121V35.3323H38.7041V35.3404H38.6962V35.3484H38.6882V35.3565H38.6802V35.3646H38.6723V35.3727H38.6643V35.3807H38.6564V35.3888H38.6484V35.3969H38.6404V35.405H38.6325V35.4131H38.6245V35.4211H38.6166V35.4292H38.6086V35.4373H38.6007V35.4454H38.5927V35.4534H38.5847V35.4615H38.5768V35.4696H38.5688V35.4777H38.5609V35.4857H38.5529V35.4938H38.5449V35.5019H38.537V35.51H38.529V35.518H38.5211V35.5261H38.5131V35.5342H38.4972V35.5423H38.4892V35.5504H38.4813V35.5584H38.4733V35.5665H38.4654V35.5746H38.4574V35.5827H38.4494V35.5907H38.4415V35.5988H38.4335V35.6069H38.4256V35.615H38.4096V35.623H38.4017V35.6311H38.3937V35.6392H38.3858V35.6473H38.3778V35.6553H38.3699V35.6634H38.3619V35.6715H38.346V35.6796H38.338V35.6876H38.3301V35.6957H38.3221V35.7038H38.3141V35.7119H38.3062V35.72H38.2903V35.728H38.2823V35.7361H38.2743V35.7442H38.2664V35.7523H38.2505V35.7603H38.2425V35.7684H38.2346V35.7765H38.2266V35.7846H38.2107V35.7926H38.2027V35.8007H38.1948V35.8088H38.1868V35.8169H38.1709V35.8249H38.1629V35.833H38.155V35.8411H38.1391V35.8492H38.1311V35.8572H38.1231V35.8653H38.1072V35.8734H38.0993V35.8815H38.0913V35.8896H38.0754V35.8976H38.0674V35.9057H38.0595V35.9138H38.0435V35.9219H38.0356V35.9299H38.0276V35.938H38.0117V35.9461H38.0038V35.9542H37.9878V35.9622H37.9799V35.9703H37.964V35.9784H37.956V35.9865H37.9401V35.9945H37.9321V36.0026H37.9162V36.0107H37.9083V36.0188H37.9003V36.0268H37.8844V36.0349H37.8764V36.043H37.8605V36.0511H37.8446V36.0592H37.8366V36.0672H37.8207V36.0753H37.8127V36.0834H37.7968V36.0915H37.7889V36.0995H37.773V36.1076H37.757V36.1157H37.7491V36.1238H37.7332V36.1318H37.7252V36.1399H37.7093V36.148H37.6934V36.1561H37.6854V36.1641H37.6695V36.1722H37.6536V36.1803H37.6377V36.1884H37.6297V36.1965H37.6138V36.2045H37.5979V36.2126H37.5899V36.2207H37.574V36.2288H37.5581V36.2368H37.5422V36.2449H37.5262V36.253H37.5103V36.2611H37.5024V36.2691H37.4864V36.2772H37.4705V36.2853H37.4546V36.2934H37.4387V36.3014H37.4228V36.3095H37.4069V36.3176H37.3909V36.3257H37.375V36.3337H37.3591V36.3418H37.3432V36.3499H37.3273V36.358H37.3114V36.3661H37.2954V36.3741H37.2795V36.3822H37.2636V36.3903H37.2477V36.3984H37.2318V36.4064H37.2158V36.4145H37.192V36.4226H37.1761V36.4307H37.1601V36.4387H37.1442V36.4468H37.1203V36.4549H37.1044V36.463H37.0885V36.471H37.0726V36.4791H37.0487V36.4872H37.0328V36.4953H37.0169V36.5034H36.993V36.5114H36.9771V36.5195H36.9532V36.5276H36.9373V36.5357H36.9134V36.5437H36.8975V36.5518H36.8736V36.5599H36.8577V36.568H36.8338V36.576H36.81V36.5841H36.7861V36.5922H36.7702V36.6003H36.7463V36.6083H36.7224V36.6164H36.6985V36.6245H36.6826V36.6326H36.6587V36.6406H36.6349V36.6487H36.611V36.6568H36.5871V36.6649H36.5553V36.673H36.5314V36.681H36.5075V36.6891H36.4836V36.6972H36.4598V36.7053H36.4359V36.7133H36.4041V36.7214H36.3802V36.7295H36.3484V36.7376H36.3245V36.7456H36.2926V36.7537H36.2688V36.7618H36.2369V36.7699H36.2051V36.7779H36.1733V36.786H36.1414V36.7941H36.1096V36.8022H36.0778V36.8102H36.0459V36.8183H36.022V36.8264H35.9823V36.8345H35.9425V36.8426H35.9106V36.8506H35.8708V36.8587H35.839V36.8668H35.7992V36.8749H35.7594V36.8829H35.7196V36.891H35.6798V36.8991H35.6321V36.9072H35.5923V36.9152H35.5525V36.9233H35.4968V36.9314H35.449V36.9395H35.4013V36.9475H35.3456V36.9556H35.2978V36.9637H35.2341V36.9718H35.1784V36.9799H35.1148V36.9879H35.0511V36.996H34.9795V37.0041H34.8999V37.0122H34.8282V37.0202H34.7407V37.0283H34.6372V37.0364H34.5417V37.0445H34.4064V37.0525H34.2632V37.0606H34.0483V37.0687H33.2763V37.0606H33.1092V37.0525H32.9978V37.0445H32.8943V37.0364H32.7829V37.0283H32.6953V37.0202H32.6317V37.0122H32.568V37.0041H32.5123V36.996H32.4486V36.9879H32.3849V36.9799H32.3213V36.9718H32.2656V36.9637H32.2258V36.9556H32.178V36.9475H32.1303V36.9395H32.0905V36.9314H32.0427V36.9233H32.0029V36.9152H31.9552V36.9072H31.9074V36.8991H31.8676V36.891H31.8358V36.8829H31.796V36.8749H31.7642V36.8668H31.7323V36.8587H31.7005V36.8506H31.6607V36.8426H31.6289V36.8345H31.597V36.8264H31.5572V36.8183H31.5254V36.8102H31.4936V36.8022H31.4617V36.7941H31.4299V36.786H31.406V36.7779H31.3742V36.7699H31.3503V36.7618H31.3185V36.7537H31.2946V36.7456H31.2628V36.7376H31.2389V36.7295H31.2071V36.7214H31.1832V36.7133H31.1513V36.7053H31.1275V36.6972H31.0956V36.6891H31.0718V36.681H31.0479V36.673H31.024V36.6649H31.0001V36.6568H30.9763V36.6487H30.9524V36.6406H30.9365V36.6326H30.9126V36.6245H30.8887V36.6164H30.8648V36.6083H30.841V36.6003H30.8171V36.5922H30.7932V36.5841H30.7693V36.576H30.7455V36.568H30.7216V36.5599H30.6977V36.5518H30.6818V36.5437H30.6579V36.5357H30.642V36.5276H30.6181V36.5195H30.6022V36.5114H30.5783V36.5034H30.5624V36.4953H30.5385V36.4872H30.5226V36.4791H30.4987V36.471H30.4828V36.463H30.4669V36.4549H30.443V36.4468H30.4271V36.4387H30.4032V36.4307H30.3873V36.4226H30.3634V36.4145H30.3475V36.4064H30.3236V36.3984H30.3077V36.3903H30.2918V36.3822H30.2759V36.3741H30.252V36.3661H30.2361V36.358H30.2202V36.3499H30.2043V36.3418H30.1883V36.3337H30.1724V36.3257H30.1565V36.3176H30.1326V36.3095H30.1167V36.3014H30.1008V36.2934H30.0849V36.2853H30.069V36.2772H30.053V36.2691H30.0371V36.2611H30.0133V36.253H29.9973V36.2449H29.9814V36.2368H29.9655V36.2288H29.9496V36.2207H29.9337V36.2126H29.9178V36.2045H29.9018V36.1965H29.8859V36.1884H29.87V36.1803H29.862V36.1722H29.8461V36.1641H29.8302V36.1561H29.8143V36.148H29.7984V36.1399H29.7825V36.1318H29.7665V36.1238H29.7506V36.1157H29.7347V36.1076H29.7267V36.0995H29.7108V36.0915H29.6949V36.0834H29.679V36.0753H29.6631V36.0672H29.6472V36.0592H29.6312V36.0511H29.6153V36.043H29.6074V36.0349H29.5914V36.0268H29.5755V36.0188H29.5596V36.0107H29.5517V36.0026H29.5357V35.9945H29.5198V35.9865H29.5119V35.9784H29.4959V35.9703H29.48V35.9622H29.4721V35.9542H29.4561V35.9461H29.4402V35.938H29.4323V35.9299H29.4164V35.9219H29.4004V35.9138H29.3925V35.9057H29.3766V35.8976H29.3606V35.8896H29.3527V35.8815H29.3368V35.8734H29.3209V35.8653H29.3129V35.8572H29.297V35.8492H29.2811V35.8411H29.2731V35.833H29.2572V35.8249H29.2492V35.8169H29.2333V35.8088H29.2253V35.8007H29.2094V35.7926H29.2015V35.7846H29.1856V35.7765H29.1776V35.7684H29.1617V35.7603H29.1537V35.7523H29.1378V35.7442H29.1298V35.7361H29.1139V35.728H29.106V35.72H29.09V35.7119H29.0821V35.7038H29.0662V35.6957H29.0582V35.6876H29.0423V35.6796H29.0343V35.6715H29.0184V35.6634H29.0105V35.6553H28.9945V35.6473H28.9866V35.6392H28.9707V35.6311H28.9627V35.623H28.9468V35.615H28.9388V35.6069H28.9309V35.5988H28.915V35.5907H28.907V35.5827H28.899V35.5746H28.8831V35.5665H28.8752V35.5584H28.8672V35.5504H28.8513V35.5423H28.8433V35.5342H28.8354V35.5261H28.8195V35.518H28.8115V35.51H28.8035V35.5019H28.7876V35.4938H28.7797V35.4857H28.7717V35.4777H28.7558V35.4696H28.7478V35.4615H28.7399V35.4534H28.7239V35.4454H28.716V35.4373H28.708V35.4292H28.6921V35.4211H28.6842V35.4131H28.6762V35.405H28.6603V35.3969H28.6523V35.3888H28.6444V35.3807H28.6284V35.3727H28.6205V35.3646H28.6125V35.3565H28.5966V35.3484H28.5887V35.3404H28.5807V35.3323H28.5727V35.3242H28.5648V35.3161H28.5489V35.3081H28.5409V35.3H28.5329V35.2919H28.525V35.2838H28.517V35.2758H28.5091V35.2677H28.4931V35.2596H28.4852V35.2515H28.4772V35.2435H28.4693V35.2354H28.4613V35.2273H28.4454V35.2192H28.4374V35.2111H28.4295V35.2031H28.4215V35.195H28.4136V35.1869H28.3976V35.1788H28.3897V35.1708H28.3817V35.1627H28.3738V35.1546H28.3658V35.1465H28.3499V35.1385H28.3419V35.1304H28.334V35.1223H28.326V35.1142H28.3181V35.1062H28.3021V35.0981H28.2942V35.09H28.2862V35.0819H28.2783V35.0738H28.2703V35.0658H28.2623V35.0577H28.2544V35.0496H28.2464V35.0415H28.2385V35.0335H28.2305V35.0254H28.2226V35.0173H28.2146V35.0092H28.1987V35.0012H28.1907V34.9931H28.1828V34.985H28.1748V34.9769H28.1668V34.9689H28.1589V34.9608H28.1509V34.9527H28.143V34.9446H28.135V34.9366H28.1271V34.9285H28.1191V34.9204H28.1111V34.9123H28.1032V34.9042H28.0873V34.8962H28.0793V34.8881H28.0713V34.88H28.0634V34.8719H28.0554V34.8639H28.0475V34.8558H28.0395V34.8477H28.0315V34.8396H28.0236V34.8316H28.0156V34.8235H28.0077V34.8154H27.9997V34.8073H27.9918V34.7993H27.9838V34.7912H27.9758V34.7831H27.9679V34.775H27.9599V34.767H27.952V34.7589H27.944V34.7508H27.936V34.7427H27.9281V34.7346H27.9201V34.7266H27.9122V34.7185H27.9042V34.7104H27.8962V34.7023H27.8883V34.6943H27.8803V34.6862H27.8724V34.6781H27.8644V34.67H27.8565V34.662H27.8485V34.6539H27.8405V34.6458H27.8326V34.6377H27.8246V34.6297H27.8167V34.6216H27.8087V34.6135H27.8007V34.5973H27.7928V34.5893H27.7848V34.5812H27.7769V34.5731H27.7689V34.565H27.761V34.557H27.753V34.5489H27.745V34.5408H27.7371V34.5327H27.7291V34.5247H27.7212V34.5166H27.7132V34.5085H27.7052V34.4924H27.6973V34.4843H27.6893V34.4762H27.6814V34.4681H27.6734V34.4601H27.6654V34.452H27.6575V34.4439H27.6495V34.4358H27.6416V34.4197H27.6336V34.4116H27.6257V34.4035H27.6177V34.3954H27.6097V34.3874H27.6018V34.3793H27.5938V34.3712H27.5859V34.3631H27.5779V34.347H27.5699V34.3389H27.562V34.3308H27.554V34.3228H27.5461V34.3147H27.5381V34.3066H27.5301V34.2985H27.5222V34.2824H27.5142V34.2743H27.5063V34.2662H27.4983V34.2581H27.4904V34.2501H27.4824V34.242H27.4744V34.2258H27.4665V34.2178H27.4585V34.2097H27.4506V34.2016H27.4426V34.1855H27.4346V34.1774H27.4267V34.1693H27.4187V34.1612H27.4108V34.1451H27.4028V34.137H27.3949V34.1289H27.3869V34.1208H27.3789V34.1047H27.371V34.0966H27.363V34.0885H27.3551V34.0805H27.3471V34.0643H27.3391V34.0562H27.3312V34.0482H27.3232V34.0401H27.3153V34.0239H27.3073V34.0159H27.2993V34.0078H27.2914V33.9997H27.2834V33.9836H27.2755V33.9755H27.2675V33.9674H27.2596V33.9593H27.2516V33.9432H27.2436V33.9351H27.2357V33.9189H27.2277V33.9109H27.2198V33.9028H27.2118V33.8866H27.2038V33.8786H27.1959V33.8624H27.1879V33.8543H27.18V33.8463H27.172V33.8301H27.1641V33.822H27.1561V33.8139H27.1481V33.7978H27.1402V33.7897H27.1322V33.7736H27.1243V33.7655H27.1163V33.7574H27.1083V33.7413H27.1004V33.7332H27.0924V33.717H27.0845V33.709H27.0765V33.7009H27.0685V33.6847H27.0606V33.6767H27.0526V33.6686H27.0447V33.6524H27.0367V33.6443H27.0288V33.6282H27.0208V33.6201H27.0128V33.604H27.0049V33.5959H26.9969V33.5797H26.989V33.5717H26.981V33.5555H26.973V33.5474H26.9651V33.5313H26.9571V33.5232H26.9492V33.5071H26.9412V33.499H26.9332V33.4828H26.9253V33.4667H26.9173V33.4586H26.9094V33.4424H26.9014V33.4344H26.8935V33.4182H26.8855V33.4101H26.8775V33.394H26.8696V33.3859H26.8616V33.3698H26.8537V33.3617H26.8457V33.3455H26.8377V33.3374H26.8298V33.3213H26.8218V33.3051H26.8139V33.2971H26.8059V33.2809H26.798V33.2728H26.79V33.2567H26.782V33.2405H26.7741V33.2244H26.7661V33.2163H26.7582V33.2002H26.7502V33.184H26.7422V33.1759H26.7343V33.1598H26.7263V33.1436H26.7184V33.1275H26.7104V33.1194H26.7024V33.1032H26.6945V33.0871H26.6865V33.079H26.6786V33.0629H26.6706V33.0467H26.6627V33.0306H26.6547V33.0225H26.6467V33.0063H26.6388V32.9902H26.6308V32.9821H26.6229V32.9659H26.6149V32.9498H26.6069V32.9336H26.599V32.9175H26.591V32.9013H26.5831V32.8933H26.5751V32.8771H26.5672V32.8609H26.5592V32.8448H26.5512V32.8286H26.5433V32.8125H26.5353V32.7963H26.5274V32.7802H26.5194V32.764H26.5114V32.7479H26.5035V32.7317H26.4955V32.7156H26.4876V32.7075H26.4796V32.6913H26.4716V32.6752H26.4637V32.659H26.4557V32.6429H26.4478V32.6267H26.4398V32.6106H26.4319V32.5944H26.4239V32.5783H26.4159V32.5621H26.408V32.546H26.4V32.5298H26.3921V32.5056H26.3841V32.4894H26.3761V32.4733H26.3682V32.4571H26.3602V32.441H26.3523V32.4248H26.3443V32.4006H26.3364V32.3844H26.3284V32.3683H26.3204V32.3521H26.3125V32.336H26.3045V32.3198H26.2966V32.2956H26.2886V32.2795H26.2806V32.2633H26.2727V32.2472H26.2647V32.231H26.2568V32.2068H26.2488V32.1906H26.2408V32.1664H26.2329V32.1502H26.2249V32.1341H26.217V32.1099H26.209V32.0937H26.2011V32.0695H26.1931V32.0533H26.1851V32.0291H26.1772V32.0129H26.1692V31.9887H26.1613V31.9726H26.1533V31.9483H26.1453V31.9322H26.1374V31.916H26.1294V31.8918H26.1215V31.8756H26.1135V31.8514H26.1055V31.8272H26.0976V31.811H26.0896V31.7868H26.0817V31.7626H26.0737V31.7383H26.0658V31.7141H26.0578V31.6899H26.0498V31.6737H26.0419V31.6495H26.0339V31.6253H26.026V31.601H26.018V31.5768H26.01V31.5526H26.0021V31.5364H25.9941V31.5122H25.9862V31.488H25.9782V31.4638H25.9703V31.4395H25.9623V31.4153H25.9543V31.383H25.9464V31.3588H25.9384V31.3345H25.9305V31.3022H25.9225V31.278H25.9145V31.2538H25.9066V31.2215H25.8986V31.1972H25.8907V31.173H25.8827V31.1488H25.8747V31.1165H25.8668V31.0922H25.8588V31.068H25.8509V31.0357H25.8429V31.0034H25.835V30.9711H25.827V30.9388H25.819V30.9065H25.8111V30.8742H25.8031V30.8419H25.7952V30.8096H25.7872V30.7773H25.7792V30.745H25.7713V30.7127H25.7633V30.6804H25.7554V30.648H25.7474V30.6077H25.7395V30.5673H25.7315V30.5269H25.7235V30.4865H25.7156V30.4542H25.7076V30.4138H25.6997V30.3735H25.6917V30.3331H25.6837V30.2927H25.6758V30.2523H25.6678V30.2039H25.6599V30.1554H25.6519V30.0989H25.6439V30.0504H25.636V30.0019H25.628V29.9454H25.6201V29.897H25.6121V29.8485H25.6042V29.7839H25.5962V29.7112H25.5882V29.6385H25.5803V29.5658H25.5723V29.4931H25.5644V29.4205H25.5564V29.3155H25.5484V29.1943H25.5405V29.0732H25.5325V28.9278H25.5246V28.6532H25.5166V28.4109H25.5246V28.0959H25.5325V27.9586H25.5405V27.8133H25.5484V27.6841H25.5564V27.6033H25.5644V27.5145H25.5723V27.4337H25.5803V27.3449H25.5882V27.2722H25.5962V27.2156H25.6042V27.151H25.6121V27.0945H25.6201V27.0299H25.628V26.9733H25.636V26.9087H25.6439V26.8683H25.6519V26.8199H25.6599V26.7714H25.6678V26.723H25.6758V26.6826H25.6837V26.6341H25.6917V26.5857H25.6997V26.5372H25.7076V26.4968H25.7156V26.4645H25.7235V26.4242H25.7315V26.3838H25.7395V26.3515H25.7474V26.3111H25.7554V26.2707H25.7633V26.2384H25.7713V26.198H25.7792V26.1576H25.7872V26.1253H25.7952V26.093H25.8031V26.0607H25.8111V26.0284H25.819V25.9961H25.827V25.9638H25.835V25.9396H25.8429V25.9073H25.8509V25.875H25.8588V25.8427H25.8668V25.8104H25.8747V25.7781H25.8827V25.7538H25.8907V25.7215H25.8986V25.6973H25.9066V25.6731H25.9145V25.6408H25.9225V25.6165H25.9305V25.5842H25.9384V25.56H25.9464V25.5358H25.9543V25.5035H25.9623V25.4792H25.9703V25.455H25.9782V25.4227H25.9862V25.3985H25.9941V25.3742H26.0021V25.35H26.01V25.3258H26.018V25.3016H26.026V25.2854H26.0339V25.2612H26.0419V25.2369H26.0498V25.2127H26.0578V25.1885H26.0658V25.1643H26.0737V25.14H26.0817V25.1158H26.0896V25.0916H26.0976V25.0673H26.1055V25.0431H26.1135V25.027H26.1215V25.0027H26.1294V24.9866H26.1374V24.9623H26.1453V24.9381H26.1533V24.922H26.1613V24.8977H26.1692V24.8816H26.1772V24.8574H26.1851V24.8331H26.1931V24.817H26.2011V24.7927H26.209V24.7766H26.217V24.7524H26.2249V24.7362H26.2329V24.712H26.2408V24.6958H26.2488V24.6716H26.2568V24.6554H26.2647V24.6393H26.2727V24.6151H26.2806V24.5989H26.2886V24.5828H26.2966V24.5585H26.3045V24.5424H26.3125V24.5262H26.3204V24.5101H26.3284V24.4858H26.3364V24.4697H26.3443V24.4535H26.3523V24.4293H26.3602V24.4132H26.3682V24.397H26.3761V24.3728H26.3841V24.3566H26.3921V24.3405H26.4V24.3243H26.408V24.3082H26.4159V24.292H26.4239V24.2759H26.4319V24.2597H26.4398V24.2436H26.4478V24.2274H26.4557V24.2113H26.4637V24.187H26.4716V24.1709H26.4796V24.1547H26.4876V24.1386H26.4955V24.1224H26.5035V24.1063H26.5114V24.0901H26.5194V24.074H26.5274V24.0578H26.5353V24.0417H26.5433V24.0255H26.5512V24.0093H26.5592V23.9932H26.5672V23.977H26.5751V23.9609H26.5831V23.9528H26.591V23.9367H26.599V23.9205H26.6069V23.9044H26.6149V23.8882H26.6229V23.8721H26.6308V23.8559H26.6388V23.8397H26.6467V23.8236H26.6547V23.8155H26.6627V23.7994H26.6706V23.7832H26.6786V23.7671H26.6865V23.7509H26.6945V23.7348H26.7024V23.7186H26.7104V23.7105H26.7184V23.6944H26.7263V23.6782H26.7343V23.6701H26.7422V23.654H26.7502V23.6378H26.7582V23.6217H26.7661V23.6136H26.7741V23.5975H26.782V23.5813H26.79V23.5732H26.798V23.5571H26.8059V23.5409H26.8139V23.5248H26.8218V23.5167H26.8298V23.5005H26.8377V23.4844H26.8457V23.4763H26.8537V23.4602H26.8616V23.444H26.8696V23.4279H26.8775V23.4198H26.8855V23.4036H26.8935V23.3955H26.9014V23.3794H26.9094V23.3632H26.9173V23.3552H26.9253V23.339H26.9332V23.3309H26.9412V23.3148H26.9492V23.3067H26.9571V23.2906H26.9651V23.2744H26.973V23.2663H26.981V23.2502H26.989V23.2421H26.9969V23.2259H27.0049V23.2179H27.0128V23.2017H27.0208V23.1856H27.0288V23.1775H27.0367V23.1613H27.0447V23.1533H27.0526V23.1371H27.0606V23.129H27.0685V23.1129H27.0765V23.1048H27.0845V23.0886H27.0924V23.0806H27.1004V23.0644H27.1083V23.0563H27.1163V23.0402H27.1243V23.0321H27.1322V23.024H27.1402V23.0079H27.1481V22.9998H27.1561V22.9837H27.1641V22.9756H27.172V22.9594H27.18V22.9514H27.1879V22.9433H27.1959V22.9271H27.2038V22.9191H27.2118V22.9029H27.2198V22.8948H27.2277V22.8787H27.2357V22.8706H27.2436V22.8625H27.2516V22.8464H27.2596V22.8383H27.2675V22.8221H27.2755V22.8141H27.2834V22.806H27.2914V22.7898H27.2993V22.7818H27.3073V22.7737H27.3153V22.7575H27.3232V22.7494H27.3312V22.7414H27.3391V22.7252H27.3471V22.7171H27.3551V22.7091H27.363V22.6929H27.371V22.6848H27.3789V22.6768H27.3869V22.6606H27.3949V22.6525H27.4028V22.6445H27.4108V22.6364H27.4187V22.6202H27.4267V22.6122H27.4346V22.6041H27.4426V22.5879H27.4506V22.5798H27.4585V22.5718H27.4665V22.5556H27.4744V22.5475H27.4824V22.5395H27.4904V22.5314H27.4983V22.5152H27.5063V22.5072H27.5142V22.4991H27.5222V22.491H27.5301V22.4749H27.5381V22.4668H27.5461V22.4587H27.554V22.4506H27.562V22.4425H27.5699V22.4264H27.5779V22.4183H27.5859V22.4102H27.5938V22.4022H27.6018V22.3941H27.6097V22.3779H27.6177V22.3699H27.6257V22.3618H27.6336V22.3537H27.6416V22.3456H27.6495V22.3295H27.6575V22.3214H27.6654V22.3133H27.6734V22.3053H27.6814V22.2891H27.6893V22.281H27.6973V22.2729H27.7052V22.2649H27.7132V22.2568H27.7212V22.2487H27.7291V22.2406H27.7371V22.2245H27.745V22.2164H27.753V22.2083H27.761V22.2003H27.7689V22.1922H27.7769V22.1841H27.7848V22.176H27.7928V22.168H27.8007V22.1599H27.8087V22.1437H27.8167V22.1357H27.8246V22.1276H27.8326V22.1195H27.8405V22.1114H27.8485V22.1033H27.8565V22.0953H27.8644V22.0872H27.8724V22.071H27.8803V22.063H27.8883V22.0549H27.8962V22.0468H27.9042V22.0387H27.9122V22.0307H27.9201V22.0226H27.9281V22.0145H27.936V22.0064H27.944V21.9984H27.952V21.9903H27.9599V21.9822H27.9679V21.966H27.9758V21.958H27.9838V21.9499H27.9918V21.9418H27.9997V21.9337H28.0077V21.9257H28.0156V21.9176H28.0236V21.9095H28.0315V21.9014H28.0395V21.8934H28.0475V21.8853H28.0554V21.8772H28.0634V21.8691H28.0713V21.8611H28.0793V21.853H28.0873V21.8449H28.0952V21.8368H28.1032V21.8288H28.1111V21.8207H28.1191V21.8126H28.1271V21.8045H28.135V21.7964H28.143V21.7884H28.1509V21.7803H28.1589V21.7722H28.1668V21.7641H28.1748V21.7561H28.1828V21.748H28.1907V21.7399H28.1987V21.7318H28.2066V21.7238H28.2146V21.7157H28.2226V21.7076H28.2305V21.6995H28.2385V21.6915H28.2464V21.6834H28.2544V21.6753H28.2623V21.6672H28.2703V21.6591H28.2862V21.6511H28.2942V21.643H28.3021V21.6349H28.3101V21.6268H28.3181V21.6188H28.326V21.6107H28.334V21.6026H28.3419V21.5945H28.3499V21.5865H28.3579V21.5784H28.3658V21.5703H28.3738V21.5622H28.3817V21.5542H28.3897V21.5461H28.3976V21.538H28.4056V21.5299H28.4136V21.5219H28.4215V21.5138H28.4374V21.5057H28.4454V21.4976H28.4534V21.4895H28.4613V21.4815H28.4693V21.4734H28.4772V21.4653H28.4852V21.4572H28.5011V21.4492H28.5091V21.4411H28.517V21.433H28.525V21.4249H28.5329V21.4169H28.5409V21.4088H28.5568V21.4007H28.5648V21.3926H28.5727V21.3846H28.5807V21.3765H28.5887V21.3684H28.5966V21.3603H28.6046V21.3523H28.6205V21.3442H28.6284V21.3361H28.6364V21.328H28.6444V21.3199H28.6523V21.3119H28.6603V21.3038H28.6682V21.2957H28.6842V21.2876H28.6921V21.2796H28.7001V21.2715H28.708V21.2634H28.7239V21.2553H28.7319V21.2473H28.7399V21.2392H28.7478V21.2311H28.7637V21.223H28.7717V21.215H28.7797V21.2069H28.7876V21.1988H28.8035V21.1907H28.8115V21.1826H28.8195V21.1746H28.8274V21.1665H28.8433V21.1584H28.8513V21.1503H28.8592V21.1423H28.8672V21.1342H28.8831V21.1261H28.8911V21.118H28.899V21.11H28.907V21.1019H28.9229V21.0938H28.9309V21.0857H28.9388V21.0777H28.9468V21.0696H28.9627V21.0615H28.9707V21.0534H28.9786V21.0454H28.9945V21.0373H29.0025V21.0292H29.0105V21.0211H29.0264V21.013H29.0343V21.005H29.0423V20.9969H29.0582V20.9888H29.0662V20.9807H29.0821V20.9727H29.09V20.9646H29.098V20.9565H29.1139V20.9484H29.1219V20.9404H29.1298V20.9323H29.1458V20.9242H29.1537V20.9161H29.1617V20.9081H29.1776V20.9H29.1856V20.8919H29.2015V20.8838H29.2094V20.8758H29.2174V20.8677H29.2333V20.8596H29.2413V20.8515H29.2572V20.8434H29.2651V20.8354H29.2811V20.8273H29.289V20.8192H29.297V20.8111H29.3129V20.8031H29.3209V20.795H29.3368V20.7869H29.3447V20.7788H29.3606V20.7708H29.3686V20.7627H29.3845V20.7546H29.3925V20.7465H29.4084V20.7385H29.4164V20.7304H29.4323V20.7223H29.4402V20.7142H29.4561V20.7061H29.4641V20.6981H29.48V20.69H29.488V20.6819H29.5039V20.6738H29.5119V20.6658H29.5278V20.6577H29.5357V20.6496H29.5517V20.6415H29.5676V20.6335H29.5755V20.6254H29.5914V20.6173H29.6074V20.6092H29.6153V20.6012H29.6312V20.5931H29.6472V20.585H29.6551V20.5769H29.671V20.5689H29.679V20.5608H29.6949V20.5527H29.7108V20.5446H29.7188V20.5365H29.7347V20.5285H29.7506V20.5204H29.7586V20.5123H29.7745V20.5042H29.7825V20.4962H29.7984V20.4881H29.8143V20.48H29.8302V20.4719H29.8382V20.4639H29.8541V20.4558H29.87V20.4477H29.8859V20.4396H29.9018V20.4316H29.9098V20.4235H29.9257V20.4154H29.9416V20.4073H29.9575V20.3993H29.9655V20.3912H29.9814V20.3831H29.9973V20.375H30.0133V20.3669H30.0292V20.3589H30.0371V20.3508H30.053V20.3427H30.069V20.3346H30.0849V20.3266H30.1008V20.3185H30.1088V20.3104H30.1247V20.3023H30.1406V20.2943H30.1565V20.2862H30.1724V20.2781H30.1883V20.27H30.2043V20.262H30.2202V20.2539H30.2361V20.2458H30.252V20.2377H30.2679V20.2296H30.2838V20.2216H30.2998V20.2135H30.3157V20.2054H30.3316V20.1973H30.3475V20.1893H30.3634V20.1812H30.3794V20.1731H30.3953V20.165H30.4112V20.157H30.4271V20.1489H30.451V20.1408H30.4669V20.1327H30.4828V20.1247H30.4987V20.1166H30.5147V20.1085H30.5385V20.1004H30.5544V20.0924H30.5704V20.0843H30.5863V20.0762H30.6022V20.0681H30.6261V20.06H30.642V20.052H30.6579V20.0439H30.6738V20.0358H30.6977V20.0277H30.7136V20.0197H30.7295V20.0116H30.7455V20.0035H30.7693V19.9954H30.7852V19.9874H30.8091V19.9793H30.825V19.9712H30.8489V19.9631H30.8648V19.9551H30.8887V19.947H30.9046V19.9389H30.9285V19.9308H30.9444V19.9228H30.9683V19.9147H30.9842V19.9066H31.0081V19.8985H31.024V19.8904H31.0479V19.8824H31.0638V19.8743H31.0877V19.8662H31.1115V19.8581H31.1354V19.8501H31.1593V19.842H31.1832V19.8339H31.1991V19.8258H31.223V19.8178H31.2468V19.8097H31.2707V19.8016H31.2946V19.7935H31.3105V19.7855H31.3344V19.7774H31.3583V19.7693H31.3821V19.7612H31.406V19.7531H31.4299V19.7451H31.4617V19.737H31.4856V19.7289H31.5095V19.7208H31.5334V19.7128H31.5572V19.7047H31.5811V19.6966H31.6129V19.6885H31.6368V19.6805H31.6607V19.6724H31.6925V19.6643H31.7164V19.6562H31.7482V19.6482H31.7801V19.6401H31.8119V19.632H31.8437V19.6239H31.8756V19.6159H31.8995V19.6078H31.9313V19.5997H31.9631V19.5916H31.995V19.5835H32.0268V19.5755H32.0586V19.5674H32.0825V19.5755H32.0984V19.5674H32.1382V19.5593H32.178V19.5512H32.2337V19.5432H32.2815V19.5351H32.3292V19.527H32.377V19.5189H32.4327V19.5109H32.4884V19.5028H32.568V19.4947H32.6476V19.4866H32.7192V19.4786H32.7988V19.4705H32.8863V19.4624H33.0933V19.4543H33.6344V19.4624H33.8175V19.4705H33.913V19.4786H34.0085V19.4866H34.104V19.4947H34.1995V19.5028H34.2632V19.5109H34.3189V19.5189H34.3746V19.527H34.4303V19.5351H34.486V19.5432H34.5497V19.5512H34.6054V19.5593H34.6611V19.5674H34.7089V19.5755H34.7487V19.5835H34.7885V19.5916H34.8282V19.5997H34.868V19.6078H34.9078V19.6159H34.9476V19.6239H34.9874V19.632H35.0272V19.6401H35.067V19.6482H35.1068V19.6562H35.1466V19.6643H35.1784V19.6724H35.2103V19.6805H35.2421V19.6885H35.2819V19.6966H35.3137V19.7047H35.3456V19.7128H35.3774V19.7208H35.4092V19.7289H35.4411V19.737H35.4729V19.7451H35.5047V19.7531H35.5366V19.7612H35.5604V19.7693H35.5923V19.7774H35.6162V19.7855H35.648V19.7935H35.6719V19.8016H35.7037V19.8097H35.7276V19.8178H35.7515V19.8258H35.7753V19.8339H35.8072V19.842H35.831V19.8501H35.8549V19.8581H35.8788V19.8662H35.9106V19.8743H35.9345V19.8824H35.9584V19.8904H35.9823V19.8985H36.0061V19.9066H36.03V19.9147H36.0539V19.9228H36.0778V19.9308H36.0937V19.9389H36.1176V19.947H36.1414V19.9551H36.1653V19.9631H36.1892V19.9712H36.2131V19.9793H36.229V19.9874H36.2528V19.9954H36.2767V20.0035H36.2926V20.0116H36.3165V20.0197H36.3404V20.0277H36.3643V20.0358H36.3802V20.0439H36.4041V20.052H36.42V20.06H36.4439V20.0681H36.4598V20.0762H36.4836V20.0843H36.4996V20.0924H36.5234V20.1004H36.5394V20.1085H36.5632V20.1166H36.5792V20.1247H36.603V20.1327H36.6189V20.1408H36.6428V20.1489H36.6587V20.157H36.6747V20.165H36.6906V20.1731H36.7145V20.1812H36.7304V20.1893H36.7463V20.1973H36.7702V20.2054H36.7861V20.2135H36.802V20.2216H36.8259V20.2296H36.8418V20.2377H36.8577V20.2458H36.8736V20.2539H36.8895V20.262H36.9055V20.27H36.9293V20.2781H36.9453V20.2862H36.9612V20.2943H36.9771V20.3023H36.993V20.3104H37.0089V20.3185H37.0248V20.3266H37.0408V20.3346H37.0567V20.3427H37.0805V20.3508H37.0965V20.3589H37.1044V20.3669H37.1203V20.375H37.1363V20.3831H37.1522V20.3912H37.1681V20.3993H37.184V20.4073H37.1999V20.4154H37.2158V20.4235H37.2318V20.4316H37.2477V20.4396H37.2636V20.4477H37.2795V20.4558H37.2954V20.4639H37.3114V20.4719H37.3273V20.48H37.3352V20.4881H37.3511V20.4962H37.3671V20.5042H37.383V20.5123H37.3989V20.5204H37.4069V20.5285H37.4228V20.5365H37.4387V20.5446H37.4546V20.5527H37.4705V20.5608H37.4864V20.5689H37.4944V20.5769H37.5103V20.585H37.5262V20.5931H37.5422V20.6012H37.5501V20.6092H37.566V20.6173H37.5819V20.6254H37.5899V20.6335H37.6058V20.6415H37.6217V20.6496H37.6297V20.6577H37.6456V20.6658H37.6615V20.6738H37.6695V20.6819H37.6854V20.69H37.7013V20.6981H37.7093V20.7061H37.7252V20.7142H37.7411V20.7223H37.7491V20.7304H37.765V20.7385H37.773V20.7465H37.7889V20.7546H37.7968V20.7627H37.8127V20.7708H37.8287V20.7788H37.8366V20.7869H37.8525V20.795H37.8605V20.8031H37.8764V20.8111H37.8844V20.8192H37.9003V20.8273H37.9083V20.8354H37.9242V20.8434H37.9321V20.8515H37.948V20.8596H37.956V20.8677H37.9719V20.8758H37.9799V20.8838H37.9958V20.8919H38.0038V20.9H38.0197V20.9081H38.0276V20.9161H38.0435V20.9242H38.0515V20.9323H38.0595V20.9404H38.0754V20.9484H38.0833V20.9565H38.0993V20.9646H38.1072V20.9727H38.1231V20.9807H38.1311V20.9888H38.1391V20.9969H38.155V21.005H38.1629V21.013H38.1709V21.0211H38.1868V21.0292H38.1948V21.0373H38.2027V21.0454H38.2186V21.0534H38.2266V21.0615H38.2346V21.0696H38.2505V21.0777H38.2584V21.0857H38.2743V21.0938H38.2823V21.1019H38.2903V21.11H38.2982V21.118H38.3141V21.1261H38.3221V21.1342H38.3301V21.1423H38.338V21.1503H38.3539V21.1584H38.3619V21.1665H38.3699V21.1746H38.3778V21.1826H38.3937V21.1907H38.4017V21.1988H38.4096V21.2069H38.4176V21.215H38.4335V21.223H38.4415V21.2311H38.4494V21.2392H38.4574V21.2473H38.4733V21.2553H38.4813V21.2634H38.4892V21.2715H38.4972V21.2796H38.5051V21.2876H38.5131V21.2957H38.529V21.3038H38.537V21.3119H38.5449V21.3199H38.5529V21.328H38.5609V21.3361H38.5688V21.3442H38.5847V21.3523H38.5927V21.3603H38.6007V21.3684H38.6086V21.3765H38.6166V21.3846H38.6245V21.3926H38.6325V21.4007H38.6404V21.4088H38.6564V21.4169H38.6643V21.4249H38.6723V21.433H38.6802V21.4411H38.6882V21.4492H38.6962V21.4572H38.7041V21.4653H38.7121V21.4734H38.72V21.4815H38.728V21.4895H38.736V21.4976H38.7519V21.5057H38.7598V21.5138H38.7678V21.5219H38.7757V21.5299H38.7837V21.538H38.7917V21.5461H38.7996V21.5542H38.8076V21.5622H38.8155V21.5703H38.8235V21.5784H38.8315V21.5865H38.8394V21.5945H38.8474V21.6026H38.8553V21.6107H38.8633V21.6188H38.8713V21.6268H38.8792V21.6349H38.8872V21.643H38.8951V21.6511H38.9031V21.6591H38.911V21.6511H38.919V21.6591H38.927V21.6672H38.9349V21.6753H38.9429V21.6915H38.9508V21.6995H38.9588V21.7076H38.9668V21.7157H38.9747V21.7238H38.9827V21.7399H38.9906V21.748H38.9986V21.7561H39.0065V21.7641H39.0145V21.7803H39.0225V21.7884H39.0304V21.7964H39.0384V21.8045H39.0463V21.8126H39.0543V21.8288H39.0623V21.8368H39.0702V21.8449H39.0782V21.853H39.0861V21.8611H39.0941V21.8772H39.1021V21.8853H39.11V21.8934H39.118V21.9014H39.1259V21.9095H39.1339V21.9176H39.1418V21.9337H39.1498V21.9418H39.1578V21.9499H39.1657V21.958H39.1737V21.9741H39.1816V21.9822H39.1896V21.9903H39.1976V21.9984H39.2055V22.0145H39.2135V22.0226H39.2214V22.0307H39.2294V22.0468H39.2373V22.0549H39.2453V22.063H39.2533V22.071H39.2612V22.0872H39.2692V22.0953H39.2771V22.1114H39.2851V22.1195H39.2931V22.1357H39.301V22.1437H39.309V22.1518H39.3169V22.168H39.3249V22.176H39.3329V22.1922H39.3408V22.2003H39.3488V22.2164H39.3567V22.2245H39.3647V22.2326H39.3726V22.2487H39.3806V22.2568H39.3886V22.2729H39.3965V22.281H39.4045V22.2972H39.4124V22.3133H39.4204V22.3214H39.4284V22.3376H39.4363V22.3537H39.4443V22.3618H39.4522V22.3779H39.4602V22.3941H39.4682V22.4022H39.4761V22.4183H39.4841V22.4345H39.492V22.4425H39.5V22.4587H39.5079V22.4749H39.5159V22.4829H39.5239V22.4991H39.5318V22.5152H39.5398V22.5314H39.5477V22.5475H39.5557V22.5637H39.5637V22.5798H39.5716V22.596H39.5796V22.6122H39.5875V22.6283H39.5955V22.6445H39.6034V22.6525H39.6114V22.6687H39.6194V22.6929H39.6273V22.7091H39.6353V22.7252H39.6432V22.7091H39.6512V22.6848H39.6592V22.6606H39.6671V22.6445H39.6751V22.6283H39.683V22.6041H39.691V22.5879H39.699V22.5718H39.7069V22.5556H39.7149V22.5314H39.7228V22.5152H39.7308V22.4991H39.7387V22.4749H39.7467V22.4587H39.7547V22.4425H39.7626V22.4264H39.7706V22.4102H39.7785V22.3941H39.7865V22.3779H39.7945V22.3618H39.8024V22.3456H39.8104V22.3295H39.8183V22.3133H39.8263V22.3053H39.8342V22.2891H39.8422V22.2729H39.8502V22.2568H39.8581V22.2406H39.8661V22.2245H39.874V22.2083H39.882V22.1922H39.89V22.176H39.8979V22.1599H39.9059V22.1518H39.9138V22.1357H39.9218V22.1195H39.9298V22.1114H39.9377V22.0953H39.9457V22.0872H39.9536V22.071H39.9616V22.063H39.9695V22.0468H39.9775V22.0307H39.9855V22.0226H39.9934V22.0064H40.0014V21.9984H40.0093V21.9822H40.0173V21.966H40.0253V21.958H40.0332V21.9418H40.0412V21.9337H40.0491V21.9176H40.0571V21.9014H40.065V21.8934H40.073V21.8772H40.081V21.8691H40.0889V21.8611H40.0969V21.8449H40.1048V21.8368H40.1128V21.8288H40.1208V21.8126H40.1287V21.8045H40.1367V21.7964H40.1446V21.7803H40.1526V21.7722H40.1606V21.7641H40.1685V21.748H40.1765V21.7399H40.1844V21.7318H40.1924V21.7157H40.2003V21.7076H40.2083V21.6995H40.2163V21.6834H40.2242V21.6753H40.2322V21.6672H40.2401V21.6511H40.2481V21.643H40.2561V21.6349H40.264V21.6188H40.272V21.6107H40.2799V21.6026H40.2879V21.5945H40.2959V21.5865H40.3038V21.5784H40.3118V21.5703H40.3197V21.5542H40.3277V21.5461H40.3356V21.538H40.3436V21.5299H40.3516V21.5219H40.3595V21.5138H40.3675V21.5057H40.3754V21.4895H40.3834V21.4815H40.3914V21.4734H40.3993V21.4653H40.4073V21.4572H40.4152V21.4492H40.4232V21.4411H40.4311V21.4249H40.4391V21.4169H40.4471V21.4088H40.455V21.4007H40.463V21.3926H40.4709V21.3846H40.4789V21.3765H40.4869V21.3684H40.4948V21.3603H40.5028V21.3523H40.5107V21.3442H40.5187V21.3361H40.5267V21.328H40.5346V21.3199H40.5426V21.3119H40.5505V21.3038H40.5585V21.2957H40.5664V21.2876H40.5744V21.2796H40.5824V21.2715H40.5903V21.2634H40.5983V21.2553H40.6062V21.2473H40.6142V21.2392H40.6222V21.2311H40.6301V21.223H40.6381V21.215H40.646V21.2069H40.654V21.1988H40.6619V21.1907H40.6699V21.1826H40.6779V21.1746H40.6858V21.1665H40.6938V21.1584H40.7017V21.1503H40.7097V21.1423H40.7177V21.1342H40.7336V21.1261H40.7415V21.118H40.7495V21.11H40.7575V21.1019H40.7654V21.0938H40.7813V21.0857H40.7893V21.0777H40.7972V21.0696H40.8052V21.0615H40.8132V21.0534H40.8211V21.0454H40.837V21.0373H40.845V21.0292H40.853V21.0211H40.8609V21.013H40.8689V21.005H40.8768V20.9969H40.8928V20.9888H40.9007V20.9807H40.9087V20.9727H40.9166V20.9646H40.9246V20.9565H40.9405V20.9484H40.9485V20.9404H40.9564V20.9323H40.9644V20.9242H40.9723V20.9161H40.9883V20.9081H40.9962V20.9H41.0121V20.8919H41.0201V20.8838H41.028V20.8758H41.044V20.8677H41.0519V20.8596H41.0599V20.8515H41.0758V20.8434H41.0838V20.8354H41.0917V20.8273H41.1076V20.8192H41.1156V20.8111H41.1315V20.8031H41.1395V20.795H41.1474V20.7869H41.1633V20.7788H41.1713V20.7708H41.1793V20.7627H41.1952V20.7546H41.2031V20.7465H41.2111V20.7385H41.227V20.7304H41.235V20.7223H41.2509V20.7142H41.2589V20.7061H41.2748V20.6981H41.2827V20.69H41.2986V20.6819H41.3146V20.6738H41.3225V20.6658H41.3384V20.6577H41.3464V20.6496H41.3623V20.6415H41.3782V20.6335H41.3862V20.6254H41.4021V20.6173H41.4101V20.6092H41.426V20.6012H41.4339V20.5931H41.4499V20.585H41.4658V20.5769H41.4737V20.5689H41.4897V20.5608H41.4976V20.5527H41.5135V20.5446H41.5294V20.5365H41.5374V20.5285H41.5533V20.5204H41.5692V20.5123H41.5852V20.5042H41.6011V20.4962H41.617V20.4881H41.6329V20.48H41.6409V20.4719H41.6568V20.4639H41.6727V20.4558H41.6886V20.4477H41.7045V20.4396H41.7205V20.4316H41.7284V20.4235H41.7443V20.4154H41.7602V20.4073H41.7762V20.3993H41.7921V20.3912H41.808V20.3831H41.8239V20.375H41.8398V20.3669H41.8558V20.3589H41.8717V20.3508H41.8876V20.3427H41.9035V20.3346H41.9194V20.3266H41.9433V20.3185H41.9592V20.3104H41.9751V20.3023H41.991V20.2943H42.007V20.2862H42.0308V20.2781H42.0468V20.27H42.0627V20.262H42.0786V20.2539H42.0945V20.2458H42.1104V20.2377H42.1343V20.2296H42.1502V20.2216H42.1741V20.2135H42.19V20.2054H42.2139V20.1973H42.2298V20.1893H42.2537V20.1812H42.2776V20.1731H42.2935V20.165H42.3174V20.157H42.3412V20.1489H42.3571V20.1408H42.381V20.1327H42.3969V20.1247H42.4208V20.1166H42.4447V20.1085H42.4606V20.1004H42.4845V20.0924H42.5084V20.0843H42.5402V20.0762H42.5641V20.0681H42.5879V20.06H42.6118V20.052H42.6437V20.0439H42.6675V20.0358H42.6914V20.0277H42.7153V20.0197H42.7471V20.0116H42.771V20.0035H42.7949V19.9954H42.8187V19.9874H42.8506V19.9793H42.8904V19.9712H42.9222V19.9631H42.954V19.9551H42.9859V19.947H43.0177V19.9389H43.0575V19.9308H43.0893V19.9228H43.1212V19.9147H43.153V19.9066H43.1928V19.8985H43.2406V19.8904H43.2803V19.8824H43.3281V19.8743H43.3759V19.8662H43.4236V19.8581H43.4714V19.8501H43.5191V19.842H43.5669V19.8339H43.6385V19.8258H43.7022V19.8178H43.7738V19.8097H43.8534V19.8016H44.0364V19.8581H44.0285V20.3023H44.0205V21.118H44.0126V21.9418H44.0046V34.9931H43.9966V35.4292H43.9887V35.6311H43.9807V35.8249H43.9728V36.0026H43.9648V36.1157H43.9568V36.2288H43.9489V36.3418H43.9409V36.463H43.933V36.5518H43.925V36.6326H43.917V36.7133H43.9091V36.786H43.9011V36.8668H43.8932V36.9475H43.8852V37.0283H43.8773V37.0848H43.8693V37.1414H43.8613V37.206H43.8534V37.2625H43.8454V37.3191H43.8375V37.3756H43.8295V37.4402H43.8215V37.4967H43.8136V37.5533H43.8056V37.5936H43.7977V37.6421H43.7897V37.6906H43.7817V37.7309H43.7738V37.7794H43.7658V37.8279H43.7579V37.8682H43.7499V37.9167H43.742V37.9652H43.734V38.0136H43.726V38.054H43.7181V38.0863H43.7101V38.1267H43.7022V38.159H43.6942V38.1994H43.6862V38.2398H43.6783V38.2721H43.6703V38.3124H43.6624V38.3447H43.6544V38.3851H43.6465V38.4255H43.6385V38.4578H43.6305V38.4982H43.6226V38.5305H43.6146V38.5628H43.6067V38.587H43.5987V38.6193H43.5907V38.6516H43.5828V38.6839H43.5748V38.7163H43.5669V38.7405H43.5589V38.7728H43.5509V38.8051H43.543V38.8374H43.535V38.8616H43.5271V38.8939H43.5191V38.9262H43.5112V38.9585H43.5032V38.9828H43.4952V39.007H43.4873V39.0393H43.4793V39.0635H43.4714V39.0878H43.4634V39.112H43.4554V39.1362H43.4475V39.1685H43.4395V39.1928H43.4316V39.217H43.4236V39.2412H43.4156V39.2654H43.4077V39.2897H43.3997V39.322H43.3918V39.3462H43.3838V39.3704H43.3759V39.3947H43.3679V39.4189H43.3599V39.4431H43.352V39.4673H43.344V39.4835H43.3361V39.5077H43.3281V39.532H43.3201V39.5481H43.3122V39.5723H43.3042V39.5966H43.2963V39.6208H43.2883V39.6369H43.2803V39.6612H43.2724V39.6854H43.2644V39.7016H43.2565V39.7258H43.2485V39.75H43.2406V39.7662H43.2326V39.7904H43.2246V39.8146H43.2167V39.8389H43.2087V39.855H43.2008V39.8712H43.1928V39.8954H43.1848V39.9115H43.1769V39.9277H43.1689V39.9519H43.161V39.9681H43.153V39.9842H43.1451V40.0085H43.1371V40.0246H43.1291V40.0408H43.1212V40.0569H43.1132V40.0811H43.1053V40.0973H43.0973V40.1134H43.0893V40.1377H43.0814V40.1538H43.0734V40.17H43.0655V40.1942H43.0575V40.2104H43.0496V40.2265H43.0416V40.2507H43.0336V40.2669H43.0257V40.283H43.0177V40.2992H43.0098V40.3154H43.0018V40.3315H42.9938V40.3477H42.9859V40.3638H42.9779V40.38H42.97V40.3961H42.962V40.4123H42.954V40.4284H42.9461V40.4446H42.9381V40.4607H42.9302V40.4769H42.9222V40.493H42.9143V40.5092H42.9063V40.5253H42.8983V40.5415H42.8904V40.5576H42.8824V40.5738H42.8745V40.5899H42.8665V40.6061H42.8585V40.6223H42.8506V40.6384H42.8426V40.6546H42.8347V40.6626H42.8267V40.6788H42.8187V40.6949H42.8108V40.7111H42.8028V40.7192H42.7949V40.7353H42.7869V40.7515H42.779V40.7595H42.771V40.7757H42.763V40.7919H42.7551V40.808H42.7471V40.8161H42.7392V40.8322H42.7312V40.8484H42.7232V40.8645H42.7153V40.8726H42.7073V40.8888H42.6994V40.9049H42.6914V40.9211H42.6835V40.9292H42.6755V40.9453H42.6675V40.9615H42.6596V40.9776H42.6516V40.9857H42.6437V41.0018H42.6357V41.018H42.6277V41.0261H42.6198V41.0422H42.6118V41.0503H42.6039V41.0664H42.5959V41.0745H42.5879V41.0907H42.58V41.0988H42.572V41.1149H42.5641V41.123H42.5561V41.1391H42.5482V41.1472H42.5402V41.1634H42.5322V41.1714H42.5243V41.1876H42.5163V41.2037H42.5084V41.2118H42.5004V41.228H42.4924V41.236H42.4845V41.2522H42.4765V41.2603H42.4686V41.2764H42.4606V41.2845H42.4527V41.3007H42.4447V41.3087H42.4367V41.3249H42.4288V41.333H42.4208V41.3491H42.4129V41.3572H42.4049V41.3733H42.3969V41.3814H42.389V41.3895H42.381V41.4057H42.3731V41.4137H42.3651V41.4218H42.3571V41.438H42.3492V41.446H42.3412V41.4541H42.3333V41.4703H42.3253V41.4783H42.3174V41.4864H42.3094V41.5026H42.3014V41.5106H42.2935V41.5187H42.2855V41.5349H42.2776V41.5429H42.2696V41.551H42.2616V41.5672H42.2537V41.5753H42.2457V41.5833H42.2378V41.5995H42.2298V41.6076H42.2218V41.6156H42.2139V41.6318H42.2059V41.6399H42.198V41.6479H42.19V41.6641H42.1821V41.6722H42.1741V41.6802H42.1661V41.6964H42.1582V41.7045H42.1502V41.7126H42.1423V41.7206H42.1343V41.7287H42.1263V41.7449H42.1184V41.7529H42.1104V41.761H42.1025V41.7691H42.0945V41.7772H42.0865V41.7852H42.0786V41.8014H42.0706V41.8095H42.0627V41.8175H42.0547V41.8256H42.0468V41.8337H42.0388V41.8418H42.0308V41.8579H42.0229V41.866H42.0149V41.8741H42.007V41.8822H41.999V41.8902H41.991V41.8983H41.9831V41.9145H41.9751V41.9225H41.9672V41.9306H41.9592V41.9387H41.9513V41.9468H41.9433V41.9548H41.9353V41.9629H41.9274V41.9791H41.9194V41.9871H41.9115V41.9952H41.9035V42.0033H41.8955V42.0114H41.8876V42.0194H41.8796V42.0356H41.8717V42.0437H41.8637V42.0518H41.8558V42.0598H41.8478V42.0679H41.8398V42.076H41.8319V42.0841H41.8239V42.0921H41.816V42.1002H41.808V42.1083H41.8V42.1164H41.7921V42.1244H41.7841V42.1325H41.7762V42.1406H41.7682V42.1487H41.7602V42.1567H41.7523V42.1648H41.7443V42.1729H41.7364V42.181H41.7284V42.1891H41.7205V42.1971H41.7125V42.2052H41.7045V42.2133H41.6966V42.2214H41.6886V42.2294H41.6807V42.2375H41.6727V42.2456H41.6647V42.2537H41.6568V42.2617H41.6488V42.2698H41.6409V42.2779H41.6329V42.286H41.6249V42.294H41.617V42.3021H41.609V42.3102H41.6011V42.3183H41.5931V42.3263H41.5852V42.3344H41.5772V42.3425H41.5692V42.3506H41.5613V42.3587H41.5533V42.3667H41.5454V42.3748H41.5294V42.3829H41.5215V42.391H41.5135V42.399H41.5056V42.4071H41.4976V42.4152H41.4897V42.4233H41.4817V42.4313H41.4737V42.4394H41.4578V42.4475H41.4499V42.4556H41.4419V42.4636H41.4339V42.4717H41.426V42.4798H41.418V42.4879H41.4101V42.4959H41.4021V42.504H41.3941V42.5121H41.3782V42.5202H41.3703V42.5283H41.3623V42.5363H41.3544V42.5444H41.3464V42.5525H41.3384V42.5606H41.3305V42.5686H41.3225V42.5767H41.3066V42.5848H41.2986V42.5929H41.2907V42.6009H41.2827V42.609H41.2748V42.6171H41.2668V42.6252H41.2509V42.6332H41.2429V42.6413H41.235V42.6494H41.227V42.6575H41.2111V42.6656H41.2031V42.6736H41.1952V42.6817H41.1793V42.6898H41.1713V42.6979H41.1633V42.7059H41.1554V42.714H41.1395V42.7221H41.1315V42.7302H41.1236V42.7382H41.1076V42.7463H41.0997V42.7544H41.0917V42.7625H41.0838V42.7705H41.0678V42.7786H41.0599V42.7867H41.0519V42.7948H41.036V42.8028H41.028V42.8109H41.0201V42.819H41.0121V42.8271H40.9962V42.8352H40.9883V42.8432H40.9803V42.8513H40.9723V42.8594H40.9564V42.8675H40.9485V42.8755H40.9405V42.8836H40.9246V42.8917H40.9166V42.8998H40.9007V42.9078H40.8928V42.9159H40.8768V42.924H40.8689V42.9321H40.853V42.9401H40.845V42.9482H40.8291V42.9563H40.8211V42.9644H40.8052V42.9724H40.7972V42.9805H40.7813V42.9886H40.7734V42.9967H40.7654V43.0048H40.7495V43.0128H40.7415V43.0209H40.7256V43.029H40.7177V43.0371H40.7017V43.0451H40.6938V43.0532H40.6779V43.0613H40.6699V43.0694H40.654V43.0774H40.646V43.0855H40.6301V43.0936H40.6222V43.1017H40.6062V43.1097H40.5983V43.1178H40.5903V43.1259H40.5744V43.134H40.5585V43.1421H40.5426V43.1501H40.5346V43.1582H40.5187V43.1663H40.5028V43.1744H40.4948V43.1824H40.4789V43.1905H40.463V43.1986H40.455V43.2067H40.4391V43.2147H40.4232V43.2228H40.4152V43.2309H40.3993V43.239H40.3834V43.247H40.3754V43.2551H40.3595V43.2632H40.3436V43.2713H40.3277V43.2793H40.3197V43.2874H40.3038V43.2955H40.2879V43.3036H40.2799V43.3117H40.264V43.3197H40.2481V43.3278H40.2401V43.3359H40.2242V43.344H40.2083V43.352H40.1924V43.3601H40.1765V43.3682H40.1606V43.3763H40.1526V43.3843H40.1367V43.3924H40.1208V43.4005H40.1048V43.4086H40.0889V43.4166H40.073V43.4247H40.0571V43.4328H40.0412V43.4409H40.0253V43.449H40.0093V43.457H39.9934V43.4651H39.9775V43.4732H39.9616V43.4813H39.9457V43.4893H39.9298V43.4974H39.9138V43.5055H39.8979V43.5136H39.882V43.5216H39.8661V43.5297H39.8502V43.5378H39.8342V43.5459H39.8263V43.5539H39.8104V43.562H39.7865V43.5701H39.7706V43.5782H39.7547V43.5862H39.7308V43.5943H39.7149V43.6024H39.699V43.6105H39.683V43.6186H39.6592V43.6266H39.6432V43.6347H39.6273V43.6428H39.6114V43.6509H39.5875V43.6589H39.5716V43.667H39.5557V43.6751H39.5318V43.6832H39.5159V43.6912H39.5V43.6993H39.4841V43.7074H39.4602V43.7155H39.4443V43.7235H39.4284V43.7316H39.4124V43.7397H39.3886V43.7478H39.3726V43.7558H39.3488V43.7639H39.3249V43.772H39.309V43.7801H39.2851V43.7882H39.2612V43.7962H39.2453V43.8043H39.2214V43.8124H39.1976V43.8205H39.1816V43.8285H39.1578V43.8366H39.1339V43.8447H39.118V43.8528H39.0941V43.8608H39.0702V43.8689H39.0543V43.877H39.0304V43.8851H39.0065V43.8931H38.9906V43.9012H38.9668V43.9093H38.9429V43.9174H38.919V43.9255H38.8951V43.9335H38.8713V43.9416H38.8474V43.9497H38.8235V43.9578H38.7996V43.9658H38.7678V43.9739H38.7439V43.982H38.72V43.9901H38.6962V43.9981H38.6723V44.0062H38.6484V44.0143H38.6166V44.0224H38.5927V44.0304H38.5688V44.0385H38.5449V44.0466H38.5211V44.0547H38.4892V44.0627H38.4654V44.0708H38.4415V44.0789H38.4096V44.087H38.3778V44.0951H38.346V44.1031H38.3141V44.1112H38.2823V44.1193H38.2584V44.1274H38.2266V44.1354H38.1948V44.1435H38.1629V44.1516H38.1311V44.1597H38.0993V44.1677H38.0754V44.1758H38.0435V44.1839H38.0117V44.192H37.9799V44.2H37.948V44.2081H37.9083V44.2162H37.8685V44.2243H37.8287V44.2323H37.7968V44.2404H37.757V44.2485H37.7172V44.2566H37.6775V44.2647H37.6456V44.2727H37.6058V44.2808H37.566V44.2889H37.5262V44.297H37.4944V44.305H37.4546V44.3131H37.4069V44.3212H37.3591V44.3293H37.3114V44.3373H37.2636V44.3454H37.2158V44.3535H37.1681V44.3616H37.1203V44.3696H37.0726V44.3777H37.0248V44.3858H36.9771V44.3939H36.9214V44.402H36.8657V44.41H36.802V44.4181H36.7383V44.4262H36.6747V44.4343H36.611V44.4423H36.5473V44.4504H36.4836V44.4585H36.412V44.4666H36.3484V44.4746H36.2608V44.4827H36.1653V44.4908H36.0778V44.4989H35.9823V44.5069H35.8867V44.515H35.7912V44.5231H35.6639V44.5312H35.5047V44.5392H35.3376V44.5473H35.1784V44.5554H34.868V44.5635H34.104ZM11 36.8345V15.8685H11.008V15.7958H11.0159V15.7312H11.0239V15.6746H11.0318V15.6262H11.0398V15.5696H11.0478V15.5293H11.0557V15.4889H11.0637V15.4485H11.0716V15.4081H11.0796V15.3758H11.0875V15.3435H11.0955V15.3112H11.1035V15.2789H11.1114V15.2466H11.1194V15.2143H11.1273V15.1901H11.1353V15.1658H11.1433V15.1335H11.1512V15.1093H11.1592V15.0851H11.1671V15.0608H11.1751V15.0366H11.183V15.0124H11.191V14.9881H11.199V14.9639H11.2069V14.9397H11.2149V14.9235H11.2228V14.8993H11.2308V14.8751H11.2388V14.8508H11.2467V14.8347H11.2547V14.8105H11.2626V14.7943H11.2706V14.7782H11.2786V14.7539H11.2865V14.7378H11.2945V14.7216H11.3024V14.6974H11.3104V14.6812H11.3183V14.6651H11.3263V14.6489H11.3343V14.6328H11.3422V14.6086H11.3502V14.5924H11.3581V14.5763H11.3661V14.5601H11.3741V14.5439H11.382V14.5278H11.39V14.5116H11.3979V14.4955H11.4059V14.4793H11.4139V14.4632H11.4218V14.447H11.4298V14.439H11.4377V14.4228H11.4457V14.4067H11.4536V14.3905H11.4616V14.3743H11.4696V14.3582H11.4775V14.3501H11.4855V14.334H11.4934V14.3178H11.5014V14.3017H11.5094V14.2936H11.5173V14.2774H11.5253V14.2613H11.5332V14.2532H11.5412V14.237H11.5491V14.229H11.5571V14.2128H11.5651V14.1967H11.573V14.1886H11.581V14.1724H11.5889V14.1563H11.5969V14.1482H11.6049V14.1321H11.6128V14.124H11.6208V14.1078H11.6287V14.0998H11.6367V14.0836H11.6447V14.0755H11.6526V14.0594H11.6606V14.0513H11.6685V14.0432H11.6765V14.0271H11.6844V14.019H11.6924V14.0028H11.7004V13.9948H11.7083V13.9786H11.7163V13.9705H11.7242V13.9625H11.7322V13.9463H11.7402V13.9382H11.7481V13.9302H11.7561V13.914H11.764V13.9059H11.772V13.8978H11.7799V13.8817H11.7879V13.8736H11.7959V13.8655H11.8038V13.8494H11.8118V13.8413H11.8197V13.8332H11.8277V13.8252H11.8357V13.809H11.8436V13.8009H11.8516V13.7929H11.8595V13.7848H11.8675V13.7686H11.8755V13.7605H11.8834V13.7525H11.8914V13.7444H11.8993V13.7363H11.9073V13.7202H11.9152V13.7121H11.9232V13.704H11.9312V13.6959H11.9391V13.6879H11.9471V13.6717H11.955V13.6636H11.963V13.6556H11.971V13.6475H11.9789V13.6394H11.9869V13.6313H11.9948V13.6233H12.0028V13.6152H12.0108V13.6071H12.0187V13.5909H12.0267V13.5829H12.0346V13.5748H12.0426V13.5667H12.0505V13.5586H12.0585V13.5506H12.0665V13.5425H12.0744V13.5344H12.0824V13.5263H12.0903V13.5183H12.0983V13.5102H12.1063V13.5021H12.1142V13.494H12.1222V13.486H12.1301V13.4779H12.1381V13.4698H12.146V13.4617H12.154V13.4537H12.162V13.4456H12.1699V13.4375H12.1779V13.4294H12.1858V13.4213H12.1938V13.4133H12.2018V13.4052H12.2097V13.3971H12.2177V13.389H12.2256V13.381H12.2336V13.3729H12.2416V13.3648H12.2495V13.3567H12.2575V13.3487H12.2654V13.3406H12.2734V13.3325H12.2813V13.3244H12.2893V13.3164H12.2973V13.3083H12.3132V13.3002H12.3211V13.2921H12.3291V13.284H12.3371V13.276H12.345V13.2679H12.353V13.2598H12.3609V13.2517H12.3689V13.2437H12.3848V13.2356H12.3928V13.2275H12.4007V13.2194H12.4087V13.2114H12.4166V13.2033H12.4246V13.1952H12.4405V13.1871H12.4485V13.1791H12.4564V13.171H12.4644V13.1629H12.4724V13.1548H12.4803V13.1468H12.4962V13.1387H12.5042V13.1306H12.5121V13.1225H12.5281V13.1144H12.536V13.1064H12.544V13.0983H12.5519V13.0902H12.5679V13.0821H12.5758V13.0741H12.5838V13.066H12.5917V13.0579H12.6077V13.0498H12.6156V13.0418H12.6236V13.0337H12.6395V13.0256H12.6474V13.0175H12.6554V13.0095H12.6713V13.0014H12.6793V12.9933H12.6952V12.9852H12.7032V12.9771H12.7111V12.9691H12.727V12.961H12.735V12.9529H12.7509V12.9448H12.7589V12.9368H12.7668V12.9287H12.7827V12.9206H12.7907V12.9125H12.8066V12.9045H12.8146V12.8964H12.8305V12.8883H12.8385V12.8802H12.8544V12.8722H12.8623V12.8641H12.8782V12.856H12.8862V12.8479H12.9021V12.8399H12.9101V12.8318H12.926V12.8237H12.934V12.8156H12.9499V12.8075H12.9578V12.7995H12.9737V12.7914H12.9897V12.7833H12.9976V12.7752H13.0135V12.7672H13.0295V12.7591H13.0454V12.751H13.0533V12.7429H13.0693V12.7349H13.0852V12.7268H13.0931V12.7187H13.109V12.7106H13.125V12.7026H13.1329V12.6945H13.1488V12.6864H13.1648V12.6783H13.1807V12.6702H13.1966V12.6622H13.2125V12.6541H13.2205V12.646H13.2364V12.6379H13.2523V12.6299H13.2682V12.6218H13.2841V12.6137H13.3001V12.6056H13.316V12.5976H13.3319V12.5895H13.3478V12.5814H13.3637V12.5733H13.3796V12.5653H13.3956V12.5572H13.4115V12.5491H13.4274V12.541H13.4433V12.533H13.4592V12.5249H13.4751V12.5168H13.4911V12.5087H13.5149V12.5006H13.5309V12.4926H13.5468V12.4845H13.5627V12.4764H13.5866V12.4683H13.6025V12.4603H13.6184V12.4522H13.6423V12.4441H13.6582V12.436H13.6741V12.428H13.698V12.4199H13.7139V12.4118H13.7378V12.4037H13.7537V12.3957H13.7776V12.3876H13.8015V12.3795H13.8174V12.3714H13.8412V12.3634H13.8572V12.3553H13.881V12.3472H13.9049V12.3391H13.9288V12.331H13.9527V12.323H13.9765V12.3149H14.0004V12.3068H14.0243V12.2987H14.0482V12.2907H14.072V12.2826H14.0959V12.2745H14.1198V12.2664H14.1516V12.2584H14.1755V12.2503H14.2073V12.2422H14.2312V12.2341H14.2551V12.2261H14.2869V12.218H14.3188V12.2099H14.3506V12.2018H14.3824V12.1938H14.4143V12.1857H14.4461V12.1776H14.4859V12.1695H14.5177V12.1614H14.5575V12.1534H14.5973V12.1453H14.6371V12.1372H14.6769V12.1291H14.7247V12.1211H14.7724V12.113H14.8202V12.1049H14.8679V12.0968H14.9236V12.0888H14.9953V12.0807H15.0589V12.0726H15.1305V12.0645H15.2261V12.0565H15.6319V36.8345H11ZM18.4732 19.8016H23.1051V36.8345H18.4732V19.8016ZM34.5895 33.4586V33.4667H35.1784V33.4586H35.3137V33.4505H35.4251V33.4424H35.5047V33.4344H35.5843V33.4263H35.6639V33.4182H35.7196V33.4101H35.7753V33.4021H35.8231V33.394H35.8788V33.3859H35.9265V33.3778H35.9743V33.3698H36.0141V33.3617H36.0539V33.3536H36.0937V33.3455H36.1335V33.3374H36.1733V33.3294H36.2051V33.3213H36.2369V33.3132H36.2688V33.3051H36.3006V33.2971H36.3404V33.289H36.3722V33.2809H36.3961V33.2728H36.4279V33.2648H36.4518V33.2567H36.4836V33.2486H36.5075V33.2405H36.5314V33.2325H36.5632V33.2244H36.5871V33.2163H36.6189V33.2082H36.6349V33.2002H36.6587V33.1921H36.6826V33.184H36.7065V33.1759H36.7304V33.1678H36.7542V33.1598H36.7702V33.1517H36.794V33.1436H36.8179V33.1355H36.8418V33.1275H36.8577V33.1194H36.8816V33.1113H36.8975V33.1032H36.9134V33.0952H36.9373V33.0871H36.9532V33.079H36.9771V33.0709H36.993V33.0629H37.0089V33.0548H37.0328V33.0467H37.0487V33.0386H37.0646V33.0306H37.0805V33.0225H37.0965V33.0144H37.1203V33.0063H37.1363V32.9982H37.1522V32.9902H37.1681V32.9821H37.184V32.974H37.1999V32.9659H37.2158V32.9579H37.2318V32.9498H37.2477V32.9417H37.2636V32.9336H37.2795V32.9256H37.2954V32.9175H37.3034V32.9094H37.3193V32.9013H37.3352V32.8933H37.3511V32.8852H37.3671V32.8771H37.375V32.869H37.3909V32.8609H37.4069V32.8529H37.4228V32.8448H37.4387V32.8367H37.4466V32.8286H37.4626V32.8206H37.4785V32.8125H37.4864V32.8044H37.5024V32.7963H37.5103V32.7883H37.5262V32.7802H37.5422V32.7721H37.5501V32.764H37.566V32.756H37.574V32.7479H37.5899V32.7398H37.5979V32.7317H37.6138V32.7237H37.6297V32.7156H37.6377V32.7075H37.6456V32.6994H37.6615V32.6913H37.6695V32.6833H37.6854V32.6752H37.6934V32.6671H37.7013V32.659H37.7172V32.651H37.7252V32.6429H37.7411V32.6348H37.7491V32.6267H37.757V32.6187H37.773V32.6106H37.7809V32.6025H37.7968V32.5944H37.8048V32.5864H37.8127V32.5783H37.8287V32.5702H37.8366V32.5621H37.8446V32.554H37.8525V32.546H37.8685V32.5379H37.8764V32.5298H37.8844V32.5217H37.8923V32.5137H37.9003V32.5056H37.9162V32.4975H37.9242V32.4894H37.9321V32.4814H37.9401V32.4733H37.956V32.4652H37.964V32.4571H37.9719V32.4491H37.9799V32.441H37.9878V32.4329H38.0038V32.4248H38.0117V32.4168H38.0197V32.4087H38.0276V32.4006H38.0356V32.3925H38.0435V32.3844H38.0515V32.3764H38.0595V32.3683H38.0674V32.3602H38.0754V32.3521H38.0833V32.3441H38.0993V32.336H38.1072V32.3279H38.1152V32.3198H38.1231V32.3118H38.1311V32.3037H38.1391V32.2956H38.147V32.2875H38.155V32.2795H38.1629V32.2714H38.1709V32.2633H38.1788V32.2552H38.1868V32.2472H38.1948V32.2391H38.2027V32.231H38.2107V32.2229H38.2186V32.2148H38.2266V32.2068H38.2346V32.1987H38.2425V32.1906H38.2505V32.1825H38.2584V32.1745H38.2664V32.1664H38.2743V32.1583H38.2823V32.1502H38.2903V32.1422H38.2982V32.126H38.3062V32.1179H38.3141V32.1099H38.3221V32.1018H38.3301V32.0937H38.338V32.0856H38.346V32.0695H38.3539V32.0614H38.3619V32.0533H38.3699V32.0452H38.3778V32.0372H38.3858V32.0291H38.3937V32.0129H38.4017V32.0049H38.4096V31.9968H38.4176V31.9887H38.4256V31.9806H38.4335V31.9726H38.4415V31.9564H38.4494V31.9483H38.4574V31.9403H38.4654V31.9241H38.4733V31.916H38.4813V31.9079H38.4892V31.8999H38.4972V31.8837H38.5051V31.8756H38.5131V31.8676H38.5211V31.8514H38.529V31.8433H38.537V31.8353H38.5449V31.8191H38.5529V31.811H38.5609V31.803H38.5688V31.7949H38.5768V31.7787H38.5847V31.7707H38.5927V31.7545H38.6007V31.7464H38.6086V31.7303H38.6166V31.7222H38.6245V31.706H38.6325V31.698H38.6404V31.6818H38.6484V31.6737H38.6564V31.6576H38.6643V31.6495H38.6723V31.6334H38.6802V31.6253H38.6882V31.6091H38.6962V31.601H38.7041V31.5849H38.7121V31.5768H38.72V31.5607H38.728V31.5445H38.736V31.5364H38.7439V31.5203H38.7519V31.5041H38.7598V31.4961H38.7678V31.4799H38.7757V31.4638H38.7837V31.4557H38.7917V31.4395H38.7996V31.4234H38.8076V31.4153H38.8155V31.3991H38.8235V31.383H38.8315V31.3668H38.8394V31.3507H38.8474V31.3345H38.8553V31.3265H38.8633V31.3103H38.8713V31.2942H38.8792V31.278H38.8872V31.2618H38.8951V31.2457H38.9031V31.2295H38.911V31.2134H38.919V31.1972H38.927V31.1811H38.9349V31.1649H38.9429V31.1488H38.9508V31.1326H38.9588V31.1165H38.9668V31.1003H38.9747V31.0842H38.9827V31.0599H38.9906V31.0438H38.9986V31.0276H39.0065V31.0115H39.0145V30.9953H39.0225V30.9792H39.0304V30.9549H39.0384V30.9388H39.0463V30.9146H39.0543V30.8984H39.0623V30.8742H39.0702V30.858H39.0782V30.8338H39.0861V30.8176H39.0941V30.7934H39.1021V30.7773H39.11V30.753H39.118V30.7369H39.1259V30.7127H39.1339V30.6884H39.1418V30.6642H39.1498V30.64H39.1578V30.6157H39.1657V30.5915H39.1737V30.5754H39.1816V30.5511H39.1896V30.5269H39.1976V30.5027H39.2055V30.4704H39.2135V30.4461H39.2214V30.4219H39.2294V30.3896H39.2373V30.3654H39.2453V30.3412H39.2533V30.3088H39.2612V30.2846H39.2692V30.2523H39.2771V30.22H39.2851V30.1877H39.2931V30.1554H39.301V30.1231H39.309V30.0908H39.3169V30.0585H39.3249V30.0262H39.3329V29.9939H39.3408V29.9535H39.3488V29.9131H39.3567V29.8727H39.3647V29.8323H39.3726V29.792H39.3806V29.7516H39.3886V29.7112H39.3965V29.6627H39.4045V29.6143H39.4124V29.5578H39.4204V29.5093H39.4284V29.4608H39.4363V29.3962H39.4443V29.3316H39.4522V29.2589H39.4602V29.1943H39.4682V29.1136H39.4761V29.0166H39.4841V28.9197H39.492V28.7905H39.5V28.6209H39.5079V27.8617H39.5V27.7002H39.492V27.5791H39.4841V27.4821H39.4761V27.3852H39.4682V27.3125H39.4602V27.2479H39.4522V27.1833H39.4443V27.1106H39.4363V27.0622H39.4284V27.0056H39.4204V26.9572H39.4124V26.9087H39.4045V26.8522H39.3965V26.8118H39.3886V26.7714H39.3806V26.7311H39.3726V26.6907H39.3647V26.6503H39.3567V26.6099H39.3488V26.5695H39.3408V26.5372H39.3329V26.5049H39.3249V26.4726H39.3169V26.4322H39.309V26.3999H39.301V26.3676H39.2931V26.3353H39.2851V26.3111H39.2771V26.2788H39.2692V26.2546H39.2612V26.2222H39.2533V26.198H39.2453V26.1657H39.2373V26.1415H39.2294V26.1092H39.2214V26.085H39.2135V26.0607H39.2055V26.0365H39.1976V26.0123H39.1896V25.988H39.1816V25.9638H39.1737V25.9396H39.1657V25.9153H39.1578V25.8911H39.1498V25.8669H39.1418V25.8427H39.1339V25.8265H39.1259V25.8023H39.118V25.7861H39.11V25.7619H39.1021V25.7457H39.0941V25.7215H39.0861V25.7054H39.0782V25.6811H39.0702V25.6569H39.0623V25.6408H39.0543V25.6246H39.0463V25.6004H39.0384V25.5842H39.0304V25.5681H39.0225V25.5519H39.0145V25.5277H39.0065V25.5115H38.9986V25.4954H38.9906V25.4792H38.9827V25.455H38.9747V25.4388H38.9668V25.4227H38.9588V25.4065H38.9508V25.3904H38.9429V25.3742H38.9349V25.3581H38.927V25.3419H38.919V25.3258H38.911V25.3096H38.9031V25.2935H38.8951V25.2773H38.8872V25.2612H38.8792V25.245H38.8713V25.2289H38.8633V25.2127H38.8553V25.2046H38.8474V25.1885H38.8394V25.1723H38.8315V25.1562H38.8235V25.1481H38.8155V25.132H38.8076V25.1158H38.7996V25.0996H38.7917V25.0916H38.7837V25.0754H38.7757V25.0593H38.7678V25.0431H38.7598V25.035H38.7519V25.0189H38.7439V25.0027H38.736V24.9947H38.728V24.9785H38.72V24.9704H38.7121V24.9543H38.7041V24.9462H38.6962V24.93H38.6882V24.922H38.6802V24.9058H38.6723V24.8897H38.6643V24.8816H38.6564V24.8654H38.6484V24.8574H38.6404V24.8412H38.6325V24.8331H38.6245V24.817H38.6166V24.8089H38.6086V24.8008H38.6007V24.7847H38.5927V24.7766H38.5847V24.7604H38.5768V24.7524H38.5688V24.7443H38.5609V24.7281H38.5529V24.7201H38.5449V24.712H38.537V24.6958H38.529V24.6878H38.5211V24.6716H38.5131V24.6635H38.5051V24.6554H38.4972V24.6393H38.4892V24.6312H38.4813V24.6231H38.4733V24.6151H38.4654V24.5989H38.4574V24.5908H38.4494V24.5828H38.4415V24.5747H38.4335V24.5666H38.4256V24.5505H38.4176V24.5424H38.4096V24.5343H38.4017V24.5262H38.3937V24.5101H38.3858V24.502H38.3778V24.4939H38.3699V24.4858H38.3619V24.4778H38.3539V24.4616H38.346V24.4535H38.338V24.4455H38.3301V24.4374H38.3221V24.4293H38.3141V24.4212H38.3062V24.4132H38.2982V24.4051H38.2903V24.397H38.2823V24.3889H38.2743V24.3809H38.2664V24.3647H38.2584V24.3566H38.2505V24.3486H38.2425V24.3405H38.2346V24.3324H38.2266V24.3243H38.2186V24.3162H38.2107V24.3082H38.2027V24.3001H38.1948V24.292H38.1868V24.2839H38.1788V24.2759H38.1709V24.2678H38.1629V24.2597H38.155V24.2516H38.147V24.2436H38.1391V24.2355H38.1311V24.2274H38.1231V24.2193H38.1152V24.2113H38.1072V24.2032H38.0993V24.1951H38.0913V24.187H38.0833V24.1789H38.0754V24.1709H38.0674V24.1628H38.0515V24.1547H38.0435V24.1466H38.0356V24.1386H38.0276V24.1305H38.0197V24.1224H38.0117V24.1143H38.0038V24.1063H37.9878V24.0982H37.9799V24.0901H37.9719V24.082H37.964V24.074H37.956V24.0659H37.948V24.0578H37.9321V24.0497H37.9242V24.0417H37.9162V24.0336H37.9083V24.0255H37.9003V24.0174H37.8923V24.0093H37.8764V24.0013H37.8685V23.9932H37.8605V23.9851H37.8446V23.977H37.8366V23.969H37.8287V23.9609H37.8127V23.9528H37.8048V23.9447H37.7968V23.9367H37.7809V23.9286H37.773V23.9205H37.765V23.9124H37.757V23.9044H37.7411V23.8963H37.7332V23.8882H37.7252V23.8801H37.7093V23.8721H37.7013V23.864H37.6854V23.8559H37.6775V23.8478H37.6615V23.8397H37.6536V23.8317H37.6377V23.8236H37.6297V23.8155H37.6138V23.8074H37.6058V23.7994H37.5899V23.7913H37.5819V23.7832H37.566V23.7751H37.5581V23.7671H37.5422V23.759H37.5342V23.7509H37.5183V23.7428H37.5103V23.7348H37.4944V23.7267H37.4785V23.7186H37.4626V23.7105H37.4546V23.7024H37.4387V23.6944H37.4228V23.6863H37.4148V23.6782H37.3989V23.6701H37.383V23.6621H37.375V23.654H37.3591V23.6459H37.3432V23.6378H37.3273V23.6298H37.3114V23.6217H37.2954V23.6136H37.2795V23.6055H37.2716V23.5975H37.2556V23.5894H37.2397V23.5813H37.2238V23.5732H37.2079V23.5652H37.192V23.5571H37.1761V23.549H37.1601V23.5409H37.1442V23.5328H37.1283V23.5248H37.1044V23.5167H37.0885V23.5086H37.0726V23.5005H37.0567V23.4925H37.0408V23.4844H37.0169V23.4763H37.001V23.4682H36.985V23.4602H36.9691V23.4521H36.9453V23.444H36.9293V23.4359H36.9055V23.4279H36.8895V23.4198H36.8657V23.4117H36.8418V23.4036H36.8259V23.3955H36.802V23.3875H36.7781V23.3794H36.7622V23.3713H36.7383V23.3632H36.7145V23.3552H36.6906V23.3471H36.6667V23.339H36.6428V23.3309H36.6189V23.3229H36.5951V23.3148H36.5712V23.3067H36.5394V23.2986H36.5155V23.2906H36.4916V23.2825H36.4598V23.2744H36.4279V23.2663H36.3961V23.2583H36.3722V23.2502H36.3404V23.2421H36.3086V23.234H36.2767V23.2259H36.2369V23.2179H36.2051V23.2098H36.1653V23.2017H36.1255V23.1936H36.0857V23.1856H36.0459V23.1775H35.9982V23.1694H35.9504V23.1613H35.9027V23.1533H35.8549V23.1452H35.7992V23.1371H35.7276V23.129H35.6559V23.121H35.5843V23.1129H35.4888V23.1048H35.3694V23.0967H35.2023V23.0886H34.8442V23.0967H34.677V23.1048H34.5656V23.1129H34.4542V23.121H34.3905V23.129H34.3269V23.1371H34.2632V23.1452H34.1995V23.1533H34.1518V23.1613H34.104V23.1694H34.0563V23.1775H34.0165V23.1856H33.9687V23.1936H33.9289V23.2017H33.8891V23.2098H33.8573V23.2179H33.8255V23.2259H33.7857V23.234H33.7538V23.2421H33.722V23.2502H33.6902V23.2583H33.6583V23.2663H33.6265V23.2744H33.6026V23.2825H33.5708V23.2906H33.5469V23.2986H33.523V23.3067H33.4912V23.3148H33.4673V23.3229H33.4355V23.3309H33.4116V23.339H33.3877V23.3471H33.3639V23.3552H33.3479V23.3632H33.3241V23.3713H33.3002V23.3794H33.2763V23.3875H33.2524V23.3955H33.2365V23.4036H33.2126V23.4117H33.1888V23.4198H33.1649V23.4279H33.149V23.4359H33.1331V23.444H33.1092V23.4521H33.0933V23.4602H33.0694V23.4682H33.0535V23.4763H33.0375V23.4844H33.0137V23.4925H32.9978V23.5005H32.9818V23.5086H32.958V23.5167H32.942V23.5248H32.9261V23.5328H32.9102V23.5409H32.8943V23.549H32.8784V23.5571H32.8625V23.5652H32.8465V23.5732H32.8306V23.5813H32.8147V23.5894H32.7988V23.5975H32.7829V23.6055H32.767V23.6136H32.751V23.6217H32.7351V23.6298H32.7192V23.6378H32.7033V23.6459H32.6874V23.654H32.6714V23.6621H32.6635V23.6701H32.6476V23.6782H32.6317V23.6863H32.6157V23.6944H32.6078V23.7024H32.5919V23.7105H32.5759V23.7186H32.56V23.7267H32.5441V23.7348H32.5362V23.7428H32.5202V23.7509H32.5043V23.759H32.4964V23.7671H32.4804V23.7751H32.4725V23.7832H32.4566V23.7913H32.4486V23.7994H32.4327V23.8074H32.4168V23.8155H32.4088V23.8236H32.3929V23.8317H32.3849V23.8397H32.369V23.8478H32.3611V23.8559H32.3451V23.864H32.3372V23.8721H32.3213V23.8801H32.3133V23.8882H32.2974V23.8963H32.2894V23.9044H32.2815V23.9124H32.2656V23.9205H32.2576V23.9286H32.2417V23.9367H32.2337V23.9447H32.2258V23.9528H32.2098V23.9609H32.2019V23.969H32.186V23.977H32.178V23.9851H32.1701V23.9932H32.1541V24.0013H32.1462V24.0093H32.1382V24.0174H32.1223V24.0255H32.1143V24.0336H32.1064V24.0417H32.0984V24.0497H32.0825V24.0578H32.0745V24.0659H32.0666V24.074H32.0586V24.082H32.0507V24.0901H32.0348V24.0982H32.0268V24.1063H32.0188V24.1143H32.0109V24.1224H31.995V24.1305H31.987V24.1386H31.979V24.1466H31.9711V24.1547H31.9631V24.1628H31.9472V24.1709H31.9393V24.1789H31.9313V24.187H31.9233V24.1951H31.9154V24.2032H31.9074V24.2113H31.8995V24.2193H31.8915V24.2274H31.8835V24.2355H31.8676V24.2436H31.8597V24.2516H31.8517V24.2597H31.8437V24.2678H31.8358V24.2759H31.8278V24.2839H31.8199V24.292H31.8119V24.3001H31.804V24.3082H31.796V24.3162H31.788V24.3243H31.7801V24.3324H31.7721V24.3405H31.7642V24.3486H31.7562V24.3566H31.7482V24.3647H31.7403V24.3728H31.7323V24.3809H31.7244V24.3889H31.7164V24.397H31.7085V24.4051H31.7005V24.4132H31.6925V24.4212H31.6846V24.4293H31.6766V24.4374H31.6687V24.4455H31.6607V24.4535H31.6527V24.4616H31.6448V24.4697H31.6368V24.4778H31.6289V24.4858H31.6209V24.4939H31.6129V24.502H31.605V24.5101H31.597V24.5182H31.5891V24.5262H31.5811V24.5424H31.5732V24.5505H31.5652V24.5585H31.5572V24.5666H31.5493V24.5747H31.5413V24.5828H31.5334V24.5908H31.5254V24.607H31.5174V24.6151H31.5095V24.6231H31.5015V24.6312H31.4936V24.6393H31.4856V24.6474H31.4776V24.6554H31.4697V24.6635H31.4617V24.6797H31.4538V24.6878H31.4458V24.6958H31.4379V24.712H31.4299V24.7201H31.4219V24.7281H31.414V24.7362H31.406V24.7524H31.3981V24.7604H31.3901V24.7685H31.3821V24.7766H31.3742V24.7927H31.3662V24.8008H31.3583V24.8089H31.3503V24.817H31.3424V24.8331H31.3344V24.8412H31.3264V24.8493H31.3185V24.8654H31.3105V24.8735H31.3026V24.8816H31.2946V24.8977H31.2866V24.9058H31.2787V24.922H31.2707V24.93H31.2628V24.9381H31.2548V24.9543H31.2468V24.9623H31.2389V24.9785H31.2309V24.9866H31.223V25.0027H31.215V25.0108H31.2071V25.0189H31.1991V25.035H31.1911V25.0431H31.1832V25.0593H31.1752V25.0673H31.1673V25.0835H31.1593V25.0916H31.1513V25.1077H31.1434V25.1239H31.1354V25.132H31.1275V25.1481H31.1195V25.1562H31.1115V25.1723H31.1036V25.1804H31.0956V25.1966H31.0877V25.2127H31.0797V25.2208H31.0718V25.2369H31.0638V25.245H31.0558V25.2612H31.0479V25.2773H31.0399V25.2935H31.032V25.3016H31.024V25.3177H31.016V25.3339H31.0081V25.35H31.0001V25.3581H30.9922V25.3742H30.9842V25.3904H30.9763V25.4065H30.9683V25.4146H30.9603V25.4308H30.9524V25.4469H30.9444V25.4631H30.9365V25.4792H30.9285V25.4954H30.9205V25.5115H30.9126V25.5277H30.9046V25.5438H30.8967V25.5519H30.8887V25.5681H30.8807V25.5842H30.8728V25.6004H30.8648V25.6165H30.8569V25.6327H30.8489V25.6488H30.841V25.665H30.833V25.6811H30.825V25.7054H30.8171V25.7215H30.8091V25.7377H30.8012V25.7538H30.7932V25.7781H30.7852V25.7942H30.7773V25.8104H30.7693V25.8265H30.7614V25.8427H30.7534V25.8669H30.7455V25.883H30.7375V25.8992H30.7295V25.9234H30.7216V25.9396H30.7136V25.9638H30.7057V25.98H30.6977V26.0042H30.6897V26.0203H30.6818V26.0446H30.6738V26.0607H30.6659V26.085H30.6579V26.1011H30.6499V26.1253H30.642V26.1496H30.634V26.1738H30.6261V26.198H30.6181V26.2222H30.6102V26.2384H30.6022V26.2626H30.5942V26.2869H30.5863V26.3111H30.5783V26.3353H30.5704V26.3595H30.5624V26.3838H30.5544V26.4161H30.5465V26.4403H30.5385V26.4645H30.5306V26.4968H30.5226V26.5211H30.5147V26.5453H30.5067V26.5776H30.4987V26.6018H30.4908V26.6341H30.4828V26.6664H30.4749V26.6987H30.4669V26.7311H30.4589V26.7634H30.451V26.7957H30.443V26.828H30.4351V26.8603H30.4271V26.9007H30.4191V26.941H30.4112V26.9733H30.4032V27.0137H30.3953V27.0541H30.3873V27.0945H30.3794V27.1429H30.3714V27.1833H30.3634V27.2318H30.3555V27.2802H30.3475V27.3287H30.3396V27.3852H30.3316V27.4498H30.3236V27.5145H30.3157V27.571H30.3077V27.6517H30.2998V27.7406H30.2918V27.8294H30.2838V27.9506H30.2759V28.0959H30.2679V28.7259H30.2759V28.8632H30.2838V28.9763H30.2918V29.0651H30.2998V29.1459H30.3077V29.2185H30.3157V29.2751H30.3236V29.3316H30.3316V29.3881H30.3396V29.4447H30.3475V29.4931H30.3555V29.5335H30.3634V29.582H30.3714V29.6224H30.3794V29.6708H30.3873V29.7112H30.3953V29.7435H30.4032V29.7839H30.4112V29.8162H30.4191V29.8566H30.4271V29.8889H30.4351V29.9212H30.443V29.9535H30.451V29.9858H30.4589V30.0181H30.4669V30.0423H30.4749V30.0746H30.4828V30.1069H30.4908V30.1312H30.4987V30.1635H30.5067V30.1877H30.5147V30.2119H30.5226V30.2362H30.5306V30.2685H30.5385V30.2927H30.5465V30.3169H30.5544V30.3412H30.5624V30.3654H30.5704V30.3896H30.5783V30.4138H30.5863V30.4381H30.5942V30.4542H30.6022V30.4784H30.6102V30.5027H30.6181V30.5188H30.6261V30.5431H30.634V30.5673H30.642V30.5915H30.6499V30.6077H30.6579V30.6319H30.6659V30.648H30.6738V30.6723H30.6818V30.6884H30.6897V30.7046H30.6977V30.7288H30.7057V30.745H30.7136V30.7611H30.7216V30.7853H30.7295V30.8015H30.7375V30.8176H30.7455V30.8419H30.7534V30.858H30.7614V30.8742H30.7693V30.8903H30.7773V30.9065H30.7852V30.9226H30.7932V30.9388H30.8012V30.9549H30.8091V30.9711H30.8171V30.9953H30.825V31.0115H30.833V31.0276H30.841V31.0438H30.8489V31.0599H30.8569V31.0761H30.8648V31.0842H30.8728V31.1003H30.8807V31.1165H30.8887V31.1326H30.8967V31.1488H30.9046V31.1649H30.9126V31.1811H30.9205V31.1892H30.9285V31.2053H30.9365V31.2215H30.9444V31.2376H30.9524V31.2538H30.9603V31.2699H30.9683V31.278H30.9763V31.2942H30.9842V31.3022H30.9922V31.3184H31.0001V31.3345H31.0081V31.3426H31.016V31.3588H31.024V31.3749H31.032V31.383H31.0399V31.3991H31.0479V31.4153H31.0558V31.4234H31.0638V31.4395H31.0718V31.4557H31.0797V31.4638H31.0877V31.4799H31.0956V31.488H31.1036V31.5041H31.1115V31.5122H31.1195V31.5284H31.1275V31.5364H31.1354V31.5526H31.1434V31.5607H31.1513V31.5768H31.1593V31.5849H31.1673V31.593H31.1752V31.6091H31.1832V31.6172H31.1911V31.6334H31.1991V31.6414H31.2071V31.6576H31.215V31.6657H31.223V31.6737H31.2309V31.6899H31.2389V31.698H31.2468V31.706H31.2548V31.7222H31.2628V31.7303H31.2707V31.7383H31.2787V31.7545H31.2866V31.7626H31.2946V31.7707H31.3026V31.7868H31.3105V31.7949H31.3185V31.803H31.3264V31.8191H31.3344V31.8272H31.3424V31.8353H31.3503V31.8433H31.3583V31.8595H31.3662V31.8676H31.3742V31.8756H31.3821V31.8837H31.3901V31.8918H31.3981V31.9079H31.406V31.916H31.414V31.9241H31.4219V31.9322H31.4299V31.9403H31.4379V31.9564H31.4458V31.9645H31.4538V31.9726H31.4617V31.9806H31.4697V31.9887H31.4776V32.0049H31.4856V32.0129H31.4936V32.021H31.5015V32.0291H31.5095V32.0372H31.5174V32.0452H31.5254V32.0533H31.5334V32.0614H31.5413V32.0695H31.5493V32.0775H31.5572V32.0856H31.5652V32.0937H31.5732V32.1099H31.5811V32.1179H31.5891V32.126H31.597V32.1341H31.605V32.1422H31.6129V32.1502H31.6209V32.1583H31.6289V32.1664H31.6368V32.1745H31.6448V32.1825H31.6527V32.1906H31.6607V32.1987H31.6687V32.2068H31.6766V32.2148H31.6846V32.2229H31.6925V32.231H31.7005V32.2391H31.7085V32.2472H31.7164V32.2552H31.7244V32.2633H31.7323V32.2714H31.7403V32.2795H31.7482V32.2875H31.7562V32.2956H31.7642V32.3037H31.7721V32.3118H31.7801V32.3198H31.796V32.3279H31.804V32.336H31.8119V32.3441H31.8199V32.3521H31.8278V32.3602H31.8358V32.3683H31.8437V32.3764H31.8597V32.3844H31.8676V32.3925H31.8756V32.4006H31.8835V32.4087H31.8915V32.4168H31.8995V32.4248H31.9074V32.4329H31.9233V32.441H31.9313V32.4491H31.9393V32.4571H31.9472V32.4652H31.9552V32.4733H31.9631V32.4814H31.979V32.4894H31.987V32.4975H31.995V32.5056H32.0109V32.5137H32.0188V32.5217H32.0268V32.5298H32.0348V32.5379H32.0507V32.546H32.0586V32.554H32.0666V32.5621H32.0825V32.5702H32.0905V32.5783H32.0984V32.5864H32.1064V32.5944H32.1223V32.6025H32.1303V32.6106H32.1382V32.6187H32.1541V32.6267H32.1621V32.6348H32.178V32.6429H32.186V32.651H32.1939V32.659H32.2098V32.6671H32.2178V32.6752H32.2337V32.6833H32.2417V32.6913H32.2576V32.6994H32.2656V32.7075H32.2815V32.7156H32.2894V32.7237H32.2974V32.7317H32.3133V32.7398H32.3213V32.7479H32.3372V32.756H32.3531V32.764H32.3611V32.7721H32.377V32.7802H32.3849V32.7883H32.4009V32.7963H32.4168V32.8044H32.4247V32.8125H32.4406V32.8206H32.4486V32.8286H32.4645V32.8367H32.4804V32.8448H32.4884V32.8529H32.5043V32.8609H32.5202V32.869H32.5282V32.8771H32.5441V32.8852H32.56V32.8933H32.5759V32.9013H32.5919V32.9094H32.6078V32.9175H32.6157V32.9256H32.6317V32.9336H32.6476V32.9417H32.6635V32.9498H32.6794V32.9579H32.6953V32.9659H32.7112V32.974H32.7192V32.9821H32.7431V32.9902H32.759V32.9982H32.7749V33.0063H32.7908V33.0144H32.8067V33.0225H32.8227V33.0306H32.8386V33.0386H32.8545V33.0467H32.8704V33.0548H32.8943V33.0629H32.9102V33.0709H32.9261V33.079H32.942V33.0871H32.9659V33.0952H32.9818V33.1032H33.0057V33.1113H33.0216V33.1194H33.0375V33.1275H33.0614V33.1355H33.0773V33.1436H33.1012V33.1517H33.1171V33.1598H33.141V33.1678H33.1569V33.1759H33.1808V33.184H33.2047V33.1921H33.2286V33.2002H33.2524V33.2082H33.2763V33.2163H33.3002V33.2244H33.3241V33.2325H33.34V33.2405H33.3639V33.2486H33.3957V33.2567H33.4196V33.2648H33.4514V33.2728H33.4753V33.2809H33.5071V33.289H33.531V33.2971H33.5628V33.3051H33.5867V33.3132H33.6185V33.3213H33.6583V33.3294H33.6902V33.3374H33.722V33.3455H33.7618V33.3536H33.7936V33.3617H33.8255V33.3698H33.8732V33.3778H33.913V33.3859H33.9608V33.394H34.0085V33.4021H34.0483V33.4101H34.0961V33.4182H34.1677V33.4263H34.2313V33.4344H34.295V33.4424H34.3666V33.4505H34.4781V33.4586H34.5895ZM18.4732 16.2157V15.8846H18.4811V15.8038H18.4891V15.7392H18.4971V15.6827H18.505V15.6342H18.513V15.5777H18.5209V15.5373H18.5289V15.4969H18.5369V15.4566H18.5448V15.4162H18.5528V15.3758H18.5607V15.3516H18.5687V15.3193H18.5767V15.287H18.5846V15.2547H18.5926V15.2224H18.6005V15.1901H18.6085V15.1658H18.6164V15.1416H18.6244V15.1174H18.6324V15.0851H18.6403V15.0608H18.6483V15.0366H18.6562V15.0124H18.6642V14.9881H18.6722V14.9639H18.6801V14.9478H18.6881V14.9235H18.696V14.8993H18.704V14.8832H18.7119V14.8589H18.7199V14.8347H18.7279V14.8185H18.7358V14.7943H18.7438V14.7782H18.7517V14.762H18.7597V14.7378H18.7677V14.7216H18.7756V14.7055H18.7836V14.6812H18.7915V14.6651H18.7995V14.6489H18.8075V14.6328H18.8154V14.6166H18.8234V14.6005H18.8313V14.5843H18.8393V14.5682H18.8472V14.552H18.8552V14.5278H18.8632V14.5116H18.8711V14.4955H18.8791V14.4793H18.887V14.4713H18.895V14.4551H18.903V14.439H18.9109V14.4228H18.9189V14.4067H18.9268V14.3905H18.9348V14.3824H18.9427V14.3663H18.9507V14.3501H18.9587V14.334H18.9666V14.3178H18.9746V14.3097H18.9825V14.2936H18.9905V14.2774H18.9985V14.2694H19.0064V14.2532H19.0144V14.237H19.0223V14.229H19.0303V14.2128H19.0383V14.1967H19.0462V14.1886H19.0542V14.1724H19.0621V14.1644H19.0701V14.1482H19.078V14.1401H19.086V14.124H19.094V14.1159H19.1019V14.0998H19.1099V14.0917H19.1178V14.0755H19.1258V14.0674H19.1338V14.0513H19.1417V14.0432H19.1497V14.0271H19.1576V14.019H19.1656V14.0028H19.1736V13.9948H19.1815V13.9867H19.1895V13.9705H19.1974V13.9625H19.2054V13.9544H19.2133V13.9382H19.2213V13.9302H19.2293V13.914H19.2372V13.9059H19.2452V13.8978H19.2531V13.8817H19.2611V13.8736H19.2691V13.8655H19.277V13.8494H19.285V13.8413H19.2929V13.8332H19.3009V13.8252H19.3088V13.809H19.3168V13.8009H19.3248V13.7929H19.3327V13.7848H19.3407V13.7767H19.3486V13.7605H19.3566V13.7525H19.3646V13.7444H19.3725V13.7363H19.3805V13.7202H19.3884V13.7121H19.3964V13.704H19.4044V13.6959H19.4123V13.6879H19.4203V13.6798H19.4282V13.6636H19.4362V13.6556H19.4441V13.6475H19.4521V13.6394H19.4601V13.6313H19.468V13.6233H19.476V13.6152H19.4839V13.6071H19.4919V13.599H19.4999V13.5829H19.5078V13.5748H19.5158V13.5667H19.5237V13.5586H19.5317V13.5506H19.5396V13.5425H19.5476V13.5344H19.5556V13.5263H19.5635V13.5183H19.5715V13.5102H19.5794V13.5021H19.5874V13.494H19.5954V13.486H19.6033V13.4779H19.6113V13.4698H19.6192V13.4617H19.6272V13.4537H19.6352V13.4456H19.6431V13.4375H19.6511V13.4294H19.659V13.4213H19.667V13.4133H19.6749V13.4052H19.6829V13.3971H19.6909V13.389H19.6988V13.381H19.7068V13.3729H19.7147V13.3648H19.7227V13.3567H19.7307V13.3487H19.7386V13.3406H19.7466V13.3325H19.7545V13.3244H19.7705V13.3164H19.7784V13.3083H19.7864V13.3002H19.7943V13.2921H19.8023V13.284H19.8102V13.276H19.8182V13.2679H19.8262V13.2598H19.8341V13.2517H19.85V13.2437H19.858V13.2356H19.866V13.2275H19.8739V13.2194H19.8819V13.2114H19.8898V13.2033H19.9057V13.1952H19.9137V13.1871H19.9217V13.1791H19.9296V13.171H19.9376V13.1629H19.9455V13.1548H19.9615V13.1468H19.9694V13.1387H19.9774V13.1306H19.9853V13.1225H20.0013V13.1144H20.0092V13.1064H20.0172V13.0983H20.0331V13.0902H20.041V13.0821H20.049V13.0741H20.057V13.066H20.0729V13.0579H20.0808V13.0498H20.0888V13.0418H20.0968V13.0337H20.1127V13.0256H20.1206V13.0175H20.1365V13.0095H20.1445V13.0014H20.1525V12.9933H20.1684V12.9852H20.1763V12.9771H20.1843V12.9691H20.2002V12.961H20.2082V12.9529H20.2241V12.9448H20.2321V12.9368H20.24V12.9287H20.2559V12.9206H20.2639V12.9125H20.2798V12.9045H20.2878V12.8964H20.3037V12.8883H20.3116V12.8802H20.3276V12.8722H20.3355V12.8641H20.3514V12.856H20.3594V12.8479H20.3753V12.8399H20.3912V12.8318H20.3992V12.8237H20.4151V12.8156H20.4231V12.8075H20.439V12.7995H20.4469V12.7914H20.4629V12.7833H20.4788V12.7752H20.4867V12.7672H20.5026V12.7591H20.5186V12.751H20.5265V12.7429H20.5424V12.7349H20.5584V12.7268H20.5663V12.7187H20.5822V12.7106H20.5982V12.7026H20.6061V12.6945H20.622V12.6864H20.6379V12.6783H20.6539V12.6702H20.6698V12.6622H20.6857V12.6541H20.7016V12.646H20.7096V12.6379H20.7255V12.6299H20.7414V12.6218H20.7573V12.6137H20.7732V12.6056H20.7892V12.5976H20.8051V12.5895H20.821V12.5814H20.8369V12.5733H20.8528V12.5653H20.8687V12.5572H20.8847V12.5491H20.9006V12.541H20.9165V12.533H20.9324V12.5249H20.9483V12.5168H20.9643V12.5087H20.9881V12.5006H21.004V12.4926H21.02V12.4845H21.0438V12.4764H21.0598V12.4683H21.0757V12.4603H21.0916V12.4522H21.1155V12.4441H21.1314V12.436H21.1473V12.428H21.1712V12.4199H21.1871V12.4118H21.211V12.4037H21.2348V12.3957H21.2508V12.3876H21.2746V12.3795H21.2906V12.3714H21.3144V12.3634H21.3303V12.3553H21.3542V12.3472H21.3781V12.3391H21.402V12.331H21.4259V12.323H21.4497V12.3149H21.4736V12.3068H21.4975V12.2987H21.5214V12.2907H21.5452V12.2826H21.5691V12.2745H21.6009V12.2664H21.6248V12.2584H21.6487V12.2503H21.6805V12.2422H21.7044V12.2341H21.7362V12.2261H21.7601V12.218H21.792V12.2099H21.8238V12.2018H21.8556V12.1938H21.8875V12.1857H21.9193V12.1776H21.9591V12.1695H21.9909V12.1614H22.0307V12.1534H22.0705V12.1453H22.1103V12.1372H22.1501V12.1291H22.1978V12.1211H22.2456V12.113H22.2933V12.1049H22.3411V12.0968H22.4048V12.0888H22.4684V12.0807H22.5321V12.0726H22.6037V12.0645H22.6992V12.0565H23.1051V16.2157H18.4732Z" fill="white"/>
</g>
</g>
<defs>
<filter id="filter0_d_5991_60351" x="7" y="12.0566" width="41.0361" height="40.5068" filterUnits="userSpaceOnUse" color-interpolation-filters="sRGB">
<feFlood flood-opacity="0" result="BackgroundImageFix"/>
<feColorMatrix in="SourceAlpha" type="matrix" values="0 0 0 0 0 0 0 0 0 0 0 0 0 0 0 0 0 0 127 0" result="hardAlpha"/>
<feOffset dy="4"/>
<feGaussianBlur stdDeviation="2"/>
<feComposite in2="hardAlpha" operator="out"/>
<feColorMatrix type="matrix" values="0 0 0 0 0 0 0 0 0 0 0 0 0 0 0 0 0 0 0.1 0"/>
<feBlend mode="normal" in2="BackgroundImageFix" result="effect1_dropShadow_5991_60351"/>
<feBlend mode="normal" in="SourceGraphic" in2="effect1_dropShadow_5991_60351" result="shape"/>
</filter>
<linearGradient id="paint0_linear_5991_60351" x1="9.18836" y1="-35.6912" x2="74.8607" y2="-17.383" gradientUnits="userSpaceOnUse">
<stop stop-color="#32AAE1"/>
<stop offset="1" stop-color="#786EAF"/>
</linearGradient>
<clipPath id="clip0_5991_60351">
<rect width="36" height="35.1" fill="white" transform="translate(10 10.8999)"/>
</clipPath>
</defs>
</symbol>
</svg>
