<svg width="54" height="54" fill="none" xmlns="http://www.w3.org/2000/svg">
<symbol id="rd-icon-spotter" viewBox="0 0 100 100">
<path d="M27 0C41.9117 0 54 12.0883 54 27C54 41.9117 41.9117 54 27 54C12.0883 54 0 41.9117 0 27C0 12.0883 12.0883 0 27 0ZM33.0938 19.4541V19.4629H32.8867V19.4707H32.7988V19.4785H32.7188V19.4863H32.6475V19.4951H32.5684V19.5029H32.4883V19.5107H32.4326V19.5186H32.377V19.5273H32.3291V19.5352H32.2812V19.543H32.2334V19.5508H32.1777V19.5596H32.1387V19.5674H32.0986V19.5752H32.082V19.5674H32.0586V19.5752H32.0264V19.584H31.9951V19.5918H31.9629V19.5996H31.9316V19.6074H31.8994V19.6162H31.876V19.624H31.8438V19.6318H31.8115V19.6396H31.7803V19.6484H31.748V19.6562H31.7168V19.6641H31.6924V19.6729H31.6611V19.6807H31.6367V19.6885H31.6133V19.6963H31.5811V19.7051H31.5576V19.7129H31.5332V19.7207H31.5098V19.7285H31.4854V19.7373H31.4619V19.7451H31.4297V19.7529H31.4062V19.7607H31.3818V19.7695H31.3584V19.7773H31.334V19.7852H31.3105V19.7939H31.2949V19.8018H31.2705V19.8096H31.2471V19.8174H31.2227V19.8262H31.1992V19.834H31.1836V19.8418H31.1592V19.8506H31.1357V19.8584H31.1113V19.8662H31.0879V19.874H31.0635V19.8828H31.0479V19.8906H31.0244V19.8984H31.0078V19.9062H30.9844V19.915H30.9688V19.9229H30.9443V19.9307H30.9287V19.9385H30.9043V19.9473H30.8887V19.9551H30.8652V19.9629H30.8486V19.9717H30.8252V19.9795H30.8096V19.9873H30.7852V19.9951H30.7695V20.0039H30.7451V20.0117H30.7295V20.0195H30.7139V20.0273H30.6973V20.0361H30.6738V20.0439H30.6582V20.0518H30.6416V20.0596H30.626V20.0684H30.6025V20.0762H30.5859V20.084H30.5703V20.0928H30.5547V20.1006H30.5381V20.1084H30.5146V20.1162H30.499V20.125H30.4824V20.1328H30.4668V20.1406H30.4512V20.1484H30.4268V20.1572H30.4111V20.165H30.3955V20.1729H30.3799V20.1816H30.3633V20.1895H30.3477V20.1973H30.332V20.2051H30.3154V20.2139H30.2998V20.2217H30.2842V20.2295H30.2676V20.2373H30.252V20.2461H30.2363V20.2539H30.2197V20.2617H30.2041V20.2695H30.1885V20.2783H30.1729V20.2861H30.1562V20.2939H30.1406V20.3027H30.125V20.3105H30.1084V20.3184H30.1006V20.3262H30.085V20.335H30.0693V20.3428H30.0527V20.3506H30.0371V20.3594H30.0293V20.3672H30.0137V20.375H29.9971V20.3828H29.9814V20.3916H29.9658V20.3994H29.957V20.4072H29.9414V20.415H29.9258V20.4238H29.9102V20.4316H29.9014V20.4395H29.8857V20.4473H29.8701V20.4561H29.8545V20.4639H29.8379V20.4717H29.8301V20.4805H29.8145V20.4883H29.7988V20.4961H29.7822V20.5039H29.7744V20.5127H29.7588V20.5205H29.751V20.5283H29.7344V20.5361H29.7188V20.5449H29.7109V20.5527H29.6953V20.5605H29.6787V20.5693H29.6709V20.5771H29.6553V20.585H29.6475V20.5928H29.6309V20.6016H29.6152V20.6094H29.6074V20.6172H29.5918V20.625H29.5752V20.6338H29.5674V20.6416H29.5518V20.6494H29.5361V20.6572H29.5273V20.666H29.5117V20.6738H29.5039V20.6816H29.4883V20.6904H29.4805V20.6982H29.4639V20.7061H29.4561V20.7139H29.4404V20.7227H29.4326V20.7305H29.416V20.7383H29.4082V20.7461H29.3926V20.7549H29.3848V20.7627H29.3682V20.7705H29.3604V20.7783H29.3447V20.7871H29.3369V20.7949H29.3213V20.8027H29.3125V20.8115H29.2969V20.8193H29.2891V20.8271H29.2812V20.835H29.2646V20.8438H29.2568V20.8516H29.2412V20.8594H29.2334V20.8682H29.2178V20.876H29.209V20.8838H29.2012V20.8916H29.1855V20.9004H29.1777V20.9082H29.1621V20.916H29.1533V20.9238H29.1455V20.9326H29.1299V20.9404H29.1221V20.9482H29.1143V20.9561H29.0977V20.9648H29.0898V20.9727H29.082V20.9805H29.0664V20.9893H29.0586V20.9971H29.042V21.0049H29.0342V21.0127H29.0264V21.0215H29.0107V21.0293H29.0029V21.0371H28.9941V21.0449H28.9785V21.0537H28.9707V21.0615H28.9629V21.0693H28.9473V21.0781H28.9385V21.0859H28.9307V21.0938H28.9229V21.1016H28.9072V21.1104H28.8994V21.1182H28.8906V21.126H28.8828V21.1338H28.8672V21.1426H28.8594V21.1504H28.8516V21.1582H28.8438V21.166H28.8271V21.1748H28.8193V21.1826H28.8115V21.1904H28.8037V21.1992H28.7881V21.207H28.7793V21.2148H28.7715V21.2227H28.7637V21.2314H28.748V21.2393H28.7402V21.2471H28.7314V21.2549H28.7236V21.2637H28.708V21.2715H28.7002V21.2793H28.6924V21.2881H28.6846V21.2959H28.668V21.3037H28.6602V21.3115H28.6523V21.3203H28.6445V21.3281H28.6367V21.3359H28.6279V21.3438H28.6201V21.3525H28.6045V21.3604H28.5967V21.3682H28.5889V21.377H28.5811V21.3848H28.5723V21.3926H28.5645V21.4004H28.5566V21.4092H28.541V21.417H28.5332V21.4248H28.5254V21.4326H28.5166V21.4414H28.5088V21.4492H28.501V21.457H28.4854V21.4648H28.4775V21.4736H28.4697V21.4814H28.4609V21.4893H28.4531V21.498H28.4453V21.5059H28.4375V21.5137H28.4219V21.5215H28.4141V21.5303H28.4053V21.5381H28.3975V21.5459H28.3896V21.5547H28.3818V21.5625H28.374V21.5703H28.3662V21.5781H28.3574V21.5869H28.3496V21.5947H28.3418V21.6025H28.334V21.6104H28.3262V21.6191H28.3184V21.627H28.3105V21.6348H28.3018V21.6426H28.2939V21.6514H28.2861V21.6592H28.2705V21.667H28.2627V21.6758H28.2549V21.6836H28.2461V21.6914H28.2383V21.6992H28.2305V21.708H28.2227V21.7158H28.2148V21.7236H28.207V21.7314H28.1982V21.7402H28.1904V21.748H28.1826V21.7559H28.1748V21.7637H28.167V21.7725H28.1592V21.7803H28.1514V21.7881H28.1426V21.7969H28.1348V21.8047H28.127V21.8125H28.1191V21.8203H28.1113V21.8291H28.1035V21.8369H28.0947V21.8447H28.0869V21.8525H28.0791V21.8613H28.0713V21.8691H28.0635V21.877H28.0557V21.8857H28.0479V21.8936H28.0391V21.9014H28.0312V21.9092H28.0234V21.918H28.0156V21.9258H28.0078V21.9336H28V21.9414H27.9922V21.9502H27.9834V21.958H27.9756V21.9658H27.9678V21.9824H27.96V21.9902H27.9521V21.998H27.9443V22.0068H27.9355V22.0146H27.9277V22.0225H27.9199V22.0303H27.9121V22.0391H27.9043V22.0469H27.8965V22.0547H27.8887V22.0635H27.8799V22.0713H27.8721V22.0869H27.8643V22.0957H27.8564V22.1035H27.8486V22.1113H27.8408V22.1191H27.833V22.1279H27.8242V22.1357H27.8164V22.1436H27.8086V22.1602H27.8008V22.168H27.793V22.1758H27.7852V22.1846H27.7773V22.1924H27.7686V22.2002H27.7607V22.208H27.7529V22.2168H27.7451V22.2246H27.7373V22.2402H27.7295V22.249H27.7217V22.2568H27.7129V22.2646H27.7051V22.2725H27.6973V22.2812H27.6895V22.2891H27.6816V22.3057H27.6738V22.3135H27.665V22.3213H27.6572V22.3291H27.6494V22.3457H27.6416V22.3535H27.6338V22.3613H27.626V22.3701H27.6182V22.3779H27.6094V22.3945H27.6016V22.4023H27.5938V22.4102H27.5859V22.418H27.5781V22.4268H27.5703V22.4424H27.5615V22.4502H27.5537V22.459H27.5459V22.4668H27.5381V22.4746H27.5303V22.4912H27.5225V22.499H27.5146V22.5068H27.5059V22.5156H27.498V22.5312H27.4902V22.5391H27.4824V22.5479H27.4746V22.5557H27.4668V22.5723H27.459V22.5801H27.4502V22.5879H27.4424V22.6045H27.4346V22.6123H27.4268V22.6201H27.4189V22.6367H27.4111V22.6445H27.4023V22.6523H27.3945V22.6602H27.3867V22.6768H27.3789V22.6846H27.3711V22.6934H27.3633V22.709H27.3555V22.7168H27.3467V22.7256H27.3389V22.7412H27.3311V22.749H27.3232V22.7578H27.3154V22.7734H27.3076V22.7822H27.2988V22.79H27.291V22.8057H27.2832V22.8145H27.2754V22.8223H27.2676V22.8379H27.2598V22.8467H27.252V22.8623H27.2432V22.8701H27.2354V22.8789H27.2275V22.8945H27.2197V22.9033H27.2119V22.9189H27.2041V22.9268H27.1963V22.9434H27.1875V22.9512H27.1797V22.959H27.1719V22.9756H27.1641V22.9834H27.1562V23H27.1484V23.0078H27.1406V23.0244H27.1318V23.0322H27.124V23.04H27.1162V23.0566H27.1084V23.0645H27.1006V23.0811H27.0928V23.0889H27.085V23.1045H27.0762V23.1133H27.0684V23.1289H27.0605V23.1367H27.0527V23.1533H27.0449V23.1611H27.0371V23.1777H27.0283V23.1855H27.0205V23.2021H27.0127V23.2178H27.0049V23.2256H26.9971V23.2422H26.9893V23.25H26.9814V23.2666H26.9727V23.2744H26.9648V23.291H26.957V23.3066H26.9492V23.3145H26.9414V23.3311H26.9336V23.3389H26.9258V23.3555H26.917V23.3633H26.9092V23.3799H26.9014V23.3955H26.8936V23.4033H26.8857V23.4199H26.8779V23.4277H26.8691V23.4443H26.8613V23.46H26.8535V23.4766H26.8457V23.4844H26.8379V23.501H26.8301V23.5166H26.8223V23.5244H26.8135V23.541H26.8057V23.5566H26.7979V23.5732H26.79V23.5811H26.7822V23.5977H26.7744V23.6133H26.7656V23.6221H26.7578V23.6377H26.75V23.6543H26.7422V23.6699H26.7344V23.6777H26.7266V23.6943H26.7188V23.7109H26.71V23.7188H26.7021V23.7344H26.6943V23.751H26.6865V23.7676H26.6787V23.7832H26.6709V23.7998H26.6631V23.8154H26.6543V23.8232H26.6465V23.8398H26.6387V23.8555H26.6309V23.8721H26.623V23.8887H26.6152V23.9043H26.6064V23.9209H26.5986V23.9365H26.5908V23.9531H26.583V23.9609H26.5752V23.9766H26.5674V23.9932H26.5596V24.0098H26.5508V24.0254H26.543V24.042H26.5352V24.0576H26.5273V24.0742H26.5195V24.0898H26.5117V24.1064H26.5039V24.1221H26.4951V24.1387H26.4873V24.1543H26.4795V24.1709H26.4717V24.1865H26.4639V24.2109H26.4561V24.2275H26.4482V24.2432H26.4395V24.2598H26.4316V24.2764H26.4238V24.292H26.416V24.3086H26.4082V24.3242H26.4004V24.3408H26.3926V24.3564H26.3838V24.373H26.376V24.3975H26.3682V24.4131H26.3604V24.4297H26.3525V24.4531H26.3447V24.4697H26.3359V24.4854H26.3281V24.5098H26.3203V24.5264H26.3125V24.542H26.3047V24.5586H26.2969V24.583H26.2891V24.5986H26.2803V24.6152H26.2725V24.6396H26.2646V24.6553H26.2568V24.6719H26.249V24.6963H26.2412V24.7119H26.2324V24.7363H26.2246V24.752H26.2168V24.7764H26.209V24.793H26.2012V24.8174H26.1934V24.833H26.1855V24.8574H26.1768V24.8818H26.1689V24.8975H26.1611V24.9219H26.1533V24.9385H26.1455V24.9619H26.1377V24.9863H26.1299V25.0029H26.1211V25.0273H26.1133V25.043H26.1055V25.0674H26.0977V25.0918H26.0898V25.1162H26.082V25.1396H26.0732V25.1641H26.0654V25.1885H26.0576V25.2129H26.0498V25.2373H26.042V25.2607H26.0342V25.2852H26.0264V25.3018H26.0176V25.3262H26.0098V25.3496H26.002V25.374H25.9941V25.3984H25.9863V25.4229H25.9785V25.4551H25.9707V25.4795H25.9619V25.5039H25.9541V25.5361H25.9463V25.5596H25.9385V25.584H25.9307V25.6162H25.9229V25.6406H25.9141V25.6729H25.9062V25.6973H25.8984V25.7217H25.8906V25.7539H25.8828V25.7783H25.875V25.8105H25.8672V25.8428H25.8584V25.875H25.8506V25.9072H25.8428V25.9395H25.835V25.9639H25.8271V25.9961H25.8193V26.0283H25.8115V26.0605H25.8027V26.0928H25.7949V26.125H25.7871V26.1572H25.7793V26.1982H25.7715V26.2383H25.7637V26.2705H25.7559V26.3115H25.7471V26.3516H25.7393V26.3838H25.7314V26.4238H25.7236V26.4648H25.7158V26.4971H25.708V26.5371H25.6992V26.5859H25.6914V26.6338H25.6836V26.6826H25.6758V26.7227H25.668V26.7715H25.6602V26.8203H25.6523V26.8682H25.6436V26.9092H25.6357V26.9736H25.6279V27.0303H25.6201V27.0947H25.6123V27.1514H25.6045V27.2158H25.5967V27.2725H25.5879V27.3447H25.5801V27.4336H25.5723V27.5146H25.5645V27.6035H25.5566V27.6846H25.5488V27.8135H25.54V27.959H25.5322V28.0957H25.5244V28.4111H25.5166V28.6533H25.5244V28.9277H25.5322V29.0732H25.54V29.1943H25.5488V29.3154H25.5566V29.4209H25.5645V29.4932H25.5723V29.5654H25.5801V29.6387H25.5879V29.7109H25.5967V29.7842H25.6045V29.8486H25.6123V29.8975H25.6201V29.9453H25.6279V30.002H25.6357V30.0508H25.6436V30.0986H25.6523V30.1553H25.6602V30.2041H25.668V30.252H25.6758V30.293H25.6836V30.333H25.6914V30.373H25.6992V30.4141H25.708V30.4541H25.7158V30.4863H25.7236V30.5273H25.7314V30.5674H25.7393V30.6074H25.7471V30.6484H25.7559V30.6807H25.7637V30.7129H25.7715V30.7451H25.7793V30.7773H25.7871V30.8096H25.7949V30.8418H25.8027V30.874H25.8115V30.9062H25.8193V30.9385H25.8271V30.9707H25.835V31.0029H25.8428V31.0361H25.8506V31.0684H25.8584V31.0918H25.8672V31.1162H25.875V31.1484H25.8828V31.1729H25.8906V31.1973H25.8984V31.2217H25.9062V31.2539H25.9141V31.2783H25.9229V31.3018H25.9307V31.335H25.9385V31.3584H25.9463V31.3828H25.9541V31.415H25.9619V31.4395H25.9707V31.4639H25.9785V31.4883H25.9863V31.5117H25.9941V31.5361H26.002V31.5527H26.0098V31.5771H26.0176V31.6006H26.0264V31.625H26.0342V31.6494H26.042V31.6738H26.0498V31.6895H26.0576V31.7139H26.0654V31.7383H26.0732V31.7627H26.082V31.7871H26.0898V31.8105H26.0977V31.8271H26.1055V31.8516H26.1133V31.876H26.1211V31.8916H26.1299V31.916H26.1377V31.9326H26.1455V31.9482H26.1533V31.9727H26.1611V31.9883H26.1689V32.0127H26.1768V32.0293H26.1855V32.0537H26.1934V32.0693H26.2012V32.0938H26.209V32.1104H26.2168V32.1338H26.2246V32.1504H26.2324V32.166H26.2412V32.1904H26.249V32.207H26.2568V32.2314H26.2646V32.2471H26.2725V32.2637H26.2803V32.2793H26.2891V32.2959H26.2969V32.3193H26.3047V32.3359H26.3125V32.3525H26.3203V32.3682H26.3281V32.3848H26.3359V32.4004H26.3447V32.4248H26.3525V32.4414H26.3604V32.457H26.3682V32.4736H26.376V32.4893H26.3838V32.5059H26.3926V32.5303H26.4004V32.5459H26.4082V32.5625H26.416V32.5781H26.4238V32.5947H26.4316V32.6104H26.4395V32.627H26.4482V32.6426H26.4561V32.6592H26.4639V32.6748H26.4717V32.6914H26.4795V32.707H26.4873V32.7158H26.4951V32.7314H26.5039V32.748H26.5117V32.7637H26.5195V32.7803H26.5273V32.7959H26.5352V32.8125H26.543V32.8281H26.5508V32.8447H26.5596V32.8613H26.5674V32.877H26.5752V32.8936H26.583V32.9014H26.5908V32.918H26.5986V32.9336H26.6064V32.9502H26.6152V32.9658H26.623V32.9824H26.6309V32.9902H26.6387V33.0059H26.6465V33.0225H26.6543V33.0303H26.6631V33.0469H26.6709V33.0625H26.6787V33.0791H26.6865V33.0869H26.6943V33.1035H26.7021V33.1191H26.71V33.1279H26.7188V33.1436H26.7266V33.1602H26.7344V33.1758H26.7422V33.1836H26.75V33.2002H26.7578V33.2158H26.7656V33.2246H26.7744V33.2402H26.7822V33.2568H26.79V33.2725H26.7979V33.2812H26.8057V33.2969H26.8135V33.3047H26.8223V33.3213H26.8301V33.3379H26.8379V33.3457H26.8457V33.3613H26.8535V33.3701H26.8613V33.3857H26.8691V33.3936H26.8779V33.4102H26.8857V33.418H26.8936V33.4346H26.9014V33.4424H26.9092V33.459H26.917V33.4668H26.9258V33.4824H26.9336V33.499H26.9414V33.5068H26.9492V33.5234H26.957V33.5312H26.9648V33.5479H26.9727V33.5557H26.9814V33.5713H26.9893V33.5801H26.9971V33.5957H27.0049V33.6045H27.0127V33.6201H27.0205V33.6279H27.0283V33.6445H27.0371V33.6523H27.0449V33.6689H27.0527V33.6768H27.0605V33.6846H27.0684V33.7012H27.0762V33.709H27.085V33.7168H27.0928V33.7334H27.1006V33.7412H27.1084V33.7578H27.1162V33.7656H27.124V33.7734H27.1318V33.79H27.1406V33.7979H27.1484V33.8135H27.1562V33.8223H27.1641V33.8301H27.1719V33.8467H27.1797V33.8545H27.1875V33.8623H27.1963V33.8789H27.2041V33.8867H27.2119V33.9023H27.2197V33.9111H27.2275V33.9189H27.2354V33.9355H27.2432V33.9434H27.252V33.959H27.2598V33.9678H27.2676V33.9756H27.2754V33.9834H27.2832V34H27.291V34.0078H27.2988V34.0156H27.3076V34.0234H27.3154V34.04H27.3232V34.0479H27.3311V34.0566H27.3389V34.0645H27.3467V34.0801H27.3555V34.0889H27.3633V34.0967H27.3711V34.1045H27.3789V34.1211H27.3867V34.1289H27.3945V34.1367H27.4023V34.1455H27.4111V34.1611H27.4189V34.1689H27.4268V34.1777H27.4346V34.1855H27.4424V34.2012H27.4502V34.21H27.459V34.2178H27.4668V34.2256H27.4746V34.2422H27.4824V34.25H27.4902V34.2578H27.498V34.2666H27.5059V34.2744H27.5146V34.2822H27.5225V34.2988H27.5303V34.3066H27.5381V34.3145H27.5459V34.3232H27.5537V34.3311H27.5615V34.3389H27.5703V34.3467H27.5781V34.3633H27.5859V34.3711H27.5938V34.3789H27.6016V34.3877H27.6094V34.3955H27.6182V34.4033H27.626V34.4111H27.6338V34.4199H27.6416V34.4355H27.6494V34.4443H27.6572V34.4521H27.665V34.46H27.6738V34.4678H27.6816V34.4766H27.6895V34.4844H27.6973V34.4922H27.7051V34.5088H27.7129V34.5166H27.7217V34.5244H27.7295V34.5322H27.7373V34.541H27.7451V34.5488H27.7529V34.5566H27.7607V34.5654H27.7686V34.5732H27.7773V34.5811H27.7852V34.5889H27.793V34.5977H27.8008V34.6133H27.8086V34.6221H27.8164V34.6299H27.8242V34.6377H27.833V34.6455H27.8408V34.6543H27.8486V34.6621H27.8564V34.6699H27.8643V34.6777H27.8721V34.6865H27.8799V34.6943H27.8887V34.7021H27.8965V34.71H27.9043V34.7188H27.9121V34.7266H27.9199V34.7344H27.9277V34.7432H27.9355V34.751H27.9443V34.7588H27.9521V34.7666H27.96V34.7754H27.9678V34.7832H27.9756V34.791H27.9834V34.7988H27.9922V34.8076H28V34.8154H28.0078V34.8232H28.0156V34.832H28.0234V34.8398H28.0312V34.8477H28.0391V34.8555H28.0479V34.8643H28.0557V34.8721H28.0635V34.8799H28.0713V34.8877H28.0791V34.8965H28.0869V34.9043H28.1035V34.9121H28.1113V34.9199H28.1191V34.9287H28.127V34.9365H28.1348V34.9443H28.1426V34.9531H28.1514V34.9609H28.1592V34.9688H28.167V34.9766H28.1748V34.9854H28.1826V34.9932H28.1904V35.001H28.1982V35.0088H28.2148V35.0176H28.2227V35.0254H28.2305V35.0332H28.2383V35.042H28.2461V35.0498H28.2549V35.0576H28.2627V35.0654H28.2705V35.0742H28.2783V35.082H28.2861V35.0898H28.2939V35.0977H28.3018V35.1064H28.3184V35.1143H28.3262V35.1221H28.334V35.1309H28.3418V35.1387H28.3496V35.1465H28.3662V35.1543H28.374V35.1631H28.3818V35.1709H28.3896V35.1787H28.3975V35.1865H28.4141V35.1953H28.4219V35.2031H28.4297V35.2109H28.4375V35.2188H28.4453V35.2275H28.4609V35.2354H28.4697V35.2432H28.4775V35.252H28.4854V35.2598H28.4932V35.2676H28.5088V35.2754H28.5166V35.2842H28.5254V35.292H28.5332V35.2998H28.541V35.3086H28.5488V35.3164H28.5645V35.3242H28.5723V35.332H28.5811V35.3408H28.5889V35.3486H28.5967V35.3564H28.6123V35.3643H28.6201V35.373H28.6279V35.3809H28.6445V35.3887H28.6523V35.3965H28.6602V35.4053H28.6758V35.4131H28.6846V35.4209H28.6924V35.4297H28.708V35.4375H28.7158V35.4453H28.7236V35.4531H28.7402V35.4619H28.748V35.4697H28.7559V35.4775H28.7715V35.4854H28.7793V35.4941H28.7881V35.502H28.8037V35.5098H28.8115V35.5176H28.8193V35.5264H28.835V35.5342H28.8438V35.542H28.8516V35.5508H28.8672V35.5586H28.875V35.5664H28.8828V35.5742H28.8994V35.583H28.9072V35.5908H28.915V35.5986H28.9307V35.6064H28.9385V35.6152H28.9473V35.623H28.9629V35.6309H28.9707V35.6396H28.9863V35.6475H28.9941V35.6553H29.0107V35.6631H29.0186V35.6719H29.0342V35.6797H29.042V35.6875H29.0586V35.6953H29.0664V35.7041H29.082V35.7119H29.0898V35.7197H29.1064V35.7275H29.1143V35.7363H29.1299V35.7441H29.1377V35.752H29.1533V35.7607H29.1621V35.7686H29.1777V35.7764H29.1855V35.7842H29.2012V35.793H29.209V35.8008H29.2256V35.8086H29.2334V35.8174H29.249V35.8252H29.2568V35.833H29.2734V35.8408H29.2812V35.8496H29.2969V35.8574H29.3125V35.8652H29.3213V35.873H29.3369V35.8818H29.3525V35.8896H29.3604V35.8975H29.377V35.9053H29.3926V35.9141H29.4004V35.9219H29.416V35.9297H29.4326V35.9385H29.4404V35.9463H29.4561V35.9541H29.4717V35.9619H29.4805V35.9707H29.4961V35.9785H29.5117V35.9863H29.5195V35.9941H29.5361V36.0029H29.5518V36.0107H29.5596V36.0186H29.5752V36.0264H29.5918V36.0352H29.6074V36.043H29.6152V36.0508H29.6309V36.0596H29.6475V36.0674H29.6631V36.0752H29.6787V36.083H29.6953V36.0918H29.7109V36.0996H29.7266V36.1074H29.7344V36.1152H29.751V36.124H29.7666V36.1318H29.7822V36.1396H29.7988V36.1484H29.8145V36.1562H29.8301V36.1641H29.8457V36.1719H29.8623V36.1807H29.8701V36.1885H29.8857V36.1963H29.9014V36.2041H29.918V36.2129H29.9336V36.2207H29.9492V36.2285H29.9658V36.2363H29.9814V36.2451H29.9971V36.2529H30.0137V36.2607H30.0371V36.2695H30.0527V36.2773H30.0693V36.2852H30.085V36.293H30.1006V36.3018H30.1172V36.3096H30.1328V36.3174H30.1562V36.3262H30.1729V36.334H30.1885V36.3418H30.2041V36.3496H30.2197V36.3584H30.2363V36.3662H30.252V36.374H30.2764V36.3818H30.292V36.3906H30.3076V36.3984H30.3232V36.4062H30.3477V36.4141H30.3633V36.4229H30.3877V36.4307H30.4033V36.4385H30.4268V36.4473H30.4434V36.4551H30.4668V36.4629H30.4824V36.4707H30.499V36.4795H30.5225V36.4873H30.5381V36.4951H30.5625V36.5029H30.5781V36.5117H30.6025V36.5195H30.6182V36.5273H30.6416V36.5361H30.6582V36.5439H30.6816V36.5518H30.6973V36.5596H30.7217V36.5684H30.7451V36.5762H30.7695V36.584H30.793V36.5918H30.8174V36.6006H30.8408V36.6084H30.8652V36.6162H30.8887V36.624H30.9131V36.6328H30.9365V36.6406H30.9521V36.6484H30.9766V36.6572H31V36.665H31.0244V36.6729H31.0479V36.6807H31.0723V36.6895H31.0957V36.6973H31.1279V36.7051H31.1514V36.7129H31.1836V36.7217H31.207V36.7295H31.2393V36.7373H31.2627V36.7461H31.2949V36.7539H31.3184V36.7617H31.3506V36.7695H31.374V36.7783H31.4062V36.7861H31.4297V36.7939H31.4619V36.8018H31.4932V36.8105H31.5254V36.8184H31.5576V36.8262H31.5967V36.835H31.6289V36.8428H31.6611V36.8506H31.7002V36.8584H31.7324V36.8672H31.7646V36.875H31.7959V36.8828H31.8359V36.8906H31.8672V36.8994H31.9072V36.9072H31.9551V36.915H32.0029V36.9229H32.043V36.9316H32.0908V36.9395H32.1299V36.9473H32.1777V36.9561H32.2256V36.9639H32.2656V36.9717H32.3213V36.9795H32.3848V36.9883H32.4482V36.9961H32.5127V37.0039H32.5684V37.0117H32.6318V37.0205H32.6953V37.0283H32.7832V37.0361H32.8945V37.0449H32.998V37.0527H33.1094V37.0605H33.2764V37.0684H34.0479V37.0605H34.2637V37.0527H34.4062V37.0449H34.542V37.0361H34.6367V37.0283H34.7402V37.0205H34.8281V37.0117H34.8994V37.0039H34.9795V36.9961H35.0508V36.9883H35.1152V36.9795H35.1787V36.9717H35.2344V36.9639H35.2979V36.9561H35.3457V36.9473H35.4014V36.9395H35.4492V36.9316H35.4971V36.9229H35.5527V36.915H35.5928V36.9072H35.6318V36.8994H35.6797V36.8906H35.7197V36.8828H35.7598V36.875H35.7988V36.8672H35.8389V36.8584H35.8711V36.8506H35.9102V36.8428H35.9424V36.835H35.9824V36.8262H36.0225V36.8184H36.0459V36.8105H36.0781V36.8018H36.1094V36.7939H36.1416V36.7861H36.1729V36.7783H36.2051V36.7695H36.2373V36.7617H36.2686V36.7539H36.293V36.7461H36.3242V36.7373H36.3486V36.7295H36.3799V36.7217H36.4043V36.7129H36.4355V36.7051H36.46V36.6973H36.4834V36.6895H36.5078V36.6807H36.5312V36.6729H36.5557V36.665H36.5869V36.6572H36.6113V36.6484H36.6348V36.6406H36.6592V36.6328H36.6826V36.624H36.6982V36.6162H36.7227V36.6084H36.7461V36.6006H36.7705V36.5918H36.7861V36.584H36.8096V36.5762H36.834V36.5684H36.8574V36.5596H36.874V36.5518H36.8975V36.5439H36.9131V36.5361H36.9375V36.5273H36.9531V36.5195H36.9775V36.5117H36.9932V36.5029H37.0166V36.4951H37.0332V36.4873H37.0488V36.4795H37.0723V36.4707H37.0889V36.4629H37.1045V36.4551H37.1201V36.4473H37.1445V36.4385H37.1602V36.4307H37.1758V36.4229H37.1924V36.4141H37.2158V36.4062H37.2314V36.3984H37.248V36.3906H37.2637V36.3818H37.2793V36.374H37.2949V36.3662H37.3115V36.3584H37.3271V36.3496H37.3428V36.3418H37.3594V36.334H37.375V36.3262H37.3906V36.3174H37.4072V36.3096H37.4229V36.3018H37.4385V36.293H37.4551V36.2852H37.4707V36.2773H37.4863V36.2695H37.502V36.2607H37.5107V36.2529H37.5264V36.2451H37.542V36.2363H37.5576V36.2285H37.5742V36.2207H37.5898V36.2129H37.5977V36.2041H37.6143V36.1963H37.6299V36.1885H37.6377V36.1807H37.6533V36.1719H37.6699V36.1641H37.6855V36.1562H37.6934V36.1484H37.709V36.1396H37.7256V36.1318H37.7334V36.124H37.749V36.1152H37.7568V36.1074H37.7734V36.0996H37.7891V36.0918H37.7969V36.083H37.8125V36.0752H37.8203V36.0674H37.8369V36.0596H37.8447V36.0508H37.8604V36.043H37.876V36.0352H37.8848V36.0264H37.9004V36.0186H37.9082V36.0107H37.916V36.0029H37.9316V35.9941H37.9404V35.9863H37.9561V35.9785H37.9639V35.9707H37.9795V35.9619H37.9883V35.9541H38.0039V35.9463H38.0117V35.9385H38.0273V35.9297H38.0352V35.9219H38.0439V35.9141H38.0596V35.9053H38.0674V35.8975H38.0752V35.8896H38.0908V35.8818H38.0996V35.873H38.1074V35.8652H38.123V35.8574H38.1309V35.8496H38.1387V35.8408H38.1553V35.833H38.1631V35.8252H38.1709V35.8174H38.1865V35.8086H38.1943V35.8008H38.2031V35.793H38.2109V35.7842H38.2266V35.7764H38.2344V35.7686H38.2422V35.7607H38.251V35.752H38.2666V35.7441H38.2744V35.7363H38.2822V35.7275H38.29V35.7197H38.3066V35.7119H38.3145V35.7041H38.3223V35.6953H38.3301V35.6875H38.3379V35.6797H38.3457V35.6719H38.3623V35.6631H38.3701V35.6553H38.3779V35.6475H38.3857V35.6396H38.3936V35.6309H38.4014V35.623H38.4092V35.6152H38.4258V35.6064H38.4336V35.5986H38.4414V35.5908H38.4492V35.583H38.457V35.5742H38.4658V35.5664H38.4736V35.5586H38.4814V35.5508H38.4893V35.542H38.4971V35.5342H38.5127V35.5264H38.5215V35.5176H38.5293V35.5098H38.5371V35.502H38.5449V35.4941H38.5527V35.4854H38.5605V35.4775H38.5684V35.4697H38.5771V35.4619H38.585V35.4531H38.5928V35.4453H38.6006V35.4375H38.6084V35.4297H38.6162V35.4209H38.624V35.4131H38.6328V35.4053H38.6406V35.3965H38.6484V35.3887H38.6562V35.3809H38.6641V35.373H38.6719V35.3643H38.6807V35.3564H38.6885V35.3486H38.6963V35.3408H38.7041V35.332H38.7119V35.3242H38.7197V35.3164H38.7275V35.3086H38.7363V35.2998H38.7441V35.292H38.752V35.2842H38.7598V35.2676H38.7676V35.2598H38.7754V35.252H38.7842V35.2432H38.792V35.2354H38.7998V35.2275H38.8076V35.2188H38.8154V35.2109H38.8232V35.2031H38.8311V35.1953H38.8398V35.1865H38.8477V35.1709H38.8555V35.1631H38.8633V35.1543H38.8711V35.1465H38.8789V35.1387H38.8867V35.1309H38.8955V35.1221H38.9033V35.1064H38.9111V35.0977H38.9189V35.0898H38.9268V35.082H38.9346V35.0742H38.9434V35.0576H38.9512V35.0498H38.959V35.042H38.9668V35.0332H38.9746V35.0254H38.9824V35.0088H38.9902V35.001H38.999V34.9932H39.0068V34.9854H39.0146V34.9766H39.0225V34.9609H39.0303V34.9531H39.0381V34.9443H39.0459V34.9365H39.0547V34.9199H39.0625V34.9121H39.0703V34.9043H39.0781V34.8877H39.0859V34.8799H39.0938V34.8721H39.1025V34.8643H39.1104V34.8477H39.1182V34.8398H39.126V34.832H39.1338V34.8154H39.1416V34.8076H39.1494V34.7988H39.1582V34.7832H39.166V34.7754H39.1738V34.7666H39.1816V34.751H39.1895V34.7432H39.1973V34.7266H39.2051V34.7188H39.2139V34.71H39.2217V34.6943H39.2295V34.6865H39.2373V34.6777H39.2451V34.6621H39.2529V34.6543H39.2607V34.6377H39.2695V34.6299H39.2773V34.6133H39.2852V34.6055H39.293V34.5977H39.3008V34.5811H39.3086V34.5732H39.3174V34.5566H39.3252V34.5488H39.333V34.5322H39.3408V34.5244H39.3486V34.5088H39.3564V34.5H39.3643V34.4844H39.373V34.4766H39.3809V34.46H39.3887V34.4521H39.3965V34.4355H39.4043V34.4277H39.4121V34.4111H39.4199V35.6309H39.4121V35.873H39.4043V36.0596H39.3965V36.1885H39.3887V36.3096H39.3809V36.4141H39.373V36.5029H39.3643V36.5918H39.3564V36.6807H39.3486V36.7461H39.3408V36.8184H39.333V36.8906H39.3252V36.9561H39.3174V37.0117H39.3086V37.0684H39.3008V37.125H39.293V37.1738H39.2852V37.2305H39.2773V37.2705H39.2695V37.3193H39.2607V37.3672H39.2529V37.4082H39.2451V37.4561H39.2373V37.4971H39.2295V37.5371H39.2217V37.5771H39.2139V37.6094H39.2051V37.6504H39.1973V37.6904H39.1895V37.7227H39.1816V37.7637H39.1738V37.7959H39.166V37.8193H39.1582V37.8525H39.1494V37.8848H39.1416V37.917H39.1338V37.9492H39.126V37.9814H39.1182V38.0137H39.1104V38.0381H39.1025V38.0625H39.0938V38.0947H39.0859V38.1182H39.0781V38.1514H39.0703V38.1748H39.0625V38.1992H39.0547V38.2314H39.0459V38.2559H39.0381V38.2803H39.0303V38.2959H39.0225V38.3203H39.0146V38.3447H39.0068V38.3691H38.999V38.3936H38.9902V38.417H38.9824V38.4414H38.9746V38.4658H38.9668V38.4824H38.959V38.5059H38.9512V38.5225H38.9434V38.5469H38.9346V38.5625H38.9268V38.5869H38.9189V38.6035H38.9111V38.627H38.9033V38.6436H38.8955V38.668H38.8867V38.6836H38.8789V38.708H38.8711V38.7246H38.8633V38.7402H38.8555V38.7568H38.8477V38.7725H38.8398V38.7891H38.8311V38.8047H38.8232V38.8291H38.8154V38.8457H38.8076V38.8613H38.7998V38.8779H38.792V38.8936H38.7842V38.9102H38.7754V38.9258H38.7676V38.9424H38.7598V38.959H38.752V38.9746H38.7441V38.9912H38.7363V39.0068H38.7275V39.0234H38.7197V39.0312H38.7119V39.0479H38.7041V39.0635H38.6963V39.0801H38.6885V39.0957H38.6807V39.1123H38.6719V39.1279H38.6641V39.1357H38.6562V39.1523H38.6484V39.1689H38.6406V39.1768H38.6328V39.1924H38.624V39.2012H38.6162V39.2168H38.6084V39.2334H38.6006V39.2412H38.5928V39.2578H38.585V39.2734H38.5771V39.2812H38.5684V39.2979H38.5605V39.3057H38.5527V39.3223H38.5449V39.3379H38.5371V39.3467H38.5293V39.3623H38.5215V39.3701H38.5127V39.3789H38.5049V39.3945H38.4971V39.4023H38.4893V39.4189H38.4814V39.4268H38.4736V39.4346H38.4658V39.4512H38.457V39.459H38.4492V39.4756H38.4414V39.4834H38.4336V39.4912H38.4258V39.5078H38.418V39.5156H38.4092V39.5322H38.4014V39.54H38.3936V39.5479H38.3857V39.5566H38.3779V39.5723H38.3701V39.5801H38.3623V39.5889H38.3535V39.5967H38.3457V39.6123H38.3379V39.6211H38.3301V39.6289H38.3223V39.6367H38.3145V39.6445H38.3066V39.6611H38.2979V39.6689H38.29V39.6777H38.2822V39.6855H38.2744V39.7012H38.2666V39.71H38.2588V39.7178H38.251V39.7256H38.2422V39.7344H38.2344V39.7422H38.2266V39.75H38.2188V39.7578H38.2109V39.7666H38.2031V39.7744H38.1943V39.79H38.1865V39.7988H38.1787V39.8066H38.1709V39.8145H38.1631V39.8223H38.1553V39.8311H38.1475V39.8389H38.1387V39.8467H38.1309V39.8555H38.123V39.8633H38.1152V39.8711H38.1074V39.8789H38.0996V39.8877H38.0908V39.8955H38.083V39.9033H38.0752V39.9111H38.0674V39.9199H38.0596V39.9277H38.0518V39.9355H38.0439V39.9434H38.0352V39.9521H38.0273V39.96H38.0195V39.9678H38.0039V39.9766H37.9961V39.9844H37.9883V39.9922H37.9795V40H37.9717V40.0088H37.9639V40.0166H37.9561V40.0244H37.9482V40.0322H37.9404V40.041H37.9316V40.0488H37.9238V40.0566H37.9082V40.0654H37.9004V40.0732H37.8926V40.0811H37.8848V40.0889H37.8682V40.0977H37.8604V40.1055H37.8525V40.1133H37.8447V40.1211H37.8291V40.1299H37.8203V40.1377H37.8125V40.1455H37.8047V40.1533H37.7891V40.1621H37.7812V40.1699H37.7734V40.1777H37.7646V40.1865H37.749V40.1943H37.7412V40.2021H37.7334V40.21H37.7168V40.2188H37.709V40.2266H37.6934V40.2344H37.6855V40.2432H37.6699V40.251H37.6611V40.2588H37.6533V40.2666H37.6377V40.2754H37.6299V40.2832H37.6143V40.291H37.6055V40.2988H37.5898V40.3076H37.582V40.3154H37.5664V40.3232H37.5576V40.3311H37.542V40.3398H37.5342V40.3477H37.5186V40.3555H37.502V40.3643H37.4941V40.3721H37.4785V40.3799H37.4629V40.3877H37.4551V40.3965H37.4385V40.4043H37.4229V40.4121H37.415V40.4199H37.3984V40.4287H37.3828V40.4365H37.3672V40.4443H37.3594V40.4531H37.3428V40.4609H37.3271V40.4688H37.3115V40.4766H37.2949V40.4854H37.2793V40.4932H37.2637V40.501H37.248V40.5088H37.2314V40.5176H37.2158V40.5254H37.2002V40.5332H37.1836V40.542H37.168V40.5498H37.1523V40.5576H37.1367V40.5654H37.1201V40.5742H37.1045V40.582H37.0889V40.5898H37.0723V40.5977H37.0488V40.6064H37.0332V40.6143H37.0088V40.6221H36.9932V40.6299H36.9775V40.6387H36.9531V40.6465H36.9375V40.6543H36.9219V40.6631H36.8975V40.6709H36.8818V40.6787H36.8574V40.6865H36.834V40.6953H36.8096V40.7031H36.7939V40.7109H36.7705V40.7188H36.7461V40.7275H36.7227V40.7354H36.6982V40.7432H36.6748V40.752H36.6504V40.7598H36.627V40.7676H36.6025V40.7754H36.5791V40.7842H36.5469V40.792H36.5234V40.7998H36.4912V40.8076H36.4678V40.8164H36.4355V40.8242H36.4043V40.832H36.3799V40.8398H36.3486V40.8486H36.3164V40.8564H36.2764V40.8643H36.2451V40.873H36.2051V40.8809H36.1729V40.8887H36.1338V40.8965H36.1016V40.9053H36.0615V40.9131H36.0137V40.9209H35.9658V40.9297H35.9189V40.9375H35.8711V40.9453H35.8232V40.9531H35.7754V40.9619H35.7119V40.9697H35.6396V40.9775H35.5684V40.9854H35.4971V40.9941H35.4248V41.002H35.3057V41.0098H35.1787V41.0176H35.0195V41.0264H34.4062V41.0176H34.1992V41.0098H34.0801V41.002H33.9609V40.9941H33.873V40.9854H33.7939V40.9775H33.7139V40.9697H33.6504V40.9619H33.5869V40.9531H33.5234V40.9453H33.4678V40.9375H33.4111V40.9297H33.3643V40.9209H33.3164V40.9131H33.2686V40.9053H33.2207V40.8965H33.1807V40.8887H33.1406V40.8809H33.1016V40.873H33.0615V40.8643H33.0293V40.8564H32.9902V40.8486H32.958V40.8398H32.918V40.832H32.8867V40.8242H32.8545V40.8164H32.8223V40.8076H32.7988V40.7998H32.7666V40.792H32.7354V40.7842H32.7109V40.7754H32.6797V40.7676H32.6553V40.7598H32.624V40.752H32.5996V40.7432H32.5762V40.7354H32.5518V40.7275H32.5283V40.7188H32.4961V40.7109H32.4805V40.7031H32.457V40.6953H32.4326V40.6865H32.4092V40.6787H32.3848V40.6709H32.3691V40.6631H32.3447V40.6543H32.3213V40.6465H32.3057V40.6387H32.2812V40.6299H32.2656V40.6221H32.2422V40.6143H32.2256V40.6064H32.2021V40.5977H32.1855V40.5898H32.1621V40.582H32.1465V40.5742H32.1299V40.5654H32.1143V40.5576H32.0986V40.5498H32.0742V40.542H32.0586V40.5332H32.043V40.5254H32.0264V40.5176H32.0107V40.5088H31.9951V40.501H31.9785V40.4932H31.9629V40.4854H31.9473V40.4766H31.9316V40.4688H31.915V40.4609H31.8994V40.4531H31.8838V40.4443H31.8672V40.4365H31.8516V40.4287H31.8438V40.4199H31.8281V40.4121H31.8115V40.4043H31.7959V40.3965H31.7881V40.3877H31.7725V40.3799H31.7559V40.3721H31.7402V40.3643H31.7324V40.3555H31.7168V40.3477H31.709V40.3398H31.6924V40.3311H31.6768V40.3232H31.6689V40.3154H31.6523V40.3076H31.6445V40.2988H31.6289V40.291H31.6133V40.2832H31.6055V40.2754H31.5889V40.2666H31.5811V40.2588H31.5732V40.251H31.5576V40.2432H31.5488V40.2344H31.5332V40.2266H31.5254V40.2188H31.5176V40.21H31.502V40.2021H31.4932V40.1943H31.4775V40.1865H31.4697V40.1777H31.4619V40.1699H31.4463V40.1621H31.4375V40.1533H31.4297V40.1455H31.4219V40.1377H31.4062V40.1299H31.3984V40.1211H31.3896V40.1133H31.374V40.1055H31.3662V40.0977H31.3584V40.0889H31.3506V40.0811H31.3428V40.0732H31.3262V40.0654H31.3184V40.0566H31.3105V40.0488H31.3027V40.041H31.2949V40.0322H31.2861V40.0244H31.2705V40.0166H31.2627V40.0088H31.2549V40H31.2471V39.9922H31.2393V39.9844H31.2305V39.9766H31.2227V39.9678H31.2148V39.96H31.207V39.9521H31.1992V39.9434H31.1914V39.9355H31.1836V39.9277H31.1748V39.9199H31.167V39.9111H31.1592V39.9033H31.1514V39.8955H31.1436V39.8877H31.1357V39.8789H31.1279V39.8711H31.1191V39.8633H31.1113V39.8555H31.1035V39.8467H31.0957V39.8389H31.0879V39.8311H31.0801V39.8223H31.0723V39.8145H31.0635V39.8066H31.0557V39.7988H31.0479V39.79H31.04V39.7822H31.0322V39.7666H31.0244V39.7578H31.0156V39.75H31.0078V39.7422H31V39.7344H30.9922V39.7256H30.9844V39.7178H30.9766V39.7012H30.9688V39.6934H30.96V39.6855H30.9521V39.6777H30.9443V39.6611H30.9365V39.6533H30.9287V39.6445H30.9209V39.6367H30.9131V39.6211H30.9043V39.6123H30.8965V39.6045H30.8887V39.5967H30.8809V39.5801H30.873V39.5723H30.8652V39.5566H30.8564V39.5479H30.8486V39.54H30.8408V39.5234H30.833V39.5156H30.8252V39.5H30.8174V39.4912H30.8096V39.4834H30.8008V39.4678H30.793V39.459H30.7852V39.4434H30.7773V39.4346H30.7695V39.4189H30.7617V39.4111H30.7529V39.3945H30.7451V39.3867H30.7373V39.3701H30.7295V39.3545H30.7217V39.3467H30.7139V39.3301H30.7061V39.3135H30.6973V39.3057H30.6895V39.29H30.6816V39.2734H30.6738V39.2578H30.666V39.249H30.6582V39.2334H30.6494V39.2168H30.6416V39.2012H30.6338V39.1846H30.626V39.1768H30.6182V39.1602H30.6104V39.1445H30.6025V39.1279H30.5938V39.1123H30.5859V39.0957H30.5781V39.0801H30.5703V39.0635H30.5625V39.0479H30.5547V39.0312H30.5469V39.0068H30.5381V38.9912H30.5303V38.9746H30.5225V38.959H30.5146V38.9424H30.5068V38.9258H30.499V38.9023H30.4912V38.8857H30.4824V38.8613H30.4746V38.8457H30.4668V38.8213H30.459V38.8047H30.4512V38.7812H30.4434V38.7646H30.4355V38.7402H30.4268V38.7246H30.4189V38.7002H30.4111V38.6758H30.4033V38.6514H30.3955V38.627H30.3877V38.6113H30.3799V38.5869H30.3711V38.5625H25.668V38.5791H25.6758V38.627H25.6836V38.6758H25.6914V38.7246H25.6992V38.7646H25.708V38.8047H25.7158V38.8457H25.7236V38.8857H25.7314V38.9258H25.7393V38.9668H25.7471V39.0068H25.7559V39.0391H25.7637V39.0713H25.7715V39.1123H25.7793V39.1445H25.7871V39.1768H25.7949V39.209H25.8027V39.2412H25.8115V39.2734H25.8193V39.3057H25.8271V39.3379H25.835V39.3701H25.8428V39.3945H25.8506V39.4268H25.8584V39.4512H25.8672V39.4834H25.875V39.5078H25.8828V39.54H25.8906V39.5645H25.8984V39.5889H25.9062V39.6211H25.9141V39.6445H25.9229V39.6689H25.9307V39.6934H25.9385V39.7178H25.9463V39.7422H25.9541V39.7666H25.9619V39.79H25.9707V39.8145H25.9785V39.8389H25.9863V39.8633H25.9941V39.8877H26.002V39.9033H26.0098V39.9277H26.0176V39.9521H26.0264V39.9678H26.0342V39.9922H26.042V40.0166H26.0498V40.041H26.0576V40.0566H26.0654V40.0811H26.0732V40.0977H26.082V40.1211H26.0898V40.1377H26.0977V40.1621H26.1055V40.1777H26.1133V40.2021H26.1211V40.2188H26.1299V40.2344H26.1377V40.2588H26.1455V40.2754H26.1533V40.2988H26.1611V40.3154H26.1689V40.3311H26.1768V40.3555H26.1855V40.3721H26.1934V40.3877H26.2012V40.4043H26.209V40.4199H26.2168V40.4365H26.2246V40.4609H26.2324V40.4766H26.2412V40.4932H26.249V40.5088H26.2568V40.5254H26.2646V40.542H26.2725V40.5654H26.2803V40.582H26.2891V40.5977H26.2969V40.6143H26.3047V40.6221H26.3125V40.6387H26.3203V40.6543H26.3281V40.6709H26.3359V40.6865H26.3447V40.7031H26.3525V40.7188H26.3604V40.7354H26.3682V40.752H26.376V40.7676H26.3838V40.7842H26.3926V40.7998H26.4004V40.8164H26.4082V40.832H26.416V40.8398H26.4238V40.8564H26.4316V40.873H26.4395V40.8887H26.4482V40.8965H26.4561V40.9131H26.4639V40.9297H26.4717V40.9453H26.4795V40.9531H26.4873V40.9697H26.4951V40.9854H26.5039V41.002H26.5117V41.0098H26.5195V41.0264H26.5273V41.042H26.5352V41.0586H26.543V41.0664H26.5508V41.083H26.5596V41.0986H26.5674V41.1064H26.5752V41.123H26.583V41.1309H26.5908V41.1475H26.5986V41.1553H26.6064V41.1719H26.6152V41.1875H26.623V41.1953H26.6309V41.2119H26.6387V41.2197H26.6465V41.2363H26.6543V41.2441H26.6631V41.2607H26.6709V41.2764H26.6787V41.2842H26.6865V41.3008H26.6943V41.3086H26.7021V41.3252H26.71V41.333H26.7188V41.3486H26.7266V41.3574H26.7344V41.3652H26.7422V41.3818H26.75V41.3896H26.7578V41.4053H26.7656V41.4141H26.7744V41.4297H26.7822V41.4385H26.79V41.4463H26.7979V41.4619H26.8057V41.4707H26.8135V41.4863H26.8223V41.4941H26.8301V41.5107H26.8379V41.5186H26.8457V41.5264H26.8535V41.543H26.8613V41.5508H26.8691V41.5674H26.8779V41.5752H26.8857V41.583H26.8936V41.5918H26.9014V41.6074H26.9092V41.6152H26.917V41.624H26.9258V41.6396H26.9336V41.6475H26.9414V41.6562H26.9492V41.6641H26.957V41.6807H26.9648V41.6885H26.9727V41.6963H26.9814V41.7129H26.9893V41.7207H26.9971V41.7285H27.0049V41.7363H27.0127V41.7529H27.0205V41.7607H27.0283V41.7695H27.0371V41.7773H27.0449V41.793H27.0527V41.8018H27.0605V41.8096H27.0684V41.8174H27.0762V41.834H27.085V41.8418H27.0928V41.8496H27.1006V41.8574H27.1084V41.8662H27.1162V41.874H27.124V41.8818H27.1318V41.8984H27.1406V41.9062H27.1484V41.9141H27.1562V41.9229H27.1641V41.9307H27.1719V41.9385H27.1797V41.9473H27.1875V41.9629H27.1963V41.9707H27.2041V41.9795H27.2119V41.9873H27.2197V41.9951H27.2275V42.0029H27.2354V42.0195H27.2432V42.0273H27.252V42.0352H27.2598V42.0439H27.2676V42.0518H27.2754V42.0596H27.2832V42.0684H27.291V42.0762H27.2988V42.084H27.3076V42.0918H27.3154V42.1006H27.3232V42.1084H27.3311V42.1162H27.3389V42.124H27.3467V42.1328H27.3555V42.1406H27.3633V42.1484H27.3711V42.165H27.3789V42.1729H27.3867V42.1807H27.3945V42.1895H27.4023V42.1973H27.4111V42.2051H27.4189V42.2129H27.4268V42.2217H27.4346V42.2295H27.4424V42.2373H27.4502V42.2461H27.459V42.2539H27.4668V42.2617H27.4746V42.2695H27.4824V42.2783H27.4902V42.2861H27.498V42.2939H27.5059V42.3018H27.5146V42.3105H27.5225V42.3184H27.5303V42.3262H27.5381V42.334H27.5459V42.3428H27.5615V42.3506H27.5703V42.3584H27.5781V42.3672H27.5859V42.375H27.5938V42.3828H27.6016V42.3906H27.6094V42.3994H27.6182V42.4072H27.626V42.415H27.6338V42.4229H27.6416V42.4316H27.6494V42.4395H27.6572V42.4473H27.6738V42.4561H27.6816V42.4639H27.6895V42.4717H27.6973V42.4795H27.7051V42.4883H27.7129V42.4961H27.7217V42.5039H27.7295V42.5117H27.7373V42.5205H27.7451V42.5283H27.7607V42.5361H27.7686V42.5439H27.7773V42.5527H27.7852V42.5605H27.793V42.5684H27.8086V42.5771H27.8164V42.585H27.8242V42.5928H27.833V42.6006H27.8408V42.6094H27.8564V42.6172H27.8643V42.625H27.8721V42.6328H27.8799V42.6416H27.8887V42.6494H27.9043V42.6572H27.9121V42.666H27.9199V42.6738H27.9277V42.6816H27.9355V42.6895H27.9521V42.6982H27.96V42.7061H27.9678V42.7139H27.9756V42.7217H27.9834V42.7305H28V42.7383H28.0078V42.7461H28.0156V42.7549H28.0234V42.7627H28.0391V42.7705H28.0479V42.7783H28.0635V42.7871H28.0713V42.7949H28.0791V42.8027H28.0947V42.8105H28.1035V42.8193H28.1113V42.8271H28.127V42.835H28.1348V42.8428H28.1426V42.8516H28.1592V42.8594H28.167V42.8672H28.1748V42.876H28.1904V42.8838H28.1982V42.8916H28.207V42.8994H28.2227V42.9082H28.2305V42.916H28.2383V42.9238H28.2549V42.9316H28.2627V42.9404H28.2705V42.9482H28.2861V42.9561H28.2939V42.9648H28.3105V42.9727H28.3184V42.9805H28.334V42.9883H28.3418V42.9971H28.3574V43.0049H28.3662V43.0127H28.3818V43.0205H28.3896V43.0293H28.4053V43.0371H28.4141V43.0449H28.4297V43.0527H28.4375V43.0615H28.4531V43.0693H28.4609V43.0771H28.4775V43.0859H28.4854V43.0938H28.501V43.1016H28.5088V43.1094H28.5254V43.1182H28.5332V43.126H28.5488V43.1338H28.5566V43.1426H28.5723V43.1504H28.5811V43.1582H28.5967V43.166H28.6123V43.1748H28.6201V43.1826H28.6367V43.1904H28.6523V43.1982H28.6602V43.207H28.6758V43.2148H28.6924V43.2227H28.7002V43.2305H28.7158V43.2393H28.7314V43.2471H28.748V43.2549H28.7559V43.2637H28.7715V43.2715H28.7881V43.2793H28.7959V43.2871H28.8115V43.2959H28.8271V43.3037H28.8438V43.3115H28.8516V43.3193H28.8672V43.3281H28.8828V43.3359H28.8906V43.3438H28.9072V43.3516H28.9229V43.3604H28.9385V43.3682H28.9473V43.376H28.9629V43.3848H28.9785V43.3926H28.9941V43.4004H29.0107V43.4082H29.0264V43.417H29.042V43.4248H29.0586V43.4326H29.0742V43.4404H29.0898V43.4492H29.1064V43.457H29.1221V43.4648H29.1377V43.4736H29.1533V43.4814H29.1699V43.4893H29.1855V43.4971H29.2012V43.5059H29.2178V43.5137H29.2256V43.5215H29.2412V43.5293H29.2568V43.5381H29.2734V43.5459H29.2891V43.5537H29.3047V43.5615H29.3213V43.5703H29.3447V43.5781H29.3604V43.5859H29.377V43.5947H29.3926V43.6025H29.416V43.6104H29.4326V43.6182H29.4482V43.627H29.4639V43.6348H29.4883V43.6426H29.5039V43.6514H29.5195V43.6592H29.5361V43.667H29.5518V43.6748H29.5752V43.6836H29.5918V43.6914H29.6074V43.6992H29.623V43.707H29.6475V43.7158H29.6631V43.7236H29.6787V43.7314H29.6953V43.7393H29.7188V43.748H29.7432V43.7559H29.7588V43.7637H29.7822V43.7725H29.7988V43.7803H29.8223V43.7881H29.8457V43.7959H29.8623V43.8047H29.8857V43.8125H29.9014V43.8203H29.9258V43.8281H29.9414V43.8369H29.9658V43.8447H29.9893V43.8525H30.0049V43.8604H30.0293V43.8691H30.0449V43.877H30.0693V43.8848H30.0928V43.8936H30.1084V43.9014H30.1328V43.9092H30.1562V43.917H30.1807V43.9258H30.2041V43.9336H30.2285V43.9414H30.252V43.9492H30.2764V43.958H30.3076V43.9658H30.332V43.9736H30.3555V43.9824H30.3799V43.9902H30.4033V43.998H30.4268V44.0059H30.4512V44.0146H30.4746V44.0225H30.499V44.0303H30.5225V44.0381H30.5469V44.0469H30.5703V44.0547H30.6025V44.0625H30.6338V44.0713H30.6582V44.0791H30.6895V44.0869H30.7217V44.0947H30.7451V44.1035H30.7773V44.1113H30.8008V44.1191H30.833V44.127H30.8652V44.1357H30.8887V44.1436H30.9209V44.1514H30.9443V44.1602H30.9766V44.168H31.0078V44.1758H31.04V44.1836H31.0723V44.1924H31.1113V44.2002H31.1436V44.208H31.1836V44.2158H31.2148V44.2246H31.2471V44.2324H31.2861V44.2402H31.3184V44.248H31.3584V44.2568H31.3896V44.2646H31.4219V44.2725H31.4619V44.2812H31.4932V44.2891H31.5332V44.2969H31.5811V44.3047H31.6211V44.3135H31.6689V44.3213H31.7168V44.3291H31.7559V44.3369H31.8037V44.3457H31.8438V44.3535H31.8916V44.3613H31.9316V44.3691H31.9785V44.3779H32.0264V44.3857H32.0742V44.3936H32.1387V44.4023H32.1943V44.4102H32.25V44.418H32.3135V44.4258H32.3691V44.4346H32.4326V44.4424H32.4883V44.4502H32.5439V44.459H32.6074V44.4668H32.6953V44.4746H32.7744V44.4824H32.8623V44.4912H32.9502V44.499H33.0293V44.5068H33.1172V44.5146H33.2051V44.5234H33.3555V44.5312H33.499V44.5391H33.6426V44.5469H33.7939V44.5557H34.1035V44.5635H34.8682V44.5557H35.1787V44.5469H35.3379V44.5391H35.5049V44.5312H35.6641V44.5234H35.791V44.5146H35.8867V44.5068H35.9824V44.499H36.0781V44.4912H36.165V44.4824H36.2607V44.4746H36.3486V44.4668H36.4121V44.459H36.4834V44.4502H36.5469V44.4424H36.6113V44.4346H36.6748V44.4258H36.7383V44.418H36.8018V44.4102H36.8652V44.4023H36.9219V44.3936H36.9775V44.3857H37.0244V44.3779H37.0723V44.3691H37.1201V44.3613H37.168V44.3535H37.2158V44.3457H37.2637V44.3369H37.3115V44.3291H37.3594V44.3213H37.4072V44.3135H37.4551V44.3047H37.4941V44.2969H37.5264V44.2891H37.5664V44.2812H37.6055V44.2725H37.6455V44.2646H37.6777V44.2568H37.7168V44.248H37.7568V44.2402H37.7969V44.2324H37.8291V44.2246H37.8682V44.2158H37.9082V44.208H37.9482V44.2002H37.9795V44.1924H38.0117V44.1836H38.0439V44.1758H38.0752V44.168H38.0996V44.1602H38.1309V44.1514H38.1631V44.1436H38.1943V44.1357H38.2266V44.127H38.2588V44.1191H38.2822V44.1113H38.3145V44.1035H38.3457V44.0947H38.3779V44.0869H38.4092V44.0791H38.4414V44.0713H38.4658V44.0625H38.4893V44.0547H38.5215V44.0469H38.5449V44.0381H38.5684V44.0303H38.5928V44.0225H38.6162V44.0146H38.6484V44.0059H38.6719V43.998H38.6963V43.9902H38.7197V43.9824H38.7441V43.9736H38.7676V43.9658H38.7998V43.958H38.8232V43.9492H38.8477V43.9414H38.8711V43.9336H38.8955V43.9258H38.9189V43.917H38.9434V43.9092H38.9668V43.9014H38.9902V43.8936H39.0068V43.8848H39.0303V43.877H39.0547V43.8691H39.0703V43.8604H39.0938V43.8525H39.1182V43.8447H39.1338V43.8369H39.1582V43.8281H39.1816V43.8203H39.1973V43.8125H39.2217V43.8047H39.2451V43.7959H39.2607V43.7881H39.2852V43.7803H39.3086V43.7725H39.3252V43.7637H39.3486V43.7559H39.373V43.748H39.3887V43.7393H39.4121V43.7314H39.4287V43.7236H39.4443V43.7158H39.46V43.707H39.4844V43.6992H39.5V43.6914H39.5156V43.6836H39.5322V43.6748H39.5557V43.667H39.5713V43.6592H39.5879V43.6514H39.6113V43.6426H39.627V43.6348H39.6436V43.627H39.6592V43.6182H39.6826V43.6104H39.6992V43.6025H39.7148V43.5947H39.7305V43.5859H39.7549V43.5781H39.7705V43.5703H39.7861V43.5615H39.8105V43.5537H39.8262V43.5459H39.834V43.5381H39.8506V43.5293H39.8662V43.5215H39.8818V43.5137H39.8975V43.5059H39.9141V43.4971H39.9297V43.4893H39.9453V43.4814H39.9619V43.4736H39.9775V43.4648H39.9932V43.457H40.0098V43.4492H40.0254V43.4404H40.041V43.4326H40.0566V43.4248H40.0732V43.417H40.0889V43.4082H40.1045V43.4004H40.1211V43.3926H40.1367V43.3848H40.1523V43.376H40.1602V43.3682H40.1768V43.3604H40.1924V43.3516H40.208V43.3438H40.2246V43.3359H40.2402V43.3281H40.248V43.3193H40.2637V43.3115H40.2803V43.3037H40.2881V43.2959H40.3037V43.2871H40.3193V43.2793H40.3281V43.2715H40.3438V43.2637H40.3594V43.2549H40.375V43.2471H40.3838V43.2393H40.3994V43.2305H40.415V43.2227H40.4229V43.2148H40.4395V43.207H40.4551V43.1982H40.4629V43.1904H40.4785V43.1826H40.4951V43.1748H40.5029V43.166H40.5186V43.1582H40.5342V43.1504H40.543V43.1426H40.5586V43.1338H40.5742V43.126H40.5898V43.1182H40.5986V43.1094H40.6064V43.1016H40.6221V43.0938H40.6299V43.0859H40.6465V43.0771H40.6543V43.0693H40.6699V43.0615H40.6777V43.0527H40.6934V43.0449H40.7021V43.0371H40.7178V43.0293H40.7256V43.0205H40.7412V43.0127H40.749V43.0049H40.7656V42.9971H40.7734V42.9883H40.7812V42.9805H40.7969V42.9727H40.8057V42.9648H40.8213V42.9561H40.8291V42.9482H40.8447V42.9404H40.8525V42.9316H40.8691V42.9238H40.877V42.916H40.8926V42.9082H40.9004V42.8994H40.917V42.8916H40.9248V42.8838H40.9404V42.876H40.9482V42.8672H40.9561V42.8594H40.9727V42.8516H40.9805V42.8428H40.9883V42.835H40.9961V42.8271H41.0117V42.8193H41.0205V42.8105H41.0283V42.8027H41.0361V42.7949H41.0518V42.7871H41.0596V42.7783H41.0674V42.7705H41.084V42.7627H41.0918V42.7549H41.0996V42.7461H41.1074V42.7383H41.124V42.7305H41.1318V42.7217H41.1396V42.7139H41.1553V42.7061H41.1631V42.6982H41.1709V42.6895H41.1797V42.6816H41.1953V42.6738H41.2031V42.666H41.2109V42.6572H41.2266V42.6494H41.2354V42.6416H41.2432V42.6328H41.251V42.625H41.2666V42.6172H41.2744V42.6094H41.2822V42.6006H41.291V42.5928H41.2988V42.585H41.3066V42.5771H41.3223V42.5684H41.3301V42.5605H41.3389V42.5527H41.3467V42.5439H41.3545V42.5361H41.3623V42.5283H41.3701V42.5205H41.3779V42.5117H41.3945V42.5039H41.4023V42.4961H41.4102V42.4883H41.418V42.4795H41.4258V42.4717H41.4336V42.4639H41.4424V42.4561H41.4502V42.4473H41.458V42.4395H41.4736V42.4316H41.4814V42.4229H41.4893V42.415H41.498V42.4072H41.5059V42.3994H41.5137V42.3906H41.5215V42.3828H41.5293V42.375H41.5449V42.3672H41.5537V42.3584H41.5615V42.3506H41.5693V42.3428H41.5771V42.334H41.585V42.3262H41.5928V42.3184H41.6016V42.3105H41.6094V42.3018H41.6172V42.2939H41.625V42.2861H41.6328V42.2783H41.6406V42.2695H41.6484V42.2617H41.6572V42.2539H41.665V42.2461H41.6729V42.2373H41.6807V42.2295H41.6885V42.2217H41.6963V42.2129H41.7041V42.2051H41.7129V42.1973H41.7207V42.1895H41.7285V42.1807H41.7363V42.1729H41.7441V42.165H41.752V42.1562H41.7598V42.1484H41.7686V42.1406H41.7764V42.1328H41.7842V42.124H41.792V42.1162H41.7998V42.1084H41.8076V42.1006H41.8164V42.0918H41.8242V42.084H41.832V42.0762H41.8398V42.0684H41.8477V42.0596H41.8555V42.0518H41.8633V42.0439H41.8721V42.0352H41.8799V42.0195H41.8877V42.0117H41.8955V42.0029H41.9033V41.9951H41.9111V41.9873H41.9189V41.9795H41.9277V41.9629H41.9355V41.9551H41.9434V41.9473H41.9512V41.9385H41.959V41.9307H41.9668V41.9229H41.9756V41.9141H41.9834V41.8984H41.9912V41.8906H41.999V41.8818H42.0068V41.874H42.0146V41.8662H42.0225V41.8574H42.0312V41.8418H42.0391V41.834H42.0469V41.8252H42.0547V41.8174H42.0625V41.8096H42.0703V41.8018H42.0781V41.7852H42.0869V41.7773H42.0947V41.7695H42.1025V41.7607H42.1104V41.7529H42.1182V41.7451H42.126V41.7285H42.1348V41.7207H42.1426V41.7129H42.1504V41.7041H42.1582V41.6963H42.166V41.6807H42.1738V41.6719H42.1816V41.6641H42.1904V41.6475H42.1982V41.6396H42.2061V41.6318H42.2139V41.6152H42.2217V41.6074H42.2295V41.5996H42.2383V41.583H42.2461V41.5752H42.2539V41.5674H42.2617V41.5508H42.2695V41.543H42.2773V41.5352H42.2852V41.5186H42.2939V41.5107H42.3018V41.5029H42.3096V41.4863H42.3174V41.4785H42.3252V41.4707H42.333V41.4541H42.3408V41.4463H42.3496V41.4385H42.3574V41.4219H42.3652V41.4141H42.373V41.4053H42.3809V41.3896H42.3887V41.3818H42.3965V41.373H42.4053V41.3574H42.4131V41.3486H42.4209V41.333H42.4287V41.3252H42.4365V41.3086H42.4443V41.3008H42.4531V41.2842H42.4609V41.2764H42.4688V41.2607H42.4766V41.252H42.4844V41.2363H42.4922V41.2275H42.5V41.2119H42.5088V41.2041H42.5166V41.1875H42.5244V41.1719H42.5322V41.1631H42.54V41.1475H42.5479V41.1387H42.5557V41.123H42.5645V41.1152H42.5723V41.0986H42.5801V41.0908H42.5879V41.0742H42.5957V41.0664H42.6035V41.0508H42.6113V41.042H42.6201V41.0264H42.6279V41.0176H42.6357V41.002H42.6436V40.9854H42.6514V40.9775H42.6592V40.9619H42.668V40.9453H42.6758V40.9297H42.6836V40.9209H42.6914V40.9053H42.6992V40.8887H42.707V40.873H42.7148V40.8643H42.7236V40.8486H42.7314V40.832H42.7393V40.8164H42.7471V40.8076H42.7549V40.792H42.7627V40.7754H42.7715V40.7598H42.7793V40.752H42.7871V40.7354H42.7949V40.7188H42.8027V40.7109H42.8105V40.6953H42.8184V40.6787H42.8271V40.6631H42.835V40.6543H42.8428V40.6387H42.8506V40.6221H42.8584V40.6064H42.8662V40.5898H42.874V40.5742H42.8828V40.5576H42.8906V40.542H42.8984V40.5254H42.9062V40.5088H42.9141V40.4932H42.9219V40.4766H42.9307V40.4609H42.9385V40.4443H42.9463V40.4287H42.9541V40.4121H42.9619V40.3965H42.9697V40.3799H42.9775V40.3643H42.9863V40.3477H42.9941V40.3311H43.002V40.3154H43.0098V40.2988H43.0176V40.2832H43.0254V40.2666H43.0332V40.251H43.042V40.2266H43.0498V40.21H43.0576V40.1943H43.0654V40.1699H43.0732V40.1533H43.0811V40.1377H43.0889V40.1133H43.0977V40.0977H43.1055V40.0811H43.1133V40.0566H43.1211V40.041H43.1289V40.0244H43.1367V40.0088H43.1455V39.9844H43.1533V39.9678H43.1611V39.9521H43.1689V39.9277H43.1768V39.9111H43.1846V39.8955H43.1924V39.8711H43.2012V39.8555H43.209V39.8389H43.2168V39.8145H43.2246V39.79H43.2324V39.7666H43.2402V39.75H43.248V39.7256H43.2568V39.7012H43.2646V39.6855H43.2725V39.6611H43.2803V39.6367H43.2881V39.6211H43.2959V39.5967H43.3047V39.5723H43.3125V39.5479H43.3203V39.5322H43.3281V39.5078H43.3359V39.4834H43.3438V39.4678H43.3516V39.4434H43.3604V39.4189H43.3682V39.3945H43.376V39.3701H43.3838V39.3467H43.3916V39.3223H43.3994V39.29H43.4072V39.2656H43.416V39.2412H43.4238V39.2168H43.4316V39.1924H43.4395V39.1689H43.4473V39.1357H43.4551V39.1123H43.4639V39.0879H43.4717V39.0635H43.4795V39.0391H43.4873V39.0068H43.4951V38.9824H43.5029V38.959H43.5107V38.9258H43.5195V38.8936H43.5273V38.8613H43.5352V38.8379H43.543V38.8047H43.5508V38.7725H43.5586V38.7402H43.5674V38.7158H43.5752V38.6836H43.583V38.6514H43.5908V38.6191H43.5986V38.5869H43.6064V38.5625H43.6143V38.5303H43.623V38.498H43.6309V38.458H43.6387V38.4258H43.6465V38.3848H43.6543V38.3447H43.6621V38.3125H43.6699V38.2725H43.6787V38.2402H43.6865V38.1992H43.6943V38.1592H43.7021V38.127H43.71V38.0859H43.7178V38.0537H43.7256V38.0137H43.7344V37.9648H43.7422V37.917H43.75V37.8682H43.7578V37.8281H43.7656V37.7793H43.7734V37.7305H43.7812V37.6904H43.79V37.6426H43.7979V37.5938H43.8057V37.5537H43.8135V37.4971H43.8213V37.4404H43.8291V37.376H43.8379V37.3193H43.8457V37.2627H43.8535V37.2061H43.8613V37.1416H43.8691V37.085H43.877V37.0283H43.8848V36.9473H43.8936V36.8672H43.9014V36.7861H43.9092V36.7129H43.917V36.6328H43.9248V36.5518H43.9326V36.4629H43.9404V36.3418H43.9492V36.2285H43.957V36.1152H43.9648V36.0029H43.9727V35.8252H43.9805V35.6309H43.9883V35.4297H43.9971V34.9932H44.0049V21.9414H44.0127V21.1182H44.0205V20.3027H44.0283V19.8584H44.0361V19.8018H43.8535V19.8096H43.7734V19.8174H43.7021V19.8262H43.6387V19.834H43.5674V19.8418H43.5195V19.8506H43.4717V19.8584H43.4238V19.8662H43.376V19.874H43.3281V19.8828H43.2803V19.8906H43.2402V19.8984H43.1924V19.9062H43.1533V19.915H43.1211V19.9229H43.0889V19.9307H43.0576V19.9385H43.0176V19.9473H42.9863V19.9551H42.9541V19.9629H42.9219V19.9717H42.8906V19.9795H42.8506V19.9873H42.8184V19.9951H42.7949V20.0039H42.7715V20.0117H42.7471V20.0195H42.7148V20.0273H42.6914V20.0361H42.668V20.0439H42.6436V20.0518H42.6113V20.0596H42.5879V20.0684H42.5645V20.0762H42.54V20.084H42.5088V20.0928H42.4844V20.1006H42.4609V20.1084H42.4443V20.1162H42.4209V20.125H42.3965V20.1328H42.3809V20.1406H42.3574V20.1484H42.3408V20.1572H42.3174V20.165H42.2939V20.1729H42.2773V20.1816H42.2539V20.1895H42.2295V20.1973H42.2139V20.2051H42.1904V20.2139H42.1738V20.2217H42.1504V20.2295H42.1348V20.2373H42.1104V20.2461H42.0947V20.2539H42.0781V20.2617H42.0625V20.2695H42.0469V20.2783H42.0312V20.2861H42.0068V20.2939H41.9912V20.3027H41.9756V20.3105H41.959V20.3184H41.9434V20.3262H41.9189V20.335H41.9033V20.3428H41.8877V20.3506H41.8721V20.3594H41.8555V20.3672H41.8398V20.375H41.8242V20.3828H41.8076V20.3916H41.792V20.3994H41.7764V20.4072H41.7598V20.415H41.7441V20.4238H41.7285V20.4316H41.7207V20.4395H41.7041V20.4473H41.6885V20.4561H41.6729V20.4639H41.6572V20.4717H41.6406V20.4805H41.6328V20.4883H41.6172V20.4961H41.6016V20.5039H41.585V20.5127H41.5693V20.5205H41.5537V20.5283H41.5371V20.5361H41.5293V20.5449H41.5137V20.5527H41.498V20.5605H41.4893V20.5693H41.4736V20.5771H41.4658V20.585H41.4502V20.5928H41.4336V20.6016H41.4258V20.6094H41.4102V20.6172H41.4023V20.625H41.3857V20.6338H41.3779V20.6416H41.3623V20.6494H41.3467V20.6572H41.3389V20.666H41.3223V20.6738H41.3145V20.6816H41.2988V20.6904H41.2822V20.6982H41.2744V20.7061H41.2588V20.7139H41.251V20.7227H41.2354V20.7305H41.2266V20.7383H41.2109V20.7461H41.2031V20.7549H41.1953V20.7627H41.1797V20.7705H41.1709V20.7783H41.1631V20.7871H41.1475V20.7949H41.1396V20.8027H41.1318V20.8115H41.1152V20.8193H41.1074V20.8271H41.0918V20.835H41.084V20.8438H41.0762V20.8516H41.0596V20.8594H41.0518V20.8682H41.0439V20.876H41.0283V20.8838H41.0205V20.8916H41.0117V20.9004H40.9961V20.9082H40.9883V20.916H40.9727V20.9238H40.9648V20.9326H40.9561V20.9404H40.9482V20.9482H40.9404V20.9561H40.9248V20.9648H40.917V20.9727H40.9092V20.9805H40.9004V20.9893H40.8926V20.9971H40.877V21.0049H40.8691V21.0127H40.8613V21.0215H40.8525V21.0293H40.8447V21.0371H40.8369V21.0449H40.8213V21.0537H40.8135V21.0615H40.8057V21.0693H40.7969V21.0781H40.7891V21.0859H40.7812V21.0938H40.7656V21.1016H40.7578V21.1104H40.749V21.1182H40.7412V21.126H40.7334V21.1338H40.7178V21.1426H40.71V21.1504H40.7021V21.1582H40.6934V21.166H40.6855V21.1748H40.6777V21.1826H40.6699V21.1904H40.6621V21.1992H40.6543V21.207H40.6465V21.2148H40.6377V21.2227H40.6299V21.2314H40.6221V21.2393H40.6143V21.2471H40.6064V21.2549H40.5986V21.2637H40.5898V21.2715H40.582V21.2793H40.5742V21.2881H40.5664V21.2959H40.5586V21.3037H40.5508V21.3115H40.543V21.3203H40.5342V21.3281H40.5264V21.3359H40.5186V21.3438H40.5107V21.3525H40.5029V21.3604H40.4951V21.3682H40.4873V21.377H40.4785V21.3848H40.4707V21.3926H40.4629V21.4004H40.4551V21.4092H40.4473V21.417H40.4395V21.4248H40.4307V21.4414H40.4229V21.4492H40.415V21.457H40.4072V21.4648H40.3994V21.4736H40.3916V21.4814H40.3838V21.4893H40.375V21.5059H40.3672V21.5137H40.3594V21.5215H40.3516V21.5303H40.3438V21.5381H40.3359V21.5459H40.3281V21.5547H40.3193V21.5703H40.3115V21.5781H40.3037V21.5869H40.2959V21.5947H40.2881V21.6025H40.2803V21.6104H40.2725V21.6191H40.2637V21.6348H40.2559V21.6426H40.248V21.6514H40.2402V21.667H40.2324V21.6758H40.2246V21.6836H40.2158V21.6992H40.208V21.708H40.2002V21.7158H40.1924V21.7314H40.1846V21.7402H40.1768V21.748H40.1689V21.7637H40.1602V21.7725H40.1523V21.7803H40.1445V21.7969H40.1367V21.8047H40.1289V21.8125H40.1211V21.8291H40.1133V21.8369H40.1045V21.8447H40.0967V21.8613H40.0889V21.8691H40.0811V21.877H40.0732V21.8936H40.0654V21.9014H40.0566V21.918H40.0488V21.9336H40.041V21.9414H40.0332V21.958H40.0254V21.9658H40.0176V21.9824H40.0098V21.998H40.001V22.0068H39.9932V22.0225H39.9854V22.0303H39.9775V22.0469H39.9697V22.0635H39.9619V22.0713H39.9531V22.0869H39.9453V22.0957H39.9375V22.1113H39.9297V22.1191H39.9219V22.1357H39.9141V22.1514H39.9062V22.1602H39.8975V22.1758H39.8896V22.1924H39.8818V22.208H39.874V22.2246H39.8662V22.2402H39.8584V22.2568H39.8506V22.2725H39.8418V22.2891H39.834V22.3057H39.8262V22.3135H39.8184V22.3291H39.8105V22.3457H39.8027V22.3613H39.7949V22.3779H39.7861V22.3945H39.7783V22.4102H39.7705V22.4268H39.7627V22.4424H39.7549V22.459H39.7471V22.4746H39.7383V22.499H39.7305V22.5156H39.7227V22.5312H39.7148V22.5557H39.707V22.5723H39.6992V22.5879H39.6914V22.6045H39.6826V22.6279H39.6748V22.6445H39.667V22.6602H39.6592V22.6846H39.6514V22.709H39.6436V22.7256H39.6357V22.709H39.627V22.6934H39.6191V22.6689H39.6113V22.6523H39.6035V22.6445H39.5957V22.6279H39.5879V22.6123H39.5801V22.5957H39.5713V22.5801H39.5635V22.5635H39.5557V22.5479H39.5479V22.5312H39.54V22.5156H39.5322V22.499H39.5234V22.4824H39.5156V22.4746H39.5078V22.459H39.5V22.4424H39.4922V22.4346H39.4844V22.418H39.4766V22.4023H39.4678V22.3945H39.46V22.3779H39.4521V22.3613H39.4443V22.3535H39.4365V22.3379H39.4287V22.3213H39.4199V22.3135H39.4121V22.2969H39.4043V22.2812H39.3965V22.2725H39.3887V22.2568H39.3809V22.249H39.373V22.2324H39.3643V22.2246H39.3564V22.2168H39.3486V22.2002H39.3408V22.1924H39.333V22.1758H39.3252V22.168H39.3174V22.1514H39.3086V22.1436H39.3008V22.1357H39.293V22.1191H39.2852V22.1113H39.2773V22.0957H39.2695V22.0869H39.2607V22.0713H39.2529V22.0635H39.2451V22.0547H39.2373V22.0469H39.2295V22.0303H39.2217V22.0225H39.2139V22.0146H39.2051V21.998H39.1973V21.9902H39.1895V21.9824H39.1816V21.9736H39.1738V21.958H39.166V21.9502H39.1582V21.9414H39.1494V21.9336H39.1416V21.918H39.1338V21.9092H39.126V21.9014H39.1182V21.8936H39.1104V21.8857H39.1025V21.877H39.0938V21.8613H39.0859V21.8525H39.0781V21.8447H39.0703V21.8369H39.0625V21.8291H39.0547V21.8125H39.0459V21.8047H39.0381V21.7969H39.0303V21.7881H39.0225V21.7803H39.0146V21.7637H39.0068V21.7559H38.999V21.748H38.9902V21.7402H38.9824V21.7236H38.9746V21.7158H38.9668V21.708H38.959V21.6992H38.9512V21.6914H38.9434V21.6758H38.9346V21.667H38.9268V21.6592H38.9189V21.6514H38.9111V21.6592H38.9033V21.6514H38.8955V21.6426H38.8867V21.6348H38.8789V21.627H38.8711V21.6191H38.8633V21.6104H38.8555V21.6025H38.8477V21.5947H38.8398V21.5869H38.8311V21.5781H38.8232V21.5703H38.8154V21.5625H38.8076V21.5547H38.7998V21.5459H38.792V21.5381H38.7842V21.5303H38.7754V21.5215H38.7676V21.5137H38.7598V21.5059H38.752V21.498H38.7363V21.4893H38.7275V21.4814H38.7197V21.4736H38.7119V21.4648H38.7041V21.457H38.6963V21.4492H38.6885V21.4414H38.6807V21.4326H38.6719V21.4248H38.6641V21.417H38.6562V21.4092H38.6406V21.4004H38.6328V21.3926H38.624V21.3848H38.6162V21.377H38.6084V21.3682H38.6006V21.3604H38.5928V21.3525H38.585V21.3438H38.5684V21.3359H38.5605V21.3281H38.5527V21.3203H38.5449V21.3115H38.5371V21.3037H38.5293V21.2959H38.5127V21.2881H38.5049V21.2793H38.4971V21.2715H38.4893V21.2637H38.4814V21.2549H38.4736V21.2471H38.457V21.2393H38.4492V21.2314H38.4414V21.2227H38.4336V21.2148H38.418V21.207H38.4092V21.1992H38.4014V21.1904H38.3936V21.1826H38.3779V21.1748H38.3701V21.166H38.3623V21.1582H38.3535V21.1504H38.3379V21.1426H38.3301V21.1338H38.3223V21.126H38.3145V21.1182H38.2979V21.1104H38.29V21.1016H38.2822V21.0938H38.2744V21.0859H38.2588V21.0781H38.251V21.0693H38.2344V21.0615H38.2266V21.0537H38.2188V21.0449H38.2031V21.0371H38.1943V21.0293H38.1865V21.0215H38.1709V21.0127H38.1631V21.0049H38.1553V20.9971H38.1387V20.9893H38.1309V20.9805H38.123V20.9727H38.1074V20.9648H38.0996V20.9561H38.083V20.9482H38.0752V20.9404H38.0596V20.9326H38.0518V20.9238H38.0439V20.916H38.0273V20.9082H38.0195V20.9004H38.0039V20.8916H37.9961V20.8838H37.9795V20.876H37.9717V20.8682H37.9561V20.8594H37.9482V20.8516H37.9316V20.8438H37.9238V20.835H37.9082V20.8271H37.9004V20.8193H37.8848V20.8115H37.876V20.8027H37.8604V20.7949H37.8525V20.7871H37.8369V20.7783H37.8291V20.7705H37.8125V20.7627H37.7969V20.7549H37.7891V20.7461H37.7734V20.7383H37.7646V20.7305H37.749V20.7227H37.7412V20.7139H37.7256V20.7061H37.709V20.6982H37.7012V20.6904H37.6855V20.6816H37.6699V20.6738H37.6611V20.666H37.6455V20.6572H37.6299V20.6494H37.6221V20.6416H37.6055V20.6338H37.5898V20.625H37.582V20.6172H37.5664V20.6094H37.5498V20.6016H37.542V20.5928H37.5264V20.585H37.5107V20.5771H37.4941V20.5693H37.4863V20.5605H37.4707V20.5527H37.4551V20.5449H37.4385V20.5361H37.4229V20.5283H37.4072V20.5205H37.3984V20.5127H37.3828V20.5039H37.3672V20.4961H37.3516V20.4883H37.335V20.4805H37.3271V20.4717H37.3115V20.4639H37.2949V20.4561H37.2793V20.4473H37.2637V20.4395H37.248V20.4316H37.2314V20.4238H37.2158V20.415H37.2002V20.4072H37.1836V20.3994H37.168V20.3916H37.1523V20.3828H37.1367V20.375H37.1201V20.3672H37.1045V20.3594H37.0967V20.3506H37.0801V20.3428H37.0566V20.335H37.041V20.3262H37.0244V20.3184H37.0088V20.3105H36.9932V20.3027H36.9775V20.2939H36.9609V20.2861H36.9453V20.2783H36.9297V20.2695H36.9053V20.2617H36.8896V20.2539H36.874V20.2461H36.8574V20.2373H36.8418V20.2295H36.8262V20.2217H36.8018V20.2139H36.7861V20.2051H36.7705V20.1973H36.7461V20.1895H36.7305V20.1816H36.7148V20.1729H36.6904V20.165H36.6748V20.1572H36.6592V20.1484H36.6426V20.1406H36.6191V20.1328H36.6025V20.125H36.5791V20.1162H36.5635V20.1084H36.5391V20.1006H36.5234V20.0928H36.5V20.084H36.4834V20.0762H36.46V20.0684H36.4443V20.0596H36.4199V20.0518H36.4043V20.0439H36.3799V20.0361H36.3643V20.0273H36.3408V20.0195H36.3164V20.0117H36.293V20.0039H36.2764V19.9951H36.2529V19.9873H36.2285V19.9795H36.2129V19.9717H36.1895V19.9629H36.165V19.9551H36.1416V19.9473H36.1172V19.9385H36.0938V19.9307H36.0781V19.9229H36.0537V19.915H36.0303V19.9062H36.0059V19.8984H35.9824V19.8906H35.958V19.8828H35.9346V19.874H35.9102V19.8662H35.8789V19.8584H35.8545V19.8506H35.8311V19.8418H35.8076V19.834H35.7754V19.8262H35.752V19.8174H35.7275V19.8096H35.7041V19.8018H35.6719V19.7939H35.6484V19.7852H35.6162V19.7773H35.5928V19.7695H35.5605V19.7607H35.5361V19.7529H35.5049V19.7451H35.4727V19.7373H35.4414V19.7285H35.4092V19.7207H35.377V19.7129H35.3457V19.7051H35.3135V19.6963H35.2822V19.6885H35.2422V19.6807H35.21V19.6729H35.1787V19.6641H35.1465V19.6562H35.1064V19.6484H35.0674V19.6396H35.0273V19.6318H34.9873V19.624H34.9473V19.6162H34.9082V19.6074H34.8682V19.5996H34.8281V19.5918H34.7881V19.584H34.749V19.5752H34.709V19.5674H34.6611V19.5596H34.6055V19.5508H34.5498V19.543H34.4863V19.5352H34.4307V19.5273H34.375V19.5186H34.3193V19.5107H34.2637V19.5029H34.1992V19.4951H34.1035V19.4863H34.0088V19.4785H33.9131V19.4707H33.8174V19.4629H33.6348V19.4541H33.0938ZM15.2266 12.0566V12.0645H15.1309V12.0723H15.0586V12.0811H14.9951V12.0889H14.9238V12.0967H14.8682V12.1045H14.8203V12.1133H14.7725V12.1211H14.7246V12.1289H14.6768V12.1367H14.6367V12.1455H14.5977V12.1533H14.5576V12.1611H14.5176V12.1699H14.4863V12.1777H14.4463V12.1855H14.4141V12.1934H14.3828V12.2021H14.3506V12.21H14.3184V12.2178H14.2871V12.2266H14.2549V12.2344H14.2314V12.2422H14.207V12.25H14.1758V12.2588H14.1514V12.2666H14.1201V12.2744H14.0957V12.2822H14.0723V12.291H14.0479V12.2988H14.0244V12.3066H14V12.3145H13.9766V12.3232H13.9531V12.3311H13.9287V12.3389H13.9053V12.3477H13.8809V12.3555H13.8574V12.3633H13.8408V12.3711H13.8174V12.3799H13.8018V12.3877H13.7773V12.3955H13.7539V12.4033H13.7383V12.4121H13.7139V12.4199H13.6982V12.4277H13.6738V12.4355H13.6582V12.4443H13.6426V12.4521H13.6182V12.46H13.6025V12.4688H13.5869V12.4766H13.5625V12.4844H13.5469V12.4922H13.5312V12.501H13.5146V12.5088H13.4912V12.5166H13.4756V12.5254H13.459V12.5332H13.4434V12.541H13.4277V12.5488H13.4111V12.5576H13.3955V12.5654H13.3799V12.5732H13.3633V12.5811H13.3477V12.5898H13.332V12.5977H13.3164V12.6055H13.2998V12.6133H13.2842V12.6221H13.2686V12.6299H13.252V12.6377H13.2363V12.6465H13.2207V12.6543H13.2129V12.6621H13.1963V12.6699H13.1807V12.6787H13.165V12.6865H13.1484V12.6943H13.1328V12.7021H13.125V12.7109H13.1094V12.7188H13.0928V12.7266H13.085V12.7354H13.0693V12.7432H13.0537V12.751H13.0449V12.7588H13.0293V12.7676H13.0137V12.7754H12.998V12.7832H12.9893V12.791H12.9736V12.7998H12.958V12.8076H12.9502V12.8154H12.9336V12.8232H12.9258V12.832H12.9102V12.8398H12.9023V12.8477H12.8857V12.8564H12.8779V12.8643H12.8623V12.8721H12.8545V12.8799H12.8389V12.8887H12.8301V12.8965H12.8145V12.9043H12.8066V12.9121H12.791V12.9209H12.7822V12.9287H12.7666V12.9365H12.7588V12.9443H12.751V12.9531H12.7354V12.9609H12.7266V12.9688H12.7109V12.9775H12.7031V12.9854H12.6953V12.9932H12.6797V13.001H12.6709V13.0098H12.6553V13.0176H12.6475V13.0254H12.6396V13.0342H12.624V13.042H12.6152V13.0498H12.6074V13.0576H12.5918V13.0664H12.584V13.0742H12.5762V13.082H12.5684V13.0898H12.5518V13.0986H12.5439V13.1064H12.5361V13.1143H12.5283V13.1221H12.5117V13.1309H12.5039V13.1387H12.4961V13.1465H12.4805V13.1553H12.4727V13.1631H12.4648V13.1709H12.4561V13.1787H12.4482V13.1875H12.4404V13.1953H12.4248V13.2031H12.417V13.2109H12.4092V13.2197H12.4004V13.2275H12.3926V13.2354H12.3848V13.2441H12.3691V13.252H12.3613V13.2598H12.3525V13.2676H12.3447V13.2764H12.3369V13.2842H12.3291V13.292H12.3213V13.2998H12.3135V13.3086H12.2969V13.3164H12.2891V13.3242H12.2812V13.332H12.2734V13.3408H12.2656V13.3486H12.2578V13.3564H12.249V13.3652H12.2412V13.373H12.2334V13.3809H12.2256V13.3887H12.2178V13.3975H12.21V13.4053H12.2021V13.4131H12.1934V13.4209H12.1855V13.4297H12.1777V13.4375H12.1699V13.4453H12.1621V13.4541H12.1543V13.4619H12.1465V13.4697H12.1377V13.4775H12.1299V13.4863H12.1221V13.4941H12.1143V13.502H12.1064V13.5098H12.0986V13.5186H12.0898V13.5264H12.082V13.5342H12.0742V13.543H12.0664V13.5508H12.0586V13.5586H12.0508V13.5664H12.043V13.5752H12.0342V13.583H12.0264V13.5908H12.0186V13.6074H12.0107V13.6152H12.0029V13.623H11.9951V13.6309H11.9873V13.6396H11.9785V13.6475H11.9707V13.6553H11.9629V13.6641H11.9551V13.6719H11.9473V13.6875H11.9395V13.6963H11.9316V13.7041H11.9229V13.7119H11.915V13.7197H11.9072V13.7363H11.8994V13.7441H11.8916V13.7529H11.8838V13.7607H11.876V13.7686H11.8672V13.7852H11.8594V13.793H11.8516V13.8008H11.8438V13.8086H11.8359V13.8252H11.8281V13.833H11.8193V13.8408H11.8115V13.8496H11.8037V13.8652H11.7959V13.874H11.7881V13.8818H11.7803V13.8975H11.7725V13.9062H11.7637V13.9141H11.7559V13.9307H11.748V13.9385H11.7402V13.9463H11.7324V13.9629H11.7246V13.9707H11.7158V13.9785H11.708V13.9951H11.7002V14.0029H11.6924V14.0186H11.6846V14.0273H11.6768V14.043H11.6689V14.0518H11.6602V14.0596H11.6523V14.0752H11.6445V14.084H11.6367V14.0996H11.6289V14.1074H11.6211V14.124H11.6133V14.1318H11.6045V14.1484H11.5967V14.1562H11.5889V14.1729H11.5811V14.1885H11.5732V14.1963H11.5654V14.2129H11.5566V14.2285H11.5488V14.2373H11.541V14.2529H11.5332V14.2617H11.5254V14.2773H11.5176V14.2939H11.5098V14.3018H11.501V14.3174H11.4932V14.334H11.4854V14.3506H11.4775V14.3584H11.4697V14.374H11.4619V14.3906H11.4531V14.4062H11.4453V14.4229H11.4375V14.4395H11.4297V14.4473H11.4219V14.4629H11.4141V14.4795H11.4062V14.4951H11.3975V14.5117H11.3896V14.5273H11.3818V14.5439H11.374V14.5605H11.3662V14.5762H11.3584V14.5928H11.3506V14.6084H11.3418V14.6328H11.334V14.6484H11.3262V14.665H11.3184V14.6816H11.3105V14.6973H11.3027V14.7217H11.2949V14.7383H11.2861V14.7539H11.2783V14.7783H11.2705V14.7939H11.2627V14.8105H11.2549V14.835H11.2471V14.8506H11.2393V14.875H11.2305V14.8994H11.2227V14.9238H11.2148V14.9395H11.207V14.9639H11.1992V14.9883H11.1914V15.0127H11.1826V15.0361H11.1748V15.0605H11.167V15.085H11.1592V15.1094H11.1514V15.1338H11.1436V15.166H11.1357V15.1904H11.127V15.2139H11.1191V15.2471H11.1113V15.2793H11.1035V15.3115H11.0957V15.3438H11.0879V15.376H11.0801V15.4082H11.0713V15.4482H11.0635V15.4893H11.0557V15.5293H11.0479V15.5693H11.04V15.626H11.0322V15.6748H11.0234V15.7314H11.0156V15.7959H11.0078V15.8682H11V36.835H15.6318V12.0566H15.2266ZM18.4736 19.8018V36.835H23.1055V19.8018H18.4736ZM35.2021 23.0889V23.0967H35.3691V23.1045H35.4893V23.1133H35.584V23.1211H35.6562V23.1289H35.7275V23.1367H35.7988V23.1455H35.8545V23.1533H35.9023V23.1611H35.9502V23.1689H35.998V23.1777H36.0459V23.1855H36.0859V23.1934H36.126V23.2021H36.165V23.21H36.2051V23.2178H36.2373V23.2256H36.2764V23.2344H36.3086V23.2422H36.3408V23.25H36.3721V23.2588H36.3965V23.2666H36.4277V23.2744H36.46V23.2822H36.4912V23.291H36.5156V23.2988H36.5391V23.3066H36.5713V23.3145H36.5947V23.3232H36.6191V23.3311H36.6426V23.3389H36.667V23.3467H36.6904V23.3555H36.7148V23.3633H36.7383V23.3711H36.7617V23.3799H36.7783V23.3877H36.8018V23.3955H36.8262V23.4033H36.8418V23.4121H36.8652V23.4199H36.8896V23.4277H36.9053V23.4355H36.9297V23.4443H36.9453V23.4521H36.9688V23.46H36.9854V23.4678H37.001V23.4766H37.0166V23.4844H37.041V23.4922H37.0566V23.501H37.0723V23.5088H37.0889V23.5166H37.1045V23.5244H37.1279V23.5332H37.1445V23.541H37.1602V23.5488H37.1758V23.5566H37.1924V23.5654H37.208V23.5732H37.2236V23.5811H37.2393V23.5898H37.2559V23.5977H37.2715V23.6055H37.2793V23.6133H37.2949V23.6221H37.3115V23.6299H37.3271V23.6377H37.3428V23.6455H37.3594V23.6543H37.375V23.6621H37.3828V23.6699H37.3984V23.6777H37.415V23.6865H37.4229V23.6943H37.4385V23.7021H37.4551V23.7109H37.4629V23.7188H37.4785V23.7266H37.4941V23.7344H37.5107V23.7432H37.5186V23.751H37.5342V23.7588H37.542V23.7676H37.5576V23.7754H37.5664V23.7832H37.582V23.791H37.5898V23.7998H37.6055V23.8076H37.6143V23.8154H37.6299V23.8232H37.6377V23.832H37.6533V23.8398H37.6611V23.8477H37.6777V23.8555H37.6855V23.8643H37.7012V23.8721H37.709V23.8799H37.7256V23.8887H37.7334V23.8965H37.7412V23.9043H37.7568V23.9121H37.7646V23.9209H37.7734V23.9287H37.7812V23.9365H37.7969V23.9443H37.8047V23.9531H37.8125V23.9609H37.8291V23.9688H37.8369V23.9766H37.8447V23.9854H37.8604V23.9932H37.8682V24.001H37.876V24.0098H37.8926V24.0176H37.9004V24.0254H37.9082V24.0332H37.916V24.042H37.9238V24.0498H37.9316V24.0576H37.9482V24.0654H37.9561V24.0742H37.9639V24.082H37.9717V24.0898H37.9795V24.0986H37.9883V24.1064H38.0039V24.1143H38.0117V24.1221H38.0195V24.1309H38.0273V24.1387H38.0352V24.1465H38.0439V24.1543H38.0518V24.1631H38.0674V24.1709H38.0752V24.1787H38.083V24.1865H38.0908V24.1953H38.0996V24.2031H38.1074V24.2109H38.1152V24.2197H38.123V24.2275H38.1309V24.2354H38.1387V24.2432H38.1475V24.252H38.1553V24.2598H38.1631V24.2676H38.1709V24.2764H38.1787V24.2842H38.1865V24.292H38.1943V24.2998H38.2031V24.3086H38.2109V24.3164H38.2188V24.3242H38.2266V24.332H38.2344V24.3408H38.2422V24.3486H38.251V24.3564H38.2588V24.3643H38.2666V24.3809H38.2744V24.3887H38.2822V24.3975H38.29V24.4053H38.2979V24.4131H38.3066V24.4209H38.3145V24.4297H38.3223V24.4375H38.3301V24.4453H38.3379V24.4531H38.3457V24.4619H38.3535V24.4775H38.3623V24.4854H38.3701V24.4941H38.3779V24.502H38.3857V24.5098H38.3936V24.5264H38.4014V24.5342H38.4092V24.542H38.418V24.5508H38.4258V24.5664H38.4336V24.5742H38.4414V24.583H38.4492V24.5908H38.457V24.5986H38.4658V24.6152H38.4736V24.623H38.4814V24.6309H38.4893V24.6396H38.4971V24.6553H38.5049V24.6631H38.5127V24.6719H38.5215V24.6875H38.5293V24.6963H38.5371V24.7119H38.5449V24.7197H38.5527V24.7285H38.5605V24.7441H38.5684V24.752H38.5771V24.7607H38.585V24.7764H38.5928V24.7852H38.6006V24.8008H38.6084V24.8086H38.6162V24.8174H38.624V24.833H38.6328V24.8408H38.6406V24.8574H38.6484V24.8652H38.6562V24.8818H38.6641V24.8896H38.6719V24.9062H38.6807V24.9219H38.6885V24.9297H38.6963V24.9463H38.7041V24.9541H38.7119V24.9707H38.7197V24.9785H38.7275V24.9951H38.7363V25.0029H38.7441V25.0186H38.752V25.0352H38.7598V25.043H38.7676V25.0596H38.7754V25.0752H38.7842V25.0918H38.792V25.0996H38.7998V25.1162H38.8076V25.1318H38.8154V25.1484H38.8232V25.1562H38.8311V25.1719H38.8398V25.1885H38.8477V25.2051H38.8555V25.2129H38.8633V25.2285H38.8711V25.2451H38.8789V25.2607H38.8867V25.2773H38.8955V25.2939H38.9033V25.3096H38.9111V25.3262H38.9189V25.3418H38.9268V25.3584H38.9346V25.374H38.9434V25.3906H38.9512V25.4062H38.959V25.4229H38.9668V25.4385H38.9746V25.4551H38.9824V25.4795H38.9902V25.4951H38.999V25.5117H39.0068V25.5273H39.0146V25.5518H39.0225V25.5684H39.0303V25.584H39.0381V25.6006H39.0459V25.625H39.0547V25.6406H39.0625V25.6572H39.0703V25.6807H39.0781V25.7051H39.0859V25.7217H39.0938V25.7461H39.1025V25.7617H39.1104V25.7861H39.1182V25.8027H39.126V25.8262H39.1338V25.8428H39.1416V25.8672H39.1494V25.8906H39.1582V25.915H39.166V25.9395H39.1738V25.9639H39.1816V25.9883H39.1895V26.0127H39.1973V26.0361H39.2051V26.0605H39.2139V26.085H39.2217V26.1094H39.2295V26.1416H39.2373V26.166H39.2451V26.1982H39.2529V26.2227H39.2607V26.2549H39.2695V26.2783H39.2773V26.3115H39.2852V26.335H39.293V26.3672H39.3008V26.4004H39.3086V26.4326H39.3174V26.4727H39.3252V26.5049H39.333V26.5371H39.3408V26.5693H39.3486V26.6104H39.3564V26.6504H39.3643V26.6904H39.373V26.7314H39.3809V26.7715H39.3887V26.8115H39.3965V26.8525H39.4043V26.9092H39.4121V26.957H39.4199V27.0059H39.4287V27.0625H39.4365V27.1104H39.4443V27.1836H39.4521V27.248H39.46V27.3125H39.4678V27.3848H39.4766V27.4824H39.4844V27.5791H39.4922V27.7002H39.5V27.8613H39.5078V28.6211H39.5V28.79H39.4922V28.9199H39.4844V29.0166H39.4766V29.1133H39.4678V29.1943H39.46V29.2588H39.4521V29.332H39.4443V29.3965H39.4365V29.4609H39.4287V29.5098H39.4199V29.5576H39.4121V29.6143H39.4043V29.6631H39.3965V29.7109H39.3887V29.752H39.3809V29.792H39.373V29.832H39.3643V29.873H39.3564V29.9131H39.3486V29.9531H39.3408V29.9941H39.333V30.0264H39.3252V30.0586H39.3174V30.0908H39.3086V30.123H39.3008V30.1553H39.293V30.1875H39.2852V30.2197H39.2773V30.252H39.2695V30.2842H39.2607V30.3086H39.2529V30.3408H39.2451V30.3652H39.2373V30.3896H39.2295V30.4219H39.2217V30.4463H39.2139V30.4707H39.2051V30.5029H39.1973V30.5273H39.1895V30.5508H39.1816V30.5752H39.1738V30.5918H39.166V30.6152H39.1582V30.6396H39.1494V30.6641H39.1416V30.6885H39.1338V30.7129H39.126V30.7373H39.1182V30.7529H39.1104V30.7773H39.1025V30.793H39.0938V30.8174H39.0859V30.834H39.0781V30.8584H39.0703V30.874H39.0625V30.8984H39.0547V30.915H39.0459V30.9385H39.0381V30.9551H39.0303V30.9795H39.0225V30.9951H39.0146V31.0117H39.0068V31.0273H38.999V31.0439H38.9902V31.0596H38.9824V31.084H38.9746V31.1006H38.9668V31.1162H38.959V31.1328H38.9512V31.1484H38.9434V31.165H38.9346V31.1807H38.9268V31.1973H38.9189V31.2139H38.9111V31.2295H38.9033V31.2461H38.8955V31.2617H38.8867V31.2783H38.8789V31.2939H38.8711V31.3105H38.8633V31.3262H38.8555V31.335H38.8477V31.3506H38.8398V31.3672H38.8311V31.3828H38.8232V31.3994H38.8154V31.415H38.8076V31.4238H38.7998V31.4395H38.792V31.4561H38.7842V31.4639H38.7754V31.4795H38.7676V31.4961H38.7598V31.5039H38.752V31.5205H38.7441V31.5361H38.7363V31.5449H38.7275V31.5605H38.7197V31.5771H38.7119V31.585H38.7041V31.6006H38.6963V31.6094H38.6885V31.625H38.6807V31.6338H38.6719V31.6494H38.6641V31.6572H38.6562V31.6738H38.6484V31.6816H38.6406V31.6982H38.6328V31.7061H38.624V31.7227H38.6162V31.7305H38.6084V31.7461H38.6006V31.7549H38.5928V31.7705H38.585V31.7783H38.5771V31.7949H38.5684V31.8027H38.5605V31.8105H38.5527V31.8193H38.5449V31.835H38.5371V31.8438H38.5293V31.8516H38.5215V31.8672H38.5127V31.876H38.5049V31.8838H38.4971V31.9004H38.4893V31.9082H38.4814V31.916H38.4736V31.9238H38.4658V31.9404H38.457V31.9482H38.4492V31.9561H38.4414V31.9727H38.4336V31.9805H38.4258V31.9883H38.418V31.9971H38.4092V32.0049H38.4014V32.0127H38.3936V32.0293H38.3857V32.0371H38.3779V32.0449H38.3701V32.0537H38.3623V32.0615H38.3535V32.0693H38.3457V32.0859H38.3379V32.0938H38.3301V32.1016H38.3223V32.1104H38.3145V32.1182H38.3066V32.126H38.2979V32.1426H38.29V32.1504H38.2822V32.1582H38.2744V32.166H38.2666V32.1748H38.2588V32.1826H38.251V32.1904H38.2422V32.1982H38.2344V32.207H38.2266V32.2148H38.2188V32.2227H38.2109V32.2314H38.2031V32.2393H38.1943V32.2471H38.1865V32.2549H38.1787V32.2637H38.1709V32.2715H38.1631V32.2793H38.1553V32.2871H38.1475V32.2959H38.1387V32.3037H38.1309V32.3115H38.123V32.3193H38.1152V32.3281H38.1074V32.3359H38.0996V32.3438H38.083V32.3525H38.0752V32.3604H38.0674V32.3682H38.0596V32.376H38.0518V32.3848H38.0439V32.3926H38.0352V32.4004H38.0273V32.4092H38.0195V32.417H38.0117V32.4248H38.0039V32.4326H37.9883V32.4414H37.9795V32.4492H37.9717V32.457H37.9639V32.4648H37.9561V32.4736H37.9404V32.4814H37.9316V32.4893H37.9238V32.4971H37.916V32.5059H37.9004V32.5137H37.8926V32.5215H37.8848V32.5303H37.876V32.5381H37.8682V32.5459H37.8525V32.5537H37.8447V32.5625H37.8369V32.5703H37.8291V32.5781H37.8125V32.5859H37.8047V32.5947H37.7969V32.6025H37.7812V32.6104H37.7734V32.6191H37.7568V32.627H37.749V32.6348H37.7412V32.6426H37.7256V32.6514H37.7168V32.6592H37.7012V32.667H37.6934V32.6748H37.6855V32.6836H37.6699V32.6914H37.6611V32.6992H37.6455V32.707H37.6377V32.7158H37.6299V32.7236H37.6143V32.7314H37.5977V32.7402H37.5898V32.748H37.5742V32.7559H37.5664V32.7637H37.5498V32.7725H37.542V32.7803H37.5264V32.7881H37.5107V32.7959H37.502V32.8047H37.4863V32.8125H37.4785V32.8203H37.4629V32.8281H37.4463V32.8369H37.4385V32.8447H37.4229V32.8525H37.4072V32.8613H37.3906V32.8691H37.375V32.877H37.3672V32.8848H37.3516V32.8936H37.335V32.9014H37.3193V32.9092H37.3037V32.918H37.2949V32.9258H37.2793V32.9336H37.2637V32.9414H37.248V32.9502H37.2314V32.958H37.2158V32.9658H37.2002V32.9736H37.1836V32.9824H37.168V32.9902H37.1523V32.998H37.1367V33.0059H37.1201V33.0146H37.0967V33.0225H37.0801V33.0303H37.0645V33.0391H37.0488V33.0469H37.0332V33.0547H37.0088V33.0625H36.9932V33.0713H36.9775V33.0791H36.9531V33.0869H36.9375V33.0947H36.9131V33.1035H36.8975V33.1113H36.8818V33.1191H36.8574V33.1279H36.8418V33.1357H36.8184V33.1436H36.7939V33.1514H36.7705V33.1602H36.7539V33.168H36.7305V33.1758H36.7061V33.1836H36.6826V33.1924H36.6592V33.2002H36.6348V33.208H36.6191V33.2158H36.5869V33.2246H36.5635V33.2324H36.5312V33.2402H36.5078V33.249H36.4834V33.2568H36.4521V33.2646H36.4277V33.2725H36.3965V33.2812H36.3721V33.2891H36.3408V33.2969H36.3008V33.3047H36.2686V33.3135H36.2373V33.3213H36.2051V33.3291H36.1729V33.3379H36.1338V33.3457H36.0938V33.3535H36.0537V33.3613H36.0137V33.3701H35.9746V33.3779H35.9268V33.3857H35.8789V33.3936H35.8232V33.4023H35.7754V33.4102H35.7197V33.418H35.6641V33.4268H35.584V33.4346H35.5049V33.4424H35.4248V33.4502H35.3135V33.459H35.1787V33.4668H34.5898V33.459H34.4785V33.4502H34.3662V33.4424H34.2949V33.4346H34.2314V33.4268H34.168V33.418H34.0957V33.4102H34.0479V33.4023H34.0088V33.3936H33.9609V33.3857H33.9131V33.3779H33.873V33.3701H33.8252V33.3613H33.7939V33.3535H33.7617V33.3457H33.7217V33.3379H33.6904V33.3291H33.6582V33.3213H33.6182V33.3135H33.5869V33.3047H33.5625V33.2969H33.5312V33.2891H33.5068V33.2812H33.4756V33.2725H33.4512V33.2646H33.4199V33.2568H33.3955V33.249H33.3643V33.2402H33.3398V33.2324H33.3242V33.2246H33.2998V33.2158H33.2764V33.208H33.252V33.2002H33.2285V33.1924H33.2051V33.1836H33.1807V33.1758H33.1572V33.168H33.1406V33.1602H33.1172V33.1514H33.1016V33.1436H33.0771V33.1357H33.0615V33.1279H33.0371V33.1191H33.0215V33.1113H33.0059V33.1035H32.9814V33.0947H32.9658V33.0869H32.9424V33.0791H32.9258V33.0713H32.9102V33.0625H32.8945V33.0547H32.8701V33.0469H32.8545V33.0391H32.8389V33.0303H32.8223V33.0225H32.8066V33.0146H32.791V33.0059H32.7744V32.998H32.7588V32.9902H32.7432V32.9824H32.7188V32.9736H32.7109V32.9658H32.6953V32.958H32.6797V32.9502H32.6631V32.9414H32.6475V32.9336H32.6318V32.9258H32.6152V32.918H32.6074V32.9092H32.5918V32.9014H32.5762V32.8936H32.5596V32.8848H32.5439V32.877H32.5283V32.8691H32.5205V32.8613H32.5039V32.8525H32.4883V32.8447H32.4805V32.8369H32.4648V32.8281H32.4482V32.8203H32.4404V32.8125H32.4248V32.8047H32.417V32.7959H32.4014V32.7881H32.3848V32.7803H32.377V32.7725H32.3613V32.7637H32.3535V32.7559H32.3369V32.748H32.3213V32.7402H32.3135V32.7314H32.2979V32.7236H32.2891V32.7158H32.2812V32.707H32.2656V32.6992H32.2578V32.6914H32.2422V32.6836H32.2334V32.6748H32.2178V32.667H32.21V32.6592H32.1943V32.6514H32.1855V32.6426H32.1777V32.6348H32.1621V32.627H32.1543V32.6191H32.1387V32.6104H32.1299V32.6025H32.1221V32.5947H32.1064V32.5859H32.0986V32.5781H32.0908V32.5703H32.082V32.5625H32.0664V32.5537H32.0586V32.5459H32.0508V32.5381H32.0352V32.5303H32.0264V32.5215H32.0186V32.5137H32.0107V32.5059H31.9951V32.4971H31.9873V32.4893H31.9785V32.4814H31.9629V32.4736H31.9551V32.4648H31.9473V32.457H31.9395V32.4492H31.9316V32.4414H31.9229V32.4326H31.9072V32.4248H31.8994V32.417H31.8916V32.4092H31.8838V32.4004H31.876V32.3926H31.8672V32.3848H31.8594V32.376H31.8438V32.3682H31.8359V32.3604H31.8281V32.3525H31.8203V32.3438H31.8115V32.3359H31.8037V32.3281H31.7959V32.3193H31.7803V32.3115H31.7725V32.3037H31.7646V32.2959H31.7559V32.2871H31.748V32.2793H31.7402V32.2715H31.7324V32.2637H31.7246V32.2549H31.7168V32.2471H31.709V32.2393H31.7002V32.2314H31.6924V32.2227H31.6846V32.2148H31.6768V32.207H31.6689V32.1982H31.6611V32.1904H31.6523V32.1826H31.6445V32.1748H31.6367V32.166H31.6289V32.1582H31.6211V32.1504H31.6133V32.1426H31.6055V32.1338H31.5967V32.126H31.5889V32.1182H31.5811V32.1104H31.5732V32.0938H31.5654V32.0859H31.5576V32.0771H31.5488V32.0693H31.541V32.0615H31.5332V32.0537H31.5254V32.0449H31.5176V32.0371H31.5098V32.0293H31.502V32.0215H31.4932V32.0127H31.4854V32.0049H31.4775V31.9883H31.4697V31.9805H31.4619V31.9727H31.4541V31.9648H31.4463V31.9561H31.4375V31.9404H31.4297V31.9326H31.4219V31.9238H31.4141V31.916H31.4062V31.9082H31.3984V31.8916H31.3896V31.8838H31.3818V31.876H31.374V31.8672H31.3662V31.8594H31.3584V31.8438H31.3506V31.835H31.3428V31.8271H31.334V31.8193H31.3262V31.8027H31.3184V31.7949H31.3105V31.7871H31.3027V31.7705H31.2949V31.7627H31.2861V31.7549H31.2783V31.7383H31.2705V31.7305H31.2627V31.7227H31.2549V31.7061H31.2471V31.6982H31.2393V31.6895H31.2305V31.6738H31.2227V31.666H31.2148V31.6572H31.207V31.6416H31.1992V31.6338H31.1914V31.6172H31.1836V31.6094H31.1748V31.5928H31.167V31.585H31.1592V31.5771H31.1514V31.5605H31.1436V31.5527H31.1357V31.5361H31.1279V31.5283H31.1191V31.5117H31.1113V31.5039H31.1035V31.4883H31.0957V31.4795H31.0879V31.4639H31.0801V31.4561H31.0723V31.4395H31.0635V31.4238H31.0557V31.415H31.0479V31.3994H31.04V31.3828H31.0322V31.375H31.0244V31.3584H31.0156V31.3428H31.0078V31.335H31V31.3184H30.9922V31.3018H30.9844V31.2939H30.9766V31.2783H30.9688V31.2695H30.96V31.2539H30.9521V31.2373H30.9443V31.2217H30.9365V31.2051H30.9287V31.1895H30.9209V31.1807H30.9131V31.165H30.9043V31.1484H30.8965V31.1328H30.8887V31.1162H30.8809V31.1006H30.873V31.084H30.8652V31.0762H30.8564V31.0596H30.8486V31.0439H30.8408V31.0273H30.833V31.0117H30.8252V30.9951H30.8174V30.9707H30.8096V30.9551H30.8008V30.9385H30.793V30.9229H30.7852V30.9062H30.7773V30.8906H30.7695V30.874H30.7617V30.8584H30.7529V30.8418H30.7451V30.8174H30.7373V30.8018H30.7295V30.7852H30.7217V30.7607H30.7139V30.7451H30.7061V30.7285H30.6973V30.7051H30.6895V30.6885H30.6816V30.6719H30.6738V30.6484H30.666V30.6318H30.6582V30.6074H30.6494V30.5918H30.6416V30.5674H30.6338V30.543H30.626V30.5186H30.6182V30.5029H30.6104V30.4785H30.6025V30.4541H30.5938V30.4385H30.5859V30.4141H30.5781V30.3896H30.5703V30.3652H30.5625V30.3408H30.5547V30.3174H30.5469V30.293H30.5381V30.2686H30.5303V30.2363H30.5225V30.2119H30.5146V30.1875H30.5068V30.1631H30.499V30.1309H30.4912V30.1064H30.4824V30.0742H30.4746V30.042H30.4668V30.0186H30.459V29.9854H30.4512V29.9531H30.4434V29.9209H30.4355V29.8887H30.4268V29.8564H30.4189V29.8164H30.4111V29.7842H30.4033V29.7432H30.3955V29.7109H30.3877V29.6709H30.3799V29.6221H30.3711V29.582H30.3633V29.5332H30.3555V29.4932H30.3477V29.4443H30.3398V29.3877H30.332V29.332H30.3232V29.2754H30.3154V29.2188H30.3076V29.1455H30.2998V29.0654H30.292V28.9766H30.2842V28.8633H30.2764V28.7256H30.2676V28.0957H30.2764V27.9502H30.2842V27.8291H30.292V27.7402H30.2998V27.6514H30.3076V27.5713H30.3154V27.5146H30.3232V27.4502H30.332V27.3848H30.3398V27.3291H30.3477V27.2803H30.3555V27.2314H30.3633V27.1836H30.3711V27.1426H30.3799V27.0947H30.3877V27.0537H30.3955V27.0137H30.4033V26.9736H30.4111V26.9414H30.4189V26.9004H30.4268V26.8604H30.4355V26.8281H30.4434V26.7959H30.4512V26.7637H30.459V26.7314H30.4668V26.6982H30.4746V26.666H30.4824V26.6338H30.4912V26.6016H30.499V26.5771H30.5068V26.5449H30.5146V26.5215H30.5225V26.4971H30.5303V26.4648H30.5381V26.4404H30.5469V26.416H30.5547V26.3838H30.5625V26.3594H30.5703V26.335H30.5781V26.3115H30.5859V26.2871H30.5938V26.2627H30.6025V26.2383H30.6104V26.2227H30.6182V26.1982H30.626V26.1738H30.6338V26.1494H30.6416V26.125H30.6494V26.1016H30.6582V26.085H30.666V26.0605H30.6738V26.0449H30.6816V26.0205H30.6895V26.0039H30.6973V25.9805H30.7061V25.9639H30.7139V25.9395H30.7217V25.9238H30.7295V25.8994H30.7373V25.8828H30.7451V25.8672H30.7529V25.8428H30.7617V25.8262H30.7695V25.8105H30.7773V25.7939H30.7852V25.7783H30.793V25.7539H30.8008V25.7373H30.8096V25.7217H30.8174V25.7051H30.8252V25.6807H30.833V25.665H30.8408V25.6484H30.8486V25.6328H30.8564V25.6162H30.8652V25.6006H30.873V25.584H30.8809V25.5684H30.8887V25.5518H30.8965V25.5439H30.9043V25.5273H30.9131V25.5117H30.9209V25.4951H30.9287V25.4795H30.9365V25.4629H30.9443V25.4473H30.9521V25.4307H30.96V25.415H30.9688V25.4062H30.9766V25.3906H30.9844V25.374H30.9922V25.3584H31V25.3496H31.0078V25.334H31.0156V25.3174H31.0244V25.3018H31.0322V25.2939H31.04V25.2773H31.0479V25.2607H31.0557V25.2451H31.0635V25.2373H31.0723V25.2207H31.0801V25.2129H31.0879V25.1963H31.0957V25.1807H31.1035V25.1719H31.1113V25.1562H31.1191V25.1484H31.1279V25.1318H31.1357V25.124H31.1436V25.1074H31.1514V25.0918H31.1592V25.084H31.167V25.0674H31.1748V25.0596H31.1836V25.043H31.1914V25.0352H31.1992V25.0186H31.207V25.0107H31.2148V25.0029H31.2227V24.9863H31.2305V24.9785H31.2393V24.9619H31.2471V24.9541H31.2549V24.9385H31.2627V24.9297H31.2705V24.9219H31.2783V24.9062H31.2861V24.8975H31.2949V24.8818H31.3027V24.873H31.3105V24.8652H31.3184V24.8496H31.3262V24.8408H31.334V24.833H31.3428V24.8174H31.3506V24.8086H31.3584V24.8008H31.3662V24.793H31.374V24.7764H31.3818V24.7686H31.3896V24.7607H31.3984V24.752H31.4062V24.7363H31.4141V24.7285H31.4219V24.7197H31.4297V24.7119H31.4375V24.6963H31.4463V24.6875H31.4541V24.6797H31.4619V24.6631H31.4697V24.6553H31.4775V24.6475H31.4854V24.6396H31.4932V24.6309H31.502V24.623H31.5098V24.6152H31.5176V24.6074H31.5254V24.5908H31.5332V24.583H31.541V24.5742H31.5488V24.5664H31.5576V24.5586H31.5654V24.5508H31.5732V24.542H31.5811V24.5264H31.5889V24.5186H31.5967V24.5098H31.6055V24.502H31.6133V24.4941H31.6211V24.4854H31.6289V24.4775H31.6367V24.4697H31.6445V24.4619H31.6523V24.4531H31.6611V24.4453H31.6689V24.4375H31.6768V24.4297H31.6846V24.4209H31.6924V24.4131H31.7002V24.4053H31.709V24.3975H31.7168V24.3887H31.7246V24.3809H31.7324V24.373H31.7402V24.3643H31.748V24.3564H31.7559V24.3486H31.7646V24.3408H31.7725V24.332H31.7803V24.3242H31.7881V24.3164H31.7959V24.3086H31.8037V24.2998H31.8115V24.292H31.8203V24.2842H31.8281V24.2764H31.8359V24.2676H31.8438V24.2598H31.8516V24.252H31.8594V24.2432H31.8672V24.2354H31.8838V24.2275H31.8916V24.2197H31.8994V24.2109H31.9072V24.2031H31.915V24.1953H31.9229V24.1865H31.9316V24.1787H31.9395V24.1709H31.9473V24.1631H31.9629V24.1543H31.9707V24.1465H31.9785V24.1387H31.9873V24.1309H31.9951V24.1221H32.0107V24.1143H32.0186V24.1064H32.0264V24.0986H32.0352V24.0898H32.0508V24.082H32.0586V24.0742H32.0664V24.0654H32.0742V24.0576H32.082V24.0498H32.0986V24.042H32.1064V24.0332H32.1143V24.0254H32.1221V24.0176H32.1387V24.0098H32.1465V24.001H32.1543V23.9932H32.1699V23.9854H32.1777V23.9766H32.1855V23.9688H32.2021V23.9609H32.21V23.9531H32.2256V23.9443H32.2334V23.9365H32.2422V23.9287H32.2578V23.9209H32.2656V23.9121H32.2812V23.9043H32.2891V23.8965H32.2979V23.8887H32.3135V23.8799H32.3213V23.8721H32.3369V23.8643H32.3447V23.8555H32.3613V23.8477H32.3691V23.8398H32.3848V23.832H32.3926V23.8232H32.4092V23.8154H32.417V23.8076H32.4326V23.7998H32.4482V23.791H32.457V23.7832H32.4727V23.7754H32.4805V23.7676H32.4961V23.7588H32.5039V23.751H32.5205V23.7432H32.5361V23.7344H32.5439V23.7266H32.5596V23.7188H32.5762V23.7109H32.5918V23.7021H32.6074V23.6943H32.6152V23.6865H32.6318V23.6777H32.6475V23.6699H32.6631V23.6621H32.6719V23.6543H32.6875V23.6455H32.7031V23.6377H32.7188V23.6299H32.7354V23.6221H32.751V23.6133H32.7666V23.6055H32.7832V23.5977H32.7988V23.5898H32.8145V23.5811H32.8311V23.5732H32.8467V23.5654H32.8623V23.5566H32.8779V23.5488H32.8945V23.541H32.9102V23.5332H32.9258V23.5244H32.9424V23.5166H32.958V23.5088H32.9814V23.501H32.998V23.4922H33.0137V23.4844H33.0371V23.4766H33.0537V23.4678H33.0693V23.46H33.0938V23.4521H33.1094V23.4443H33.1328V23.4355H33.1494V23.4277H33.165V23.4199H33.1885V23.4121H33.2129V23.4033H33.2363V23.3955H33.252V23.3877H33.2764V23.3799H33.2998V23.3711H33.3242V23.3633H33.3477V23.3555H33.3643V23.3467H33.3877V23.3389H33.4111V23.3311H33.4355V23.3232H33.4678V23.3145H33.4912V23.3066H33.5234V23.2988H33.5469V23.291H33.5713V23.2822H33.6025V23.2744H33.627V23.2666H33.6582V23.2588H33.6904V23.25H33.7217V23.2422H33.7539V23.2344H33.7861V23.2256H33.8252V23.2178H33.8574V23.21H33.8887V23.2021H33.9287V23.1934H33.9688V23.1855H34.0166V23.1777H34.0566V23.1689H34.1035V23.1611H34.1514V23.1533H34.1992V23.1455H34.2637V23.1367H34.3271V23.1289H34.3906V23.1211H34.4541V23.1133H34.5654V23.1045H34.6768V23.0967H34.8438V23.0889H35.2021ZM22.6992 12.0566V12.0645H22.6035V12.0723H22.5322V12.0811H22.4688V12.0889H22.4053V12.0967H22.3408V12.1045H22.293V12.1133H22.2451V12.1211H22.1982V12.1289H22.1504V12.1367H22.1104V12.1455H22.0703V12.1533H22.0303V12.1611H21.9912V12.1699H21.959V12.1777H21.9189V12.1855H21.8877V12.1934H21.8555V12.2021H21.8242V12.21H21.792V12.2178H21.7598V12.2266H21.7363V12.2344H21.7041V12.2422H21.6807V12.25H21.6484V12.2588H21.625V12.2666H21.6006V12.2744H21.5693V12.2822H21.5449V12.291H21.5215V12.2988H21.4971V12.3066H21.4736V12.3145H21.4492V12.3232H21.4258V12.3311H21.4023V12.3389H21.3779V12.3477H21.3545V12.3555H21.3301V12.3633H21.3145V12.3711H21.291V12.3799H21.2744V12.3877H21.251V12.3955H21.2344V12.4033H21.2109V12.4121H21.1875V12.4199H21.1709V12.4277H21.1475V12.4355H21.1318V12.4443H21.1152V12.4521H21.0918V12.46H21.0762V12.4688H21.0596V12.4766H21.0439V12.4844H21.0195V12.4922H21.0039V12.501H20.9883V12.5088H20.9639V12.5166H20.9482V12.5254H20.9326V12.5332H20.916V12.541H20.9004V12.5488H20.8848V12.5576H20.8691V12.5654H20.8525V12.5732H20.8369V12.5811H20.8213V12.5898H20.8047V12.5977H20.7891V12.6055H20.7734V12.6133H20.7568V12.6221H20.7412V12.6299H20.7256V12.6377H20.71V12.6465H20.7012V12.6543H20.6855V12.6621H20.6699V12.6699H20.6543V12.6787H20.6377V12.6865H20.6221V12.6943H20.6064V12.7021H20.5986V12.7109H20.582V12.7188H20.5664V12.7266H20.5586V12.7354H20.542V12.7432H20.5264V12.751H20.5186V12.7588H20.5029V12.7676H20.4863V12.7754H20.4785V12.7832H20.4629V12.791H20.4473V12.7998H20.4395V12.8076H20.4229V12.8154H20.415V12.8232H20.3994V12.832H20.3916V12.8398H20.375V12.8477H20.3594V12.8564H20.3516V12.8643H20.3359V12.8721H20.3271V12.8799H20.3115V12.8887H20.3037V12.8965H20.2881V12.9043H20.2803V12.9121H20.2637V12.9209H20.2559V12.9287H20.2402V12.9365H20.2324V12.9443H20.2236V12.9531H20.208V12.9609H20.2002V12.9688H20.1846V12.9775H20.1768V12.9854H20.168V12.9932H20.1523V13.001H20.1445V13.0098H20.1367V13.0176H20.1201V13.0254H20.1123V13.0342H20.0967V13.042H20.0889V13.0498H20.0811V13.0576H20.0732V13.0664H20.0566V13.0742H20.0488V13.082H20.041V13.0898H20.0332V13.0986H20.0176V13.1064H20.0088V13.1143H20.001V13.1221H19.9854V13.1309H19.9775V13.1387H19.9697V13.1465H19.9619V13.1553H19.9453V13.1631H19.9375V13.1709H19.9297V13.1787H19.9219V13.1875H19.9141V13.1953H19.9053V13.2031H19.8896V13.2109H19.8818V13.2197H19.874V13.2275H19.8662V13.2354H19.8584V13.2441H19.8496V13.252H19.834V13.2598H19.8262V13.2676H19.8184V13.2764H19.8105V13.2842H19.8027V13.292H19.7939V13.2998H19.7861V13.3086H19.7783V13.3164H19.7705V13.3242H19.7549V13.332H19.7471V13.3408H19.7383V13.3486H19.7305V13.3564H19.7227V13.3652H19.7148V13.373H19.707V13.3809H19.6992V13.3887H19.6904V13.3975H19.6826V13.4053H19.6748V13.4131H19.667V13.4209H19.6592V13.4297H19.6514V13.4375H19.6436V13.4453H19.6348V13.4541H19.627V13.4619H19.6191V13.4697H19.6113V13.4775H19.6035V13.4863H19.5957V13.4941H19.5869V13.502H19.5791V13.5098H19.5713V13.5186H19.5635V13.5264H19.5557V13.5342H19.5479V13.543H19.54V13.5508H19.5312V13.5586H19.5234V13.5664H19.5156V13.5752H19.5078V13.583H19.5V13.5986H19.4922V13.6074H19.4844V13.6152H19.4756V13.623H19.4678V13.6309H19.46V13.6396H19.4521V13.6475H19.4443V13.6553H19.4365V13.6641H19.4277V13.6797H19.4199V13.6875H19.4121V13.6963H19.4043V13.7041H19.3965V13.7119H19.3887V13.7197H19.3809V13.7363H19.3721V13.7441H19.3643V13.7529H19.3564V13.7607H19.3486V13.7764H19.3408V13.7852H19.333V13.793H19.3252V13.8008H19.3164V13.8086H19.3086V13.8252H19.3008V13.833H19.293V13.8408H19.2852V13.8496H19.2773V13.8652H19.2695V13.874H19.2607V13.8818H19.2529V13.8975H19.2451V13.9062H19.2373V13.9141H19.2295V13.9307H19.2217V13.9385H19.2129V13.9541H19.2051V13.9629H19.1973V13.9707H19.1895V13.9863H19.1816V13.9951H19.1738V14.0029H19.166V14.0186H19.1572V14.0273H19.1494V14.043H19.1416V14.0518H19.1338V14.0674H19.126V14.0752H19.1182V14.0918H19.1104V14.0996H19.1016V14.1162H19.0938V14.124H19.0859V14.1396H19.0781V14.1484H19.0703V14.1641H19.0625V14.1729H19.0547V14.1885H19.0459V14.1963H19.0381V14.2129H19.0303V14.2285H19.0225V14.2373H19.0146V14.2529H19.0068V14.2695H18.998V14.2773H18.9902V14.2939H18.9824V14.3096H18.9746V14.3174H18.9668V14.334H18.959V14.3506H18.9512V14.3662H18.9424V14.3828H18.9346V14.3906H18.9268V14.4062H18.9189V14.4229H18.9111V14.4395H18.9033V14.4551H18.8945V14.4717H18.8867V14.4795H18.8789V14.4951H18.8711V14.5117H18.8633V14.5273H18.8555V14.5518H18.8477V14.5684H18.8389V14.584H18.8311V14.6006H18.8232V14.6162H18.8154V14.6328H18.8076V14.6484H18.7998V14.665H18.791V14.6816H18.7832V14.7051H18.7754V14.7217H18.7676V14.7383H18.7598V14.7617H18.752V14.7783H18.7441V14.7939H18.7354V14.8184H18.7275V14.835H18.7197V14.8594H18.7119V14.8828H18.7041V14.8994H18.6963V14.9238H18.6885V14.9482H18.6797V14.9639H18.6719V14.9883H18.6641V15.0127H18.6562V15.0361H18.6484V15.0605H18.6406V15.085H18.6328V15.1172H18.624V15.1416H18.6162V15.166H18.6084V15.1904H18.6006V15.2227H18.5928V15.2549H18.585V15.2871H18.5771V15.3193H18.5684V15.3516H18.5605V15.376H18.5527V15.416H18.5449V15.457H18.5371V15.4971H18.5293V15.5371H18.5205V15.5781H18.5127V15.6338H18.5049V15.6826H18.4971V15.7393H18.4893V15.8037H18.4814V15.8848H18.4736V16.2158H23.1055V12.0566H22.6992Z" fill="#323A45"/>
</symbol>
</svg>
