<svg width="100" height="100" viewBox="0 0 100 100" fill="none" xmlns="http://www.w3.org/2000/svg">
<symbol id="rd-icon-spotter" viewBox="0 0 100 100">
<path d="M50 0C77.6142 0 100 22.3858 100 50C100 77.6142 77.6142 100 50 100C22.3858 100 0 77.6142 0 50C0 22.3858 22.3858 0 50 0ZM61.2842 36.0264V36.041H60.9004V36.0566H60.7383V36.0713H60.5908V36.0859H60.459V36.1016H60.3115V36.1162H60.1641V36.1309H60.0605V36.1465H59.957V36.1611H59.8691V36.1758H59.7803V36.1914H59.6924V36.2061H59.5889V36.2207H59.5156V36.2363H59.4414V36.251H59.4121V36.2363H59.3682V36.251H59.3086V36.2656H59.25V36.2803H59.1904V36.2959H59.1318V36.3105H59.0732V36.3262H59.0293V36.3408H58.9697V36.3555H58.9111V36.3701H58.8516V36.3857H58.793V36.4004H58.7344V36.415H58.6895V36.4307H58.6309V36.4453H58.5869V36.46H58.542V36.4756H58.4834V36.4902H58.4395V36.5049H58.3955V36.5195H58.3506V36.5352H58.3066V36.5498H58.2627V36.5654H58.2031V36.5801H58.1592V36.5947H58.1152V36.6094H58.0713V36.625H58.0264V36.6396H57.9824V36.6543H57.9531V36.6699H57.9092V36.6846H57.8643V36.6992H57.8203V36.7148H57.7764V36.7295H57.7471V36.7441H57.7021V36.7598H57.6582V36.7744H57.6143V36.7891H57.5693V36.8047H57.5254V36.8193H57.4961V36.834H57.4521V36.8486H57.4229V36.8643H57.3779V36.8789H57.3486V36.8945H57.3047V36.9092H57.2754V36.9238H57.2305V36.9385H57.2012V36.9541H57.1572V36.9688H57.1279V36.9834H57.083V36.999H57.0537V37.0137H57.0098V37.0283H56.9805V37.0439H56.9365V37.0586H56.9062V37.0732H56.877V37.0879H56.8477V37.1035H56.8037V37.1182H56.7734V37.1338H56.7441V37.1484H56.7148V37.1631H56.6709V37.1777H56.6416V37.1934H56.6123V37.208H56.582V37.2227H56.5527V37.2383H56.5088V37.2529H56.4795V37.2676H56.4492V37.2832H56.4199V37.2979H56.3906V37.3125H56.3467V37.3281H56.3174V37.3428H56.2871V37.3574H56.2578V37.373H56.2285V37.3877H56.1992V37.4023H56.1699V37.417H56.1406V37.4326H56.1104V37.4473H56.0811V37.4619H56.0518V37.4775H56.0225V37.4922H55.9932V37.5068H55.9629V37.5225H55.9336V37.5371H55.9043V37.5518H55.875V37.5674H55.8457V37.582H55.8154V37.5967H55.7861V37.6123H55.7568V37.627H55.7422V37.6416H55.7129V37.6562H55.6836V37.6719H55.6533V37.6865H55.624V37.7021H55.6094V37.7168H55.5801V37.7314H55.5508V37.7461H55.5215V37.7617H55.4912V37.7764H55.4766V37.791H55.4473V37.8066H55.418V37.8213H55.3887V37.8359H55.374V37.8516H55.3447V37.8662H55.3145V37.8809H55.2852V37.8965H55.2559V37.9111H55.2412V37.9258H55.2119V37.9414H55.1826V37.9561H55.1523V37.9707H55.1377V37.9854H55.1084V38.001H55.0938V38.0156H55.0645V38.0303H55.0352V38.0459H55.0195V38.0605H54.9902V38.0752H54.9609V38.0908H54.9463V38.1055H54.917V38.1201H54.9023V38.1357H54.873V38.1504H54.8428V38.165H54.8281V38.1807H54.7988V38.1953H54.7695V38.21H54.7549V38.2246H54.7256V38.2402H54.6953V38.2549H54.6807V38.2695H54.6514V38.2852H54.6367V38.2998H54.6074V38.3145H54.5928V38.3301H54.5635V38.3447H54.5479V38.3594H54.5186V38.375H54.5039V38.3896H54.4746V38.4043H54.46V38.4199H54.4307V38.4346H54.416V38.4492H54.3867V38.4648H54.3711V38.4795H54.3418V38.4941H54.3271V38.5088H54.2979V38.5244H54.2832V38.5391H54.2539V38.5537H54.2393V38.5693H54.2246V38.584H54.1943V38.5986H54.1797V38.6143H54.1504V38.6289H54.1357V38.6436H54.1064V38.6592H54.0918V38.6738H54.0771V38.6885H54.0479V38.7041H54.0322V38.7188H54.0029V38.7334H53.9883V38.748H53.9736V38.7637H53.9443V38.7783H53.9297V38.793H53.915V38.8086H53.8848V38.8232H53.8701V38.8379H53.8555V38.8535H53.8262V38.8682H53.8115V38.8828H53.7822V38.8984H53.7676V38.9131H53.7529V38.9277H53.7227V38.9434H53.708V38.958H53.6934V38.9727H53.6641V38.9873H53.6494V39.0029H53.6348V39.0176H53.6055V39.0332H53.5908V39.0479H53.5762V39.0625H53.5605V39.0771H53.5312V39.0928H53.5166V39.1074H53.502V39.1221H53.4873V39.1377H53.458V39.1523H53.4434V39.167H53.4287V39.1826H53.4131V39.1973H53.3838V39.2119H53.3691V39.2266H53.3545V39.2422H53.3398V39.2568H53.3105V39.2725H53.2959V39.2871H53.2812V39.3018H53.2656V39.3164H53.2363V39.332H53.2217V39.3467H53.207V39.3613H53.1924V39.377H53.1631V39.3916H53.1484V39.4062H53.1338V39.4219H53.1191V39.4365H53.0889V39.4512H53.0742V39.4668H53.0596V39.4814H53.0449V39.4961H53.0303V39.5117H53.0156V39.5264H53.001V39.541H52.9717V39.5557H52.957V39.5713H52.9424V39.5859H52.9268V39.6016H52.9121V39.6162H52.8975V39.6309H52.8828V39.6455H52.8535V39.6611H52.8389V39.6758H52.8242V39.6904H52.8096V39.7061H52.7949V39.7207H52.7803V39.7354H52.75V39.751H52.7354V39.7656H52.7207V39.7803H52.7061V39.7949H52.6914V39.8105H52.6768V39.8252H52.6621V39.8408H52.6328V39.8555H52.6182V39.8701H52.6025V39.8848H52.5879V39.9004H52.5732V39.915H52.5586V39.9297H52.5439V39.9453H52.5293V39.96H52.5146V39.9746H52.5V39.9902H52.4854V40.0049H52.4707V40.0195H52.4551V40.0352H52.4404V40.0498H52.4258V40.0645H52.4111V40.0801H52.3965V40.0947H52.3818V40.1094H52.3525V40.124H52.3379V40.1396H52.3232V40.1543H52.3086V40.1699H52.2939V40.1846H52.2783V40.1992H52.2637V40.2139H52.249V40.2295H52.2344V40.2441H52.2197V40.2588H52.2051V40.2744H52.1904V40.2891H52.1758V40.3037H52.1611V40.3193H52.1465V40.334H52.1309V40.3486H52.1162V40.3633H52.1016V40.3789H52.0869V40.3936H52.0723V40.4092H52.0576V40.4238H52.043V40.4385H52.0283V40.4531H52.0137V40.4688H51.999V40.4834H51.9834V40.498H51.9697V40.5137H51.9541V40.5283H51.9395V40.543H51.9248V40.5586H51.9102V40.5732H51.8955V40.5879H51.8809V40.6035H51.8662V40.6182H51.8516V40.6328H51.8369V40.6484H51.8223V40.6631H51.8066V40.6777H51.792V40.708H51.7773V40.7227H51.7627V40.7373H51.748V40.7529H51.7334V40.7676H51.7188V40.7822H51.7041V40.7979H51.6895V40.8125H51.6748V40.8271H51.6592V40.8428H51.6445V40.8574H51.6299V40.8721H51.6152V40.9023H51.6006V40.917H51.5859V40.9316H51.5713V40.9473H51.5566V40.9619H51.542V40.9766H51.5273V40.9922H51.5127V41.0068H51.498V41.0371H51.4824V41.0518H51.4678V41.0664H51.4531V41.082H51.4385V41.0967H51.4238V41.1113H51.4092V41.127H51.3945V41.1416H51.3799V41.1562H51.3652V41.1865H51.3506V41.2012H51.3359V41.2158H51.3203V41.2314H51.3057V41.2461H51.291V41.2607H51.2764V41.2764H51.2617V41.3057H51.2471V41.3213H51.2324V41.3359H51.2178V41.3506H51.2031V41.3809H51.1885V41.3955H51.1729V41.4111H51.1592V41.4258H51.1436V41.4404H51.1289V41.4707H51.1143V41.4854H51.0996V41.5H51.085V41.5156H51.0703V41.5303H51.0557V41.5605H51.041V41.5752H51.0264V41.5898H51.0117V41.6055H50.9961V41.6201H50.9814V41.6504H50.9668V41.665H50.9521V41.6797H50.9375V41.6943H50.9229V41.7246H50.9082V41.7402H50.8936V41.7549H50.8789V41.7695H50.8643V41.7998H50.8486V41.8145H50.834V41.8291H50.8193V41.8594H50.8047V41.874H50.79V41.8896H50.7754V41.9189H50.7607V41.9346H50.7461V41.9492H50.7314V41.9639H50.7168V41.9941H50.7012V42.0088H50.6875V42.0234H50.6719V42.0537H50.6572V42.0684H50.6426V42.084H50.6279V42.1133H50.6133V42.1289H50.5986V42.1436H50.584V42.1738H50.5693V42.1885H50.5547V42.2031H50.54V42.2334H50.5244V42.248H50.5098V42.2627H50.4951V42.293H50.4805V42.3086H50.4658V42.3379H50.4512V42.3525H50.4365V42.3682H50.4219V42.3975H50.4072V42.4131H50.3926V42.4424H50.377V42.458H50.3623V42.4873H50.3477V42.5029H50.333V42.5176H50.3184V42.5479H50.3037V42.5625H50.2891V42.5918H50.2744V42.6074H50.2598V42.6367H50.2451V42.6523H50.2305V42.667H50.2158V42.6973H50.2002V42.7119H50.1855V42.7422H50.1709V42.7568H50.1562V42.7871H50.1416V42.8018H50.127V42.8311H50.1123V42.8467H50.0977V42.877H50.083V42.8916H50.0684V42.9209H50.0537V42.9365H50.0381V42.9658H50.0234V42.9961H50.0088V43.0107H49.9941V43.041H49.9795V43.0557H49.9648V43.0859H49.9502V43.1006H49.9355V43.1309H49.9209V43.1602H49.9062V43.1758H49.8906V43.2051H49.876V43.2207H49.8613V43.25H49.8467V43.2656H49.832V43.2949H49.8174V43.3252H49.8027V43.3398H49.7881V43.3701H49.7734V43.3848H49.7588V43.415H49.7441V43.4443H49.7295V43.4746H49.7139V43.4893H49.6992V43.5195H49.6846V43.5498H49.6699V43.5645H49.6553V43.5947H49.6406V43.624H49.626V43.6543H49.6113V43.6689H49.5967V43.6992H49.582V43.7285H49.5664V43.7441H49.5518V43.7734H49.5371V43.8037H49.5225V43.834H49.5078V43.8486H49.4932V43.8789H49.4785V43.9082H49.4639V43.9229H49.4492V43.9531H49.4346V43.9834H49.4199V44.0127H49.4053V44.043H49.3896V44.0732H49.375V44.1025H49.3604V44.1182H49.3457V44.1475H49.3311V44.1777H49.3164V44.208H49.3018V44.2373H49.2871V44.2676H49.2725V44.2969H49.2578V44.3271H49.2422V44.3574H49.2275V44.3721H49.2129V44.4023H49.1982V44.4316H49.1836V44.4619H49.1689V44.4912H49.1543V44.5215H49.1396V44.5518H49.125V44.5811H49.1104V44.6113H49.0947V44.6416H49.0801V44.6709H49.0654V44.7012H49.0508V44.7305H49.0361V44.7607H49.0215V44.791H49.0068V44.8359H48.9922V44.8652H48.9775V44.8955H48.9629V44.9258H48.9482V44.9551H48.9336V44.9854H48.918V45.0156H48.9033V45.0449H48.8887V45.0752H48.874V45.1045H48.8594V45.1348H48.8447V45.1797H48.8301V45.21H48.8154V45.2393H48.8008V45.2842H48.7861V45.3145H48.7715V45.3438H48.7559V45.3887H48.7412V45.4189H48.7266V45.4492H48.7119V45.4785H48.6973V45.5234H48.6826V45.5537H48.668V45.584H48.6533V45.6279H48.6387V45.6582H48.624V45.6885H48.6084V45.7334H48.5938V45.7627H48.5791V45.8076H48.5645V45.8379H48.5498V45.8828H48.5352V45.9121H48.5205V45.957H48.5059V45.9873H48.4912V46.0322H48.4766V46.0771H48.4619V46.1064H48.4473V46.1523H48.4316V46.1816H48.417V46.2266H48.4023V46.2715H48.3877V46.3018H48.373V46.3467H48.3584V46.376H48.3438V46.4209H48.3291V46.4658H48.3145V46.5107H48.2998V46.5557H48.2842V46.6006H48.2695V46.6455H48.2549V46.6904H48.2402V46.7354H48.2256V46.7803H48.2109V46.8252H48.1963V46.8545H48.1816V46.8994H48.167V46.9443H48.1523V46.9893H48.1377V47.0342H48.123V47.0791H48.1074V47.1387H48.0928V47.1836H48.0781V47.2285H48.0635V47.2881H48.0488V47.333H48.0342V47.3779H48.0195V47.4375H48.0049V47.4834H47.9902V47.543H47.9756V47.5879H47.96V47.6328H47.9453V47.6924H47.9307V47.7373H47.916V47.7969H47.9014V47.8564H47.8867V47.917H47.8721V47.9766H47.8574V48.0361H47.8428V48.0811H47.8281V48.1406H47.8125V48.2012H47.7979V48.2607H47.7832V48.3203H47.7686V48.3799H47.7539V48.4404H47.7393V48.5146H47.7246V48.5898H47.71V48.6494H47.6953V48.7246H47.6807V48.7988H47.666V48.8594H47.6514V48.9336H47.6357V49.0088H47.6211V49.0684H47.6064V49.1426H47.5918V49.2324H47.5771V49.3223H47.5625V49.4121H47.5479V49.4873H47.5332V49.5771H47.5186V49.666H47.5039V49.7559H47.4883V49.8311H47.4736V49.9502H47.459V50.0557H47.4443V50.1748H47.4297V50.2793H47.415V50.3994H47.4004V50.5039H47.3857V50.6387H47.3711V50.8027H47.3564V50.9531H47.3418V51.1172H47.3262V51.2666H47.3115V51.5059H47.2969V51.7754H47.2822V52.0293H47.2676V52.6123H47.2529V53.0615H47.2676V53.5703H47.2822V53.8389H47.2969V54.0635H47.3115V54.2881H47.3262V54.4824H47.3418V54.6172H47.3564V54.752H47.3711V54.8857H47.3857V55.0205H47.4004V55.1553H47.415V55.2754H47.4297V55.3652H47.4443V55.4541H47.459V55.5586H47.4736V55.6484H47.4883V55.7383H47.5039V55.8438H47.5186V55.9336H47.5332V56.0225H47.5479V56.0977H47.5625V56.1729H47.5771V56.2471H47.5918V56.3223H47.6064V56.3965H47.6211V56.4561H47.6357V56.5312H47.6514V56.6064H47.666V56.6807H47.6807V56.7559H47.6953V56.8154H47.71V56.875H47.7246V56.9355H47.7393V56.9951H47.7539V57.0547H47.7686V57.1143H47.7832V57.1748H47.7979V57.2344H47.8125V57.2939H47.8281V57.3535H47.8428V57.4141H47.8574V57.4736H47.8721V57.5332H47.8867V57.5781H47.9014V57.623H47.916V57.6826H47.9307V57.7275H47.9453V57.7725H47.96V57.8174H47.9756V57.877H47.9902V57.9219H48.0049V57.9668H48.0195V58.0273H48.0342V58.0723H48.0488V58.1162H48.0635V58.1768H48.0781V58.2217H48.0928V58.2666H48.1074V58.3115H48.123V58.3555H48.1377V58.4004H48.1523V58.4307H48.167V58.4756H48.1816V58.5205H48.1963V58.5654H48.2109V58.6104H48.2256V58.6553H48.2402V58.6846H48.2549V58.7295H48.2695V58.7744H48.2842V58.8193H48.2998V58.8643H48.3145V58.9092H48.3291V58.9395H48.3438V58.9844H48.3584V59.0293H48.373V59.0586H48.3877V59.1035H48.4023V59.1338H48.417V59.1631H48.4316V59.209H48.4473V59.2383H48.4619V59.2832H48.4766V59.3135H48.4912V59.3584H48.5059V59.3877H48.5205V59.4326H48.5352V59.4629H48.5498V59.5078H48.5645V59.5371H48.5791V59.5674H48.5938V59.6123H48.6084V59.6426H48.624V59.6875H48.6387V59.7168H48.6533V59.7471H48.668V59.7773H48.6826V59.8066H48.6973V59.8516H48.7119V59.8818H48.7266V59.9111H48.7412V59.9414H48.7559V59.9707H48.7715V60.001H48.7861V60.0459H48.8008V60.0762H48.8154V60.1055H48.8301V60.1357H48.8447V60.166H48.8594V60.1953H48.874V60.2402H48.8887V60.2705H48.9033V60.2998H48.918V60.3301H48.9336V60.3604H48.9482V60.3896H48.9629V60.4199H48.9775V60.4502H48.9922V60.4795H49.0068V60.5098H49.0215V60.5391H49.0361V60.5693H49.0508V60.584H49.0654V60.6143H49.0801V60.6445H49.0947V60.6738H49.1104V60.7041H49.125V60.7344H49.1396V60.7637H49.1543V60.7939H49.1689V60.8232H49.1836V60.8535H49.1982V60.8838H49.2129V60.9131H49.2275V60.9287H49.2422V60.958H49.2578V60.9883H49.2725V61.0186H49.2871V61.0479H49.3018V61.0781H49.3164V61.0928H49.3311V61.123H49.3457V61.1523H49.3604V61.168H49.375V61.1973H49.3896V61.2275H49.4053V61.2578H49.4199V61.2725H49.4346V61.3018H49.4492V61.332H49.4639V61.3477H49.4785V61.377H49.4932V61.4072H49.5078V61.4365H49.5225V61.4521H49.5371V61.4814H49.5518V61.5117H49.5664V61.5264H49.582V61.5566H49.5967V61.5869H49.6113V61.6162H49.626V61.6309H49.6406V61.6611H49.6553V61.6758H49.6699V61.7061H49.6846V61.7363H49.6992V61.751H49.7139V61.7812H49.7295V61.7959H49.7441V61.8262H49.7588V61.8408H49.7734V61.8701H49.7881V61.8857H49.8027V61.916H49.8174V61.9307H49.832V61.96H49.8467V61.9756H49.8613V62.0049H49.876V62.0352H49.8906V62.0498H49.9062V62.0801H49.9209V62.0947H49.9355V62.125H49.9502V62.1396H49.9648V62.1699H49.9795V62.1846H49.9941V62.2148H50.0088V62.2295H50.0234V62.2598H50.0381V62.2744H50.0537V62.3047H50.0684V62.3193H50.083V62.3496H50.0977V62.3643H50.1123V62.3789H50.127V62.4092H50.1416V62.4238H50.1562V62.4385H50.1709V62.4688H50.1855V62.4844H50.2002V62.5137H50.2158V62.5283H50.2305V62.5439H50.2451V62.5732H50.2598V62.5889H50.2744V62.6182H50.2891V62.6338H50.3037V62.6484H50.3184V62.6787H50.333V62.6934H50.3477V62.708H50.3623V62.7383H50.377V62.7529H50.3926V62.7832H50.4072V62.7979H50.4219V62.8125H50.4365V62.8428H50.4512V62.8574H50.4658V62.8877H50.4805V62.9023H50.4951V62.918H50.5098V62.9326H50.5244V62.9629H50.54V62.9775H50.5547V62.9922H50.5693V63.0068H50.584V63.0371H50.5986V63.0518H50.6133V63.0674H50.6279V63.082H50.6426V63.1123H50.6572V63.127H50.6719V63.1416H50.6875V63.1572H50.7012V63.1865H50.7168V63.2021H50.7314V63.2168H50.7461V63.2314H50.7607V63.2617H50.7754V63.2764H50.79V63.291H50.8047V63.3066H50.8193V63.3359H50.834V63.3516H50.8486V63.3662H50.8643V63.3809H50.8789V63.4111H50.8936V63.4258H50.9082V63.4414H50.9229V63.4561H50.9375V63.4707H50.9521V63.4863H50.9668V63.5156H50.9814V63.5303H50.9961V63.5459H51.0117V63.5605H51.0264V63.5752H51.041V63.5908H51.0557V63.6055H51.0703V63.6357H51.085V63.6504H51.0996V63.665H51.1143V63.6807H51.1289V63.6953H51.1436V63.71H51.1592V63.7256H51.1729V63.7402H51.1885V63.7695H51.2031V63.7852H51.2178V63.7998H51.2324V63.8154H51.2471V63.8301H51.2617V63.8447H51.2764V63.8594H51.291V63.875H51.3057V63.9043H51.3203V63.9199H51.3359V63.9346H51.3506V63.9492H51.3652V63.9648H51.3799V63.9795H51.3945V63.9941H51.4092V64.0088H51.4238V64.0244H51.4385V64.0391H51.4531V64.0547H51.4678V64.0693H51.4824V64.0986H51.498V64.1143H51.5127V64.1289H51.5273V64.1436H51.542V64.1592H51.5566V64.1738H51.5713V64.1885H51.5859V64.2041H51.6006V64.2188H51.6152V64.2334H51.6299V64.249H51.6445V64.2637H51.6592V64.2783H51.6748V64.2939H51.6895V64.3086H51.7041V64.3232H51.7188V64.3379H51.7334V64.3535H51.748V64.3682H51.7627V64.3838H51.7773V64.3984H51.792V64.4131H51.8066V64.4277H51.8223V64.4434H51.8369V64.458H51.8516V64.4727H51.8662V64.4883H51.8809V64.5029H51.8955V64.5176H51.9102V64.5332H51.9248V64.5479H51.9395V64.5625H51.9541V64.5771H51.9697V64.5928H51.9834V64.6074H51.999V64.623H52.0137V64.6377H52.043V64.6523H52.0576V64.667H52.0723V64.6826H52.0869V64.6973H52.1016V64.7119H52.1162V64.7275H52.1309V64.7422H52.1465V64.7568H52.1611V64.7725H52.1758V64.7871H52.1904V64.8018H52.2051V64.8174H52.2197V64.832H52.249V64.8467H52.2637V64.8623H52.2783V64.877H52.2939V64.8916H52.3086V64.9062H52.3232V64.9219H52.3379V64.9365H52.3525V64.9512H52.3672V64.9668H52.3818V64.9814H52.3965V64.9961H52.4111V65.0117H52.4404V65.0264H52.4551V65.041H52.4707V65.0566H52.4854V65.0713H52.5V65.0859H52.5293V65.1016H52.5439V65.1162H52.5586V65.1309H52.5732V65.1455H52.5879V65.1611H52.6182V65.1758H52.6328V65.1914H52.6475V65.2061H52.6621V65.2207H52.6768V65.2354H52.7061V65.251H52.7207V65.2656H52.7354V65.2803H52.75V65.2959H52.7646V65.3105H52.7949V65.3252H52.8096V65.3408H52.8242V65.3555H52.8389V65.3701H52.8535V65.3857H52.8682V65.4004H52.8975V65.415H52.9121V65.4307H52.9268V65.4453H52.9424V65.46H52.957V65.4746H52.9863V65.4902H53.001V65.5049H53.0156V65.5195H53.0449V65.5352H53.0596V65.5498H53.0742V65.5645H53.1045V65.5801H53.1191V65.5947H53.1338V65.6094H53.1631V65.625H53.1777V65.6396H53.1924V65.6543H53.2217V65.6699H53.2363V65.6846H53.252V65.6992H53.2812V65.7139H53.2959V65.7295H53.3105V65.7441H53.3398V65.7588H53.3545V65.7744H53.3691V65.7891H53.3984V65.8037H53.4131V65.8193H53.4287V65.834H53.458V65.8486H53.4727V65.8643H53.4873V65.8789H53.5166V65.8936H53.5312V65.9092H53.5459V65.9238H53.5762V65.9385H53.5908V65.9541H53.6055V65.9688H53.6348V65.9834H53.6494V65.998H53.6787V66.0137H53.6934V66.0283H53.7227V66.043H53.7373V66.0586H53.7676V66.0732H53.7822V66.0879H53.8115V66.1035H53.8262V66.1182H53.8555V66.1328H53.8701V66.1484H53.9004V66.1631H53.915V66.1777H53.9443V66.1934H53.959V66.208H53.9883V66.2227H54.0029V66.2373H54.0322V66.2529H54.0479V66.2676H54.0771V66.2822H54.0918V66.2979H54.1211V66.3125H54.1357V66.3271H54.165V66.3428H54.1797V66.3574H54.209V66.3721H54.2246V66.3877H54.2539V66.4023H54.2832V66.417H54.2979V66.4326H54.3271V66.4473H54.3564V66.4619H54.3711V66.4766H54.4014V66.4922H54.4307V66.5068H54.4453V66.5225H54.4746V66.5371H54.5039V66.5518H54.5186V66.5664H54.5479V66.582H54.5781V66.5967H54.5928V66.6113H54.6221V66.627H54.6514V66.6416H54.666V66.6562H54.6953V66.6719H54.7256V66.6865H54.7402V66.7012H54.7695V66.7158H54.7988V66.7314H54.8281V66.7461H54.8428V66.7617H54.873V66.7764H54.9023V66.791H54.9316V66.8057H54.9609V66.8213H54.9902V66.8359H55.0195V66.8506H55.0498V66.8662H55.0645V66.8809H55.0938V66.8955H55.123V66.9111H55.1523V66.9258H55.1826V66.9404H55.2119V66.9561H55.2412V66.9707H55.2705V66.9854H55.2998V67.001H55.3145V67.0156H55.3447V67.0303H55.374V67.0449H55.4033V67.0605H55.4326V67.0752H55.4619V67.0908H55.4912V67.1055H55.5215V67.1201H55.5508V67.1348H55.5801V67.1504H55.624V67.165H55.6533V67.1797H55.6836V67.1953H55.7129V67.21H55.7422V67.2246H55.7715V67.2402H55.8008V67.2549H55.8457V67.2695H55.875V67.2842H55.9043V67.2998H55.9336V67.3145H55.9629V67.3301H55.9932V67.3447H56.0225V67.3594H56.0664V67.374H56.0957V67.3896H56.125V67.4043H56.1553V67.4189H56.1992V67.4346H56.2285V67.4492H56.2725V67.4639H56.3018V67.4795H56.3467V67.4941H56.376V67.5088H56.4199V67.5244H56.4492V67.5391H56.4795V67.5537H56.5234V67.5693H56.5527V67.584H56.5967V67.5986H56.627V67.6133H56.6709V67.6289H56.7002V67.6436H56.7441V67.6592H56.7734V67.6738H56.8184V67.6885H56.8477V67.7031H56.8916V67.7188H56.9365V67.7334H56.9805V67.748H57.0244V67.7637H57.0684V67.7783H57.1133V67.793H57.1572V67.8086H57.2012V67.8232H57.2451V67.8379H57.29V67.8525H57.3193V67.8682H57.3633V67.8828H57.4072V67.8984H57.4521V67.9131H57.4961V67.9277H57.54V67.9424H57.584V67.958H57.6436V67.9727H57.6875V67.9873H57.7471V68.0029H57.791V68.0176H57.8496V68.0322H57.8945V68.0479H57.9531V68.0625H57.9971V68.0771H58.0557V68.0928H58.1006V68.1074H58.1592V68.1221H58.2031V68.1377H58.2627V68.1523H58.3213V68.167H58.3799V68.1816H58.4395V68.1973H58.5127V68.2119H58.5723V68.2266H58.6309V68.2422H58.7051V68.2568H58.7637V68.2715H58.8223V68.2871H58.8818V68.3018H58.9551V68.3164H59.0137V68.332H59.0879V68.3467H59.1768V68.3613H59.2646V68.377H59.3379V68.3916H59.4268V68.4062H59.501V68.4209H59.5889V68.4365H59.6777V68.4512H59.751V68.4658H59.8545V68.4814H59.9717V68.4961H60.0898V68.5107H60.208V68.5264H60.3115V68.541H60.4287V68.5557H60.5469V68.5713H60.709V68.5859H60.915V68.6006H61.1074V68.6162H61.3135V68.6309H61.623V68.6455H63.0527V68.6309H63.4502V68.6162H63.7158V68.6006H63.9658V68.5859H64.1426V68.5713H64.335V68.5557H64.4971V68.541H64.6299V68.5264H64.7764V68.5107H64.9092V68.4961H65.0273V68.4814H65.1455V68.4658H65.248V68.4512H65.3662V68.4365H65.4551V68.4209H65.5576V68.4062H65.6465V68.3916H65.7344V68.377H65.8379V68.3613H65.9121V68.3467H65.9854V68.332H66.0732V68.3164H66.1475V68.3018H66.2207V68.2871H66.2949V68.2715H66.3682V68.2568H66.4277V68.2422H66.501V68.2266H66.5605V68.2119H66.6338V68.1973H66.707V68.1816H66.752V68.167H66.8105V68.1523H66.8691V68.1377H66.9287V68.1221H66.9873V68.1074H67.0469V68.0928H67.1055V68.0771H67.1641V68.0625H67.209V68.0479H67.2676V68.0322H67.3115V68.0176H67.3711V68.0029H67.415V67.9873H67.4736V67.9727H67.5186V67.958H67.5625V67.9424H67.6064V67.9277H67.6504V67.9131H67.6953V67.8984H67.7539V67.8828H67.7979V67.8682H67.8428V67.8525H67.8867V67.8379H67.9307V67.8232H67.96V67.8086H68.0049V67.793H68.0488V67.7783H68.0928V67.7637H68.1221V67.748H68.167V67.7334H68.2109V67.7188H68.2549V67.7031H68.2842V67.6885H68.3291V67.6738H68.3584V67.6592H68.4023V67.6436H68.4316V67.6289H68.4766V67.6133H68.5059V67.5986H68.5498V67.584H68.5791V67.5693H68.6084V67.5537H68.6533V67.5391H68.6826V67.5244H68.7119V67.5088H68.7412V67.4941H68.7852V67.4795H68.8154V67.4639H68.8447V67.4492H68.874V67.4346H68.918V67.4189H68.9482V67.4043H68.9775V67.3896H69.0068V67.374H69.0361V67.3594H69.0654V67.3447H69.0947V67.3301H69.125V67.3145H69.1543V67.2998H69.1836V67.2842H69.2129V67.2695H69.2422V67.2549H69.2725V67.2402H69.3018V67.2246H69.3311V67.21H69.3604V67.1953H69.3896V67.1797H69.4189V67.165H69.4492V67.1504H69.4639V67.1348H69.4932V67.1201H69.5225V67.1055H69.5518V67.0908H69.5811V67.0752H69.6113V67.0605H69.626V67.0449H69.6553V67.0303H69.6846V67.0156H69.6992V67.001H69.7285V66.9854H69.7588V66.9707H69.7881V66.9561H69.8027V66.9404H69.832V66.9258H69.8613V66.9111H69.876V66.8955H69.9053V66.8809H69.9199V66.8662H69.9502V66.8506H69.9795V66.8359H69.9941V66.8213H70.0234V66.8057H70.0381V66.791H70.0674V66.7764H70.083V66.7617H70.1123V66.7461H70.1416V66.7314H70.1562V66.7158H70.1855V66.7012H70.2002V66.6865H70.2148V66.6719H70.2441V66.6562H70.2598V66.6416H70.2891V66.627H70.3037V66.6113H70.333V66.5967H70.3477V66.582H70.377V66.5664H70.3916V66.5518H70.4219V66.5371H70.4365V66.5225H70.4512V66.5068H70.4805V66.4922H70.4951V66.4766H70.5098V66.4619H70.5391V66.4473H70.5547V66.4326H70.5693V66.417H70.5986V66.4023H70.6133V66.3877H70.6279V66.3721H70.6572V66.3574H70.6719V66.3428H70.6865V66.3271H70.7158V66.3125H70.7314V66.2979H70.7461V66.2822H70.7607V66.2676H70.79V66.2529H70.8047V66.2373H70.8193V66.2227H70.834V66.208H70.8633V66.1934H70.8779V66.1777H70.8936V66.1631H70.9082V66.1484H70.9375V66.1328H70.9521V66.1182H70.9668V66.1035H70.9814V66.0879H70.9961V66.0732H71.0107V66.0586H71.041V66.043H71.0557V66.0283H71.0703V66.0137H71.085V65.998H71.0996V65.9834H71.1143V65.9688H71.1289V65.9541H71.1582V65.9385H71.1729V65.9238H71.1875V65.9092H71.2021V65.8936H71.2178V65.8789H71.2324V65.8643H71.2471V65.8486H71.2617V65.834H71.2764V65.8193H71.291V65.8037H71.3203V65.7891H71.335V65.7744H71.3496V65.7588H71.3652V65.7441H71.3799V65.7295H71.3945V65.7139H71.4092V65.6992H71.4238V65.6846H71.4385V65.6699H71.4531V65.6543H71.4678V65.6396H71.4824V65.625H71.4971V65.6094H71.5127V65.5947H71.5264V65.5801H71.542V65.5645H71.5566V65.5498H71.5713V65.5352H71.5859V65.5195H71.6006V65.5049H71.6152V65.4902H71.6299V65.4746H71.6445V65.46H71.6592V65.4453H71.6738V65.4307H71.6895V65.415H71.7041V65.4004H71.7188V65.3857H71.7334V65.3701H71.748V65.3555H71.7627V65.3408H71.7773V65.3105H71.792V65.2959H71.8066V65.2803H71.8213V65.2656H71.8369V65.251H71.8516V65.2354H71.8662V65.2207H71.8809V65.2061H71.8955V65.1914H71.9102V65.1758H71.9248V65.1611H71.9395V65.1309H71.9541V65.1162H71.9688V65.1016H71.9834V65.0859H71.998V65.0713H72.0137V65.0566H72.0283V65.041H72.043V65.0117H72.0576V64.9961H72.0723V64.9814H72.0869V64.9668H72.1016V64.9512H72.1162V64.9219H72.1309V64.9062H72.1455V64.8916H72.1611V64.877H72.1758V64.8623H72.1904V64.832H72.2051V64.8174H72.2197V64.8018H72.2344V64.7871H72.249V64.7725H72.2637V64.7422H72.2783V64.7275H72.293V64.7119H72.3076V64.6973H72.3232V64.667H72.3379V64.6523H72.3525V64.6377H72.3672V64.6074H72.3818V64.5928H72.3965V64.5771H72.4111V64.5625H72.4258V64.5332H72.4404V64.5176H72.4551V64.5029H72.4697V64.4727H72.4844V64.458H72.5V64.4434H72.5146V64.4131H72.5293V64.3984H72.5439V64.3838H72.5586V64.3535H72.5732V64.3379H72.5879V64.3086H72.6025V64.2939H72.6172V64.2783H72.6318V64.249H72.6475V64.2334H72.6621V64.2188H72.6768V64.1885H72.6914V64.1738H72.7061V64.1436H72.7207V64.1289H72.7354V64.0986H72.75V64.084H72.7646V64.0693H72.7793V64.0391H72.7939V64.0244H72.8086V63.9941H72.8242V63.9795H72.8389V63.9492H72.8535V63.9346H72.8682V63.9043H72.8828V63.8896H72.8975V63.8594H72.9121V63.8447H72.9268V63.8154H72.9414V63.7998H72.9561V63.7695H72.9717V63.7549H72.9863V63.7256H73.001V65.9834H72.9863V66.4326H72.9717V66.7764H72.9561V67.0156H72.9414V67.2402H72.9268V67.4346H72.9121V67.5986H72.8975V67.7637H72.8828V67.9277H72.8682V68.0479H72.8535V68.1816H72.8389V68.3164H72.8242V68.4365H72.8086V68.541H72.7939V68.6455H72.7793V68.75H72.7646V68.8398H72.75V68.9453H72.7354V69.0195H72.7207V69.1094H72.7061V69.1992H72.6914V69.2734H72.6768V69.3633H72.6621V69.4385H72.6475V69.5127H72.6318V69.5879H72.6172V69.6475H72.6025V69.7227H72.5879V69.7979H72.5732V69.8574H72.5586V69.9316H72.5439V69.9922H72.5293V70.0371H72.5146V70.0967H72.5V70.1562H72.4844V70.2158H72.4697V70.2764H72.4551V70.3359H72.4404V70.3955H72.4258V70.4404H72.4111V70.4854H72.3965V70.5449H72.3818V70.5898H72.3672V70.6494H72.3525V70.6943H72.3379V70.7393H72.3232V70.7998H72.3076V70.8447H72.293V70.8887H72.2783V70.9189H72.2637V70.9639H72.249V71.0088H72.2344V71.0537H72.2197V71.0986H72.2051V71.1436H72.1904V71.1885H72.1758V71.2334H72.1611V71.2627H72.1455V71.3076H72.1309V71.3379H72.1162V71.3828H72.1016V71.4131H72.0869V71.457H72.0723V71.4873H72.0576V71.5322H72.043V71.5625H72.0283V71.6074H72.0137V71.6367H71.998V71.6816H71.9834V71.7119H71.9688V71.7412H71.9541V71.7715H71.9395V71.8018H71.9248V71.8311H71.9102V71.8613H71.8955V71.9062H71.8809V71.9365H71.8662V71.9658H71.8516V71.9961H71.8369V72.0254H71.8213V72.0557H71.8066V72.0859H71.792V72.1152H71.7773V72.1455H71.7627V72.1758H71.748V72.2051H71.7334V72.2354H71.7188V72.2646H71.7041V72.2803H71.6895V72.3096H71.6738V72.3398H71.6592V72.3701H71.6445V72.3994H71.6299V72.4297H71.6152V72.459H71.6006V72.4746H71.5859V72.5049H71.5713V72.5342H71.5566V72.5488H71.542V72.5791H71.5264V72.5938H71.5127V72.624H71.4971V72.6543H71.4824V72.6689H71.4678V72.6992H71.4531V72.7285H71.4385V72.7441H71.4238V72.7734H71.4092V72.7881H71.3945V72.8184H71.3799V72.8486H71.3652V72.8633H71.3496V72.8936H71.335V72.9082H71.3203V72.9229H71.3057V72.9531H71.291V72.9678H71.2764V72.998H71.2617V73.0127H71.2471V73.0273H71.2324V73.0576H71.2178V73.0732H71.2021V73.1025H71.1875V73.1172H71.1729V73.1328H71.1582V73.1621H71.1436V73.1777H71.1289V73.207H71.1143V73.2227H71.0996V73.2373H71.085V73.252H71.0703V73.2822H71.0557V73.2969H71.041V73.3125H71.0254V73.3271H71.0107V73.3564H70.9961V73.3721H70.9814V73.3867H70.9668V73.4014H70.9521V73.417H70.9375V73.4463H70.9229V73.4619H70.9082V73.4766H70.8936V73.4912H70.8779V73.5215H70.8633V73.5361H70.8486V73.5518H70.834V73.5664H70.8193V73.5811H70.8047V73.5957H70.79V73.6113H70.7754V73.626H70.7607V73.6416H70.7461V73.6562H70.7314V73.6855H70.7158V73.7012H70.7012V73.7158H70.6865V73.7305H70.6719V73.7461H70.6572V73.7607H70.6426V73.7754H70.6279V73.791H70.6133V73.8057H70.5986V73.8203H70.584V73.8359H70.5693V73.8506H70.5547V73.8652H70.5391V73.8809H70.5244V73.8955H70.5098V73.9102H70.4951V73.9248H70.4805V73.9404H70.4658V73.9551H70.4512V73.9697H70.4365V73.9854H70.4219V74H70.4072V74.0146H70.377V74.0303H70.3623V74.0449H70.3477V74.0596H70.333V74.0752H70.3184V74.0898H70.3037V74.1045H70.2891V74.1201H70.2744V74.1348H70.2598V74.1494H70.2441V74.1641H70.2305V74.1797H70.2002V74.1943H70.1855V74.209H70.1709V74.2246H70.1562V74.2393H70.127V74.2539H70.1123V74.2695H70.0977V74.2842H70.083V74.2988H70.0527V74.3145H70.0381V74.3291H70.0234V74.3438H70.0088V74.3594H69.9795V74.374H69.9648V74.3887H69.9502V74.4043H69.9355V74.4189H69.9053V74.4336H69.8906V74.4482H69.876V74.4639H69.8467V74.4785H69.832V74.4932H69.8027V74.5088H69.7881V74.5234H69.7588V74.5381H69.7432V74.5537H69.7285V74.5684H69.6992V74.583H69.6846V74.5986H69.6553V74.6133H69.6406V74.6279H69.6113V74.6436H69.5957V74.6582H69.5664V74.6729H69.5518V74.6875H69.5225V74.7031H69.5078V74.7178H69.4785V74.7324H69.4492V74.748H69.4336V74.7627H69.4043V74.7773H69.375V74.793H69.3604V74.8076H69.3311V74.8223H69.3018V74.8379H69.2871V74.8525H69.2568V74.8672H69.2275V74.8828H69.1982V74.8975H69.1836V74.9121H69.1543V74.9268H69.125V74.9424H69.0947V74.957H69.0654V74.9727H69.0361V74.9873H69.0068V75.002H68.9775V75.0166H68.9482V75.0322H68.918V75.0469H68.8887V75.0615H68.8594V75.0771H68.8301V75.0918H68.8008V75.1064H68.7705V75.1221H68.7412V75.1367H68.7119V75.1514H68.6826V75.166H68.6533V75.1816H68.6084V75.1963H68.5791V75.2119H68.5352V75.2266H68.5059V75.2412H68.4766V75.2559H68.4316V75.2715H68.4023V75.2861H68.373V75.3008H68.3291V75.3164H68.2988V75.3311H68.2549V75.3457H68.2109V75.3613H68.167V75.376H68.1367V75.3906H68.0928V75.4062H68.0488V75.4209H68.0049V75.4355H67.96V75.4512H67.916V75.4658H67.8721V75.4805H67.8271V75.4951H67.7832V75.5107H67.7393V75.5254H67.6797V75.541H67.6357V75.5557H67.5771V75.5703H67.5332V75.585H67.4736V75.6006H67.415V75.6152H67.3711V75.6299H67.3115V75.6455H67.2529V75.6602H67.1787V75.6748H67.1201V75.6904H67.0469V75.7051H66.9873V75.7197H66.9141V75.7344H66.8545V75.75H66.7812V75.7646H66.6924V75.7803H66.6045V75.7949H66.5156V75.8096H66.4277V75.8242H66.3389V75.8398H66.251V75.8545H66.1328V75.8691H66V75.8848H65.8672V75.8994H65.7344V75.9141H65.6016V75.9297H65.3809V75.9443H65.1455V75.959H64.8506V75.9746H63.7158V75.959H63.332V75.9443H63.1113V75.9297H62.8906V75.9141H62.7285V75.8994H62.5811V75.8848H62.4336V75.8691H62.3154V75.8545H62.1973V75.8398H62.0801V75.8242H61.9766V75.8096H61.873V75.7949H61.7852V75.7803H61.6963V75.7646H61.6084V75.75H61.5195V75.7344H61.4463V75.7197H61.3721V75.7051H61.2988V75.6904H61.2246V75.6748H61.166V75.6602H61.0918V75.6455H61.0332V75.6299H60.96V75.6152H60.9004V75.6006H60.8418V75.585H60.7832V75.5703H60.7383V75.5557H60.6797V75.541H60.6201V75.5254H60.5762V75.5107H60.5176V75.4951H60.4727V75.4805H60.4141V75.4658H60.3701V75.4512H60.3262V75.4355H60.2812V75.4209H60.2373V75.4062H60.1787V75.3906H60.1484V75.376H60.1045V75.3613H60.0605V75.3457H60.0166V75.3311H59.9717V75.3164H59.9424V75.3008H59.8984V75.2861H59.8545V75.2715H59.8242V75.2559H59.7803V75.2412H59.751V75.2266H59.707V75.2119H59.6777V75.1963H59.6328V75.1816H59.6035V75.166H59.5596V75.1514H59.5303V75.1367H59.501V75.1221H59.4707V75.1064H59.4414V75.0918H59.3975V75.0771H59.3682V75.0615H59.3379V75.0469H59.3086V75.0322H59.2793V75.0166H59.25V75.002H59.2207V74.9873H59.1904V74.9727H59.1611V74.957H59.1318V74.9424H59.1025V74.9268H59.0732V74.9121H59.0439V74.8975H59.0137V74.8828H58.9844V74.8672H58.9697V74.8525H58.9404V74.8379H58.9111V74.8223H58.8818V74.8076H58.8662V74.793H58.8369V74.7773H58.8076V74.7627H58.7783V74.748H58.7637V74.7324H58.7344V74.7178H58.7197V74.7031H58.6895V74.6875H58.6602V74.6729H58.6455V74.6582H58.6162V74.6436H58.6016V74.6279H58.5723V74.6133H58.542V74.5986H58.5273V74.583H58.498V74.5684H58.4834V74.5537H58.4688V74.5381H58.4395V74.5234H58.4248V74.5088H58.3955V74.4932H58.3799V74.4785H58.3652V74.4639H58.3359V74.4482H58.3213V74.4336H58.292V74.4189H58.2773V74.4043H58.2627V74.3887H58.2334V74.374H58.2188V74.3594H58.2031V74.3438H58.1885V74.3291H58.1592V74.3145H58.1445V74.2988H58.1299V74.2842H58.1006V74.2695H58.0859V74.2539H58.0713V74.2393H58.0557V74.2246H58.041V74.209H58.0117V74.1943H57.9971V74.1797H57.9824V74.1641H57.9678V74.1494H57.9531V74.1348H57.9385V74.1201H57.9092V74.1045H57.8945V74.0898H57.8789V74.0752H57.8643V74.0596H57.8496V74.0449H57.835V74.0303H57.8203V74.0146H57.8057V74H57.791V73.9854H57.7764V73.9697H57.7617V73.9551H57.7471V73.9404H57.7314V73.9248H57.7168V73.9102H57.7021V73.8955H57.6875V73.8809H57.6729V73.8652H57.6582V73.8506H57.6436V73.8359H57.6289V73.8203H57.6143V73.8057H57.5996V73.791H57.584V73.7754H57.5693V73.7607H57.5547V73.7461H57.54V73.7305H57.5254V73.7158H57.5107V73.7012H57.4961V73.6855H57.4814V73.6709H57.4668V73.6416H57.4521V73.626H57.4375V73.6113H57.4229V73.5957H57.4072V73.5811H57.3926V73.5664H57.3779V73.5518H57.3633V73.5215H57.3486V73.5068H57.334V73.4912H57.3193V73.4766H57.3047V73.4463H57.29V73.4316H57.2754V73.417H57.2598V73.4014H57.2451V73.3721H57.2305V73.3564H57.2158V73.3418H57.2012V73.3271H57.1865V73.2969H57.1719V73.2822H57.1572V73.252H57.1426V73.2373H57.1279V73.2227H57.1133V73.1924H57.0977V73.1777H57.083V73.1475H57.0684V73.1328H57.0537V73.1172H57.0391V73.0879H57.0244V73.0732H57.0098V73.043H56.9951V73.0273H56.9805V72.998H56.9658V72.9834H56.9512V72.9531H56.9365V72.9385H56.9209V72.9082H56.9062V72.8779H56.8916V72.8633H56.877V72.833H56.8623V72.8037H56.8477V72.7881H56.833V72.7588H56.8184V72.7285H56.8037V72.6992H56.7891V72.6836H56.7734V72.6543H56.7588V72.624H56.7441V72.5938H56.7295V72.5645H56.7148V72.5488H56.7002V72.5195H56.6855V72.4893H56.6709V72.459H56.6562V72.4297H56.6416V72.3994H56.627V72.3701H56.6123V72.3398H56.5967V72.3096H56.582V72.2803H56.5674V72.2354H56.5527V72.2051H56.5381V72.1758H56.5234V72.1455H56.5088V72.1152H56.4941V72.0859H56.4795V72.041H56.4648V72.0107H56.4492V71.9658H56.4346V71.9365H56.4199V71.8916H56.4053V71.8613H56.3906V71.8164H56.376V71.7861H56.3613V71.7412H56.3467V71.7119H56.332V71.667H56.3174V71.6221H56.3018V71.5771H56.2871V71.5322H56.2725V71.502H56.2578V71.457H56.2432V71.4131H47.5332V71.4424H47.5479V71.5322H47.5625V71.6221H47.5771V71.7119H47.5918V71.7861H47.6064V71.8613H47.6211V71.9365H47.6357V72.0107H47.6514V72.0859H47.666V72.1602H47.6807V72.2354H47.6953V72.2949H47.71V72.3545H47.7246V72.4297H47.7393V72.4893H47.7539V72.5488H47.7686V72.6094H47.7832V72.6689H47.7979V72.7285H47.8125V72.7881H47.8281V72.8486H47.8428V72.9082H47.8574V72.9531H47.8721V73.0127H47.8867V73.0576H47.9014V73.1172H47.916V73.1621H47.9307V73.2227H47.9453V73.2676H47.96V73.3125H47.9756V73.3721H47.9902V73.417H48.0049V73.4619H48.0195V73.5068H48.0342V73.5518H48.0488V73.5957H48.0635V73.6416H48.0781V73.6855H48.0928V73.7305H48.1074V73.7754H48.123V73.8203H48.1377V73.8652H48.1523V73.8955H48.167V73.9404H48.1816V73.9854H48.1963V74.0146H48.2109V74.0596H48.2256V74.1045H48.2402V74.1494H48.2549V74.1797H48.2695V74.2246H48.2842V74.2539H48.2998V74.2988H48.3145V74.3291H48.3291V74.374H48.3438V74.4043H48.3584V74.4482H48.373V74.4785H48.3877V74.5088H48.4023V74.5537H48.417V74.583H48.4316V74.6279H48.4473V74.6582H48.4619V74.6875H48.4766V74.7324H48.4912V74.7627H48.5059V74.793H48.5205V74.8223H48.5352V74.8525H48.5498V74.8828H48.5645V74.9268H48.5791V74.957H48.5938V74.9873H48.6084V75.0166H48.624V75.0469H48.6387V75.0771H48.6533V75.1221H48.668V75.1514H48.6826V75.1816H48.6973V75.2119H48.7119V75.2266H48.7266V75.2559H48.7412V75.2861H48.7559V75.3164H48.7715V75.3457H48.7861V75.376H48.8008V75.4062H48.8154V75.4355H48.8301V75.4658H48.8447V75.4951H48.8594V75.5254H48.874V75.5557H48.8887V75.585H48.9033V75.6152H48.918V75.6299H48.9336V75.6602H48.9482V75.6904H48.9629V75.7197H48.9775V75.7344H48.9922V75.7646H49.0068V75.7949H49.0215V75.8242H49.0361V75.8398H49.0508V75.8691H49.0654V75.8994H49.0801V75.9297H49.0947V75.9443H49.1104V75.9746H49.125V76.0039H49.1396V76.0342H49.1543V76.0488H49.1689V76.0791H49.1836V76.1094H49.1982V76.124H49.2129V76.1533H49.2275V76.1689H49.2422V76.1982H49.2578V76.2139H49.2725V76.2432H49.2871V76.2734H49.3018V76.2881H49.3164V76.3184H49.3311V76.333H49.3457V76.3633H49.3604V76.3779H49.375V76.4082H49.3896V76.4375H49.4053V76.4531H49.4199V76.4824H49.4346V76.498H49.4492V76.5273H49.4639V76.543H49.4785V76.5723H49.4932V76.5879H49.5078V76.6025H49.5225V76.6318H49.5371V76.6475H49.5518V76.6768H49.5664V76.6924H49.582V76.7217H49.5967V76.7373H49.6113V76.752H49.626V76.7822H49.6406V76.7969H49.6553V76.8271H49.6699V76.8418H49.6846V76.8711H49.6992V76.8867H49.7139V76.9014H49.7295V76.9316H49.7441V76.9463H49.7588V76.9766H49.7734V76.9912H49.7881V77.0059H49.8027V77.0215H49.8174V77.0508H49.832V77.0664H49.8467V77.0811H49.8613V77.1113H49.876V77.126H49.8906V77.1406H49.9062V77.1553H49.9209V77.1855H49.9355V77.2002H49.9502V77.2158H49.9648V77.2451H49.9795V77.2607H49.9941V77.2754H50.0088V77.29H50.0234V77.3203H50.0381V77.335H50.0537V77.3506H50.0684V77.3652H50.083V77.3945H50.0977V77.4102H50.1123V77.4248H50.127V77.4395H50.1416V77.4697H50.1562V77.4844H50.1709V77.5H50.1855V77.5146H50.2002V77.5293H50.2158V77.5449H50.2305V77.5596H50.2451V77.5898H50.2598V77.6045H50.2744V77.6191H50.2891V77.6338H50.3037V77.6494H50.3184V77.6641H50.333V77.6797H50.3477V77.709H50.3623V77.7236H50.377V77.7393H50.3926V77.7539H50.4072V77.7686H50.4219V77.7842H50.4365V77.8135H50.4512V77.8291H50.4658V77.8438H50.4805V77.8584H50.4951V77.874H50.5098V77.8887H50.5244V77.9033H50.54V77.9189H50.5547V77.9336H50.5693V77.9482H50.584V77.9629H50.5986V77.9785H50.6133V77.9932H50.6279V78.0078H50.6426V78.0234H50.6572V78.0381H50.6719V78.0527H50.6875V78.083H50.7012V78.0977H50.7168V78.1133H50.7314V78.1279H50.7461V78.1426H50.7607V78.1582H50.7754V78.1729H50.79V78.1875H50.8047V78.2021H50.8193V78.2178H50.834V78.2324H50.8486V78.248H50.8643V78.2627H50.8789V78.2773H50.8936V78.292H50.9082V78.3076H50.9229V78.3223H50.9375V78.3369H50.9521V78.3525H50.9668V78.3672H50.9814V78.3818H50.9961V78.3975H51.0117V78.4121H51.041V78.4268H51.0557V78.4424H51.0703V78.457H51.085V78.4717H51.0996V78.4873H51.1143V78.502H51.1289V78.5166H51.1436V78.5312H51.1592V78.5469H51.1729V78.5615H51.1885V78.5762H51.2031V78.5918H51.2178V78.6064H51.2471V78.6211H51.2617V78.6367H51.2764V78.6514H51.291V78.666H51.3057V78.6816H51.3203V78.6963H51.3359V78.7109H51.3506V78.7266H51.3652V78.7412H51.3799V78.7559H51.4092V78.7705H51.4238V78.7861H51.4385V78.8008H51.4531V78.8164H51.4678V78.8311H51.498V78.8457H51.5127V78.8604H51.5273V78.876H51.542V78.8906H51.5566V78.9053H51.5859V78.9209H51.6006V78.9355H51.6152V78.9502H51.6299V78.9658H51.6445V78.9805H51.6748V78.9951H51.6895V79.0107H51.7041V79.0254H51.7188V79.04H51.7334V79.0557H51.7627V79.0703H51.7773V79.085H51.792V79.0996H51.8066V79.1152H51.8223V79.1299H51.8516V79.1445H51.8662V79.1602H51.8809V79.1748H51.8955V79.1895H51.9248V79.2051H51.9395V79.2197H51.9697V79.2344H51.9834V79.25H51.999V79.2646H52.0283V79.2793H52.043V79.2949H52.0576V79.3096H52.0869V79.3242H52.1016V79.3389H52.1162V79.3545H52.1465V79.3691H52.1611V79.3838H52.1758V79.3994H52.2051V79.4141H52.2197V79.4287H52.2344V79.4443H52.2637V79.459H52.2783V79.4736H52.2939V79.4893H52.3232V79.5039H52.3379V79.5186H52.3525V79.5342H52.3818V79.5488H52.3965V79.5635H52.4258V79.5781H52.4404V79.5938H52.4707V79.6084H52.4854V79.623H52.5146V79.6387H52.5293V79.6533H52.5586V79.668H52.5732V79.6836H52.6025V79.6982H52.6182V79.7129H52.6475V79.7285H52.6621V79.7432H52.6914V79.7578H52.7061V79.7734H52.7354V79.7881H52.75V79.8027H52.7803V79.8184H52.7949V79.833H52.8242V79.8477H52.8389V79.8623H52.8682V79.8779H52.8828V79.8926H52.9121V79.9072H52.9268V79.9229H52.957V79.9375H52.9863V79.9521H53.001V79.9678H53.0303V79.9824H53.0596V79.9971H53.0742V80.0127H53.1045V80.0273H53.1338V80.042H53.1484V80.0576H53.1777V80.0723H53.207V80.0869H53.2363V80.1016H53.252V80.1172H53.2812V80.1318H53.3105V80.1465H53.3252V80.1621H53.3545V80.1768H53.3838V80.1914H53.4131V80.207H53.4287V80.2217H53.458V80.2363H53.4873V80.252H53.502V80.2666H53.5312V80.2812H53.5605V80.2969H53.5908V80.3115H53.6055V80.3262H53.6348V80.3408H53.6641V80.3564H53.6934V80.3711H53.7227V80.3867H53.7529V80.4014H53.7822V80.416H53.8115V80.4307H53.8408V80.4463H53.8701V80.4609H53.9004V80.4756H53.9297V80.4912H53.959V80.5059H53.9883V80.5205H54.0176V80.5361H54.0479V80.5508H54.0771V80.5654H54.1064V80.5811H54.1211V80.5957H54.1504V80.6104H54.1797V80.626H54.209V80.6406H54.2393V80.6553H54.2686V80.6699H54.2979V80.6855H54.3418V80.7002H54.3711V80.7148H54.4014V80.7305H54.4307V80.7451H54.4746V80.7598H54.5039V80.7754H54.5342V80.79H54.5635V80.8047H54.6074V80.8203H54.6367V80.835H54.666V80.8496H54.6953V80.8652H54.7256V80.8799H54.7695V80.8945H54.7988V80.9092H54.8281V80.9248H54.8584V80.9395H54.9023V80.9551H54.9316V80.9697H54.9609V80.9844H54.9902V80.999H55.0352V81.0146H55.0791V81.0293H55.1084V81.0439H55.1523V81.0596H55.1826V81.0742H55.2266V81.0889H55.2705V81.1045H55.2998V81.1191H55.3447V81.1338H55.374V81.1494H55.418V81.1641H55.4473V81.1787H55.4912V81.1943H55.5361V81.209H55.5654V81.2236H55.6094V81.2383H55.6387V81.2539H55.6836V81.2686H55.7275V81.2832H55.7568V81.2988H55.8008V81.3135H55.8457V81.3281H55.8896V81.3438H55.9336V81.3584H55.9775V81.373H56.0225V81.3887H56.0664V81.4033H56.125V81.418H56.1699V81.4336H56.2139V81.4482H56.2578V81.4629H56.3018V81.4775H56.3467V81.4932H56.3906V81.5078H56.4346V81.5234H56.4795V81.5381H56.5234V81.5527H56.5674V81.5674H56.6123V81.583H56.6709V81.5977H56.7295V81.6123H56.7734V81.6279H56.833V81.6426H56.8916V81.6572H56.9365V81.6729H56.9951V81.6875H57.0391V81.7021H57.0977V81.7178H57.1572V81.7324H57.2012V81.7471H57.2598V81.7627H57.3047V81.7773H57.3633V81.792H57.4229V81.8066H57.4814V81.8223H57.54V81.8369H57.6143V81.8516H57.6729V81.8672H57.7471V81.8818H57.8057V81.8965H57.8643V81.9121H57.9385V81.9268H57.9971V81.9414H58.0713V81.957H58.1299V81.9717H58.1885V81.9863H58.2627V82.002H58.3213V82.0166H58.3955V82.0312H58.4834V82.0459H58.5576V82.0615H58.6455V82.0762H58.7344V82.0908H58.8076V82.1064H58.8965V82.1211H58.9697V82.1357H59.0586V82.1514H59.1318V82.166H59.2207V82.1807H59.3086V82.1963H59.3975V82.2109H59.5156V82.2256H59.6182V82.2412H59.7217V82.2559H59.8398V82.2705H59.9424V82.2861H60.0605V82.3008H60.1641V82.3154H60.2666V82.3301H60.3848V82.3457H60.5469V82.3604H60.6943V82.375H60.8564V82.3906H61.0186V82.4053H61.166V82.4199H61.3281V82.4355H61.4902V82.4502H61.7705V82.4648H62.0352V82.4805H62.3008V82.4951H62.5811V82.5098H63.1553V82.5254H64.5703V82.5098H65.1455V82.4951H65.4404V82.4805H65.749V82.4648H66.0439V82.4502H66.2803V82.4355H66.457V82.4199H66.6338V82.4053H66.8105V82.3906H66.9727V82.375H67.1494V82.3604H67.3115V82.3457H67.4297V82.3301H67.5625V82.3154H67.6797V82.3008H67.7979V82.2861H67.916V82.2705H68.0342V82.2559H68.1514V82.2412H68.2695V82.2256H68.373V82.2109H68.4766V82.1963H68.5645V82.1807H68.6533V82.166H68.7412V82.1514H68.8301V82.1357H68.918V82.1211H69.0068V82.1064H69.0947V82.0908H69.1836V82.0762H69.2725V82.0615H69.3604V82.0459H69.4336V82.0312H69.4932V82.0166H69.5664V82.002H69.6406V81.9863H69.7139V81.9717H69.7734V81.957H69.8467V81.9414H69.9199V81.9268H69.9941V81.9121H70.0527V81.8965H70.127V81.8818H70.2002V81.8672H70.2744V81.8516H70.333V81.8369H70.3916V81.8223H70.4512V81.8066H70.5098V81.792H70.5547V81.7773H70.6133V81.7627H70.6719V81.7471H70.7314V81.7324H70.79V81.7178H70.8486V81.7021H70.8936V81.6875H70.9521V81.6729H71.0107V81.6572H71.0703V81.6426H71.1289V81.6279H71.1875V81.6123H71.2324V81.5977H71.2764V81.583H71.335V81.5674H71.3799V81.5527H71.4238V81.5381H71.4678V81.5234H71.5127V81.5078H71.5713V81.4932H71.6152V81.4775H71.6592V81.4629H71.7041V81.4482H71.748V81.4336H71.792V81.418H71.8516V81.4033H71.8955V81.3887H71.9395V81.373H71.9834V81.3584H72.0283V81.3438H72.0723V81.3281H72.1162V81.3135H72.1611V81.2988H72.2051V81.2832H72.2344V81.2686H72.2783V81.2539H72.3232V81.2383H72.3525V81.2236H72.3965V81.209H72.4404V81.1943H72.4697V81.1787H72.5146V81.1641H72.5586V81.1494H72.5879V81.1338H72.6318V81.1191H72.6768V81.1045H72.7061V81.0889H72.75V81.0742H72.7939V81.0596H72.8242V81.0439H72.8682V81.0293H72.9121V81.0146H72.9414V80.999H72.9863V80.9844H73.0156V80.9697H73.0449V80.9551H73.0742V80.9395H73.1191V80.9248H73.1484V80.9092H73.1777V80.8945H73.207V80.8799H73.251V80.8652H73.2803V80.8496H73.3105V80.835H73.3545V80.8203H73.3838V80.8047H73.4131V80.79H73.4434V80.7754H73.4873V80.7598H73.5166V80.7451H73.5459V80.7305H73.5752V80.7148H73.6201V80.7002H73.6494V80.6855H73.6787V80.6699H73.7227V80.6553H73.752V80.6406H73.7666V80.626H73.7969V80.6104H73.8262V80.5957H73.8555V80.5811H73.8848V80.5654H73.9141V80.5508H73.9443V80.5361H73.9736V80.5205H74.0029V80.5059H74.0322V80.4912H74.0615V80.4756H74.0908V80.4609H74.1211V80.4463H74.1504V80.4307H74.1797V80.416H74.209V80.4014H74.2383V80.3867H74.2686V80.3711H74.2979V80.3564H74.3271V80.3408H74.3564V80.3262H74.3711V80.3115H74.4014V80.2969H74.4307V80.2812H74.46V80.2666H74.4893V80.252H74.5186V80.2363H74.5332V80.2217H74.5625V80.207H74.5928V80.1914H74.6074V80.1768H74.6367V80.1621H74.666V80.1465H74.6807V80.1318H74.71V80.1172H74.7402V80.1016H74.7695V80.0869H74.7842V80.0723H74.8135V80.0576H74.8428V80.042H74.8574V80.0273H74.8877V80.0127H74.917V79.9971H74.9316V79.9824H74.9609V79.9678H74.9902V79.9521H75.0049V79.9375H75.0342V79.9229H75.0645V79.9072H75.0791V79.8926H75.1084V79.8779H75.1377V79.8623H75.167V79.8477H75.1816V79.833H75.1963V79.8184H75.2266V79.8027H75.2412V79.7881H75.2705V79.7734H75.2852V79.7578H75.3145V79.7432H75.3291V79.7285H75.3584V79.7129H75.373V79.6982H75.4033V79.6836H75.418V79.668H75.4473V79.6533H75.4619V79.6387H75.4912V79.623H75.5059V79.6084H75.5205V79.5938H75.5508V79.5781H75.5654V79.5635H75.5947V79.5488H75.6094V79.5342H75.6387V79.5186H75.6533V79.5039H75.6836V79.4893H75.6982V79.4736H75.7275V79.459H75.7422V79.4443H75.7715V79.4287H75.7861V79.4141H75.8154V79.3994H75.8301V79.3838H75.8447V79.3691H75.875V79.3545H75.8896V79.3389H75.9043V79.3242H75.9189V79.3096H75.9482V79.2949H75.9629V79.2793H75.9775V79.2646H75.9922V79.25H76.0225V79.2344H76.0371V79.2197H76.0518V79.2051H76.0811V79.1895H76.0957V79.1748H76.1104V79.1602H76.125V79.1445H76.1553V79.1299H76.1699V79.1152H76.1846V79.0996H76.2139V79.085H76.2285V79.0703H76.2432V79.0557H76.2578V79.04H76.2871V79.0254H76.3018V79.0107H76.3164V78.9951H76.3467V78.9805H76.3613V78.9658H76.376V78.9502H76.3906V78.9355H76.4199V78.9209H76.4346V78.9053H76.4492V78.8906H76.4639V78.876H76.4785V78.8604H76.4941V78.8457H76.5234V78.8311H76.5381V78.8164H76.5527V78.8008H76.5674V78.7861H76.582V78.7705H76.5967V78.7559H76.6113V78.7412H76.626V78.7266H76.6553V78.7109H76.6709V78.6963H76.6855V78.6816H76.7002V78.666H76.7148V78.6514H76.7295V78.6367H76.7441V78.6211H76.7588V78.6064H76.7734V78.5918H76.8027V78.5762H76.8184V78.5615H76.833V78.5469H76.8477V78.5312H76.8623V78.5166H76.877V78.502H76.8916V78.4873H76.9062V78.4717H76.9355V78.457H76.9502V78.4424H76.9658V78.4268H76.9805V78.4121H76.9951V78.3975H77.0098V78.3818H77.0244V78.3672H77.0391V78.3525H77.0537V78.3369H77.0684V78.3223H77.083V78.3076H77.0977V78.292H77.1123V78.2773H77.127V78.2627H77.1426V78.248H77.1572V78.2324H77.1719V78.2178H77.1865V78.2021H77.2012V78.1875H77.2158V78.1729H77.2305V78.1582H77.2451V78.1426H77.2598V78.1279H77.2744V78.1133H77.29V78.0977H77.3047V78.083H77.3193V78.0684H77.334V78.0527H77.3486V78.0381H77.3633V78.0234H77.3779V78.0078H77.3926V77.9932H77.4072V77.9785H77.4219V77.9629H77.4375V77.9482H77.4512V77.9336H77.4668V77.9189H77.4814V77.9033H77.4961V77.8887H77.5107V77.874H77.5254V77.8584H77.54V77.8438H77.5547V77.8135H77.5693V77.7988H77.584V77.7842H77.5986V77.7686H77.6143V77.7539H77.6289V77.7393H77.6436V77.709H77.6582V77.6943H77.6729V77.6797H77.6875V77.6641H77.7021V77.6494H77.7168V77.6338H77.7314V77.6191H77.7461V77.5898H77.7607V77.5742H77.7764V77.5596H77.791V77.5449H77.8057V77.5293H77.8203V77.5146H77.835V77.4844H77.8496V77.4697H77.8643V77.4551H77.8789V77.4395H77.8936V77.4248H77.9082V77.4102H77.9229V77.3799H77.9375V77.3652H77.9531V77.3506H77.9678V77.335H77.9824V77.3203H77.9971V77.3057H78.0117V77.2754H78.0264V77.2607H78.041V77.2451H78.0557V77.2305H78.0703V77.2158H78.085V77.1855H78.1006V77.1709H78.1152V77.1553H78.1299V77.126H78.1445V77.1113H78.1592V77.0957H78.1738V77.0664H78.1885V77.0508H78.2031V77.0361H78.2178V77.0059H78.2324V76.9912H78.248V76.9766H78.2627V76.9463H78.2773V76.9316H78.292V76.916H78.3066V76.8867H78.3213V76.8711H78.3359V76.8564H78.3506V76.8271H78.3652V76.8115H78.3799V76.7969H78.3945V76.7666H78.4092V76.752H78.4248V76.7373H78.4395V76.707H78.4541V76.6924H78.4688V76.6768H78.4834V76.6475H78.498V76.6318H78.5127V76.6172H78.5273V76.5879H78.542V76.5723H78.5566V76.543H78.5723V76.5273H78.5869V76.498H78.6016V76.4824H78.6162V76.4531H78.6309V76.4375H78.6455V76.4082H78.6602V76.3926H78.6748V76.3633H78.6895V76.3486H78.7041V76.3184H78.7197V76.3027H78.7334V76.2734H78.749V76.2432H78.7637V76.2285H78.7783V76.1982H78.793V76.1836H78.8076V76.1533H78.8223V76.1387H78.8369V76.1094H78.8516V76.0938H78.8662V76.0635H78.8809V76.0488H78.8965V76.0195H78.9111V76.0039H78.9258V75.9746H78.9404V75.959H78.9551V75.9297H78.9697V75.8994H78.9844V75.8848H78.999V75.8545H79.0137V75.8242H79.0283V75.7949H79.0439V75.7803H79.0586V75.75H79.0732V75.7197H79.0879V75.6904H79.1025V75.6748H79.1172V75.6455H79.1318V75.6152H79.1465V75.585H79.1611V75.5703H79.1758V75.541H79.1904V75.5107H79.2051V75.4805H79.2207V75.4658H79.2354V75.4355H79.25V75.4062H79.2646V75.3906H79.2793V75.3613H79.2939V75.3311H79.3086V75.3008H79.3232V75.2861H79.3379V75.2559H79.3525V75.2266H79.3672V75.1963H79.3828V75.166H79.3975V75.1367H79.4121V75.1064H79.4268V75.0771H79.4414V75.0469H79.4561V75.0166H79.4707V74.9873H79.4854V74.957H79.5V74.9268H79.5146V74.8975H79.5303V74.8672H79.5439V74.8379H79.5596V74.8076H79.5742V74.7773H79.5889V74.748H79.6035V74.7178H79.6182V74.6875H79.6328V74.6582H79.6475V74.6279H79.6621V74.5986H79.6768V74.5684H79.6914V74.5381H79.707V74.4932H79.7217V74.4639H79.7363V74.4336H79.751V74.3887H79.7656V74.3594H79.7803V74.3291H79.7949V74.2842H79.8096V74.2539H79.8242V74.2246H79.8389V74.1797H79.8545V74.1494H79.8691V74.1201H79.8838V74.0898H79.8984V74.0449H79.9131V74.0146H79.9277V73.9854H79.9424V73.9404H79.957V73.9102H79.9717V73.8809H79.9863V73.8359H80.002V73.8057H80.0156V73.7754H80.0312V73.7305H80.0459V73.6855H80.0605V73.6416H80.0752V73.6113H80.0898V73.5664H80.1045V73.5215H80.1191V73.4912H80.1338V73.4463H80.1484V73.4014H80.1631V73.3721H80.1787V73.3271H80.1934V73.2822H80.208V73.2373H80.2227V73.207H80.2373V73.1621H80.252V73.1172H80.2666V73.0879H80.2812V73.043H80.2959V72.998H80.3105V72.9531H80.3262V72.9082H80.3408V72.8633H80.3555V72.8184H80.3701V72.7588H80.3848V72.7139H80.3994V72.6689H80.4141V72.624H80.4287V72.5791H80.4434V72.5342H80.458V72.4746H80.4727V72.4297H80.4873V72.3848H80.5029V72.3398H80.5176V72.2949H80.5322V72.2354H80.5469V72.1904H80.5615V72.1455H80.5762V72.0859H80.5908V72.0254H80.6055V71.9658H80.6201V71.9209H80.6348V71.8613H80.6494V71.8018H80.665V71.7412H80.6797V71.6973H80.6943V71.6367H80.709V71.5771H80.7236V71.5176H80.7383V71.457H80.7529V71.4131H80.7676V71.3525H80.7822V71.293H80.7969V71.2178H80.8125V71.1582H80.8271V71.084H80.8418V71.0088H80.8564V70.9492H80.8711V70.874H80.8857V70.8145H80.9004V70.7393H80.915V70.665H80.9297V70.6055H80.9443V70.5303H80.959V70.4707H80.9736V70.3955H80.9893V70.3057H81.0039V70.2158H81.0186V70.126H81.0332V70.0518H81.0479V69.9619H81.0625V69.8721H81.0771V69.7979H81.0918V69.708H81.1064V69.6182H81.1211V69.543H81.1367V69.4385H81.1514V69.334H81.166V69.2139H81.1807V69.1094H81.1953V69.0049H81.21V68.9004H81.2246V68.7803H81.2393V68.6758H81.2539V68.5713H81.2686V68.4209H81.2842V68.2715H81.2979V68.1221H81.3135V67.9873H81.3281V67.8379H81.3428V67.6885H81.3574V67.5244H81.3721V67.2998H81.3867V67.0908H81.4014V66.8809H81.416V66.6719H81.4307V66.3428H81.4453V65.9834H81.4609V65.6094H81.4756V64.8018H81.4902V40.6328H81.5049V39.1074H81.5195V37.5967H81.5342V36.7744H81.5488V36.6699H81.21V36.6846H81.0625V36.6992H80.9297V36.7148H80.8125V36.7295H80.6797V36.7441H80.5908V36.7598H80.5029V36.7744H80.4141V36.7891H80.3262V36.8047H80.2373V36.8193H80.1484V36.834H80.0752V36.8486H79.9863V36.8643H79.9131V36.8789H79.8545V36.8945H79.7949V36.9092H79.7363V36.9238H79.6621V36.9385H79.6035V36.9541H79.5439V36.9688H79.4854V36.9834H79.4268V36.999H79.3525V37.0137H79.2939V37.0283H79.25V37.0439H79.2051V37.0586H79.1611V37.0732H79.1025V37.0879H79.0586V37.1035H79.0137V37.1182H78.9697V37.1338H78.9111V37.1484H78.8662V37.1631H78.8223V37.1777H78.7783V37.1934H78.7197V37.208H78.6748V37.2227H78.6309V37.2383H78.6016V37.2529H78.5566V37.2676H78.5127V37.2832H78.4834V37.2979H78.4395V37.3125H78.4092V37.3281H78.3652V37.3428H78.3213V37.3574H78.292V37.373H78.248V37.3877H78.2031V37.4023H78.1738V37.417H78.1299V37.4326H78.1006V37.4473H78.0557V37.4619H78.0264V37.4775H77.9824V37.4922H77.9531V37.5068H77.9229V37.5225H77.8936V37.5371H77.8643V37.5518H77.835V37.5674H77.791V37.582H77.7607V37.5967H77.7314V37.6123H77.7021V37.627H77.6729V37.6416H77.6289V37.6562H77.5986V37.6719H77.5693V37.6865H77.54V37.7021H77.5107V37.7168H77.4814V37.7314H77.4512V37.7461H77.4219V37.7617H77.3926V37.7764H77.3633V37.791H77.334V37.8066H77.3047V37.8213H77.2744V37.8359H77.2598V37.8516H77.2305V37.8662H77.2012V37.8809H77.1719V37.8965H77.1426V37.9111H77.1123V37.9258H77.0977V37.9414H77.0684V37.9561H77.0391V37.9707H77.0098V37.9854H76.9805V38.001H76.9502V38.0156H76.9209V38.0303H76.9062V38.0459H76.877V38.0605H76.8477V38.0752H76.833V38.0908H76.8027V38.1055H76.7881V38.1201H76.7588V38.1357H76.7295V38.1504H76.7148V38.165H76.6855V38.1807H76.6709V38.1953H76.6406V38.21H76.626V38.2246H76.5967V38.2402H76.5674V38.2549H76.5527V38.2695H76.5234V38.2852H76.5088V38.2998H76.4785V38.3145H76.4492V38.3301H76.4346V38.3447H76.4053V38.3594H76.3906V38.375H76.3613V38.3896H76.3467V38.4043H76.3164V38.4199H76.3018V38.4346H76.2871V38.4492H76.2578V38.4648H76.2432V38.4795H76.2285V38.4941H76.1992V38.5088H76.1846V38.5244H76.1699V38.5391H76.1396V38.5537H76.125V38.5693H76.0957V38.584H76.0811V38.5986H76.0664V38.6143H76.0371V38.6289H76.0225V38.6436H76.0078V38.6592H75.9775V38.6738H75.9629V38.6885H75.9482V38.7041H75.9189V38.7188H75.9043V38.7334H75.875V38.748H75.8604V38.7637H75.8447V38.7783H75.8301V38.793H75.8154V38.8086H75.7861V38.8232H75.7715V38.8379H75.7568V38.8535H75.7422V38.8682H75.7275V38.8828H75.6982V38.8984H75.6836V38.9131H75.668V38.9277H75.6533V38.9434H75.6387V38.958H75.624V38.9727H75.5947V38.9873H75.5801V39.0029H75.5654V39.0176H75.5508V39.0332H75.5361V39.0479H75.5205V39.0625H75.4912V39.0771H75.4766V39.0928H75.4619V39.1074H75.4473V39.1221H75.4326V39.1377H75.4033V39.1523H75.3887V39.167H75.373V39.1826H75.3584V39.1973H75.3438V39.2119H75.3291V39.2266H75.3145V39.2422H75.2998V39.2568H75.2852V39.2725H75.2705V39.2871H75.2559V39.3018H75.2412V39.3164H75.2266V39.332H75.2119V39.3467H75.1963V39.3613H75.1816V39.377H75.167V39.3916H75.1523V39.4062H75.1377V39.4219H75.123V39.4365H75.1084V39.4512H75.0938V39.4668H75.0791V39.4814H75.0645V39.4961H75.0498V39.5117H75.0342V39.5264H75.0195V39.541H75.0049V39.5557H74.9902V39.5713H74.9756V39.5859H74.9609V39.6016H74.9463V39.6162H74.9316V39.6309H74.917V39.6455H74.9023V39.6611H74.8877V39.6758H74.8721V39.7061H74.8574V39.7207H74.8428V39.7354H74.8281V39.751H74.8135V39.7656H74.7988V39.7803H74.7842V39.7949H74.7695V39.8252H74.7549V39.8408H74.7402V39.8555H74.7256V39.8701H74.71V39.8848H74.6953V39.9004H74.6807V39.915H74.666V39.9453H74.6514V39.96H74.6367V39.9746H74.6221V39.9902H74.6074V40.0049H74.5928V40.0195H74.5781V40.0352H74.5625V40.0645H74.5479V40.0801H74.5332V40.0947H74.5186V40.124H74.5039V40.1396H74.4893V40.1543H74.4746V40.1846H74.46V40.1992H74.4453V40.2139H74.4307V40.2441H74.416V40.2588H74.4014V40.2744H74.3857V40.3037H74.3711V40.3193H74.3564V40.334H74.3418V40.3633H74.3271V40.3789H74.3125V40.3936H74.2979V40.4238H74.2832V40.4385H74.2686V40.4531H74.2539V40.4834H74.2383V40.498H74.2236V40.5137H74.209V40.543H74.1943V40.5586H74.1797V40.5879H74.165V40.6182H74.1504V40.6328H74.1357V40.6631H74.1211V40.6777H74.1064V40.708H74.0908V40.7373H74.0762V40.7529H74.0615V40.7822H74.0469V40.7979H74.0322V40.8271H74.0176V40.8574H74.0029V40.8721H73.9883V40.9023H73.9736V40.917H73.959V40.9473H73.9443V40.9619H73.9297V40.9922H73.9141V41.0215H73.8994V41.0371H73.8848V41.0664H73.8701V41.0967H73.8555V41.127H73.8408V41.1562H73.8262V41.1865H73.8115V41.2158H73.7969V41.2461H73.7822V41.2764H73.7666V41.3057H73.752V41.3213H73.7373V41.3506H73.7227V41.3809H73.708V41.4111H73.6934V41.4404H73.6787V41.4707H73.6641V41.5H73.6494V41.5303H73.6348V41.5605H73.6201V41.5898H73.6055V41.6201H73.5898V41.665H73.5752V41.6943H73.5605V41.7246H73.5459V41.7695H73.5312V41.7998H73.5166V41.8291H73.502V41.8594H73.4873V41.9043H73.4727V41.9346H73.458V41.9639H73.4434V42.0088H73.4277V42.0537H73.4131V42.084H73.3984V42.0537H73.3838V42.0234H73.3691V41.9795H73.3545V41.9492H73.3398V41.9346H73.3252V41.9043H73.3105V41.874H73.2959V41.8447H73.2803V41.8145H73.2656V41.7842H73.251V41.7549H73.2363V41.7246H73.2217V41.6943H73.207V41.665H73.1924V41.6348H73.1777V41.6201H73.1631V41.5898H73.1484V41.5605H73.1338V41.5449H73.1191V41.5156H73.1035V41.4854H73.0889V41.4707H73.0742V41.4404H73.0596V41.4111H73.0449V41.3955H73.0303V41.3662H73.0156V41.3359H73.001V41.3213H72.9863V41.291H72.9717V41.2607H72.9561V41.2461H72.9414V41.2158H72.9268V41.2012H72.9121V41.1719H72.8975V41.1562H72.8828V41.1416H72.8682V41.1113H72.8535V41.0967H72.8389V41.0664H72.8242V41.0518H72.8086V41.0215H72.7939V41.0068H72.7793V40.9922H72.7646V40.9619H72.75V40.9473H72.7354V40.917H72.7207V40.9023H72.7061V40.8721H72.6914V40.8574H72.6768V40.8428H72.6621V40.8271H72.6475V40.7979H72.6318V40.7822H72.6172V40.7676H72.6025V40.7373H72.5879V40.7227H72.5732V40.708H72.5586V40.6924H72.5439V40.6631H72.5293V40.6484H72.5146V40.6328H72.5V40.6182H72.4844V40.5879H72.4697V40.5732H72.4551V40.5586H72.4404V40.543H72.4258V40.5283H72.4111V40.5137H72.3965V40.4834H72.3818V40.4688H72.3672V40.4531H72.3525V40.4385H72.3379V40.4238H72.3232V40.3936H72.3076V40.3789H72.293V40.3633H72.2783V40.3486H72.2637V40.334H72.249V40.3037H72.2344V40.2891H72.2197V40.2744H72.2051V40.2588H72.1904V40.2295H72.1758V40.2139H72.1611V40.1992H72.1455V40.1846H72.1309V40.1699H72.1162V40.1396H72.1016V40.124H72.0869V40.1094H72.0723V40.0947H72.0576V40.1094H72.043V40.0947H72.0283V40.0801H72.0137V40.0645H71.998V40.0498H71.9834V40.0352H71.9688V40.0195H71.9541V40.0049H71.9395V39.9902H71.9248V39.9746H71.9102V39.96H71.8955V39.9453H71.8809V39.9297H71.8662V39.915H71.8516V39.9004H71.8369V39.8848H71.8213V39.8701H71.8066V39.8555H71.792V39.8408H71.7773V39.8252H71.7627V39.8105H71.7334V39.7949H71.7188V39.7803H71.7041V39.7656H71.6895V39.751H71.6738V39.7354H71.6592V39.7207H71.6445V39.7061H71.6299V39.6904H71.6152V39.6758H71.6006V39.6611H71.5859V39.6455H71.5566V39.6309H71.542V39.6162H71.5264V39.6016H71.5127V39.5859H71.4971V39.5713H71.4824V39.5557H71.4678V39.541H71.4531V39.5264H71.4238V39.5117H71.4092V39.4961H71.3945V39.4814H71.3799V39.4668H71.3652V39.4512H71.3496V39.4365H71.3203V39.4219H71.3057V39.4062H71.291V39.3916H71.2764V39.377H71.2617V39.3613H71.2471V39.3467H71.2178V39.332H71.2021V39.3164H71.1875V39.3018H71.1729V39.2871H71.1436V39.2725H71.1289V39.2568H71.1143V39.2422H71.0996V39.2266H71.0703V39.2119H71.0557V39.1973H71.041V39.1826H71.0254V39.167H70.9961V39.1523H70.9814V39.1377H70.9668V39.1221H70.9521V39.1074H70.9229V39.0928H70.9082V39.0771H70.8936V39.0625H70.8779V39.0479H70.8486V39.0332H70.834V39.0176H70.8047V39.0029H70.79V38.9873H70.7754V38.9727H70.7461V38.958H70.7314V38.9434H70.7158V38.9277H70.6865V38.9131H70.6719V38.8984H70.6572V38.8828H70.6279V38.8682H70.6133V38.8535H70.5986V38.8379H70.5693V38.8232H70.5547V38.8086H70.5244V38.793H70.5098V38.7783H70.4805V38.7637H70.4658V38.748H70.4512V38.7334H70.4219V38.7188H70.4072V38.7041H70.377V38.6885H70.3623V38.6738H70.333V38.6592H70.3184V38.6436H70.2891V38.6289H70.2744V38.6143H70.2441V38.5986H70.2305V38.584H70.2002V38.5693H70.1855V38.5537H70.1562V38.5391H70.1416V38.5244H70.1123V38.5088H70.0977V38.4941H70.0674V38.4795H70.0527V38.4648H70.0234V38.4492H69.9941V38.4346H69.9795V38.4199H69.9502V38.4043H69.9355V38.3896H69.9053V38.375H69.8906V38.3594H69.8613V38.3447H69.832V38.3301H69.8174V38.3145H69.7881V38.2998H69.7588V38.2852H69.7432V38.2695H69.7139V38.2549H69.6846V38.2402H69.6699V38.2246H69.6406V38.21H69.6113V38.1953H69.5957V38.1807H69.5664V38.165H69.5371V38.1504H69.5225V38.1357H69.4932V38.1201H69.4639V38.1055H69.4336V38.0908H69.4189V38.0752H69.3896V38.0605H69.3604V38.0459H69.3311V38.0303H69.3018V38.0156H69.2725V38.001H69.2568V37.9854H69.2275V37.9707H69.1982V37.9561H69.1689V37.9414H69.1396V37.9258H69.125V37.9111H69.0947V37.8965H69.0654V37.8809H69.0361V37.8662H69.0068V37.8516H68.9775V37.8359H68.9482V37.8213H68.918V37.8066H68.8887V37.791H68.8594V37.7764H68.8301V37.7617H68.8008V37.7461H68.7705V37.7314H68.7412V37.7168H68.7119V37.7021H68.6973V37.6865H68.668V37.6719H68.623V37.6562H68.5938V37.6416H68.5645V37.627H68.5352V37.6123H68.5059V37.5967H68.4766V37.582H68.4463V37.5674H68.417V37.5518H68.3877V37.5371H68.3438V37.5225H68.3135V37.5068H68.2842V37.4922H68.2549V37.4775H68.2256V37.4619H68.1963V37.4473H68.1514V37.4326H68.1221V37.417H68.0928V37.4023H68.0488V37.3877H68.0195V37.373H67.9902V37.3574H67.9453V37.3428H67.916V37.3281H67.8867V37.3125H67.8574V37.2979H67.8125V37.2832H67.7832V37.2676H67.7393V37.2529H67.71V37.2383H67.666V37.2227H67.6357V37.208H67.5918V37.1934H67.5625V37.1777H67.5186V37.1631H67.4883V37.1484H67.4443V37.1338H67.415V37.1182H67.3711V37.1035H67.3408V37.0879H67.2969V37.0732H67.2529V37.0586H67.209V37.0439H67.1787V37.0283H67.1348V37.0137H67.0908V36.999H67.0615V36.9834H67.0166V36.9688H66.9727V36.9541H66.9287V36.9385H66.8848V36.9238H66.8398V36.9092H66.8105V36.8945H66.7666V36.8789H66.7227V36.8643H66.6777V36.8486H66.6338V36.834H66.5898V36.8193H66.5449V36.8047H66.501V36.7891H66.4424V36.7744H66.3984V36.7598H66.3535V36.7441H66.3096V36.7295H66.251V36.7148H66.2061V36.6992H66.1621V36.6846H66.1182V36.6699H66.0586V36.6543H66.0146V36.6396H65.9561V36.625H65.9121V36.6094H65.8525V36.5947H65.8086V36.5801H65.749V36.5654H65.6904V36.5498H65.6318V36.5352H65.5723V36.5195H65.5137V36.5049H65.4551V36.4902H65.3955V36.4756H65.3369V36.46H65.2627V36.4453H65.2041V36.4307H65.1455V36.415H65.0859V36.4004H65.0127V36.3857H64.9385V36.3701H64.8652V36.3555H64.791V36.3408H64.7178V36.3262H64.6445V36.3105H64.5703V36.2959H64.4971V36.2803H64.4229V36.2656H64.3496V36.251H64.2754V36.2363H64.1875V36.2207H64.084V36.2061H63.9805V36.1914H63.8633V36.1758H63.7598V36.1611H63.6562V36.1465H63.5537V36.1309H63.4502V36.1162H63.332V36.1016H63.1553V36.0859H62.9785V36.0713H62.8018V36.0566H62.625V36.041H62.2861V36.0264H61.2842ZM28.1963 22.3271V22.3418H28.0195V22.3564H27.8867V22.3721H27.7695V22.3867H27.6367V22.4014H27.5332V22.416H27.4443V22.4316H27.3564V22.4463H27.2676V22.4609H27.1797V22.4766H27.1055V22.4912H27.0322V22.5059H26.958V22.5215H26.8848V22.5361H26.8262V22.5508H26.752V22.5664H26.6934V22.5811H26.6338V22.5957H26.5752V22.6113H26.5166V22.626H26.457V22.6406H26.3984V22.6553H26.3545V22.6709H26.3096V22.6855H26.251V22.7012H26.207V22.7158H26.1475V22.7305H26.1035V22.7451H26.0596V22.7607H26.0156V22.7754H25.9707V22.79H25.9268V22.8057H25.8828V22.8203H25.8379V22.835H25.7939V22.8506H25.75V22.8652H25.7051V22.8799H25.6611V22.8955H25.6318V22.9102H25.5879V22.9248H25.5586V22.9404H25.5137V22.9551H25.4697V22.9697H25.4404V22.9844H25.3965V23H25.3662V23.0146H25.3223V23.0293H25.293V23.0449H25.2637V23.0596H25.2197V23.0742H25.1895V23.0898H25.1602V23.1045H25.1162V23.1191H25.0869V23.1348H25.0576V23.1494H25.0273V23.1641H24.9834V23.1797H24.9541V23.1943H24.9248V23.209H24.8945V23.2236H24.8652V23.2393H24.8359V23.2539H24.8066V23.2695H24.7773V23.2842H24.748V23.2988H24.7178V23.3135H24.6885V23.3291H24.6592V23.3438H24.6299V23.3584H24.6006V23.374H24.5703V23.3887H24.541V23.4033H24.5117V23.4189H24.4824V23.4336H24.4678V23.4482H24.4385V23.4629H24.4092V23.4785H24.3789V23.4932H24.3496V23.5088H24.3203V23.5234H24.3057V23.5381H24.2764V23.5527H24.2461V23.5684H24.2314V23.583H24.2021V23.5977H24.1729V23.6133H24.1582V23.6279H24.1289V23.6426H24.0986V23.6582H24.0693V23.6729H24.0547V23.6875H24.0254V23.7031H23.9961V23.7178H23.9814V23.7324H23.9521V23.748H23.9375V23.7627H23.9072V23.7773H23.8926V23.792H23.8633V23.8076H23.8486V23.8223H23.8193V23.8379H23.8047V23.8525H23.7754V23.8672H23.7598V23.8818H23.7305V23.8975H23.7158V23.9121H23.6865V23.9268H23.6719V23.9424H23.6426V23.957H23.6279V23.9717H23.6123V23.9873H23.583V24.002H23.5684V24.0166H23.5391V24.0312H23.5244V24.0469H23.5098V24.0615H23.4805V24.0771H23.4658V24.0918H23.4355V24.1064H23.4209V24.1211H23.4062V24.1367H23.377V24.1514H23.3623V24.166H23.3477V24.1816H23.3184V24.1963H23.3037V24.2109H23.2881V24.2266H23.2734V24.2412H23.2441V24.2559H23.2295V24.2715H23.2148V24.2861H23.2002V24.3008H23.1709V24.3164H23.1562V24.3311H23.1406V24.3457H23.1113V24.3604H23.0967V24.376H23.082V24.3906H23.0674V24.4053H23.0527V24.4209H23.0381V24.4355H23.0088V24.4502H22.9941V24.4658H22.9795V24.4805H22.9639V24.4951H22.9492V24.5107H22.9346V24.5254H22.9053V24.54H22.8906V24.5557H22.876V24.5703H22.8613V24.585H22.8467V24.5996H22.832V24.6152H22.8164V24.6299H22.8018V24.6445H22.7725V24.6602H22.7578V24.6748H22.7432V24.6895H22.7285V24.7051H22.7139V24.7197H22.6992V24.7344H22.6846V24.75H22.6699V24.7646H22.6553V24.7793H22.6396V24.7949H22.625V24.8096H22.6104V24.8242H22.5957V24.8398H22.5811V24.8545H22.5664V24.8691H22.5518V24.8838H22.5371V24.8994H22.5225V24.9141H22.5078V24.9287H22.4922V24.9443H22.4775V24.959H22.4629V24.9736H22.4482V24.9893H22.4336V25.0039H22.4189V25.0186H22.4043V25.0342H22.3896V25.0488H22.375V25.0635H22.3604V25.0791H22.3457V25.0938H22.3301V25.1084H22.3154V25.123H22.3008V25.1387H22.2861V25.1533H22.2715V25.168H22.2568V25.1982H22.2422V25.2129H22.2275V25.2285H22.2129V25.2432H22.1982V25.2578H22.1836V25.2734H22.1689V25.2881H22.1533V25.3027H22.1387V25.3184H22.124V25.3477H22.1094V25.3623H22.0947V25.3779H22.0801V25.3926H22.0654V25.4082H22.0508V25.4375H22.0361V25.4521H22.0215V25.4678H22.0059V25.4824H21.9912V25.4971H21.9766V25.5273H21.9619V25.542H21.9473V25.5576H21.9326V25.5723H21.918V25.6025H21.9033V25.6172H21.8887V25.6318H21.874V25.6475H21.8584V25.6768H21.8447V25.6914H21.8291V25.707H21.8145V25.7363H21.7998V25.752H21.7852V25.7666H21.7705V25.7969H21.7559V25.8115H21.7412V25.8262H21.7266V25.8564H21.7119V25.8711H21.6973V25.8867H21.6816V25.916H21.667V25.9307H21.6523V25.9609H21.6377V25.9766H21.623V26.0059H21.6084V26.0205H21.5938V26.0361H21.5791V26.0654H21.5645V26.0811H21.5498V26.1104H21.5342V26.126H21.5195V26.1553H21.5049V26.1709H21.4902V26.2002H21.4756V26.2158H21.4609V26.2451H21.4463V26.2754H21.4316V26.29H21.417V26.3203H21.4023V26.3496H21.3877V26.3652H21.373V26.3945H21.3574V26.4102H21.3428V26.4395H21.3281V26.4697H21.3135V26.4844H21.2988V26.5146H21.2842V26.5449H21.2695V26.5742H21.2549V26.5889H21.2402V26.6191H21.2256V26.6494H21.21V26.6787H21.1953V26.709H21.1807V26.7393H21.166V26.7539H21.1514V26.7842H21.1367V26.8135H21.1221V26.8438H21.1074V26.873H21.0928V26.9033H21.0781V26.9336H21.0635V26.9629H21.0479V26.9932H21.0332V27.0234H21.0186V27.0527H21.0039V27.0977H20.9893V27.1279H20.9746V27.1572H20.96V27.1875H20.9453V27.2178H20.9307V27.2627H20.916V27.292H20.9014V27.3223H20.8867V27.3672H20.8711V27.3965H20.8564V27.4268H20.8418V27.4717H20.8271V27.502H20.8125V27.5469H20.7979V27.5908H20.7832V27.6357H20.7686V27.666H20.7539V27.7109H20.7393V27.7559H20.7236V27.8008H20.709V27.8457H20.6943V27.8906H20.6797V27.9355H20.665V27.9805H20.6504V28.0254H20.6357V28.085H20.6211V28.1299H20.6064V28.1748H20.5918V28.2344H20.5762V28.2939H20.5625V28.3545H20.5469V28.4141H20.5322V28.4736H20.5176V28.5332H20.5029V28.6084H20.4883V28.6836H20.4736V28.7578H20.459V28.833H20.4443V28.9375H20.4297V29.0273H20.415V29.1318H20.3994V29.252H20.3848V29.3857H20.3701V68.2119H28.9482V22.3271H28.1963ZM34.21 36.6699V68.2119H42.7871V36.6699H34.21ZM65.1895 42.7568V42.7715H65.499V42.7871H65.7197V42.8018H65.8965V42.8164H66.0293V42.8311H66.1621V42.8467H66.2949V42.8613H66.3984V42.877H66.4863V42.8916H66.5752V42.9062H66.6631V42.9209H66.752V42.9365H66.8252V42.9512H66.8994V42.9658H66.9727V42.9814H67.0469V42.9961H67.1055V43.0107H67.1787V43.0264H67.2383V43.041H67.2969V43.0557H67.3555V43.0713H67.4004V43.0859H67.459V43.1006H67.5186V43.1162H67.5771V43.1309H67.6211V43.1455H67.666V43.1602H67.7246V43.1758H67.7686V43.1904H67.8125V43.2051H67.8574V43.2207H67.9014V43.2354H67.9453V43.25H67.9902V43.2656H68.0342V43.2803H68.0781V43.2949H68.1074V43.3105H68.1514V43.3252H68.1963V43.3398H68.2256V43.3555H68.2695V43.3701H68.3135V43.3848H68.3438V43.3994H68.3877V43.415H68.417V43.4297H68.4609V43.4443H68.4912V43.46H68.5205V43.4746H68.5498V43.4893H68.5938V43.5049H68.623V43.5195H68.6533V43.5342H68.6826V43.5498H68.7119V43.5645H68.7559V43.5791H68.7852V43.5947H68.8154V43.6094H68.8447V43.624H68.874V43.6396H68.9033V43.6543H68.9326V43.6689H68.9619V43.6836H68.9922V43.6992H69.0215V43.7139H69.0361V43.7285H69.0654V43.7441H69.0947V43.7588H69.125V43.7734H69.1543V43.7891H69.1836V43.8037H69.2129V43.8184H69.2275V43.834H69.2568V43.8486H69.2871V43.8633H69.3018V43.8789H69.3311V43.8936H69.3604V43.9082H69.375V43.9229H69.4043V43.9385H69.4336V43.9531H69.4639V43.9678H69.4785V43.9834H69.5078V43.998H69.5225V44.0127H69.5518V44.0283H69.5664V44.043H69.5957V44.0576H69.6113V44.0732H69.6406V44.0879H69.6553V44.1025H69.6846V44.1182H69.6992V44.1328H69.7285V44.1475H69.7432V44.1621H69.7734V44.1777H69.7881V44.1924H69.8174V44.208H69.832V44.2227H69.8613V44.2373H69.876V44.252H69.8906V44.2676H69.9199V44.2822H69.9355V44.2969H69.9502V44.3125H69.9648V44.3271H69.9941V44.3418H70.0088V44.3574H70.0234V44.3721H70.0527V44.3867H70.0674V44.4023H70.083V44.417H70.1123V44.4316H70.127V44.4473H70.1416V44.4619H70.1709V44.4766H70.1855V44.4912H70.2002V44.5068H70.2148V44.5215H70.2305V44.5361H70.2441V44.5518H70.2744V44.5664H70.2891V44.5811H70.3037V44.5967H70.3184V44.6113H70.333V44.626H70.3477V44.6416H70.377V44.6562H70.3916V44.6709H70.4072V44.6865H70.4219V44.7012H70.4365V44.7158H70.4512V44.7305H70.4658V44.7461H70.4951V44.7607H70.5098V44.7754H70.5244V44.791H70.5391V44.8057H70.5547V44.8203H70.5693V44.8359H70.584V44.8506H70.5986V44.8652H70.6133V44.8809H70.6279V44.8955H70.6426V44.9102H70.6572V44.9258H70.6719V44.9404H70.6865V44.9551H70.7012V44.9697H70.7158V44.9854H70.7314V45H70.7461V45.0156H70.7607V45.0303H70.7754V45.0449H70.79V45.0596H70.8047V45.0752H70.8193V45.0898H70.834V45.1045H70.8486V45.1201H70.8633V45.1494H70.8779V45.165H70.8936V45.1797H70.9082V45.1943H70.9229V45.21H70.9375V45.2246H70.9521V45.2393H70.9668V45.2549H70.9814V45.2695H70.9961V45.2842H71.0107V45.2988H71.0254V45.3291H71.041V45.3438H71.0557V45.3594H71.0703V45.374H71.085V45.3887H71.0996V45.4189H71.1143V45.4336H71.1289V45.4492H71.1436V45.4639H71.1582V45.4941H71.1729V45.5088H71.1875V45.5234H71.2021V45.5381H71.2178V45.5537H71.2324V45.584H71.2471V45.5986H71.2617V45.6133H71.2764V45.6279H71.291V45.6582H71.3057V45.6729H71.3203V45.6885H71.335V45.7178H71.3496V45.7334H71.3652V45.7627H71.3799V45.7783H71.3945V45.793H71.4092V45.8232H71.4238V45.8379H71.4385V45.8525H71.4531V45.8828H71.4678V45.8975H71.4824V45.9277H71.4971V45.9424H71.5127V45.957H71.5264V45.9873H71.542V46.002H71.5566V46.0322H71.5713V46.0469H71.5859V46.0771H71.6006V46.0918H71.6152V46.1221H71.6299V46.1523H71.6445V46.167H71.6592V46.1963H71.6738V46.2119H71.6895V46.2412H71.7041V46.2568H71.7188V46.2861H71.7334V46.3018H71.748V46.3311H71.7627V46.3613H71.7773V46.376H71.792V46.4062H71.8066V46.4355H71.8213V46.4658H71.8369V46.4805H71.8516V46.5107H71.8662V46.541H71.8809V46.5703H71.8955V46.5859H71.9102V46.6152H71.9248V46.6455H71.9395V46.6748H71.9541V46.6904H71.9688V46.7197H71.9834V46.75H71.998V46.7803H72.0137V46.8096H72.0283V46.8398H72.043V46.8701H72.0576V46.8994H72.0723V46.9297H72.0869V46.959H72.1016V46.9893H72.1162V47.0195H72.1309V47.0488H72.1455V47.0791H72.1611V47.1094H72.1758V47.1387H72.1904V47.1836H72.2051V47.2139H72.2197V47.2432H72.2344V47.2734H72.249V47.3184H72.2637V47.3486H72.2783V47.3779H72.293V47.4082H72.3076V47.4531H72.3232V47.4834H72.3379V47.5127H72.3525V47.5576H72.3672V47.6025H72.3818V47.6328H72.3965V47.6768H72.4111V47.707H72.4258V47.752H72.4404V47.7822H72.4551V47.8271H72.4697V47.8564H72.4844V47.9014H72.5V47.9463H72.5146V47.9912H72.5293V48.0361H72.5439V48.0811H72.5586V48.126H72.5732V48.1709H72.5879V48.2158H72.6025V48.2607H72.6172V48.3057H72.6318V48.3506H72.6475V48.4102H72.6621V48.4551H72.6768V48.5146H72.6914V48.5596H72.7061V48.6201H72.7207V48.6641H72.7354V48.7246H72.75V48.7695H72.7646V48.8291H72.7793V48.8887H72.7939V48.9482H72.8086V49.0234H72.8242V49.083H72.8389V49.1426H72.8535V49.2031H72.8682V49.2773H72.8828V49.3525H72.8975V49.4268H72.9121V49.502H72.9268V49.5771H72.9414V49.6514H72.9561V49.7266H72.9717V49.8311H72.9863V49.9209H73.001V50.0107H73.0156V50.1152H73.0303V50.2051H73.0449V50.3398H73.0596V50.459H73.0742V50.5791H73.0889V50.7129H73.1035V50.8926H73.1191V51.0723H73.1338V51.2969H73.1484V51.5957H73.1631V53.002H73.1484V53.3154H73.1338V53.5547H73.1191V53.7344H73.1035V53.9141H73.0889V54.0635H73.0742V54.1836H73.0596V54.3174H73.0449V54.4375H73.0303V54.5566H73.0156V54.6465H73.001V54.7363H72.9863V54.8408H72.9717V54.9307H72.9561V55.0205H72.9414V55.0957H72.9268V55.1699H72.9121V55.2451H72.8975V55.3193H72.8828V55.3945H72.8682V55.4697H72.8535V55.5439H72.8389V55.6045H72.8242V55.6641H72.8086V55.7236H72.7939V55.7832H72.7793V55.8438H72.7646V55.9033H72.75V55.9629H72.7354V56.0225H72.7207V56.083H72.7061V56.127H72.6914V56.1875H72.6768V56.2324H72.6621V56.2773H72.6475V56.3369H72.6318V56.3818H72.6172V56.4268H72.6025V56.4863H72.5879V56.5312H72.5732V56.5762H72.5586V56.6211H72.5439V56.6514H72.5293V56.6953H72.5146V56.7412H72.5V56.7852H72.4844V56.8301H72.4697V56.875H72.4551V56.9199H72.4404V56.9502H72.4258V56.9951H72.4111V57.0244H72.3965V57.0693H72.3818V57.0996H72.3672V57.1445H72.3525V57.1748H72.3379V57.2197H72.3232V57.249H72.3076V57.2939H72.293V57.3242H72.2783V57.3691H72.2637V57.3984H72.249V57.4287H72.2344V57.459H72.2197V57.4883H72.2051V57.5186H72.1904V57.5635H72.1758V57.5928H72.1611V57.623H72.1455V57.6533H72.1309V57.6826H72.1162V57.7129H72.1016V57.7432H72.0869V57.7725H72.0723V57.8027H72.0576V57.832H72.043V57.8623H72.0283V57.8926H72.0137V57.9219H71.998V57.9521H71.9834V57.9824H71.9688V58.0117H71.9541V58.0273H71.9395V58.0566H71.9248V58.0869H71.9102V58.1162H71.8955V58.1465H71.8809V58.1768H71.8662V58.1914H71.8516V58.2217H71.8369V58.251H71.8213V58.2666H71.8066V58.2959H71.792V58.3262H71.7773V58.3408H71.7627V58.3711H71.748V58.4004H71.7334V58.416H71.7188V58.4453H71.7041V58.4756H71.6895V58.4902H71.6738V58.5205H71.6592V58.5352H71.6445V58.5654H71.6299V58.5801H71.6152V58.6104H71.6006V58.625H71.5859V58.6553H71.5713V58.6699H71.5566V58.7002H71.542V58.7148H71.5264V58.7451H71.5127V58.7598H71.4971V58.79H71.4824V58.8047H71.4678V58.835H71.4531V58.8496H71.4385V58.8799H71.4238V58.8945H71.4092V58.9092H71.3945V58.9238H71.3799V58.9541H71.3652V58.9688H71.3496V58.9844H71.335V59.0137H71.3203V59.0293H71.3057V59.0439H71.291V59.0742H71.2764V59.0889H71.2617V59.1035H71.2471V59.1191H71.2324V59.1484H71.2178V59.1631H71.2021V59.1787H71.1875V59.209H71.1729V59.2236H71.1582V59.2383H71.1436V59.2529H71.1289V59.2686H71.1143V59.2832H71.0996V59.3135H71.085V59.3281H71.0703V59.3428H71.0557V59.3584H71.041V59.373H71.0254V59.3877H71.0107V59.418H70.9961V59.4326H70.9814V59.4482H70.9668V59.4629H70.9521V59.4775H70.9375V59.4922H70.9229V59.5225H70.9082V59.5371H70.8936V59.5527H70.8779V59.5674H70.8633V59.582H70.8486V59.5977H70.834V59.6123H70.8193V59.627H70.8047V59.6426H70.79V59.6572H70.7754V59.6719H70.7607V59.6875H70.7461V59.7021H70.7314V59.7168H70.7158V59.7314H70.7012V59.7471H70.6865V59.7617H70.6719V59.7773H70.6572V59.792H70.6426V59.8066H70.6279V59.8213H70.6133V59.8369H70.5986V59.8516H70.584V59.8662H70.5693V59.8818H70.5547V59.8965H70.5244V59.9111H70.5098V59.9268H70.4951V59.9414H70.4805V59.9561H70.4658V59.9707H70.4512V59.9863H70.4365V60.001H70.4219V60.0166H70.4072V60.0312H70.3916V60.0459H70.377V60.0605H70.3477V60.0762H70.333V60.0908H70.3184V60.1055H70.3037V60.1211H70.2891V60.1357H70.2598V60.1504H70.2441V60.166H70.2305V60.1807H70.2148V60.1953H70.1855V60.2109H70.1709V60.2256H70.1562V60.2402H70.1416V60.2559H70.127V60.2705H70.0977V60.2852H70.083V60.2998H70.0674V60.3154H70.0527V60.3301H70.0234V60.3447H70.0088V60.3604H69.9941V60.375H69.9648V60.3896H69.9502V60.4053H69.9199V60.4199H69.9053V60.4346H69.8906V60.4502H69.8613V60.4648H69.8467V60.4795H69.8174V60.4951H69.8027V60.5098H69.7881V60.5244H69.7588V60.5391H69.7432V60.5547H69.7139V60.5693H69.6992V60.584H69.6846V60.5996H69.6553V60.6143H69.626V60.6289H69.6113V60.6445H69.5811V60.6592H69.5664V60.6738H69.5371V60.6895H69.5225V60.7041H69.4932V60.7188H69.4639V60.7344H69.4492V60.749H69.4189V60.7637H69.4043V60.7793H69.375V60.7939H69.3457V60.8086H69.3311V60.8232H69.3018V60.8389H69.2725V60.8535H69.2422V60.8682H69.2129V60.8838H69.1982V60.8984H69.1689V60.9131H69.1396V60.9287H69.1094V60.9434H69.0801V60.958H69.0654V60.9736H69.0361V60.9883H69.0068V61.0029H68.9775V61.0186H68.9482V61.0332H68.918V61.0479H68.8887V61.0625H68.8594V61.0781H68.8301V61.0928H68.8008V61.1074H68.7705V61.123H68.7412V61.1377H68.6973V61.1523H68.668V61.168H68.6377V61.1826H68.6084V61.1973H68.5791V61.2129H68.5352V61.2275H68.5059V61.2422H68.4766V61.2578H68.4316V61.2725H68.4023V61.2871H68.3584V61.3018H68.3291V61.3174H68.2988V61.332H68.2549V61.3477H68.2256V61.3623H68.1816V61.377H68.1367V61.3916H68.0928V61.4072H68.0635V61.4219H68.0195V61.4365H67.9746V61.4521H67.9307V61.4668H67.8867V61.4814H67.8428V61.4971H67.8125V61.5117H67.7539V61.5264H67.71V61.542H67.6504V61.5566H67.6064V61.5713H67.5625V61.5869H67.5029V61.6016H67.459V61.6162H67.4004V61.6309H67.3555V61.6465H67.2969V61.6611H67.2236V61.6758H67.1641V61.6914H67.1055V61.7061H67.0469V61.7207H66.9873V61.7363H66.9141V61.751H66.8398V61.7656H66.7666V61.7812H66.6924V61.7959H66.6191V61.8105H66.5303V61.8262H66.4424V61.8408H66.3389V61.8555H66.251V61.8701H66.1475V61.8857H66.0439V61.9004H65.8965V61.916H65.749V61.9307H65.6016V61.9453H65.3955V61.96H65.1455V61.9756H64.0547V61.96H63.8486V61.9453H63.6416V61.9307H63.5088V61.916H63.3916V61.9004H63.2734V61.8857H63.1406V61.8701H63.0527V61.8555H62.9785V61.8408H62.8906V61.8262H62.8018V61.8105H62.7285V61.7959H62.6396V61.7812H62.5811V61.7656H62.5215V61.751H62.4482V61.7363H62.3896V61.7207H62.3301V61.7061H62.2568V61.6914H62.1973V61.6758H62.1533V61.6611H62.0947V61.6465H62.0498V61.6309H61.9912V61.6162H61.9473V61.6016H61.8877V61.5869H61.8438V61.5713H61.7852V61.5566H61.7412V61.542H61.7109V61.5264H61.667V61.5117H61.623V61.4971H61.5781V61.4814H61.5342V61.4668H61.4902V61.4521H61.4463V61.4365H61.4014V61.4219H61.3721V61.4072H61.3281V61.3916H61.2988V61.377H61.2539V61.3623H61.2246V61.3477H61.1807V61.332H61.1514V61.3174H61.1221V61.3018H61.0771V61.2871H61.0479V61.2725H61.0039V61.2578H60.9746V61.2422H60.9443V61.2275H60.915V61.2129H60.8711V61.1973H60.8418V61.1826H60.8125V61.168H60.7832V61.1523H60.7529V61.1377H60.7236V61.123H60.6943V61.1074H60.665V61.0928H60.6357V61.0781H60.5908V61.0625H60.5762V61.0479H60.5469V61.0332H60.5176V61.0186H60.4883V61.0029H60.459V60.9883H60.4287V60.9736H60.3994V60.958H60.3848V60.9434H60.3555V60.9287H60.3262V60.9131H60.2959V60.8984H60.2666V60.8838H60.2373V60.8682H60.2227V60.8535H60.1934V60.8389H60.1641V60.8232H60.1484V60.8086H60.1191V60.7939H60.0898V60.7793H60.0752V60.7637H60.0459V60.749H60.0312V60.7344H60.002V60.7188H59.9717V60.7041H59.957V60.6895H59.9277V60.6738H59.9131V60.6592H59.8838V60.6445H59.8545V60.6289H59.8398V60.6143H59.8096V60.5996H59.7949V60.584H59.7803V60.5693H59.751V60.5547H59.7363V60.5391H59.707V60.5244H59.6924V60.5098H59.6621V60.4951H59.6475V60.4795H59.6182V60.4648H59.6035V60.4502H59.5889V60.4346H59.5596V60.4199H59.5449V60.4053H59.5156V60.3896H59.501V60.375H59.4854V60.3604H59.4561V60.3447H59.4414V60.3301H59.4268V60.3154H59.4121V60.2998H59.3828V60.2852H59.3682V60.2705H59.3535V60.2559H59.3232V60.2402H59.3086V60.2256H59.2939V60.2109H59.2793V60.1953H59.25V60.1807H59.2354V60.166H59.2207V60.1504H59.1904V60.1357H59.1768V60.1211H59.1611V60.1055H59.1465V60.0908H59.1318V60.0762H59.1172V60.0605H59.0879V60.0459H59.0732V60.0312H59.0586V60.0166H59.0439V60.001H59.0293V59.9863H59.0137V59.9707H58.999V59.9561H58.9697V59.9414H58.9551V59.9268H58.9404V59.9111H58.9258V59.8965H58.9111V59.8818H58.8965V59.8662H58.8818V59.8516H58.8516V59.8369H58.8369V59.8213H58.8223V59.8066H58.8076V59.792H58.793V59.7773H58.7783V59.7617H58.7637V59.7471H58.749V59.7314H58.7344V59.7168H58.7197V59.7021H58.7051V59.6875H58.6895V59.6719H58.6748V59.6572H58.6602V59.6426H58.6455V59.627H58.6309V59.6123H58.6162V59.5977H58.6016V59.582H58.5869V59.5674H58.5723V59.5527H58.5576V59.5371H58.542V59.5225H58.5273V59.5078H58.5127V59.4922H58.498V59.4775H58.4834V59.4629H58.4688V59.4326H58.4541V59.418H58.4395V59.4023H58.4248V59.3877H58.4102V59.373H58.3955V59.3584H58.3799V59.3428H58.3652V59.3281H58.3506V59.3135H58.3359V59.2979H58.3213V59.2832H58.3066V59.2686H58.292V59.2383H58.2773V59.2236H58.2627V59.209H58.248V59.1934H58.2334V59.1787H58.2188V59.1484H58.2031V59.1338H58.1885V59.1191H58.1738V59.1035H58.1592V59.0889H58.1445V59.0586H58.1299V59.0439H58.1152V59.0293H58.1006V59.0137H58.0859V58.999H58.0713V58.9688H58.0557V58.9541H58.041V58.9395H58.0264V58.9238H58.0117V58.8945H57.9971V58.8799H57.9824V58.8643H57.9678V58.835H57.9531V58.8193H57.9385V58.8047H57.9238V58.7744H57.9092V58.7598H57.8945V58.7451H57.8789V58.7148H57.8643V58.7002H57.8496V58.6846H57.835V58.6553H57.8203V58.6406H57.8057V58.625H57.791V58.5947H57.7764V58.5801H57.7617V58.5508H57.7471V58.5352H57.7314V58.5059H57.7168V58.4902H57.7021V58.4756H57.6875V58.4453H57.6729V58.4307H57.6582V58.4004H57.6436V58.3857H57.6289V58.3555H57.6143V58.3408H57.5996V58.3115H57.584V58.2959H57.5693V58.2666H57.5547V58.251H57.54V58.2217H57.5254V58.1914H57.5107V58.1768H57.4961V58.1465H57.4814V58.1162H57.4668V58.1016H57.4521V58.0723H57.4375V58.042H57.4229V58.0273H57.4072V57.9971H57.3926V57.9668H57.3779V57.9521H57.3633V57.9219H57.3486V57.9072H57.334V57.877H57.3193V57.8477H57.3047V57.8174H57.29V57.7881H57.2754V57.7578H57.2598V57.7432H57.2451V57.7129H57.2305V57.6826H57.2158V57.6533H57.2012V57.623H57.1865V57.5928H57.1719V57.5635H57.1572V57.5479H57.1426V57.5186H57.1279V57.4883H57.1133V57.459H57.0977V57.4287H57.083V57.3984H57.0684V57.3535H57.0537V57.3242H57.0391V57.2939H57.0244V57.2637H57.0098V57.2344H56.9951V57.2041H56.9805V57.1748H56.9658V57.1445H56.9512V57.1143H56.9365V57.0693H56.9209V57.04H56.9062V57.0098H56.8916V56.9648H56.877V56.9355H56.8623V56.9053H56.8477V56.8604H56.833V56.8301H56.8184V56.8008H56.8037V56.7559H56.7891V56.7256H56.7734V56.6807H56.7588V56.6514H56.7441V56.6064H56.7295V56.5615H56.7148V56.5166H56.7002V56.4863H56.6855V56.4414H56.6709V56.3965H56.6562V56.3672H56.6416V56.3223H56.627V56.2773H56.6123V56.2324H56.5967V56.1875H56.582V56.1426H56.5674V56.0977H56.5527V56.0527H56.5381V55.9932H56.5234V55.9482H56.5088V55.9033H56.4941V55.8584H56.4795V55.7988H56.4648V55.7539H56.4492V55.6934H56.4346V55.6338H56.4199V55.5889H56.4053V55.5293H56.3906V55.4697H56.376V55.4092H56.3613V55.3496H56.3467V55.29H56.332V55.2148H56.3174V55.1553H56.3018V55.0801H56.2871V55.0205H56.2725V54.9463H56.2578V54.8564H56.2432V54.7812H56.2285V54.6914H56.2139V54.6172H56.1992V54.5273H56.1846V54.4229H56.1699V54.3174H56.1553V54.2129H56.1406V54.1084H56.125V53.9736H56.1104V53.8242H56.0957V53.6602H56.0811V53.4502H56.0664V53.1963H56.0518V52.0293H56.0664V51.7607H56.0811V51.5361H56.0957V51.3711H56.1104V51.207H56.125V51.0576H56.1406V50.9531H56.1553V50.833H56.1699V50.7129H56.1846V50.6084H56.1992V50.5186H56.2139V50.4297H56.2285V50.3398H56.2432V50.2646H56.2578V50.1748H56.2725V50.1006H56.2871V50.0254H56.3018V49.9502H56.3174V49.8906H56.332V49.8164H56.3467V49.7412H56.3613V49.6816H56.376V49.6221H56.3906V49.5615H56.4053V49.502H56.4199V49.4424H56.4346V49.3818H56.4492V49.3223H56.4648V49.2627H56.4795V49.2178H56.4941V49.1582H56.5088V49.1133H56.5234V49.0684H56.5381V49.0088H56.5527V48.9639H56.5674V48.9189H56.582V48.8594H56.5967V48.8135H56.6123V48.7695H56.627V48.7246H56.6416V48.6797H56.6562V48.6348H56.6709V48.5898H56.6855V48.5596H56.7002V48.5146H56.7148V48.4697H56.7295V48.4248H56.7441V48.3799H56.7588V48.335H56.7734V48.3057H56.7891V48.2607H56.8037V48.2305H56.8184V48.1855H56.833V48.1562H56.8477V48.1113H56.8623V48.0811H56.877V48.0361H56.8916V48.0059H56.9062V47.9619H56.9209V47.9316H56.9365V47.9014H56.9512V47.8564H56.9658V47.8271H56.9805V47.7969H56.9951V47.7666H57.0098V47.7373H57.0244V47.6924H57.0391V47.6621H57.0537V47.6328H57.0684V47.6025H57.083V47.5576H57.0977V47.5273H57.1133V47.498H57.1279V47.4678H57.1426V47.4375H57.1572V47.4082H57.1719V47.3779H57.1865V47.3486H57.2012V47.3184H57.2158V47.3037H57.2305V47.2734H57.2451V47.2432H57.2598V47.2139H57.2754V47.1836H57.29V47.1543H57.3047V47.124H57.3193V47.0938H57.334V47.0645H57.3486V47.0488H57.3633V47.0195H57.3779V46.9893H57.3926V46.959H57.4072V46.9443H57.4229V46.915H57.4375V46.8848H57.4521V46.8545H57.4668V46.8398H57.4814V46.8096H57.4961V46.7803H57.5107V46.75H57.5254V46.7354H57.54V46.7051H57.5547V46.6904H57.5693V46.6602H57.584V46.6309H57.5996V46.6152H57.6143V46.5859H57.6289V46.5703H57.6436V46.541H57.6582V46.5254H57.6729V46.4961H57.6875V46.4658H57.7021V46.4512H57.7168V46.4209H57.7314V46.4062H57.7471V46.376H57.7617V46.3613H57.7764V46.3311H57.791V46.3164H57.8057V46.3018H57.8203V46.2715H57.835V46.2568H57.8496V46.2266H57.8643V46.2119H57.8789V46.1816H57.8945V46.167H57.9092V46.1523H57.9238V46.1221H57.9385V46.1064H57.9531V46.0771H57.9678V46.0625H57.9824V46.0469H57.9971V46.0176H58.0117V46.002H58.0264V45.9873H58.041V45.957H58.0557V45.9424H58.0713V45.9277H58.0859V45.9121H58.1006V45.8828H58.1152V45.8672H58.1299V45.8525H58.1445V45.8379H58.1592V45.8076H58.1738V45.793H58.1885V45.7783H58.2031V45.7627H58.2188V45.7334H58.2334V45.7178H58.248V45.7031H58.2627V45.6729H58.2773V45.6582H58.292V45.6436H58.3066V45.6279H58.3213V45.6133H58.3359V45.5986H58.3506V45.584H58.3652V45.5684H58.3799V45.5381H58.3955V45.5234H58.4102V45.5088H58.4248V45.4941H58.4395V45.4785H58.4541V45.4639H58.4688V45.4492H58.4834V45.4189H58.498V45.4043H58.5127V45.3887H58.5273V45.374H58.542V45.3594H58.5576V45.3438H58.5723V45.3291H58.5869V45.3145H58.6016V45.2988H58.6162V45.2842H58.6309V45.2695H58.6455V45.2549H58.6602V45.2393H58.6748V45.2246H58.6895V45.21H58.7051V45.1943H58.7197V45.1797H58.7344V45.165H58.749V45.1494H58.7637V45.1348H58.7783V45.1201H58.793V45.1045H58.8076V45.0898H58.8223V45.0752H58.8369V45.0596H58.8516V45.0449H58.8662V45.0303H58.8818V45.0156H58.8965V45H58.9111V44.9854H58.9258V44.9697H58.9404V44.9551H58.9551V44.9404H58.9697V44.9258H58.9844V44.9102H58.999V44.8955H59.0137V44.8809H59.0439V44.8652H59.0586V44.8506H59.0732V44.8359H59.0879V44.8203H59.1025V44.8057H59.1172V44.791H59.1318V44.7754H59.1465V44.7607H59.1611V44.7461H59.1904V44.7305H59.2061V44.7158H59.2207V44.7012H59.2354V44.6865H59.25V44.6709H59.2793V44.6562H59.2939V44.6416H59.3086V44.626H59.3232V44.6113H59.3535V44.5967H59.3682V44.5811H59.3828V44.5664H59.3975V44.5518H59.4121V44.5361H59.4414V44.5215H59.4561V44.5068H59.4707V44.4912H59.4854V44.4766H59.5156V44.4619H59.5303V44.4473H59.5449V44.4316H59.5742V44.417H59.5889V44.4023H59.6035V44.3867H59.6328V44.3721H59.6475V44.3574H59.6777V44.3418H59.6924V44.3271H59.707V44.3125H59.7363V44.2969H59.751V44.2822H59.7803V44.2676H59.7949V44.252H59.8096V44.2373H59.8398V44.2227H59.8545V44.208H59.8838V44.1924H59.8984V44.1777H59.9277V44.1621H59.9424V44.1475H59.9717V44.1328H59.9873V44.1182H60.0166V44.1025H60.0312V44.0879H60.0605V44.0732H60.0898V44.0576H60.1045V44.043H60.1338V44.0283H60.1484V44.0127H60.1787V43.998H60.1934V43.9834H60.2227V43.9678H60.252V43.9531H60.2666V43.9385H60.2959V43.9229H60.3262V43.9082H60.3555V43.8936H60.3848V43.8789H60.3994V43.8633H60.4287V43.8486H60.459V43.834H60.4883V43.8184H60.5029V43.8037H60.5322V43.7891H60.5615V43.7734H60.5908V43.7588H60.6201V43.7441H60.6504V43.7285H60.6797V43.7139H60.709V43.6992H60.7383V43.6836H60.7676V43.6689H60.7979V43.6543H60.8271V43.6396H60.8564V43.624H60.8857V43.6094H60.915V43.5947H60.9443V43.5791H60.9746V43.5645H61.0039V43.5498H61.0332V43.5342H61.0771V43.5195H61.1074V43.5049H61.1367V43.4893H61.1807V43.4746H61.21V43.46H61.2393V43.4443H61.2842V43.4297H61.3135V43.415H61.3574V43.3994H61.3867V43.3848H61.416V43.3701H61.4609V43.3555H61.5049V43.3398H61.5488V43.3252H61.5781V43.3105H61.623V43.2949H61.667V43.2803H61.7109V43.2656H61.7549V43.25H61.7852V43.2354H61.8291V43.2207H61.873V43.2051H61.918V43.1904H61.9766V43.1758H62.0205V43.1602H62.0801V43.1455H62.124V43.1309H62.168V43.1162H62.2266V43.1006H62.2715V43.0859H62.3301V43.0713H62.3896V43.0557H62.4482V43.041H62.5068V43.0264H62.5664V43.0107H62.6396V42.9961H62.6982V42.9814H62.7578V42.9658H62.8311V42.9512H62.9053V42.9365H62.9932V42.9209H63.0674V42.9062H63.1553V42.8916H63.2441V42.877H63.332V42.8613H63.4502V42.8467H63.5684V42.8311H63.6865V42.8164H63.8037V42.8018H64.0107V42.7871H64.2168V42.7715H64.5264V42.7568H65.1895ZM42.0352 22.3271V22.3418H41.8584V22.3564H41.7266V22.3721H41.6084V22.3867H41.4902V22.4014H41.3721V22.416H41.2842V22.4316H41.1953V22.4463H41.1074V22.4609H41.0186V22.4766H40.9453V22.4912H40.8711V22.5059H40.7979V22.5215H40.7236V22.5361H40.665V22.5508H40.5908V22.5664H40.5322V22.5811H40.4736V22.5957H40.4141V22.6113H40.3555V22.626H40.2969V22.6406H40.252V22.6553H40.1934V22.6709H40.1494V22.6855H40.0898V22.7012H40.0459V22.7158H40.002V22.7305H39.9424V22.7451H39.8984V22.7607H39.8545V22.7754H39.8105V22.79H39.7656V22.8057H39.7217V22.8203H39.6777V22.835H39.6338V22.8506H39.5889V22.8652H39.5449V22.8799H39.501V22.8955H39.4707V22.9102H39.4268V22.9248H39.3975V22.9404H39.3535V22.9551H39.3232V22.9697H39.2793V22.9844H39.2354V23H39.2061V23.0146H39.1621V23.0293H39.1318V23.0449H39.1025V23.0596H39.0586V23.0742H39.0293V23.0898H39V23.1045H38.9697V23.1191H38.9258V23.1348H38.8965V23.1494H38.8672V23.1641H38.8232V23.1797H38.793V23.1943H38.7637V23.209H38.7344V23.2236H38.7051V23.2393H38.6758V23.2539H38.6455V23.2695H38.6162V23.2842H38.5869V23.2988H38.5576V23.3135H38.5283V23.3291H38.498V23.3438H38.4688V23.3584H38.4395V23.374H38.4102V23.3887H38.3809V23.4033H38.3516V23.4189H38.3359V23.4336H38.3066V23.4482H38.2773V23.4629H38.248V23.4785H38.2188V23.4932H38.1885V23.5088H38.1592V23.5234H38.1445V23.5381H38.1152V23.5527H38.0859V23.5684H38.0713V23.583H38.041V23.5977H38.0117V23.6133H37.9971V23.6279H37.9678V23.6426H37.9385V23.6582H37.9238V23.6729H37.8945V23.6875H37.8643V23.7031H37.8496V23.7178H37.8203V23.7324H37.8057V23.748H37.7764V23.7627H37.7617V23.7773H37.7324V23.792H37.7021V23.8076H37.6875V23.8223H37.6582V23.8379H37.6436V23.8525H37.6143V23.8672H37.5996V23.8818H37.5703V23.8975H37.5557V23.9121H37.5254V23.9268H37.5107V23.9424H37.4814V23.957H37.4668V23.9717H37.4521V23.9873H37.4229V24.002H37.4082V24.0166H37.3779V24.0312H37.3633V24.0469H37.3486V24.0615H37.3193V24.0771H37.3047V24.0918H37.29V24.1064H37.2607V24.1211H37.2461V24.1367H37.2158V24.1514H37.2012V24.166H37.1865V24.1816H37.1719V24.1963H37.1426V24.2109H37.1279V24.2266H37.1133V24.2412H37.0986V24.2559H37.0693V24.2715H37.0537V24.2861H37.0391V24.3008H37.0098V24.3164H36.9951V24.3311H36.9805V24.3457H36.9658V24.3604H36.9365V24.376H36.9219V24.3906H36.9062V24.4053H36.8916V24.4209H36.877V24.4355H36.8623V24.4502H36.833V24.4658H36.8184V24.4805H36.8037V24.4951H36.7891V24.5107H36.7744V24.5254H36.7588V24.54H36.7295V24.5557H36.7148V24.5703H36.7002V24.585H36.6855V24.5996H36.6709V24.6152H36.6562V24.6299H36.6416V24.6445H36.627V24.6602H36.6123V24.6748H36.582V24.6895H36.5674V24.7051H36.5527V24.7197H36.5381V24.7344H36.5234V24.75H36.5088V24.7646H36.4941V24.7793H36.4795V24.7949H36.4648V24.8096H36.4502V24.8242H36.4346V24.8398H36.4199V24.8545H36.4053V24.8691H36.3906V24.8838H36.376V24.8994H36.3613V24.9141H36.3467V24.9287H36.332V24.9443H36.3174V24.959H36.3027V24.9736H36.2881V24.9893H36.2734V25.0039H36.2578V25.0186H36.2432V25.0342H36.2285V25.0488H36.2139V25.0635H36.1992V25.0791H36.1846V25.0938H36.1699V25.1084H36.1553V25.123H36.1406V25.1387H36.126V25.1533H36.1113V25.1836H36.0957V25.1982H36.0811V25.2129H36.0664V25.2285H36.0518V25.2432H36.0371V25.2578H36.0225V25.2734H36.0078V25.2881H35.9932V25.3027H35.9785V25.333H35.9639V25.3477H35.9482V25.3623H35.9336V25.3779H35.9189V25.3926H35.9043V25.4082H35.8896V25.4375H35.875V25.4521H35.8604V25.4678H35.8457V25.4824H35.8311V25.5127H35.8164V25.5273H35.8018V25.542H35.7871V25.5576H35.7715V25.5723H35.7568V25.6025H35.7422V25.6172H35.7275V25.6318H35.7129V25.6475H35.6982V25.6768H35.6836V25.6914H35.6689V25.707H35.6543V25.7363H35.6396V25.752H35.624V25.7666H35.6094V25.7969H35.5947V25.8115H35.5801V25.8418H35.5654V25.8564H35.5508V25.8711H35.5361V25.9014H35.5215V25.916H35.5068V25.9307H35.4922V25.9609H35.4766V25.9766H35.4619V26.0059H35.4473V26.0205H35.4326V26.0508H35.418V26.0654H35.4033V26.0957H35.3887V26.1104H35.374V26.1406H35.3594V26.1553H35.3447V26.1855H35.3301V26.2002H35.3154V26.2305H35.2998V26.2451H35.2852V26.2754H35.2705V26.29H35.2559V26.3203H35.2412V26.3496H35.2266V26.3652H35.2119V26.3945H35.1973V26.4248H35.1826V26.4395H35.168V26.4697H35.1523V26.499H35.1377V26.5146H35.123V26.5449H35.1084V26.5742H35.0938V26.6045H35.0791V26.6338H35.0645V26.6494H35.0498V26.6787H35.0352V26.709H35.0205V26.7393H35.0059V26.7686H34.9912V26.7988H34.9756V26.8135H34.9609V26.8438H34.9463V26.873H34.9316V26.9033H34.917V26.9482H34.9023V26.9785H34.8877V27.0078H34.873V27.0381H34.8584V27.0674H34.8438V27.0977H34.8291V27.1279H34.8135V27.1572H34.7988V27.1875H34.7842V27.2324H34.7695V27.2627H34.7549V27.292H34.7402V27.3369H34.7256V27.3672H34.7109V27.3965H34.6963V27.4414H34.6816V27.4717H34.666V27.5166H34.6514V27.5615H34.6367V27.5908H34.6221V27.6357H34.6074V27.6807H34.5928V27.7109H34.5781V27.7559H34.5635V27.8008H34.5488V27.8457H34.5342V27.8906H34.5195V27.9355H34.5049V27.9951H34.4893V28.04H34.4746V28.085H34.46V28.1299H34.4453V28.1895H34.4307V28.249H34.416V28.3096H34.4014V28.3691H34.3867V28.4287H34.3721V28.4736H34.3574V28.5488H34.3418V28.623H34.3271V28.6982H34.3125V28.7725H34.2979V28.8477H34.2832V28.9521H34.2686V29.042H34.2539V29.1465H34.2393V29.2666H34.2246V29.416H34.21V30.0293H42.7871V22.3271H42.0352Z" fill="#323A45"/>
</symbol>
</svg>
