<svg width="100" height="100" viewBox="0 0 100 100" fill="none" xmlns="http://www.w3.org/2000/svg">
<path d="M63.1553 82.5249V82.5099H62.5805V82.495H62.3005V82.48H62.0352V82.4651H61.7699V82.4501H61.4899V82.4352H61.3278V82.4202H61.1657V82.4053H61.0183V82.3903H60.8561V82.3753H60.694V82.3604H60.5466V82.3454H60.3845V82.3305H60.2666V82.3155H60.1634V82.3006H60.0603V82.2856H59.9424V82.2706H59.8392V82.2557H59.7213V82.2407H59.6181V82.2258H59.515V82.2108H59.3971V82.1959H59.3086V82.1809H59.2202V82.166H59.1318V82.151H59.0581V82.136H58.9696V82.1211H58.896V82.1061H58.8075V82.0912H58.7338V82.0762H58.6454V82.0613H58.557V82.0463H58.4833V82.0314H58.3949V82.0164H58.3212V82.0014H58.2622V81.9865H58.1885V81.9715H58.1296V81.9566H58.0706V81.9416H57.9969V81.9267H57.938V81.9117H57.8643V81.8967H57.8053V81.8818H57.7464V81.8668H57.6727V81.8519H57.6137V81.8369H57.54V81.822H57.4811V81.807H57.4221V81.7921H57.3632V81.7771H57.3042V81.7621H57.26V81.7472H57.2011V81.7322H57.1568V81.7173H57.0979V81.7023H57.0389V81.6874H56.9947V81.6724H56.9358V81.6575H56.8916V81.6425H56.8326V81.6275H56.7736V81.6126H56.7294V81.5976H56.6705V81.5827H56.6115V81.5677H56.5673V81.5528H56.5231V81.5378H56.4789V81.5228H56.4347V81.5079H56.3905V81.4929H56.3462V81.478H56.302V81.463H56.2578V81.4481H56.2136V81.4331H56.1694V81.4182H56.1252V81.4032H56.0662V81.3882H56.022V81.3733H55.9778V81.3583H55.9336V81.3434H55.8893V81.3284H55.8451V81.3135H55.8009V81.2985H55.7567V81.2835H55.7272V81.2686H55.683V81.2536H55.6388V81.2387H55.6093V81.2237H55.5651V81.2088H55.5356V81.1938H55.4914V81.1789H55.4472V81.1639H55.4177V81.1489H55.3735V81.134H55.344V81.119H55.2998V81.1041H55.2703V81.0891H55.2261V81.0742H55.1819V81.0592H55.1524V81.0443H55.1082V81.0293H55.0787V81.0143H55.0345V80.9994H54.9903V80.9844H54.9608V80.9695H54.9314V80.9545H54.9019V80.9396H54.8577V80.9246H54.8282V80.9096H54.7987V80.8947H54.7692V80.8797H54.725V80.8648H54.6956V80.8498H54.6661V80.8349H54.6366V80.8199H54.6071V80.805H54.5629V80.79H54.5334V80.775H54.504V80.7601H54.4745V80.7451H54.4303V80.7302H54.4008V80.7152H54.3713V80.7003H54.3418V80.6853H54.2976V80.6703H54.2681V80.6554H54.2387V80.6404H54.2092V80.6255H54.1797V80.6105H54.1502V80.5956H54.1208V80.5806H54.106V80.5657H54.0765V80.5507H54.0471V80.5357H54.0176V80.5208H53.9881V80.5058H53.9586V80.4909H53.9292V80.4759H53.8997V80.461H53.8702V80.446H53.8407V80.4311H53.8113V80.4161H53.7818V80.4011H53.7523V80.3862H53.7228V80.3712H53.6933V80.3563H53.6639V80.3413H53.6344V80.3264H53.6049V80.3114H53.5902V80.2964H53.5607V80.2815H53.5312V80.2665H53.5018V80.2516H53.487V80.2366H53.4575V80.2217H53.4281V80.2067H53.4133V80.1918H53.3838V80.1768H53.3544V80.1618H53.3249V80.1469H53.3102V80.1319H53.2807V80.117H53.2512V80.102H53.2365V80.0871H53.207V80.0721H53.1775V80.0572H53.148V80.0422H53.1333V80.0272H53.1038V80.0123H53.0743V79.9973H53.0596V79.9824H53.0301V79.9674H53.0006V79.9525H52.9859V79.9375H52.9564V79.9225H52.927V79.9076H52.9122V79.8926H52.8827V79.8777H52.868V79.8627H52.8385V79.8478H52.8238V79.8328H52.7943V79.8179H52.7796V79.8029H52.7501V79.7879H52.7354V79.773H52.7059V79.758H52.6911V79.7431H52.6617V79.7281H52.6469V79.7132H52.6175V79.6982H52.6027V79.6832H52.5732V79.6683H52.5585V79.6533H52.529V79.6384H52.5143V79.6234H52.4848V79.6085H52.4701V79.5935H52.4406V79.5786H52.4259V79.5636H52.3964V79.5486H52.3816V79.5337H52.3522V79.5187H52.3374V79.5038H52.3227V79.4888H52.2932V79.4739H52.2785V79.4589H52.2637V79.444H52.2343V79.429H52.2195V79.414H52.2048V79.3991H52.1753V79.3841H52.1606V79.3692H52.1458V79.3542H52.1164V79.3393H52.1016V79.3243H52.0869V79.3093H52.0574V79.2944H52.0427V79.2794H52.0279V79.2645H51.9984V79.2495H51.9837V79.2346H51.969V79.2196H51.9395V79.2047H51.9248V79.1897H51.8953V79.1747H51.8805V79.1598H51.8658V79.1448H51.8511V79.1299H51.8216V79.1149H51.8068V79.1H51.7921V79.085H51.7774V79.0701H51.7626V79.0551H51.7332V79.0401H51.7184V79.0252H51.7037V79.0102H51.6889V78.9953H51.6742V78.9803H51.6447V78.9654H51.63V78.9504H51.6152V78.9354H51.6005V78.9205H51.5858V78.9055H51.5563V78.8906H51.5416V78.8756H51.5268V78.8607H51.5121V78.8457H51.4973V78.8308H51.4679V78.8158H51.4531V78.8008H51.4384V78.7859H51.4237V78.7709H51.4089V78.756H51.3794V78.741H51.3647V78.7261H51.35V78.7111H51.3352V78.6961H51.3205V78.6812H51.3057V78.6662H51.291V78.6513H51.2763V78.6363H51.2615V78.6214H51.2468V78.6064H51.2173V78.5915H51.2026V78.5765H51.1878V78.5615H51.1731V78.5466H51.1584V78.5316H51.1436V78.5167H51.1289V78.5017H51.1142V78.4868H51.0994V78.4718H51.0847V78.4569H51.0699V78.4419H51.0552V78.4269H51.0405V78.412H51.011V78.397H50.9962V78.3821H50.9815V78.3671H50.9668V78.3522H50.952V78.3372H50.9373V78.3222H50.9226V78.3073H50.9078V78.2923H50.8931V78.2774H50.8783V78.2624H50.8636V78.2475H50.8489V78.2325H50.8341V78.2176H50.8194V78.2026H50.8046V78.1876H50.7899V78.1727H50.7752V78.1577H50.7604V78.1428H50.7457V78.1278H50.731V78.1129H50.7162V78.0979H50.7015V78.0829H50.6867V78.053H50.672V78.0381H50.6573V78.0231H50.6425V78.0082H50.6278V77.9932H50.6131V77.9783H50.5983V77.9633H50.5836V77.9483H50.5688V77.9334H50.5541V77.9184H50.5394V77.9035H50.5246V77.8885H50.5099V77.8736H50.4951V77.8586H50.4804V77.8437H50.4657V77.8287H50.4509V77.8137H50.4362V77.7838H50.4215V77.7689H50.4067V77.7539H50.392V77.739H50.3772V77.724H50.3625V77.709H50.3478V77.6791H50.333V77.6642H50.3183V77.6492H50.3035V77.6343H50.2888V77.6193H50.2741V77.6044H50.2593V77.5894H50.2446V77.5595H50.2299V77.5445H50.2151V77.5296H50.2004V77.5146H50.1856V77.4997H50.1709V77.4847H50.1562V77.4697H50.1414V77.4398H50.1267V77.4249H50.1119V77.4099H50.0972V77.395H50.0825V77.3651H50.0677V77.3501H50.053V77.3351H50.0383V77.3202H50.0235V77.2903H50.0088V77.2753H49.994V77.2604H49.9793V77.2454H49.9646V77.2155H49.9498V77.2005H49.9351V77.1856H49.9204V77.1557H49.9056V77.1407H49.8909V77.1258H49.8761V77.1108H49.8614V77.0809H49.8467V77.0659H49.8319V77.051H49.8172V77.0211H49.8024V77.0061H49.7877V76.9912H49.773V76.9762H49.7582V76.9463H49.7435V76.9313H49.7288V76.9014H49.714V76.8865H49.6993V76.8715H49.6845V76.8416H49.6698V76.8266H49.6551V76.7967H49.6403V76.7818H49.6256V76.7519H49.6108V76.7369H49.5961V76.7219H49.5814V76.692H49.5666V76.6771H49.5519V76.6472H49.5372V76.6322H49.5224V76.6023H49.5077V76.5873H49.4929V76.5724H49.4782V76.5425H49.4635V76.5275H49.4487V76.4976H49.434V76.4826H49.4192V76.4527H49.4045V76.4378H49.3898V76.4079H49.375V76.378H49.3603V76.363H49.3456V76.3331H49.3308V76.3181H49.3161V76.2882H49.3013V76.2733H49.2866V76.2434H49.2719V76.2134H49.2571V76.1985H49.2424V76.1686H49.2277V76.1536H49.2129V76.1237H49.1982V76.1087H49.1834V76.0788H49.1687V76.0489H49.154V76.034H49.1392V76.0041H49.1245V75.9741H49.1097V75.9442H49.095V75.9293H49.0803V75.8994H49.0655V75.8695H49.0508V75.8395H49.0361V75.8246H49.0213V75.7947H49.0066V75.7648H48.9918V75.7348H48.9771V75.7199H48.9624V75.69H48.9476V75.6601H48.9329V75.6302H48.9181V75.6152H48.9034V75.5853H48.8887V75.5554H48.8739V75.5255H48.8592V75.4955H48.8445V75.4656H48.8297V75.4357H48.815V75.4058H48.8002V75.3759H48.7855V75.346H48.7708V75.3161H48.756V75.2862H48.7413V75.2563H48.7265V75.2263H48.7118V75.2114H48.6971V75.1815H48.6823V75.1516H48.6676V75.1216H48.6529V75.0768H48.6381V75.0469H48.6234V75.017H48.6086V74.987H48.5939V74.9571H48.5792V74.9272H48.5644V74.8823H48.5497V74.8524H48.535V74.8225H48.5202V74.7926H48.5055V74.7627H48.4907V74.7328H48.476V74.6879H48.4613V74.658H48.4465V74.6281H48.4318V74.5832H48.417V74.5533H48.4023V74.5084H48.3876V74.4785H48.3728V74.4486H48.3581V74.4038H48.3434V74.3738H48.3286V74.329H48.3139V74.2991H48.2991V74.2542H48.2844V74.2243H48.2697V74.1794H48.2549V74.1495H48.2402V74.1046H48.2254V74.0598H48.2107V74.0149H48.196V73.985H48.1812V73.9401H48.1665V73.8952H48.1518V73.8653H48.137V73.8205H48.1223V73.7756H48.1075V73.7307H48.0928V73.6859H48.0781V73.641H48.0633V73.5961H48.0486V73.5513H48.0339V73.5064H48.0191V73.4615H48.0044V73.4167H47.9896V73.3718H47.9749V73.312H47.9602V73.2671H47.9454V73.2222H47.9307V73.1624H47.9159V73.1175H47.9012V73.0577H47.8865V73.0128H47.8717V72.953H47.857V72.9081H47.8423V72.8483H47.8275V72.7885H47.8128V72.7287H47.798V72.6689H47.7833V72.609H47.7686V72.5492H47.7538V72.4894H47.7391V72.4296H47.7243V72.3548H47.7096V72.2949H47.6949V72.2351H47.6801V72.1603H47.6654V72.0856H47.6507V72.0108H47.6359V71.936H47.6212V71.8612H47.6064V71.7864H47.5917V71.7117H47.577V71.6219H47.5622V71.5322H47.5475V71.4425H47.5327V71.4125H56.2431V71.4574H56.2578V71.5023H56.2725V71.5322H56.2873V71.5771H56.302V71.6219H56.3168V71.6668H56.3315V71.7117H56.3462V71.7416H56.361V71.7864H56.3757V71.8164H56.3905V71.8612H56.4052V71.8911H56.4199V71.936H56.4347V71.9659H56.4494V72.0108H56.4641V72.0407H56.4789V72.0856H56.4936V72.1155H56.5084V72.1454H56.5231V72.1753H56.5378V72.2052H56.5526V72.2351H56.5673V72.28H56.582V72.3099H56.5968V72.3398H56.6115V72.3697H56.6263V72.3996H56.641V72.4296H56.6557V72.4595H56.6705V72.4894H56.6852V72.5193H56.7V72.5492H56.7147V72.5642H56.7294V72.5941H56.7442V72.624H56.7589V72.6539H56.7736V72.6838H56.7884V72.6988H56.8031V72.7287H56.8179V72.7586H56.8326V72.7885H56.8473V72.8035H56.8621V72.8334H56.8768V72.8633H56.8916V72.8782H56.9063V72.9081H56.921V72.9381H56.9358V72.953H56.9505V72.9829H56.9652V72.9979H56.98V73.0278H56.9947V73.0428H57.0095V73.0727H57.0242V73.0876H57.0389V73.1175H57.0537V73.1325H57.0684V73.1474H57.0832V73.1774H57.0979V73.1923H57.1126V73.2222H57.1274V73.2372H57.1421V73.2521H57.1568V73.282H57.1716V73.297H57.1863V73.3269H57.2011V73.3419H57.2158V73.3568H57.2305V73.3718H57.2453V73.4017H57.26V73.4167H57.2747V73.4316H57.2895V73.4466H57.3042V73.4765H57.319V73.4914H57.3337V73.5064H57.3484V73.5213H57.3632V73.5513H57.3779V73.5662H57.3927V73.5812H57.4074V73.5961H57.4221V73.6111H57.4369V73.626H57.4516V73.641H57.4663V73.6709H57.4811V73.6859H57.4958V73.7008H57.5106V73.7158H57.5253V73.7307H57.54V73.7457H57.5548V73.7606H57.5695V73.7756H57.5843V73.7906H57.599V73.8055H57.6137V73.8205H57.6285V73.8354H57.6432V73.8504H57.6579V73.8653H57.6727V73.8803H57.6874V73.8952H57.7022V73.9102H57.7169V73.9252H57.7316V73.9401H57.7464V73.9551H57.7611V73.97H57.7758V73.985H57.7906V73.9999H57.8053V74.0149H57.8201V74.0299H57.8348V74.0448H57.8495V74.0598H57.8643V74.0747H57.879V74.0897H57.8938V74.1046H57.9085V74.1196H57.938V74.1345H57.9527V74.1495H57.9674V74.1645H57.9822V74.1794H57.9969V74.1944H58.0117V74.2093H58.0411V74.2243H58.0559V74.2392H58.0706V74.2542H58.0854V74.2692H58.1001V74.2841H58.1296V74.2991H58.1443V74.314H58.159V74.329H58.1885V74.3439H58.2033V74.3589H58.218V74.3738H58.2327V74.3888H58.2622V74.4038H58.277V74.4187H58.2917V74.4337H58.3212V74.4486H58.3359V74.4636H58.3654V74.4785H58.3801V74.4935H58.3949V74.5084H58.4243V74.5234H58.4391V74.5384H58.4685V74.5533H58.4833V74.5683H58.498V74.5832H58.5275V74.5982H58.5422V74.6131H58.5717V74.6281H58.6012V74.6431H58.6159V74.658H58.6454V74.673H58.6601V74.6879H58.6896V74.7029H58.7191V74.7178H58.7338V74.7328H58.7633V74.7477H58.778V74.7627H58.8075V74.7777H58.837V74.7926H58.8665V74.8076H58.8812V74.8225H58.9107V74.8375H58.9402V74.8524H58.9696V74.8674H58.9844V74.8823H59.0139V74.8973H59.0433V74.9123H59.0728V74.9272H59.1023V74.9422H59.1318V74.9571H59.1612V74.9721H59.1907V74.987H59.2202V75.002H59.2497V75.017H59.2792V75.0319H59.3086V75.0469H59.3381V75.0618H59.3676V75.0768H59.3971V75.0917H59.4413V75.1067H59.4707V75.1216H59.5002V75.1366H59.5297V75.1516H59.5592V75.1665H59.6034V75.1815H59.6329V75.1964H59.6771V75.2114H59.7066V75.2263H59.7508V75.2413H59.7803V75.2563H59.8245V75.2712H59.8539V75.2862H59.8982V75.3011H59.9424V75.3161H59.9719V75.331H60.0161V75.346H60.0603V75.3609H60.1045V75.3759H60.1487V75.3909H60.1782V75.4058H60.2371V75.4208H60.2814V75.4357H60.3256V75.4507H60.3698V75.4656H60.414V75.4806H60.473V75.4955H60.5172V75.5105H60.5761V75.5255H60.6203V75.5404H60.6793V75.5554H60.7382V75.5703H60.7825V75.5853H60.8414V75.6002H60.9004V75.6152H60.9593V75.6302H61.033V75.6451H61.092V75.6601H61.1657V75.675H61.2246V75.69H61.2983V75.7049H61.372V75.7199H61.4457V75.7348H61.5194V75.7498H61.6078V75.7648H61.6962V75.7797H61.7847V75.7947H61.8731V75.8096H61.9763V75.8246H62.0794V75.8395H62.1973V75.8545H62.3152V75.8695H62.4331V75.8844H62.5805V75.8994H62.7279V75.9143H62.89V75.9293H63.1111V75.9442H63.3322V75.9592H63.7154V75.9741H64.8502V75.9592H65.145V75.9442H65.3808V75.9293H65.6019V75.9143H65.7345V75.8994H65.8672V75.8844H65.9998V75.8695H66.1324V75.8545H66.2504V75.8395H66.3388V75.8246H66.4272V75.8096H66.5156V75.7947H66.6041V75.7797H66.6925V75.7648H66.7809V75.7498H66.8546V75.7348H66.9136V75.7199H66.9873V75.7049H67.0462V75.69H67.1199V75.675H67.1789V75.6601H67.2526V75.6451H67.3115V75.6302H67.3705V75.6152H67.4147V75.6002H67.4736V75.5853H67.5326V75.5703H67.5768V75.5554H67.6358V75.5404H67.68V75.5255H67.7389V75.5105H67.7831V75.4955H67.8273V75.4806H67.8716V75.4656H67.9158V75.4507H67.96V75.4357H68.0042V75.4208H68.0484V75.4058H68.0926V75.3909H68.1369V75.3759H68.1663V75.3609H68.2105V75.346H68.2548V75.331H68.299V75.3161H68.3285V75.3011H68.3727V75.2862H68.4021V75.2712H68.4316V75.2563H68.4758V75.2413H68.5053V75.2263H68.5348V75.2114H68.579V75.1964H68.6085V75.1815H68.6527V75.1665H68.6822V75.1516H68.7116V75.1366H68.7411V75.1216H68.7706V75.1067H68.8001V75.0917H68.8296V75.0768H68.859V75.0618H68.8885V75.0469H68.918V75.0319H68.9475V75.017H68.9769V75.002H69.0064V74.987H69.0359V74.9721H69.0654V74.9571H69.0948V74.9422H69.1243V74.9272H69.1538V74.9123H69.1833V74.8973H69.198V74.8823H69.2275V74.8674H69.257V74.8524H69.2864V74.8375H69.3012V74.8225H69.3307V74.8076H69.3601V74.7926H69.3749V74.7777H69.4043V74.7627H69.4338V74.7477H69.4486V74.7328H69.478V74.7178H69.5075V74.7029H69.5223V74.6879H69.5517V74.673H69.5665V74.658H69.5959V74.6431H69.6107V74.6281H69.6402V74.6131H69.6549V74.5982H69.6844V74.5832H69.6991V74.5683H69.7286V74.5533H69.7433V74.5384H69.7581V74.5234H69.7875V74.5084H69.8023V74.4935H69.8318V74.4785H69.8465V74.4636H69.876V74.4486H69.8907V74.4337H69.9054V74.4187H69.9349V74.4038H69.9497V74.3888H69.9644V74.3738H69.9791V74.3589H70.0086V74.3439H70.0234V74.329H70.0381V74.314H70.0528V74.2991H70.0823V74.2841H70.097V74.2692H70.1118V74.2542H70.1265V74.2392H70.156V74.2243H70.1707V74.2093H70.1855V74.1944H70.2002V74.1794H70.2297V74.1645H70.2444V74.1495H70.2592V74.1345H70.2739V74.1196H70.2886V74.1046H70.3034V74.0897H70.3181V74.0747H70.3329V74.0598H70.3476V74.0448H70.3623V74.0299H70.3771V74.0149H70.4065V73.9999H70.4213V73.985H70.436V73.97H70.4508V73.9551H70.4655V73.9401H70.4802V73.9252H70.495V73.9102H70.5097V73.8952H70.5245V73.8803H70.5392V73.8653H70.5539V73.8504H70.5687V73.8354H70.5834V73.8205H70.5981V73.8055H70.6129V73.7906H70.6276V73.7756H70.6424V73.7606H70.6571V73.7457H70.6718V73.7307H70.6866V73.7158H70.7013V73.7008H70.716V73.6859H70.7308V73.656H70.7455V73.641H70.7603V73.626H70.775V73.6111H70.7897V73.5961H70.8045V73.5812H70.8192V73.5662H70.834V73.5513H70.8487V73.5363H70.8634V73.5213H70.8782V73.4914H70.8929V73.4765H70.9076V73.4615H70.9224V73.4466H70.9371V73.4167H70.9519V73.4017H70.9666V73.3867H70.9813V73.3718H70.9961V73.3568H71.0108V73.3269H71.0256V73.312H71.0403V73.297H71.055V73.282H71.0698V73.2521H71.0845V73.2372H71.0992V73.2222H71.114V73.2073H71.1287V73.1774H71.1435V73.1624H71.1582V73.1325H71.1729V73.1175H71.1877V73.1026H71.2024V73.0727H71.2172V73.0577H71.2319V73.0278H71.2466V73.0128H71.2614V72.9979H71.2761V72.968H71.2908V72.953H71.3056V72.9231H71.3203V72.9081H71.3351V72.8932H71.3498V72.8633H71.3645V72.8483H71.3793V72.8184H71.394V72.7885H71.4087V72.7735H71.4235V72.7436H71.4382V72.7287H71.453V72.6988H71.4677V72.6689H71.4824V72.6539H71.4972V72.624H71.5119V72.5941H71.5267V72.5791H71.5414V72.5492H71.5561V72.5342H71.5709V72.5043H71.5856V72.4744H71.6003V72.4595H71.6151V72.4296H71.6298V72.3996H71.6446V72.3697H71.6593V72.3398H71.674V72.3099H71.6888V72.28H71.7035V72.265H71.7183V72.2351H71.733V72.2052H71.7477V72.1753H71.7625V72.1454H71.7772V72.1155H71.7919V72.0856H71.8067V72.0557H71.8214V72.0257H71.8362V71.9958H71.8509V71.9659H71.8656V71.936H71.8804V71.9061H71.8951V71.8612H71.9099V71.8313H71.9246V71.8014H71.9393V71.7715H71.9541V71.7416H71.9688V71.7117H71.9835V71.6818H71.9983V71.6369H72.013V71.607H72.0278V71.5621H72.0425V71.5322H72.0572V71.4873H72.072V71.4574H72.0867V71.4125H72.1015V71.3826H72.1162V71.3378H72.1309V71.3078H72.1457V71.263H72.1604V71.2331H72.1751V71.1882H72.1899V71.1433H72.2046V71.0985H72.2194V71.0536H72.2341V71.0087H72.2488V70.9639H72.2636V70.919H72.2783V70.8891H72.293V70.8442H72.3078V70.7993H72.3225V70.7395H72.3373V70.6946H72.352V70.6498H72.3667V70.59H72.3815V70.5451H72.3962V70.4853H72.411V70.4404H72.4257V70.3955H72.4404V70.3357H72.4552V70.2759H72.4699V70.2161H72.4846V70.1562H72.4994V70.0964H72.5141V70.0366H72.5289V69.9917H72.5436V69.9319H72.5583V69.8571H72.5731V69.7973H72.5878V69.7225H72.6025V69.6477H72.6173V69.5879H72.632V69.5131H72.6468V69.4383H72.6615V69.3636H72.6762V69.2738H72.691V69.199H72.7057V69.1093H72.7205V69.0196H72.7352V68.9448H72.7499V68.8401H72.7647V68.7504H72.7794V68.6457H72.7941V68.541H72.8089V68.4363H72.8236V68.3166H72.8384V68.182H72.8531V68.0474H72.8678V67.9278H72.8826V67.7633H72.8973V67.5987H72.9121V67.4342H72.9268V67.2398H72.9415V67.0155H72.9563V66.7762H72.971V66.4322H72.9857V65.9835H73.0005V63.7251H72.9857V63.755H72.971V63.77H72.9563V63.7999H72.9415V63.8149H72.9268V63.8448H72.9121V63.8597H72.8973V63.8896H72.8826V63.9046H72.8678V63.9345H72.8531V63.9495H72.8384V63.9794H72.8236V63.9943H72.8089V64.0242H72.7941V64.0392H72.7794V64.0691H72.7647V64.0841H72.7499V64.099H72.7352V64.1289H72.7205V64.1439H72.7057V64.1738H72.691V64.1888H72.6762V64.2187H72.6615V64.2336H72.6468V64.2486H72.632V64.2785H72.6173V64.2935H72.6025V64.3084H72.5878V64.3383H72.5731V64.3533H72.5583V64.3832H72.5436V64.3981H72.5289V64.4131H72.5141V64.443H72.4994V64.458H72.4846V64.4729H72.4699V64.5028H72.4552V64.5178H72.4404V64.5327H72.4257V64.5627H72.411V64.5776H72.3962V64.5926H72.3815V64.6075H72.3667V64.6374H72.352V64.6524H72.3373V64.6674H72.3225V64.6973H72.3078V64.7122H72.293V64.7272H72.2783V64.7421H72.2636V64.772H72.2488V64.787H72.2341V64.802H72.2194V64.8169H72.2046V64.8319H72.1899V64.8618H72.1751V64.8767H72.1604V64.8917H72.1457V64.9066H72.1309V64.9216H72.1162V64.9515H72.1015V64.9665H72.0867V64.9814H72.072V64.9964H72.0572V65.0113H72.0425V65.0413H72.0278V65.0562H72.013V65.0712H71.9983V65.0861H71.9835V65.1011H71.9688V65.116H71.9541V65.131H71.9393V65.1609H71.9246V65.1759H71.9099V65.1908H71.8951V65.2058H71.8804V65.2207H71.8656V65.2357H71.8509V65.2506H71.8362V65.2656H71.8214V65.2806H71.8067V65.2955H71.7919V65.3105H71.7772V65.3404H71.7625V65.3553H71.7477V65.3703H71.733V65.3852H71.7183V65.4002H71.7035V65.4152H71.6888V65.4301H71.674V65.4451H71.6593V65.46H71.6446V65.475H71.6298V65.4899H71.6151V65.5049H71.6003V65.5198H71.5856V65.5348H71.5709V65.5498H71.5561V65.5647H71.5414V65.5797H71.5267V65.5946H71.5119V65.6096H71.4972V65.6245H71.4824V65.6395H71.4677V65.6545H71.453V65.6694H71.4382V65.6844H71.4235V65.6993H71.4087V65.7143H71.394V65.7292H71.3793V65.7442H71.3645V65.7591H71.3498V65.7741H71.3351V65.7891H71.3203V65.804H71.2908V65.819H71.2761V65.8339H71.2614V65.8489H71.2466V65.8638H71.2319V65.8788H71.2172V65.8938H71.2024V65.9087H71.1877V65.9237H71.1729V65.9386H71.1582V65.9536H71.1287V65.9685H71.114V65.9835H71.0992V65.9984H71.0845V66.0134H71.0698V66.0284H71.055V66.0433H71.0403V66.0583H71.0108V66.0732H70.9961V66.0882H70.9813V66.1031H70.9666V66.1181H70.9519V66.133H70.9371V66.148H70.9076V66.163H70.8929V66.1779H70.8782V66.1929H70.8634V66.2078H70.834V66.2228H70.8192V66.2377H70.8045V66.2527H70.7897V66.2677H70.7603V66.2826H70.7455V66.2976H70.7308V66.3125H70.716V66.3275H70.6866V66.3424H70.6718V66.3574H70.6571V66.3723H70.6276V66.3873H70.6129V66.4023H70.5981V66.4172H70.5687V66.4322H70.5539V66.4471H70.5392V66.4621H70.5097V66.477H70.495V66.492H70.4802V66.5069H70.4508V66.5219H70.436V66.5369H70.4213V66.5518H70.3918V66.5668H70.3771V66.5817H70.3476V66.5967H70.3329V66.6116H70.3034V66.6266H70.2886V66.6416H70.2592V66.6565H70.2444V66.6715H70.215V66.6864H70.2002V66.7014H70.1855V66.7163H70.156V66.7313H70.1413V66.7462H70.1118V66.7612H70.0823V66.7762H70.0676V66.7911H70.0381V66.8061H70.0234V66.821H69.9939V66.836H69.9791V66.8509H69.9497V66.8659H69.9202V66.8809H69.9054V66.8958H69.876V66.9108H69.8612V66.9257H69.8318V66.9407H69.8023V66.9556H69.7875V66.9706H69.7581V66.9855H69.7286V67.0005H69.6991V67.0155H69.6844V67.0304H69.6549V67.0454H69.6254V67.0603H69.6107V67.0753H69.5812V67.0902H69.5517V67.1052H69.5223V67.1201H69.4928V67.1351H69.4633V67.1501H69.4486V67.165H69.4191V67.18H69.3896V67.1949H69.3601V67.2099H69.3307V67.2248H69.3012V67.2398H69.2717V67.2548H69.2422V67.2697H69.2127V67.2847H69.1833V67.2996H69.1538V67.3146H69.1243V67.3295H69.0948V67.3445H69.0654V67.3594H69.0359V67.3744H69.0064V67.3894H68.9769V67.4043H68.9475V67.4193H68.918V67.4342H68.8738V67.4492H68.8443V67.4641H68.8148V67.4791H68.7853V67.4941H68.7411V67.509H68.7116V67.524H68.6822V67.5389H68.6527V67.5539H68.6085V67.5688H68.579V67.5838H68.5495V67.5987H68.5053V67.6137H68.4758V67.6287H68.4316V67.6436H68.4021V67.6586H68.3579V67.6735H68.3285V67.6885H68.2842V67.7034H68.2548V67.7184H68.2105V67.7333H68.1663V67.7483H68.1221V67.7633H68.0926V67.7782H68.0484V67.7932H68.0042V67.8081H67.96V67.8231H67.9305V67.838H67.8863V67.853H67.8421V67.868H67.7979V67.8829H67.7537V67.8979H67.6947V67.9128H67.6505V67.9278H67.6063V67.9427H67.5621V67.9577H67.5178V67.9726H67.4736V67.9876H67.4147V68.0026H67.3705V68.0175H67.3115V68.0325H67.2673V68.0474H67.2083V68.0624H67.1641V68.0773H67.1052V68.0923H67.0462V68.1072H66.9873V68.1222H66.9283V68.1372H66.8694V68.1521H66.8104V68.1671H66.7515V68.182H66.7072V68.197H66.6335V68.2119H66.5599V68.2269H66.5009V68.2419H66.4272V68.2568H66.3683V68.2718H66.2946V68.2867H66.2209V68.3017H66.1472V68.3166H66.0735V68.3316H65.9851V68.3465H65.9114V68.3615H65.8377V68.3765H65.7345V68.3914H65.6461V68.4064H65.5577V68.4213H65.4545V68.4363H65.3661V68.4512H65.2482V68.4662H65.145V68.4812H65.0271V68.4961H64.9092V68.5111H64.7765V68.526H64.6291V68.541H64.4965V68.5559H64.3344V68.5709H64.1428V68.5858H63.9659V68.6008H63.7154V68.6158H63.4501V68.6307H63.0521V68.6457H61.6225V68.6307H61.313V68.6158H61.1067V68.6008H60.9151V68.5858H60.7088V68.5709H60.5466V68.5559H60.4287V68.541H60.3108V68.526H60.2077V68.5111H60.0898V68.4961H59.9719V68.4812H59.8539V68.4662H59.7508V68.4512H59.6771V68.4363H59.5887V68.4213H59.5002V68.4064H59.4265V68.3914H59.3381V68.3765H59.2644V68.3615H59.176V68.3465H59.0876V68.3316H59.0139V68.3166H58.9549V68.3017H58.8812V68.2867H58.8223V68.2718H58.7633V68.2568H58.7044V68.2419H58.6307V68.2269H58.5717V68.2119H58.5128V68.197H58.4391V68.182H58.3801V68.1671H58.3212V68.1521H58.2622V68.1372H58.2033V68.1222H58.159V68.1072H58.1001V68.0923H58.0559V68.0773H57.9969V68.0624H57.9527V68.0474H57.8938V68.0325H57.8495V68.0175H57.7906V68.0026H57.7464V67.9876H57.6874V67.9726H57.6432V67.9577H57.5843V67.9427H57.54V67.9278H57.4958V67.9128H57.4516V67.8979H57.4074V67.8829H57.3632V67.868H57.319V67.853H57.2895V67.838H57.2453V67.8231H57.2011V67.8081H57.1568V67.7932H57.1126V67.7782H57.0684V67.7633H57.0242V67.7483H56.98V67.7333H56.9358V67.7184H56.8916V67.7034H56.8473V67.6885H56.8179V67.6735H56.7736V67.6586H56.7442V67.6436H56.7V67.6287H56.6705V67.6137H56.6263V67.5987H56.5968V67.5838H56.5526V67.5688H56.5231V67.5539H56.4789V67.5389H56.4494V67.524H56.4199V67.509H56.3757V67.4941H56.3462V67.4791H56.302V67.4641H56.2725V67.4492H56.2283V67.4342H56.1989V67.4193H56.1546V67.4043H56.1252V67.3894H56.0957V67.3744H56.0662V67.3594H56.022V67.3445H55.9925V67.3295H55.963V67.3146H55.9336V67.2996H55.9041V67.2847H55.8746V67.2697H55.8451V67.2548H55.8009V67.2398H55.7714V67.2248H55.742V67.2099H55.7125V67.1949H55.683V67.18H55.6535V67.165H55.6241V67.1501H55.5798V67.1351H55.5504V67.1201H55.5209V67.1052H55.4914V67.0902H55.4619V67.0753H55.4325V67.0603H55.403V67.0454H55.3735V67.0304H55.344V67.0155H55.3146V67.0005H55.2998V66.9855H55.2703V66.9706H55.2409V66.9556H55.2114V66.9407H55.1819V66.9257H55.1524V66.9108H55.123V66.8958H55.0935V66.8809H55.064V66.8659H55.0493V66.8509H55.0198V66.836H54.9903V66.821H54.9608V66.8061H54.9314V66.7911H54.9019V66.7762H54.8724V66.7612H54.8429V66.7462H54.8282V66.7313H54.7987V66.7163H54.7692V66.7014H54.7398V66.6864H54.725V66.6715H54.6956V66.6565H54.6661V66.6416H54.6513V66.6266H54.6219V66.6116H54.5924V66.5967H54.5776V66.5817H54.5482V66.5668H54.5187V66.5518H54.504V66.5369H54.4745V66.5219H54.445V66.5069H54.4303V66.492H54.4008V66.477H54.3713V66.4621H54.3566V66.4471H54.3271V66.4322H54.2976V66.4172H54.2829V66.4023H54.2534V66.3873H54.2239V66.3723H54.2092V66.3574H54.1797V66.3424H54.165V66.3275H54.1355V66.3125H54.1208V66.2976H54.0913V66.2826H54.0765V66.2677H54.0471V66.2527H54.0323V66.2377H54.0029V66.2228H53.9881V66.2078H53.9586V66.1929H53.9439V66.1779H53.9144V66.163H53.8997V66.148H53.8702V66.133H53.8555V66.1181H53.826V66.1031H53.8113V66.0882H53.7818V66.0732H53.767V66.0583H53.7376V66.0433H53.7228V66.0284H53.6933V66.0134H53.6786V65.9984H53.6491V65.9835H53.6344V65.9685H53.6049V65.9536H53.5902V65.9386H53.5754V65.9237H53.546V65.9087H53.5312V65.8938H53.5165V65.8788H53.487V65.8638H53.4723V65.8489H53.4575V65.8339H53.4281V65.819H53.4133V65.804H53.3986V65.7891H53.3691V65.7741H53.3544V65.7591H53.3396V65.7442H53.3102V65.7292H53.2954V65.7143H53.2807V65.6993H53.2512V65.6844H53.2365V65.6694H53.2217V65.6545H53.1922V65.6395H53.1775V65.6245H53.1628V65.6096H53.1333V65.5946H53.1186V65.5797H53.1038V65.5647H53.0743V65.5498H53.0596V65.5348H53.0449V65.5198H53.0154V65.5049H53.0006V65.4899H52.9859V65.475H52.9564V65.46H52.9417V65.4451H52.927V65.4301H52.9122V65.4152H52.8975V65.4002H52.868V65.3852H52.8533V65.3703H52.8385V65.3553H52.8238V65.3404H52.8091V65.3254H52.7943V65.3105H52.7648V65.2955H52.7501V65.2806H52.7354V65.2656H52.7206V65.2506H52.7059V65.2357H52.6764V65.2207H52.6617V65.2058H52.6469V65.1908H52.6322V65.1759H52.6175V65.1609H52.588V65.1459H52.5732V65.131H52.5585V65.116H52.5438V65.1011H52.529V65.0861H52.4995V65.0712H52.4848V65.0562H52.4701V65.0413H52.4553V65.0263H52.4406V65.0113H52.4111V64.9964H52.3964V64.9814H52.3816V64.9665H52.3669V64.9515H52.3522V64.9366H52.3374V64.9216H52.3227V64.9066H52.3079V64.8917H52.2932V64.8767H52.2785V64.8618H52.2637V64.8468H52.249V64.8319H52.2195V64.8169H52.2048V64.802H52.19V64.787H52.1753V64.772H52.1606V64.7571H52.1458V64.7421H52.1311V64.7272H52.1164V64.7122H52.1016V64.6973H52.0869V64.6823H52.0721V64.6674H52.0574V64.6524H52.0427V64.6374H52.0132V64.6225H51.9984V64.6075H51.9837V64.5926H51.969V64.5776H51.9542V64.5627H51.9395V64.5477H51.9248V64.5327H51.91V64.5178H51.8953V64.5028H51.8805V64.4879H51.8658V64.4729H51.8511V64.458H51.8363V64.443H51.8216V64.4281H51.8068V64.4131H51.7921V64.3981H51.7774V64.3832H51.7626V64.3682H51.7479V64.3533H51.7332V64.3383H51.7184V64.3234H51.7037V64.3084H51.6889V64.2935H51.6742V64.2785H51.6595V64.2635H51.6447V64.2486H51.63V64.2336H51.6152V64.2187H51.6005V64.2037H51.5858V64.1888H51.571V64.1738H51.5563V64.1588H51.5416V64.1439H51.5268V64.1289H51.5121V64.114H51.4973V64.099H51.4826V64.0691H51.4679V64.0542H51.4531V64.0392H51.4384V64.0242H51.4237V64.0093H51.4089V63.9943H51.3942V63.9794H51.3794V63.9644H51.3647V63.9495H51.35V63.9345H51.3352V63.9196H51.3205V63.9046H51.3057V63.8747H51.291V63.8597H51.2763V63.8448H51.2615V63.8298H51.2468V63.8149H51.2321V63.7999H51.2173V63.7849H51.2026V63.77H51.1878V63.7401H51.1731V63.7251H51.1584V63.7102H51.1436V63.6952H51.1289V63.6803H51.1142V63.6653H51.0994V63.6503H51.0847V63.6354H51.0699V63.6055H51.0552V63.5905H51.0405V63.5756H51.0257V63.5606H51.011V63.5456H50.9962V63.5307H50.9815V63.5157H50.9668V63.4858H50.952V63.4709H50.9373V63.4559H50.9226V63.441H50.9078V63.426H50.8931V63.411H50.8783V63.3811H50.8636V63.3662H50.8489V63.3512H50.8341V63.3363H50.8194V63.3064H50.8046V63.2914H50.7899V63.2764H50.7752V63.2615H50.7604V63.2316H50.7457V63.2166H50.731V63.2017H50.7162V63.1867H50.7015V63.1568H50.6867V63.1418H50.672V63.1269H50.6573V63.1119H50.6425V63.082H50.6278V63.0671H50.6131V63.0521H50.5983V63.0371H50.5836V63.0072H50.5688V62.9923H50.5541V62.9773H50.5394V62.9624H50.5246V62.9324H50.5099V62.9175H50.4951V62.9025H50.4804V62.8876H50.4657V62.8577H50.4509V62.8427H50.4362V62.8128H50.4215V62.7978H50.4067V62.7829H50.392V62.753H50.3772V62.738H50.3625V62.7081H50.3478V62.6932H50.333V62.6782H50.3183V62.6483H50.3035V62.6333H50.2888V62.6184H50.2741V62.5885H50.2593V62.5735H50.2446V62.5436H50.2299V62.5286H50.2151V62.5137H50.2004V62.4838H50.1856V62.4688H50.1709V62.4389H50.1562V62.4239H50.1414V62.409H50.1267V62.3791H50.1119V62.3641H50.0972V62.3492H50.0825V62.3192H50.0677V62.3043H50.053V62.2744H50.0383V62.2594H50.0235V62.2295H50.0088V62.2146H49.994V62.1846H49.9793V62.1697H49.9646V62.1398H49.9498V62.1248H49.9351V62.0949H49.9204V62.08H49.9056V62.05H49.8909V62.0351H49.8761V62.0052H49.8614V61.9753H49.8467V61.9603H49.8319V61.9304H49.8172V61.9154H49.8024V61.8855H49.7877V61.8706H49.773V61.8407H49.7582V61.8257H49.7435V61.7958H49.7288V61.7808H49.714V61.7509H49.6993V61.736H49.6845V61.7061H49.6698V61.6761H49.6551V61.6612H49.6403V61.6313H49.6256V61.6163H49.6108V61.5864H49.5961V61.5565H49.5814V61.5266H49.5666V61.5116H49.5519V61.4817H49.5372V61.4518H49.5224V61.4368H49.5077V61.4069H49.4929V61.377H49.4782V61.3471H49.4635V61.3321H49.4487V61.3022H49.434V61.2723H49.4192V61.2574H49.4045V61.2275H49.3898V61.1975H49.375V61.1676H49.3603V61.1527H49.3456V61.1228H49.3308V61.0929H49.3161V61.0779H49.3013V61.048H49.2866V61.0181H49.2719V60.9882H49.2571V60.9582H49.2424V60.9283H49.2277V60.9134H49.2129V60.8835H49.1982V60.8536H49.1834V60.8236H49.1687V60.7937H49.154V60.7638H49.1392V60.7339H49.1245V60.704H49.1097V60.6741H49.095V60.6442H49.0803V60.6143H49.0655V60.5843H49.0508V60.5694H49.0361V60.5395H49.0213V60.5096H49.0066V60.4797H48.9918V60.4497H48.9771V60.4198H48.9624V60.3899H48.9476V60.36H48.9329V60.3301H48.9181V60.3002H48.9034V60.2703H48.8887V60.2404H48.8739V60.1955H48.8592V60.1656H48.8445V60.1357H48.8297V60.1058H48.815V60.0758H48.8002V60.0459H48.7855V60.0011H48.7708V59.9711H48.756V59.9412H48.7413V59.9113H48.7265V59.8814H48.7118V59.8515H48.6971V59.8066H48.6823V59.7767H48.6676V59.7468H48.6529V59.7169H48.6381V59.687H48.6234V59.6421H48.6086V59.6122H48.5939V59.5673H48.5792V59.5374H48.5644V59.5075H48.5497V59.4626H48.535V59.4327H48.5202V59.3879H48.5055V59.3579H48.4907V59.3131H48.476V59.2832H48.4613V59.2383H48.4465V59.2084H48.4318V59.1635H48.417V59.1336H48.4023V59.1037H48.3876V59.0588H48.3728V59.0289H48.3581V58.984H48.3434V58.9392H48.3286V58.9093H48.3139V58.8644H48.2991V58.8195H48.2844V58.7747H48.2697V58.7298H48.2549V58.6849H48.2402V58.655H48.2254V58.6101H48.2107V58.5653H48.196V58.5204H48.1812V58.4755H48.1665V58.4307H48.1518V58.4008H48.137V58.3559H48.1223V58.311H48.1075V58.2662H48.0928V58.2213H48.0781V58.1764H48.0633V58.1166H48.0486V58.0717H48.0339V58.0269H48.0191V57.967H48.0044V57.9222H47.9896V57.8773H47.9749V57.8175H47.9602V57.7726H47.9454V57.7277H47.9307V57.6829H47.9159V57.623H47.9012V57.5782H47.8865V57.5333H47.8717V57.4735H47.857V57.4137H47.8423V57.3538H47.8275V57.294H47.8128V57.2342H47.798V57.1744H47.7833V57.1145H47.7686V57.0547H47.7538V56.9949H47.7391V56.9351H47.7243V56.8752H47.7096V56.8154H47.6949V56.7556H47.6801V56.6808H47.6654V56.606H47.6507V56.5313H47.6359V56.4565H47.6212V56.3966H47.6064V56.3219H47.5917V56.2471H47.577V56.1723H47.5622V56.0975H47.5475V56.0227H47.5327V55.933H47.518V55.8433H47.5033V55.7386H47.4885V55.6488H47.4738V55.5591H47.4591V55.4544H47.4443V55.3647H47.4296V55.2749H47.4148V55.1553H47.4001V55.0207H47.3854V54.8861H47.3706V54.7515H47.3559V54.6169H47.3412V54.4823H47.3264V54.2878H47.3117V54.0635H47.2969V53.8392H47.2822V53.5699H47.2675V53.0614H47.2527V52.6128H47.2675V52.0295H47.2822V51.7752H47.2969V51.506H47.3117V51.2667H47.3264V51.1172H47.3412V50.9526H47.3559V50.8031H47.3706V50.6386H47.3854V50.504H47.4001V50.3993H47.4148V50.2796H47.4296V50.1749H47.4443V50.0553H47.4591V49.9506H47.4738V49.8309H47.4885V49.7561H47.5033V49.6664H47.518V49.5767H47.5327V49.4869H47.5475V49.4122H47.5622V49.3224H47.577V49.2327H47.5917V49.143H47.6064V49.0682H47.6212V49.0083H47.6359V48.9336H47.6507V48.8588H47.6654V48.799H47.6801V48.7242H47.6949V48.6494H47.7096V48.5896H47.7243V48.5148H47.7391V48.44H47.7538V48.3802H47.7686V48.3204H47.7833V48.2605H47.798V48.2007H47.8128V48.1409H47.8275V48.0811H47.8423V48.0362H47.857V47.9764H47.8717V47.9166H47.8865V47.8567H47.9012V47.7969H47.9159V47.7371H47.9307V47.6922H47.9454V47.6324H47.9602V47.5875H47.9749V47.5426H47.9896V47.4828H48.0044V47.438H48.0191V47.3781H48.0339V47.3333H48.0486V47.2884H48.0633V47.2286H48.0781V47.1837H48.0928V47.1388H48.1075V47.079H48.1223V47.0341H48.137V46.9893H48.1518V46.9444H48.1665V46.8995H48.1812V46.8547H48.196V46.8248H48.2107V46.7799H48.2254V46.735H48.2402V46.6902H48.2549V46.6453H48.2697V46.6004H48.2844V46.5556H48.2991V46.5107H48.3139V46.4658H48.3286V46.4209H48.3434V46.3761H48.3581V46.3462H48.3728V46.3013H48.3876V46.2714H48.4023V46.2265H48.417V46.1816H48.4318V46.1517H48.4465V46.1069H48.4613V46.077H48.476V46.0321H48.4907V45.9872H48.5055V45.9573H48.5202V45.9124H48.535V45.8825H48.5497V45.8377H48.5644V45.8077H48.5792V45.7629H48.5939V45.733H48.6086V45.6881H48.6234V45.6582H48.6381V45.6283H48.6529V45.5834H48.6676V45.5535H48.6823V45.5236H48.6971V45.4787H48.7118V45.4488H48.7265V45.4189H48.7413V45.389H48.756V45.3441H48.7708V45.3142H48.7855V45.2843H48.8002V45.2394H48.815V45.2095H48.8297V45.1796H48.8445V45.1347H48.8592V45.1048H48.8739V45.0749H48.8887V45.045H48.9034V45.0151H48.9181V44.9852H48.9329V44.9552H48.9476V44.9253H48.9624V44.8954H48.9771V44.8655H48.9918V44.8356H49.0066V44.7907H49.0213V44.7608H49.0361V44.7309H49.0508V44.701H49.0655V44.6711H49.0803V44.6412H49.095V44.6113H49.1097V44.5813H49.1245V44.5514H49.1392V44.5215H49.154V44.4916H49.1687V44.4617H49.1834V44.4318H49.1982V44.4019H49.2129V44.372H49.2277V44.357H49.2424V44.3271H49.2571V44.2972H49.2719V44.2673H49.2866V44.2374H49.3013V44.2074H49.3161V44.1775H49.3308V44.1476H49.3456V44.1177H49.3603V44.1028H49.375V44.0728H49.3898V44.0429H49.4045V44.013H49.4192V43.9831H49.434V43.9532H49.4487V43.9233H49.4635V43.9083H49.4782V43.8784H49.4929V43.8485H49.5077V43.8335H49.5224V43.8036H49.5372V43.7737H49.5519V43.7438H49.5666V43.7289H49.5814V43.6989H49.5961V43.669H49.6108V43.6541H49.6256V43.6242H49.6403V43.5942H49.6551V43.5643H49.6698V43.5494H49.6845V43.5195H49.6993V43.4896H49.714V43.4746H49.7288V43.4447H49.7435V43.4148H49.7582V43.3849H49.773V43.3699H49.7877V43.34H49.8024V43.325H49.8172V43.2951H49.8319V43.2652H49.8467V43.2503H49.8614V43.2203H49.8761V43.2054H49.8909V43.1755H49.9056V43.1605H49.9204V43.1306H49.9351V43.1007H49.9498V43.0857H49.9646V43.0558H49.9793V43.0409H49.994V43.011H50.0088V42.996H50.0235V42.9661H50.0383V42.9362H50.053V42.9212H50.0677V42.8913H50.0825V42.8764H50.0972V42.8464H50.1119V42.8315H50.1267V42.8016H50.1414V42.7866H50.1562V42.7567H50.1709V42.7418H50.1856V42.7118H50.2004V42.6969H50.2151V42.667H50.2299V42.652H50.2446V42.6371H50.2593V42.6071H50.2741V42.5922H50.2888V42.5623H50.3035V42.5473H50.3183V42.5174H50.333V42.5025H50.3478V42.4875H50.3625V42.4576H50.3772V42.4426H50.392V42.4127H50.4067V42.3978H50.4215V42.3678H50.4362V42.3529H50.4509V42.3379H50.4657V42.308H50.4804V42.2931H50.4951V42.2632H50.5099V42.2482H50.5246V42.2332H50.5394V42.2033H50.5541V42.1884H50.5688V42.1734H50.5836V42.1435H50.5983V42.1286H50.6131V42.1136H50.6278V42.0837H50.6425V42.0687H50.6573V42.0538H50.672V42.0239H50.6867V42.0089H50.7015V41.9939H50.7162V41.964H50.731V41.9491H50.7457V41.9341H50.7604V41.9192H50.7752V41.8893H50.7899V41.8743H50.8046V41.8593H50.8194V41.8294H50.8341V41.8145H50.8489V41.7995H50.8636V41.7696H50.8783V41.7547H50.8931V41.7397H50.9078V41.7247H50.9226V41.6948H50.9373V41.6799H50.952V41.6649H50.9668V41.65H50.9815V41.62H50.9962V41.6051H51.011V41.5901H51.0257V41.5752H51.0405V41.5602H51.0552V41.5303H51.0699V41.5154H51.0847V41.5004H51.0994V41.4854H51.1142V41.4705H51.1289V41.4406H51.1436V41.4256H51.1584V41.4107H51.1731V41.3957H51.1878V41.3807H51.2026V41.3508H51.2173V41.3359H51.2321V41.3209H51.2468V41.306H51.2615V41.2761H51.2763V41.2611H51.291V41.2461H51.3057V41.2312H51.3205V41.2162H51.3352V41.2013H51.35V41.1863H51.3647V41.1564H51.3794V41.1415H51.3942V41.1265H51.4089V41.1115H51.4237V41.0966H51.4384V41.0816H51.4531V41.0667H51.4679V41.0517H51.4826V41.0368H51.4973V41.0069H51.5121V40.9919H51.5268V40.9769H51.5416V40.962H51.5563V40.947H51.571V40.9321H51.5858V40.9171H51.6005V40.9022H51.6152V40.8722H51.63V40.8573H51.6447V40.8423H51.6595V40.8274H51.6742V40.8124H51.6889V40.7975H51.7037V40.7825H51.7184V40.7675H51.7332V40.7526H51.7479V40.7376H51.7626V40.7227H51.7774V40.7077H51.7921V40.6778H51.8068V40.6629H51.8216V40.6479H51.8363V40.6329H51.8511V40.618H51.8658V40.603H51.8805V40.5881H51.8953V40.5731H51.91V40.5582H51.9248V40.5432H51.9395V40.5283H51.9542V40.5133H51.969V40.4983H51.9837V40.4834H51.9984V40.4684H52.0132V40.4535H52.0279V40.4385H52.0427V40.4236H52.0574V40.4086H52.0721V40.3936H52.0869V40.3787H52.1016V40.3637H52.1164V40.3488H52.1311V40.3338H52.1458V40.3189H52.1606V40.3039H52.1753V40.289H52.19V40.274H52.2048V40.259H52.2195V40.2441H52.2343V40.2291H52.249V40.2142H52.2637V40.1992H52.2785V40.1843H52.2932V40.1693H52.3079V40.1544H52.3227V40.1394H52.3374V40.1244H52.3522V40.1095H52.3816V40.0945H52.3964V40.0796H52.4111V40.0646H52.4259V40.0497H52.4406V40.0347H52.4553V40.0197H52.4701V40.0048H52.4848V39.9898H52.4995V39.9749H52.5143V39.9599H52.529V39.945H52.5438V39.93H52.5585V39.9151H52.5732V39.9001H52.588V39.8851H52.6027V39.8702H52.6175V39.8552H52.6322V39.8403H52.6617V39.8253H52.6764V39.8104H52.6911V39.7954H52.7059V39.7805H52.7206V39.7655H52.7354V39.7505H52.7501V39.7356H52.7796V39.7206H52.7943V39.7057H52.8091V39.6907H52.8238V39.6758H52.8385V39.6608H52.8533V39.6458H52.8827V39.6309H52.8975V39.6159H52.9122V39.601H52.927V39.586H52.9417V39.5711H52.9564V39.5561H52.9712V39.5412H53.0006V39.5262H53.0154V39.5112H53.0301V39.4963H53.0449V39.4813H53.0596V39.4664H53.0743V39.4514H53.0891V39.4365H53.1186V39.4215H53.1333V39.4065H53.148V39.3916H53.1628V39.3766H53.1922V39.3617H53.207V39.3467H53.2217V39.3318H53.2365V39.3168H53.2659V39.3019H53.2807V39.2869H53.2954V39.2719H53.3102V39.257H53.3396V39.242H53.3544V39.2271H53.3691V39.2121H53.3838V39.1972H53.4133V39.1822H53.4281V39.1672H53.4428V39.1523H53.4575V39.1373H53.487V39.1224H53.5018V39.1074H53.5165V39.0925H53.5312V39.0775H53.5607V39.0626H53.5754V39.0476H53.5902V39.0326H53.6049V39.0177H53.6344V39.0027H53.6491V38.9878H53.6639V38.9728H53.6933V38.9579H53.7081V38.9429H53.7228V38.928H53.7523V38.913H53.767V38.898H53.7818V38.8831H53.8113V38.8681H53.826V38.8532H53.8555V38.8382H53.8702V38.8233H53.8849V38.8083H53.9144V38.7934H53.9292V38.7784H53.9439V38.7634H53.9734V38.7485H53.9881V38.7335H54.0029V38.7186H54.0323V38.7036H54.0471V38.6887H54.0765V38.6737H54.0913V38.6587H54.106V38.6438H54.1355V38.6288H54.1502V38.6139H54.1797V38.5989H54.1945V38.584H54.2239V38.569H54.2387V38.5541H54.2534V38.5391H54.2829V38.5241H54.2976V38.5092H54.3271V38.4942H54.3418V38.4793H54.3713V38.4643H54.386V38.4494H54.4155V38.4344H54.4303V38.4194H54.4597V38.4045H54.4745V38.3895H54.504V38.3746H54.5187V38.3596H54.5482V38.3447H54.5629V38.3297H54.5924V38.3148H54.6071V38.2998H54.6366V38.2848H54.6513V38.2699H54.6808V38.2549H54.6956V38.24H54.725V38.225H54.7545V38.2101H54.7692V38.1951H54.7987V38.1801H54.8282V38.1652H54.8429V38.1502H54.8724V38.1353H54.9019V38.1203H54.9166V38.1054H54.9461V38.0904H54.9608V38.0755H54.9903V38.0605H55.0198V38.0455H55.0345V38.0306H55.064V38.0156H55.0935V38.0007H55.1082V37.9857H55.1377V37.9708H55.1524V37.9558H55.1819V37.9409H55.2114V37.9259H55.2409V37.9109H55.2556V37.896H55.2851V37.881H55.3146V37.8661H55.344V37.8511H55.3735V37.8362H55.3882V37.8212H55.4177V37.8062H55.4472V37.7913H55.4767V37.7763H55.4914V37.7614H55.5209V37.7464H55.5504V37.7315H55.5798V37.7165H55.6093V37.7016H55.6241V37.6866H55.6535V37.6716H55.683V37.6567H55.7125V37.6417H55.742V37.6268H55.7567V37.6118H55.7862V37.5969H55.8157V37.5819H55.8451V37.567H55.8746V37.552H55.9041V37.537H55.9336V37.5221H55.963V37.5071H55.9925V37.4922H56.022V37.4772H56.0515V37.4623H56.0809V37.4473H56.1104V37.4323H56.1399V37.4174H56.1694V37.4024H56.1989V37.3875H56.2283V37.3725H56.2578V37.3576H56.2873V37.3426H56.3168V37.3277H56.3462V37.3127H56.3905V37.2977H56.4199V37.2828H56.4494V37.2678H56.4789V37.2529H56.5084V37.2379H56.5526V37.223H56.582V37.208H56.6115V37.1931H56.641V37.1781H56.6705V37.1631H56.7147V37.1482H56.7442V37.1332H56.7736V37.1183H56.8031V37.1033H56.8473V37.0884H56.8768V37.0734H56.9063V37.0584H56.9358V37.0435H56.98V37.0285H57.0095V37.0136H57.0537V36.9986H57.0832V36.9837H57.1274V36.9687H57.1568V36.9538H57.2011V36.9388H57.2305V36.9238H57.2747V36.9089H57.3042V36.8939H57.3484V36.879H57.3779V36.864H57.4221V36.8491H57.4516V36.8341H57.4958V36.8191H57.5253V36.8042H57.5695V36.7892H57.6137V36.7743H57.6579V36.7593H57.7022V36.7444H57.7464V36.7294H57.7758V36.7145H57.8201V36.6995H57.8643V36.6845H57.9085V36.6696H57.9527V36.6546H57.9822V36.6397H58.0264V36.6247H58.0706V36.6098H58.1148V36.5948H58.159V36.5799H58.2033V36.5649H58.2622V36.5499H58.3064V36.535H58.3506V36.52H58.3949V36.5051H58.4391V36.4901H58.4833V36.4752H58.5422V36.4602H58.5865V36.4452H58.6307V36.4303H58.6896V36.4153H58.7338V36.4004H58.7928V36.3854H58.8517V36.3705H58.9107V36.3555H58.9696V36.3406H59.0286V36.3256H59.0728V36.3106H59.1318V36.2957H59.1907V36.2807H59.2497V36.2658H59.3086V36.2508H59.3676V36.2359H59.4118V36.2508H59.4413V36.2359H59.515V36.2209H59.5887V36.2059H59.6918V36.191H59.7803V36.176H59.8687V36.1611H59.9571V36.1461H60.0603V36.1312H60.1634V36.1162H60.3108V36.1013H60.4582V36.0863H60.5909V36.0713H60.7382V36.0564H60.9004V36.0414H61.2836V36.0265H62.2858V36.0414H62.6247V36.0564H62.8016V36.0713H62.9785V36.0863H63.1553V36.1013H63.3322V36.1162H63.4501V36.1312H63.5533V36.1461H63.6564V36.1611H63.7596V36.176H63.8628V36.191H63.9807V36.2059H64.0838V36.2209H64.187V36.2359H64.2754V36.2508H64.3491V36.2658H64.4228V36.2807H64.4965V36.2957H64.5702V36.3106H64.6439V36.3256H64.7176V36.3406H64.7913V36.3555H64.865V36.3705H64.9386V36.3854H65.0123V36.4004H65.086V36.4153H65.145V36.4303H65.2039V36.4452H65.2629V36.4602H65.3366V36.4752H65.3955V36.4901H65.4545V36.5051H65.5134V36.52H65.5724V36.535H65.6313V36.5499H65.6903V36.5649H65.7493V36.5799H65.8082V36.5948H65.8524V36.6098H65.9114V36.6247H65.9556V36.6397H66.0145V36.6546H66.0588V36.6696H66.1177V36.6845H66.1619V36.6995H66.2061V36.7145H66.2504V36.7294H66.3093V36.7444H66.3535V36.7593H66.3977V36.7743H66.442V36.7892H66.5009V36.8042H66.5451V36.8191H66.5893V36.8341H66.6335V36.8491H66.6778V36.864H66.722V36.879H66.7662V36.8939H66.8104V36.9089H66.8399V36.9238H66.8841V36.9388H66.9283V36.9538H66.9725V36.9687H67.0167V36.9837H67.061V36.9986H67.0904V37.0136H67.1347V37.0285H67.1789V37.0435H67.2083V37.0584H67.2526V37.0734H67.2968V37.0884H67.341V37.1033H67.3705V37.1183H67.4147V37.1332H67.4442V37.1482H67.4884V37.1631H67.5178V37.1781H67.5621V37.1931H67.5915V37.208H67.6358V37.223H67.6652V37.2379H67.7094V37.2529H67.7389V37.2678H67.7831V37.2828H67.8126V37.2977H67.8568V37.3127H67.8863V37.3277H67.9158V37.3426H67.9453V37.3576H67.9895V37.3725H68.0189V37.3875H68.0484V37.4024H68.0926V37.4174H68.1221V37.4323H68.1516V37.4473H68.1958V37.4623H68.2253V37.4772H68.2548V37.4922H68.2842V37.5071H68.3137V37.5221H68.3432V37.537H68.3874V37.552H68.4169V37.567H68.4464V37.5819H68.4758V37.5969H68.5053V37.6118H68.5348V37.6268H68.5643V37.6417H68.5937V37.6567H68.6232V37.6716H68.6674V37.6866H68.6969V37.7016H68.7116V37.7165H68.7411V37.7315H68.7706V37.7464H68.8001V37.7614H68.8296V37.7763H68.859V37.7913H68.8885V37.8062H68.918V37.8212H68.9475V37.8362H68.9769V37.8511H69.0064V37.8661H69.0359V37.881H69.0654V37.896H69.0948V37.9109H69.1243V37.9259H69.1391V37.9409H69.1685V37.9558H69.198V37.9708H69.2275V37.9857H69.257V38.0007H69.2717V38.0156H69.3012V38.0306H69.3307V38.0455H69.3601V38.0605H69.3896V38.0755H69.4191V38.0904H69.4338V38.1054H69.4633V38.1203H69.4928V38.1353H69.5223V38.1502H69.537V38.1652H69.5665V38.1801H69.5959V38.1951H69.6107V38.2101H69.6402V38.225H69.6696V38.24H69.6844V38.2549H69.7138V38.2699H69.7433V38.2848H69.7581V38.2998H69.7875V38.3148H69.817V38.3297H69.8318V38.3447H69.8612V38.3596H69.8907V38.3746H69.9054V38.3895H69.9349V38.4045H69.9497V38.4194H69.9791V38.4344H69.9939V38.4494H70.0234V38.4643H70.0528V38.4793H70.0676V38.4942H70.097V38.5092H70.1118V38.5241H70.1413V38.5391H70.156V38.5541H70.1855V38.569H70.2002V38.584H70.2297V38.5989H70.2444V38.6139H70.2739V38.6288H70.2886V38.6438H70.3181V38.6587H70.3329V38.6737H70.3623V38.6887H70.3771V38.7036H70.4065V38.7186H70.4213V38.7335H70.4508V38.7485H70.4655V38.7634H70.4802V38.7784H70.5097V38.7934H70.5245V38.8083H70.5539V38.8233H70.5687V38.8382H70.5981V38.8532H70.6129V38.8681H70.6276V38.8831H70.6571V38.898H70.6718V38.913H70.6866V38.928H70.716V38.9429H70.7308V38.9579H70.7455V38.9728H70.775V38.9878H70.7897V39.0027H70.8045V39.0177H70.834V39.0326H70.8487V39.0476H70.8782V39.0626H70.8929V39.0775H70.9076V39.0925H70.9224V39.1074H70.9519V39.1224H70.9666V39.1373H70.9813V39.1523H70.9961V39.1672H71.0256V39.1822H71.0403V39.1972H71.055V39.2121H71.0698V39.2271H71.0992V39.242H71.114V39.257H71.1287V39.2719H71.1435V39.2869H71.1729V39.3019H71.1877V39.3168H71.2024V39.3318H71.2172V39.3467H71.2466V39.3617H71.2614V39.3766H71.2761V39.3916H71.2908V39.4065H71.3056V39.4215H71.3203V39.4365H71.3498V39.4514H71.3645V39.4664H71.3793V39.4813H71.394V39.4963H71.4087V39.5112H71.4235V39.5262H71.453V39.5412H71.4677V39.5561H71.4824V39.5711H71.4972V39.586H71.5119V39.601H71.5267V39.6159H71.5414V39.6309H71.5561V39.6458H71.5856V39.6608H71.6003V39.6758H71.6151V39.6907H71.6298V39.7057H71.6446V39.7206H71.6593V39.7356H71.674V39.7505H71.6888V39.7655H71.7035V39.7805H71.7183V39.7954H71.733V39.8104H71.7625V39.8253H71.7772V39.8403H71.7919V39.8552H71.8067V39.8702H71.8214V39.8851H71.8362V39.9001H71.8509V39.9151H71.8656V39.93H71.8804V39.945H71.8951V39.9599H71.9099V39.9749H71.9246V39.9898H71.9393V40.0048H71.9541V40.0197H71.9688V40.0347H71.9835V40.0497H71.9983V40.0646H72.013V40.0796H72.0278V40.0945H72.0425V40.1095H72.0572V40.0945H72.072V40.1095H72.0867V40.1244H72.1015V40.1394H72.1162V40.1693H72.1309V40.1843H72.1457V40.1992H72.1604V40.2142H72.1751V40.2291H72.1899V40.259H72.2046V40.274H72.2194V40.289H72.2341V40.3039H72.2488V40.3338H72.2636V40.3488H72.2783V40.3637H72.293V40.3787H72.3078V40.3936H72.3225V40.4236H72.3373V40.4385H72.352V40.4535H72.3667V40.4684H72.3815V40.4834H72.3962V40.5133H72.411V40.5283H72.4257V40.5432H72.4404V40.5582H72.4552V40.5731H72.4699V40.5881H72.4846V40.618H72.4994V40.6329H72.5141V40.6479H72.5289V40.6629H72.5436V40.6928H72.5583V40.7077H72.5731V40.7227H72.5878V40.7376H72.6025V40.7675H72.6173V40.7825H72.632V40.7975H72.6468V40.8274H72.6615V40.8423H72.6762V40.8573H72.691V40.8722H72.7057V40.9022H72.7205V40.9171H72.7352V40.947H72.7499V40.962H72.7647V40.9919H72.7794V41.0069H72.7941V41.0218H72.8089V41.0517H72.8236V41.0667H72.8384V41.0966H72.8531V41.1115H72.8678V41.1415H72.8826V41.1564H72.8973V41.1714H72.9121V41.2013H72.9268V41.2162H72.9415V41.2461H72.9563V41.2611H72.971V41.291H72.9857V41.3209H73.0005V41.3359H73.0152V41.3658H73.03V41.3957H73.0447V41.4107H73.0594V41.4406H73.0742V41.4705H73.0889V41.4854H73.1037V41.5154H73.1184V41.5453H73.1331V41.5602H73.1479V41.5901H73.1626V41.62H73.1773V41.635H73.1921V41.6649H73.2068V41.6948H73.2216V41.7247H73.2363V41.7547H73.251V41.7846H73.2658V41.8145H73.2805V41.8444H73.2953V41.8743H73.31V41.9042H73.3247V41.9341H73.3395V41.9491H73.3542V41.979H73.3689V42.0239H73.3837V42.0538H73.3984V42.0837H73.4131V42.0538H73.4279V42.0089H73.4426V41.964H73.4574V41.9341H73.4721V41.9042H73.4868V41.8593H73.5016V41.8294H73.5163V41.7995H73.5311V41.7696H73.5458V41.7247H73.5605V41.6948H73.5753V41.6649H73.59V41.62H73.6047V41.5901H73.6195V41.5602H73.6342V41.5303H73.649V41.5004H73.6637V41.4705H73.6784V41.4406H73.6932V41.4107H73.7079V41.3807H73.7227V41.3508H73.7374V41.3209H73.7521V41.306H73.7669V41.2761H73.7816V41.2461H73.7963V41.2162H73.8111V41.1863H73.8258V41.1564H73.8406V41.1265H73.8553V41.0966H73.87V41.0667H73.8848V41.0368H73.8995V41.0218H73.9143V40.9919H73.929V40.962H73.9437V40.947H73.9585V40.9171H73.9732V40.9022H73.9879V40.8722H74.0027V40.8573H74.0174V40.8274H74.0322V40.7975H74.0469V40.7825H74.0616V40.7526H74.0764V40.7376H74.0911V40.7077H74.1059V40.6778H74.1206V40.6629H74.1353V40.6329H74.1501V40.618H74.1648V40.5881H74.1795V40.5582H74.1943V40.5432H74.209V40.5133H74.2238V40.4983H74.2385V40.4834H74.2532V40.4535H74.268V40.4385H74.2827V40.4236H74.2974V40.3936H74.3122V40.3787H74.3269V40.3637H74.3417V40.3338H74.3564V40.3189H74.3711V40.3039H74.3859V40.274H74.4006V40.259H74.4154V40.2441H74.4301V40.2142H74.4448V40.1992H74.4596V40.1843H74.4743V40.1544H74.489V40.1394H74.5038V40.1244H74.5185V40.0945H74.5333V40.0796H74.548V40.0646H74.5627V40.0347H74.5775V40.0197H74.5922V40.0048H74.607V39.9898H74.6217V39.9749H74.6364V39.9599H74.6512V39.945H74.6659V39.9151H74.6806V39.9001H74.6954V39.8851H74.7101V39.8702H74.7249V39.8552H74.7396V39.8403H74.7543V39.8253H74.7691V39.7954H74.7838V39.7805H74.7986V39.7655H74.8133V39.7505H74.828V39.7356H74.8428V39.7206H74.8575V39.7057H74.8722V39.6758H74.887V39.6608H74.9017V39.6458H74.9165V39.6309H74.9312V39.6159H74.9459V39.601H74.9607V39.586H74.9754V39.5711H74.9901V39.5561H75.0049V39.5412H75.0196V39.5262H75.0344V39.5112H75.0491V39.4963H75.0638V39.4813H75.0786V39.4664H75.0933V39.4514H75.1081V39.4365H75.1228V39.4215H75.1375V39.4065H75.1523V39.3916H75.167V39.3766H75.1817V39.3617H75.1965V39.3467H75.2112V39.3318H75.226V39.3168H75.2407V39.3019H75.2554V39.2869H75.2702V39.2719H75.2849V39.257H75.2997V39.242H75.3144V39.2271H75.3291V39.2121H75.3439V39.1972H75.3586V39.1822H75.3733V39.1672H75.3881V39.1523H75.4028V39.1373H75.4323V39.1224H75.447V39.1074H75.4618V39.0925H75.4765V39.0775H75.4912V39.0626H75.5207V39.0476H75.5355V39.0326H75.5502V39.0177H75.5649V39.0027H75.5797V38.9878H75.5944V38.9728H75.6239V38.9579H75.6386V38.9429H75.6534V38.928H75.6681V38.913H75.6828V38.898H75.6976V38.8831H75.7271V38.8681H75.7418V38.8532H75.7565V38.8382H75.7713V38.8233H75.786V38.8083H75.8155V38.7934H75.8302V38.7784H75.845V38.7634H75.8597V38.7485H75.8744V38.7335H75.9039V38.7186H75.9187V38.7036H75.9481V38.6887H75.9629V38.6737H75.9776V38.6587H76.0071V38.6438H76.0218V38.6288H76.0366V38.6139H76.066V38.5989H76.0808V38.584H76.0955V38.569H76.125V38.5541H76.1397V38.5391H76.1692V38.5241H76.184V38.5092H76.1987V38.4942H76.2282V38.4793H76.2429V38.4643H76.2576V38.4494H76.2871V38.4344H76.3019V38.4194H76.3166V38.4045H76.3461V38.3895H76.3608V38.3746H76.3903V38.3596H76.405V38.3447H76.4345V38.3297H76.4492V38.3148H76.4787V38.2998H76.5082V38.2848H76.5229V38.2699H76.5524V38.2549H76.5671V38.24H76.5966V38.225H76.6261V38.2101H76.6408V38.1951H76.6703V38.1801H76.685V38.1652H76.7145V38.1502H76.7293V38.1353H76.7587V38.1203H76.7882V38.1054H76.803V38.0904H76.8324V38.0755H76.8472V38.0605H76.8766V38.0455H76.9061V38.0306H76.9209V38.0156H76.9503V38.0007H76.9798V37.9857H77.0093V37.9708H77.0388V37.9558H77.0682V37.9409H77.0977V37.9259H77.1125V37.9109H77.1419V37.896H77.1714V37.881H77.2009V37.8661H77.2304V37.8511H77.2598V37.8362H77.2746V37.8212H77.3041V37.8062H77.3335V37.7913H77.363V37.7763H77.3925V37.7614H77.422V37.7464H77.4514V37.7315H77.4809V37.7165H77.5104V37.7016H77.5399V37.6866H77.5693V37.6716H77.5988V37.6567H77.6283V37.6417H77.6725V37.6268H77.702V37.6118H77.7315V37.5969H77.7609V37.5819H77.7904V37.567H77.8346V37.552H77.8641V37.537H77.8936V37.5221H77.9231V37.5071H77.9525V37.4922H77.982V37.4772H78.0262V37.4623H78.0557V37.4473H78.0999V37.4323H78.1294V37.4174H78.1736V37.4024H78.2031V37.3875H78.2473V37.3725H78.2915V37.3576H78.321V37.3426H78.3652V37.3277H78.4094V37.3127H78.4389V37.2977H78.4831V37.2828H78.5126V37.2678H78.5568V37.2529H78.601V37.2379H78.6305V37.223H78.6747V37.208H78.7189V37.1931H78.7779V37.1781H78.8221V37.1631H78.8663V37.1482H78.9105V37.1332H78.9695V37.1183H79.0137V37.1033H79.0579V37.0884H79.1021V37.0734H79.1611V37.0584H79.2053V37.0435H79.2495V37.0285H79.2937V37.0136H79.3527V36.9986H79.4264V36.9837H79.4853V36.9687H79.5443V36.9538H79.6032V36.9388H79.6622V36.9238H79.7359V36.9089H79.7948V36.8939H79.8538V36.879H79.9127V36.864H79.9864V36.8491H80.0749V36.8341H80.1485V36.8191H80.237V36.8042H80.3254V36.7892H80.4138V36.7743H80.5023V36.7593H80.5907V36.7444H80.6791V36.7294H80.8118V36.7145H80.9297V36.6995H81.0623V36.6845H81.2097V36.6696H81.5487V36.7743H81.5339V37.5969H81.5192V39.1074H81.5045V40.6329H81.4897V64.802H81.475V65.6096H81.4603V65.9835H81.4455V66.3424H81.4308V66.6715H81.416V66.8809H81.4013V67.0902H81.3866V67.2996H81.3718V67.524H81.3571V67.6885H81.3423V67.838H81.3276V67.9876H81.3129V68.1222H81.2981V68.2718H81.2834V68.4213H81.2686V68.5709H81.2539V68.6756H81.2392V68.7803H81.2244V68.8999H81.2097V69.0046H81.195V69.1093H81.1802V69.214H81.1655V69.3336H81.1507V69.4383H81.136V69.543H81.1213V69.6178H81.1065V69.7075H81.0918V69.7973H81.0771V69.8721H81.0623V69.9618H81.0476V70.0515H81.0328V70.1263H81.0181V70.2161H81.0034V70.3058H80.9886V70.3955H80.9739V70.4703H80.9591V70.5301H80.9444V70.6049H80.9297V70.6647H80.9149V70.7395H80.9002V70.8143H80.8855V70.8741H80.8707V70.9489H80.856V71.0087H80.8412V71.0835H80.8265V71.1583H80.8118V71.2181H80.797V71.2929H80.7823V71.3527H80.7675V71.4125H80.7528V71.4574H80.7381V71.5172H80.7233V71.5771H80.7086V71.6369H80.6939V71.6967H80.6791V71.7416H80.6644V71.8014H80.6496V71.8612H80.6349V71.921H80.6202V71.9659H80.6054V72.0257H80.5907V72.0856H80.576V72.1454H80.5612V72.1903H80.5465V72.2351H80.5317V72.2949H80.517V72.3398H80.5023V72.3847H80.4875V72.4296H80.4728V72.4744H80.458V72.5342H80.4433V72.5791H80.4286V72.624H80.4138V72.6689H80.3991V72.7137H80.3844V72.7586H80.3696V72.8184H80.3549V72.8633H80.3401V72.9081H80.3254V72.953H80.3107V72.9979H80.2959V73.0428H80.2812V73.0876H80.2665V73.1175H80.2517V73.1624H80.237V73.2073H80.2222V73.2372H80.2075V73.282H80.1928V73.3269H80.178V73.3718H80.1633V73.4017H80.1485V73.4466H80.1338V73.4914H80.1191V73.5213H80.1043V73.5662H80.0896V73.6111H80.0749V73.641H80.0601V73.6859H80.0454V73.7307H80.0306V73.7756H80.0159V73.8055H80.0012V73.8354H79.9864V73.8803H79.9717V73.9102H79.9569V73.9401H79.9422V73.985H79.9275V74.0149H79.9127V74.0448H79.898V74.0897H79.8833V74.1196H79.8685V74.1495H79.8538V74.1794H79.839V74.2243H79.8243V74.2542H79.8096V74.2841H79.7948V74.329H79.7801V74.3589H79.7653V74.3888H79.7506V74.4337H79.7359V74.4636H79.7211V74.4935H79.7064V74.5384H79.6917V74.5683H79.6769V74.5982H79.6622V74.6281H79.6474V74.658H79.6327V74.6879H79.618V74.7178H79.6032V74.7477H79.5885V74.7777H79.5738V74.8076H79.559V74.8375H79.5443V74.8674H79.5295V74.8973H79.5148V74.9272H79.5001V74.9571H79.4853V74.987H79.4706V75.017H79.4558V75.0469H79.4411V75.0768H79.4264V75.1067H79.4116V75.1366H79.3969V75.1665H79.3822V75.1964H79.3674V75.2263H79.3527V75.2563H79.3379V75.2862H79.3232V75.3011H79.3085V75.331H79.2937V75.3609H79.279V75.3909H79.2642V75.4058H79.2495V75.4357H79.2348V75.4656H79.22V75.4806H79.2053V75.5105H79.1906V75.5404H79.1758V75.5703H79.1611V75.5853H79.1463V75.6152H79.1316V75.6451H79.1169V75.675H79.1021V75.69H79.0874V75.7199H79.0727V75.7498H79.0579V75.7797H79.0432V75.7947H79.0284V75.8246H79.0137V75.8545H78.999V75.8844H78.9842V75.8994H78.9695V75.9293H78.9547V75.9592H78.94V75.9741H78.9253V76.0041H78.9105V76.019H78.8958V76.0489H78.8811V76.0639H78.8663V76.0938H78.8516V76.1087H78.8368V76.1387H78.8221V76.1536H78.8074V76.1835H78.7926V76.1985H78.7779V76.2284H78.7631V76.2434H78.7484V76.2733H78.7337V76.3032H78.7189V76.3181H78.7042V76.348H78.6895V76.363H78.6747V76.3929H78.66V76.4079H78.6452V76.4378H78.6305V76.4527H78.6158V76.4826H78.601V76.4976H78.5863V76.5275H78.5715V76.5425H78.5568V76.5724H78.5421V76.5873H78.5273V76.6173H78.5126V76.6322H78.4979V76.6472H78.4831V76.6771H78.4684V76.692H78.4536V76.707H78.4389V76.7369H78.4242V76.7519H78.4094V76.7668H78.3947V76.7967H78.38V76.8117H78.3652V76.8266H78.3505V76.8566H78.3357V76.8715H78.321V76.8865H78.3063V76.9164H78.2915V76.9313H78.2768V76.9463H78.262V76.9762H78.2473V76.9912H78.2326V77.0061H78.2178V77.036H78.2031V77.051H78.1884V77.0659H78.1736V77.0958H78.1589V77.1108H78.1441V77.1258H78.1294V77.1557H78.1147V77.1706H78.0999V77.1856H78.0852V77.2155H78.0704V77.2305H78.0557V77.2454H78.041V77.2604H78.0262V77.2753H78.0115V77.3052H77.9968V77.3202H77.982V77.3351H77.9673V77.3501H77.9525V77.3651H77.9378V77.38H77.9231V77.4099H77.9083V77.4249H77.8936V77.4398H77.8788V77.4548H77.8641V77.4697H77.8494V77.4847H77.8346V77.5146H77.8199V77.5296H77.8052V77.5445H77.7904V77.5595H77.7757V77.5744H77.7609V77.5894H77.7462V77.6193H77.7315V77.6343H77.7167V77.6492H77.702V77.6642H77.6873V77.6791H77.6725V77.6941H77.6578V77.709H77.643V77.739H77.6283V77.7539H77.6136V77.7689H77.5988V77.7838H77.5841V77.7988H77.5693V77.8137H77.5546V77.8437H77.5399V77.8586H77.5251V77.8736H77.5104V77.8885H77.4957V77.9035H77.4809V77.9184H77.4662V77.9334H77.4514V77.9483H77.4367V77.9633H77.422V77.9783H77.4072V77.9932H77.3925V78.0082H77.3778V78.0231H77.363V78.0381H77.3483V78.053H77.3335V78.068H77.3188V78.0829H77.3041V78.0979H77.2893V78.1129H77.2746V78.1278H77.2598V78.1428H77.2451V78.1577H77.2304V78.1727H77.2156V78.1876H77.2009V78.2026H77.1862V78.2176H77.1714V78.2325H77.1567V78.2475H77.1419V78.2624H77.1272V78.2774H77.1125V78.2923H77.0977V78.3073H77.083V78.3222H77.0682V78.3372H77.0535V78.3522H77.0388V78.3671H77.024V78.3821H77.0093V78.397H76.9946V78.412H76.9798V78.4269H76.9651V78.4419H76.9503V78.4569H76.9356V78.4718H76.9061V78.4868H76.8914V78.5017H76.8766V78.5167H76.8619V78.5316H76.8472V78.5466H76.8324V78.5615H76.8177V78.5765H76.803V78.5915H76.7735V78.6064H76.7587V78.6214H76.744V78.6363H76.7293V78.6513H76.7145V78.6662H76.6998V78.6812H76.685V78.6961H76.6703V78.7111H76.6556V78.7261H76.6261V78.741H76.6114V78.756H76.5966V78.7709H76.5819V78.7859H76.5671V78.8008H76.5524V78.8158H76.5377V78.8308H76.5229V78.8457H76.4935V78.8607H76.4787V78.8756H76.464V78.8906H76.4492V78.9055H76.4345V78.9205H76.4198V78.9354H76.3903V78.9504H76.3755V78.9654H76.3608V78.9803H76.3461V78.9953H76.3166V79.0102H76.3019V79.0252H76.2871V79.0401H76.2576V79.0551H76.2429V79.0701H76.2282V79.085H76.2134V79.1H76.184V79.1149H76.1692V79.1299H76.1545V79.1448H76.125V79.1598H76.1103V79.1747H76.0955V79.1897H76.0808V79.2047H76.0513V79.2196H76.0366V79.2346H76.0218V79.2495H75.9924V79.2645H75.9776V79.2794H75.9629V79.2944H75.9481V79.3093H75.9187V79.3243H75.9039V79.3393H75.8892V79.3542H75.8744V79.3692H75.845V79.3841H75.8302V79.3991H75.8155V79.414H75.786V79.429H75.7713V79.444H75.7418V79.4589H75.7271V79.4739H75.6976V79.4888H75.6828V79.5038H75.6534V79.5187H75.6386V79.5337H75.6092V79.5486H75.5944V79.5636H75.5649V79.5786H75.5502V79.5935H75.5207V79.6085H75.506V79.6234H75.4912V79.6384H75.4618V79.6533H75.447V79.6683H75.4176V79.6832H75.4028V79.6982H75.3733V79.7132H75.3586V79.7281H75.3291V79.7431H75.3144V79.758H75.2849V79.773H75.2702V79.7879H75.2407V79.8029H75.226V79.8179H75.1965V79.8328H75.1817V79.8478H75.167V79.8627H75.1375V79.8777H75.1081V79.8926H75.0786V79.9076H75.0638V79.9225H75.0344V79.9375H75.0049V79.9525H74.9901V79.9674H74.9607V79.9824H74.9312V79.9973H74.9165V80.0123H74.887V80.0272H74.8575V80.0422H74.8428V80.0572H74.8133V80.0721H74.7838V80.0871H74.7691V80.102H74.7396V80.117H74.7101V80.1319H74.6806V80.1469H74.6659V80.1618H74.6364V80.1768H74.607V80.1918H74.5922V80.2067H74.5627V80.2217H74.5333V80.2366H74.5185V80.2516H74.489V80.2665H74.4596V80.2815H74.4301V80.2964H74.4006V80.3114H74.3711V80.3264H74.3564V80.3413H74.3269V80.3563H74.2974V80.3712H74.268V80.3862H74.2385V80.4011H74.209V80.4161H74.1795V80.4311H74.1501V80.446H74.1206V80.461H74.0911V80.4759H74.0616V80.4909H74.0322V80.5058H74.0027V80.5208H73.9732V80.5357H73.9437V80.5507H73.9143V80.5657H73.8848V80.5806H73.8553V80.5956H73.8258V80.6105H73.7963V80.6255H73.7669V80.6404H73.7521V80.6554H73.7227V80.6703H73.6784V80.6853H73.649V80.7003H73.6195V80.7152H73.5753V80.7302H73.5458V80.7451H73.5163V80.7601H73.4868V80.775H73.4426V80.79H73.4131V80.805H73.3837V80.8199H73.3542V80.8349H73.31V80.8498H73.2805V80.8648H73.251V80.8797H73.2068V80.8947H73.1773V80.9096H73.1479V80.9246H73.1184V80.9396H73.0742V80.9545H73.0447V80.9695H73.0152V80.9844H72.9857V80.9994H72.9415V81.0143H72.9121V81.0293H72.8678V81.0443H72.8236V81.0592H72.7941V81.0742H72.7499V81.0891H72.7057V81.1041H72.6762V81.119H72.632V81.134H72.5878V81.1489H72.5583V81.1639H72.5141V81.1789H72.4699V81.1938H72.4404V81.2088H72.3962V81.2237H72.352V81.2387H72.3225V81.2536H72.2783V81.2686H72.2341V81.2835H72.2046V81.2985H72.1604V81.3135H72.1162V81.3284H72.072V81.3434H72.0278V81.3583H71.9835V81.3733H71.9393V81.3882H71.8951V81.4032H71.8509V81.4182H71.7919V81.4331H71.7477V81.4481H71.7035V81.463H71.6593V81.478H71.6151V81.4929H71.5709V81.5079H71.5119V81.5228H71.4677V81.5378H71.4235V81.5528H71.3793V81.5677H71.3351V81.5827H71.2761V81.5976H71.2319V81.6126H71.1877V81.6275H71.1287V81.6425H71.0698V81.6575H71.0108V81.6724H70.9519V81.6874H70.8929V81.7023H70.8487V81.7173H70.7897V81.7322H70.7308V81.7472H70.6718V81.7621H70.6129V81.7771H70.5539V81.7921H70.5097V81.807H70.4508V81.822H70.3918V81.8369H70.3329V81.8519H70.2739V81.8668H70.2002V81.8818H70.1265V81.8967H70.0528V81.9117H69.9939V81.9267H69.9202V81.9416H69.8465V81.9566H69.7728V81.9715H69.7138V81.9865H69.6402V82.0014H69.5665V82.0164H69.4928V82.0314H69.4338V82.0463H69.3601V82.0613H69.2717V82.0762H69.1833V82.0912H69.0948V82.1061H69.0064V82.1211H68.918V82.136H68.8296V82.151H68.7411V82.166H68.6527V82.1809H68.5643V82.1959H68.4758V82.2108H68.3727V82.2258H68.2695V82.2407H68.1516V82.2557H68.0337V82.2706H67.9158V82.2856H67.7979V82.3006H67.68V82.3155H67.5621V82.3305H67.4294V82.3454H67.3115V82.3604H67.1494V82.3753H66.9725V82.3903H66.8104V82.4053H66.6335V82.4202H66.4567V82.4352H66.2798V82.4501H66.044V82.4651H65.7493V82.48H65.4397V82.495H65.145V82.5099H64.5702V82.5249H63.1553ZM20.3701 68.2119V29.386H20.3849V29.2514H20.3996V29.1317H20.4143V29.027H20.4291V28.9373H20.4438V28.8326H20.4585V28.7578H20.4733V28.683H20.488V28.6083H20.5028V28.5335H20.5175V28.4737H20.5322V28.4138H20.547V28.354H20.5617V28.2942H20.5765V28.2344H20.5912V28.1745H20.6059V28.1297H20.6207V28.0848H20.6354V28.025H20.6501V27.9801H20.6649V27.9352H20.6796V27.8904H20.6944V27.8455H20.7091V27.8006H20.7238V27.7558H20.7386V27.7109H20.7533V27.666H20.7681V27.6361H20.7828V27.5912H20.7975V27.5464H20.8123V27.5015H20.827V27.4716H20.8417V27.4267H20.8565V27.3968H20.8712V27.3669H20.886V27.322H20.9007V27.2921H20.9154V27.2622H20.9302V27.2173H20.9449V27.1874H20.9596V27.1575H20.9744V27.1276H20.9891V27.0977H21.0039V27.0528H21.0186V27.0229H21.0333V26.993H21.0481V26.9631H21.0628V26.9332H21.0776V26.9033H21.0923V26.8734H21.107V26.8434H21.1218V26.8135H21.1365V26.7836H21.1512V26.7537H21.166V26.7388H21.1807V26.7088H21.1955V26.6789H21.2102V26.649H21.2249V26.6191H21.2397V26.5892H21.2544V26.5742H21.2692V26.5443H21.2839V26.5144H21.2986V26.4845H21.3134V26.4695H21.3281V26.4396H21.3428V26.4097H21.3576V26.3948H21.3723V26.3649H21.3871V26.3499H21.4018V26.32H21.4165V26.2901H21.4313V26.2751H21.446V26.2452H21.4607V26.2153H21.4755V26.2003H21.4902V26.1704H21.505V26.1555H21.5197V26.1256H21.5344V26.1106H21.5492V26.0807H21.5639V26.0657H21.5787V26.0358H21.5934V26.0209H21.6081V26.0059H21.6229V25.976H21.6376V25.961H21.6523V25.9311H21.6671V25.9162H21.6818V25.8863H21.6966V25.8713H21.7113V25.8563H21.726V25.8264H21.7408V25.8115H21.7555V25.7965H21.7703V25.7666H21.785V25.7517H21.7997V25.7367H21.8145V25.7068H21.8292V25.6918H21.8439V25.6769H21.8587V25.647H21.8734V25.632H21.8882V25.6171H21.9029V25.6021H21.9176V25.5722H21.9324V25.5572H21.9471V25.5423H21.9619V25.5273H21.9766V25.4974H21.9913V25.4824H22.0061V25.4675H22.0208V25.4525H22.0355V25.4376H22.0503V25.4077H22.065V25.3927H22.0798V25.3778H22.0945V25.3628H22.1092V25.3478H22.124V25.3179H22.1387V25.303H22.1534V25.288H22.1682V25.2731H22.1829V25.2581H22.1977V25.2431H22.2124V25.2282H22.2271V25.2132H22.2419V25.1983H22.2566V25.1684H22.2714V25.1534H22.2861V25.1385H22.3008V25.1235H22.3156V25.1085H22.3303V25.0936H22.345V25.0786H22.3598V25.0637H22.3745V25.0487H22.3893V25.0338H22.404V25.0188H22.4187V25.0038H22.4335V24.9889H22.4482V24.9739H22.463V24.959H22.4777V24.944H22.4924V24.9291H22.5072V24.9141H22.5219V24.8992H22.5366V24.8842H22.5514V24.8692H22.5661V24.8543H22.5809V24.8393H22.5956V24.8244H22.6103V24.8094H22.6251V24.7945H22.6398V24.7795H22.6545V24.7646H22.6693V24.7496H22.684V24.7346H22.6988V24.7197H22.7135V24.7047H22.7282V24.6898H22.743V24.6748H22.7577V24.6599H22.7725V24.6449H22.8019V24.63H22.8167V24.615H22.8314V24.6H22.8461V24.5851H22.8609V24.5701H22.8756V24.5552H22.8904V24.5402H22.9051V24.5253H22.9346V24.5103H22.9493V24.4953H22.9641V24.4804H22.9788V24.4654H22.9935V24.4505H23.0083V24.4355H23.0377V24.4206H23.0525V24.4056H23.0672V24.3907H23.082V24.3757H23.0967V24.3607H23.1114V24.3458H23.1409V24.3308H23.1557V24.3159H23.1704V24.3009H23.1999V24.286H23.2146V24.271H23.2293V24.256H23.2441V24.2411H23.2736V24.2261H23.2883V24.2112H23.303V24.1962H23.3178V24.1813H23.3472V24.1663H23.362V24.1514H23.3767V24.1364H23.4062V24.1214H23.4209V24.1065H23.4357V24.0915H23.4652V24.0766H23.4799V24.0616H23.5094V24.0467H23.5241V24.0317H23.5388V24.0167H23.5683V24.0018H23.5831V23.9868H23.6125V23.9719H23.6273V23.9569H23.642V23.942H23.6715V23.927H23.6862V23.9121H23.7157V23.8971H23.7304V23.8821H23.7599V23.8672H23.7747V23.8522H23.8041V23.8373H23.8189V23.8223H23.8483V23.8074H23.8631V23.7924H23.8926V23.7775H23.9073V23.7625H23.9368V23.7475H23.9515V23.7326H23.981V23.7176H23.9957V23.7027H24.0252V23.6877H24.0547V23.6728H24.0694V23.6578H24.0989V23.6428H24.1284V23.6279H24.1579V23.6129H24.1726V23.598H24.2021V23.583H24.2315V23.5681H24.2463V23.5531H24.2758V23.5382H24.3052V23.5232H24.32V23.5082H24.3495V23.4933H24.3789V23.4783H24.4084V23.4634H24.4379V23.4484H24.4674V23.4335H24.4821V23.4185H24.5116V23.4036H24.541V23.3886H24.5705V23.3736H24.6V23.3587H24.6295V23.3437H24.659V23.3288H24.6884V23.3138H24.7179V23.2989H24.7474V23.2839H24.7769V23.269H24.8063V23.254H24.8358V23.239H24.8653V23.2241H24.8948V23.2091H24.9242V23.1942H24.9537V23.1792H24.9832V23.1643H25.0274V23.1493H25.0569V23.1343H25.0864V23.1194H25.1158V23.1044H25.1601V23.0895H25.1895V23.0745H25.219V23.0596H25.2632V23.0446H25.2927V23.0296H25.3222V23.0147H25.3664V22.9997H25.3959V22.9848H25.4401V22.9698H25.4696V22.9549H25.5138V22.9399H25.558V22.925H25.5875V22.91H25.6317V22.895H25.6612V22.8801H25.7054V22.8651H25.7496V22.8502H25.7938V22.8352H25.838V22.8203H25.8822V22.8053H25.9264V22.7904H25.9707V22.7754H26.0149V22.7604H26.0591V22.7455H26.1033V22.7305H26.1475V22.7156H26.2065V22.7006H26.2507V22.6857H26.3096V22.6707H26.3539V22.6557H26.3981V22.6408H26.457V22.6258H26.516V22.6109H26.5749V22.5959H26.6339V22.581H26.6928V22.566H26.7518V22.5511H26.8255V22.5361H26.8844V22.5211H26.9581V22.5062H27.0318V22.4912H27.1055V22.4763H27.1792V22.4613H27.2676V22.4464H27.3561V22.4314H27.4445V22.4165H27.5329V22.4015H27.6361V22.3865H27.7687V22.3716H27.8866V22.3566H28.0193V22.3417H28.1961V22.3267H28.9478V68.2119H20.3701ZM34.2094 36.6696H42.787V68.2119H34.2094V36.6696ZM64.0544 61.9603V61.9753H65.145V61.9603H65.3955V61.9453H65.6019V61.9304H65.7493V61.9154H65.8966V61.9005H66.044V61.8855H66.1472V61.8706H66.2504V61.8556H66.3388V61.8407H66.442V61.8257H66.5304V61.8107H66.6188V61.7958H66.6925V61.7808H66.7662V61.7659H66.8399V61.7509H66.9136V61.736H66.9873V61.721H67.0462V61.7061H67.1052V61.6911H67.1641V61.6761H67.2231V61.6612H67.2968V61.6462H67.3557V61.6313H67.3999V61.6163H67.4589V61.6014H67.5031V61.5864H67.5621V61.5714H67.6063V61.5565H67.6505V61.5415H67.7094V61.5266H67.7537V61.5116H67.8126V61.4967H67.8421V61.4817H67.8863V61.4668H67.9305V61.4518H67.9747V61.4368H68.0189V61.4219H68.0632V61.4069H68.0926V61.392H68.1369V61.377H68.1811V61.3621H68.2253V61.3471H68.2548V61.3321H68.299V61.3172H68.3285V61.3022H68.3579V61.2873H68.4021V61.2723H68.4316V61.2574H68.4758V61.2424H68.5053V61.2275H68.5348V61.2125H68.579V61.1975H68.6085V61.1826H68.638V61.1676H68.6674V61.1527H68.6969V61.1377H68.7411V61.1228H68.7706V61.1078H68.8001V61.0929H68.8296V61.0779H68.859V61.0629H68.8885V61.048H68.918V61.033H68.9475V61.0181H68.9769V61.0031H69.0064V60.9882H69.0359V60.9732H69.0654V60.9582H69.0801V60.9433H69.1096V60.9283H69.1391V60.9134H69.1685V60.8984H69.198V60.8835H69.2127V60.8685H69.2422V60.8536H69.2717V60.8386H69.3012V60.8236H69.3307V60.8087H69.3454V60.7937H69.3749V60.7788H69.4043V60.7638H69.4191V60.7489H69.4486V60.7339H69.4633V60.719H69.4928V60.704H69.5223V60.689H69.537V60.6741H69.5665V60.6591H69.5812V60.6442H69.6107V60.6292H69.6254V60.6143H69.6549V60.5993H69.6844V60.5843H69.6991V60.5694H69.7138V60.5544H69.7433V60.5395H69.7581V60.5245H69.7875V60.5096H69.8023V60.4946H69.817V60.4797H69.8465V60.4647H69.8612V60.4497H69.8907V60.4348H69.9054V60.4198H69.9202V60.4049H69.9497V60.3899H69.9644V60.375H69.9939V60.36H70.0086V60.345H70.0234V60.3301H70.0528V60.3151H70.0676V60.3002H70.0823V60.2852H70.097V60.2703H70.1265V60.2553H70.1413V60.2404H70.156V60.2254H70.1707V60.2104H70.1855V60.1955H70.215V60.1805H70.2297V60.1656H70.2444V60.1506H70.2592V60.1357H70.2886V60.1207H70.3034V60.1058H70.3181V60.0908H70.3329V60.0758H70.3476V60.0609H70.3771V60.0459H70.3918V60.031H70.4065V60.016H70.4213V60.0011H70.436V59.9861H70.4508V59.9711H70.4655V59.9562H70.4802V59.9412H70.495V59.9263H70.5097V59.9113H70.5245V59.8964H70.5539V59.8814H70.5687V59.8665H70.5834V59.8515H70.5981V59.8365H70.6129V59.8216H70.6276V59.8066H70.6424V59.7917H70.6571V59.7767H70.6718V59.7618H70.6866V59.7468H70.7013V59.7318H70.716V59.7169H70.7308V59.7019H70.7455V59.687H70.7603V59.672H70.775V59.6571H70.7897V59.6421H70.8045V59.6272H70.8192V59.6122H70.834V59.5972H70.8487V59.5823H70.8634V59.5673H70.8782V59.5524H70.8929V59.5374H70.9076V59.5225H70.9224V59.4926H70.9371V59.4776H70.9519V59.4626H70.9666V59.4477H70.9813V59.4327H70.9961V59.4178H71.0108V59.3879H71.0256V59.3729H71.0403V59.3579H71.055V59.343H71.0698V59.328H71.0845V59.3131H71.0992V59.2832H71.114V59.2682H71.1287V59.2533H71.1435V59.2383H71.1582V59.2233H71.1729V59.2084H71.1877V59.1785H71.2024V59.1635H71.2172V59.1486H71.2319V59.1186H71.2466V59.1037H71.2614V59.0887H71.2761V59.0738H71.2908V59.0439H71.3056V59.0289H71.3203V59.014H71.3351V58.984H71.3498V58.9691H71.3645V58.9541H71.3793V58.9242H71.394V58.9093H71.4087V58.8943H71.4235V58.8794H71.4382V58.8494H71.453V58.8345H71.4677V58.8046H71.4824V58.7896H71.4972V58.7597H71.5119V58.7447H71.5267V58.7148H71.5414V58.6999H71.5561V58.67H71.5709V58.655H71.5856V58.6251H71.6003V58.6101H71.6151V58.5802H71.6298V58.5653H71.6446V58.5354H71.6593V58.5204H71.674V58.4905H71.6888V58.4755H71.7035V58.4456H71.7183V58.4157H71.733V58.4008H71.7477V58.3708H71.7625V58.3409H71.7772V58.326H71.7919V58.2961H71.8067V58.2662H71.8214V58.2512H71.8362V58.2213H71.8509V58.1914H71.8656V58.1764H71.8804V58.1465H71.8951V58.1166H71.9099V58.0867H71.9246V58.0568H71.9393V58.0269H71.9541V58.0119H71.9688V57.982H71.9835V57.9521H71.9983V57.9222H72.013V57.8923H72.0278V57.8623H72.0425V57.8324H72.0572V57.8025H72.072V57.7726H72.0867V57.7427H72.1015V57.7128H72.1162V57.6829H72.1309V57.653H72.1457V57.623H72.1604V57.5931H72.1751V57.5632H72.1899V57.5183H72.2046V57.4884H72.2194V57.4585H72.2341V57.4286H72.2488V57.3987H72.2636V57.3688H72.2783V57.3239H72.293V57.294H72.3078V57.2491H72.3225V57.2192H72.3373V57.1744H72.352V57.1444H72.3667V57.0996H72.3815V57.0697H72.3962V57.0248H72.411V56.9949H72.4257V56.95H72.4404V56.9201H72.4552V56.8752H72.4699V56.8304H72.4846V56.7855H72.4994V56.7406H72.5141V56.6958H72.5289V56.6509H72.5436V56.621H72.5583V56.5761H72.5731V56.5313H72.5878V56.4864H72.6025V56.4266H72.6173V56.3817H72.632V56.3368H72.6468V56.277H72.6615V56.2321H72.6762V56.1873H72.691V56.1274H72.7057V56.0826H72.7205V56.0227H72.7352V55.9629H72.7499V55.9031H72.7647V55.8433H72.7794V55.7834H72.7941V55.7236H72.8089V55.6638H72.8236V55.604H72.8384V55.5441H72.8531V55.4694H72.8678V55.3946H72.8826V55.3198H72.8973V55.245H72.9121V55.1702H72.9268V55.0955H72.9415V55.0207H72.9563V54.9309H72.971V54.8412H72.9857V54.7365H73.0005V54.6468H73.0152V54.557H73.03V54.4374H73.0447V54.3178H73.0594V54.1831H73.0742V54.0635H73.0889V53.9139H73.1037V53.7345H73.1184V53.555H73.1331V53.3157H73.1479V53.0016H73.1626V51.5957H73.1479V51.2966H73.1331V51.0723H73.1184V50.8928H73.1037V50.7133H73.0889V50.5787H73.0742V50.4591H73.0594V50.3394H73.0447V50.2048H73.03V50.1151H73.0152V50.0104H73.0005V49.9207H72.9857V49.8309H72.971V49.7262H72.9563V49.6515H72.9415V49.5767H72.9268V49.5019H72.9121V49.4271H72.8973V49.3523H72.8826V49.2776H72.8678V49.2028H72.8531V49.143H72.8384V49.0831H72.8236V49.0233H72.8089V48.9485H72.7941V48.8887H72.7794V48.8289H72.7647V48.769H72.7499V48.7242H72.7352V48.6644H72.7205V48.6195H72.7057V48.5597H72.691V48.5148H72.6762V48.455H72.6615V48.4101H72.6468V48.3503H72.632V48.3054H72.6173V48.2605H72.6025V48.2157H72.5878V48.1708H72.5731V48.1259H72.5583V48.0811H72.5436V48.0362H72.5289V47.9913H72.5141V47.9465H72.4994V47.9016H72.4846V47.8567H72.4699V47.8268H72.4552V47.7819H72.4404V47.752H72.4257V47.7072H72.411V47.6773H72.3962V47.6324H72.3815V47.6025H72.3667V47.5576H72.352V47.5127H72.3373V47.4828H72.3225V47.4529H72.3078V47.408H72.293V47.3781H72.2783V47.3482H72.2636V47.3183H72.2488V47.2734H72.2341V47.2435H72.2194V47.2136H72.2046V47.1837H72.1899V47.1388H72.1751V47.1089H72.1604V47.079H72.1457V47.0491H72.1309V47.0192H72.1162V46.9893H72.1015V46.9594H72.0867V46.9295H72.072V46.8995H72.0572V46.8696H72.0425V46.8397H72.0278V46.8098H72.013V46.7799H71.9983V46.75H71.9835V46.7201H71.9688V46.6902H71.9541V46.6752H71.9393V46.6453H71.9246V46.6154H71.9099V46.5855H71.8951V46.5705H71.8804V46.5406H71.8656V46.5107H71.8509V46.4808H71.8362V46.4658H71.8214V46.4359H71.8067V46.406H71.7919V46.3761H71.7772V46.3611H71.7625V46.3312H71.7477V46.3013H71.733V46.2863H71.7183V46.2564H71.7035V46.2415H71.6888V46.2116H71.674V46.1966H71.6593V46.1667H71.6446V46.1517H71.6298V46.1218H71.6151V46.0919H71.6003V46.077H71.5856V46.047H71.5709V46.0321H71.5561V46.0022H71.5414V45.9872H71.5267V45.9573H71.5119V45.9424H71.4972V45.9274H71.4824V45.8975H71.4677V45.8825H71.453V45.8526H71.4382V45.8377H71.4235V45.8227H71.4087V45.7928H71.394V45.7778H71.3793V45.7629H71.3645V45.733H71.3498V45.718H71.3351V45.6881H71.3203V45.6731H71.3056V45.6582H71.2908V45.6283H71.2761V45.6133H71.2614V45.5984H71.2466V45.5834H71.2319V45.5535H71.2172V45.5385H71.2024V45.5236H71.1877V45.5086H71.1729V45.4937H71.1582V45.4638H71.1435V45.4488H71.1287V45.4338H71.114V45.4189H71.0992V45.389H71.0845V45.374H71.0698V45.3591H71.055V45.3441H71.0403V45.3292H71.0256V45.2992H71.0108V45.2843H70.9961V45.2693H70.9813V45.2544H70.9666V45.2394H70.9519V45.2245H70.9371V45.2095H70.9224V45.1945H70.9076V45.1796H70.8929V45.1646H70.8782V45.1497H70.8634V45.1198H70.8487V45.1048H70.834V45.0899H70.8192V45.0749H70.8045V45.0599H70.7897V45.045H70.775V45.03H70.7603V45.0151H70.7455V45.0001H70.7308V44.9852H70.716V44.9702H70.7013V44.9552H70.6866V44.9403H70.6718V44.9253H70.6571V44.9104H70.6424V44.8954H70.6276V44.8805H70.6129V44.8655H70.5981V44.8506H70.5834V44.8356H70.5687V44.8206H70.5539V44.8057H70.5392V44.7907H70.5245V44.7758H70.5097V44.7608H70.495V44.7459H70.4655V44.7309H70.4508V44.716H70.436V44.701H70.4213V44.686H70.4065V44.6711H70.3918V44.6561H70.3771V44.6412H70.3476V44.6262H70.3329V44.6113H70.3181V44.5963H70.3034V44.5813H70.2886V44.5664H70.2739V44.5514H70.2444V44.5365H70.2297V44.5215H70.215V44.5066H70.2002V44.4916H70.1855V44.4767H70.1707V44.4617H70.1413V44.4467H70.1265V44.4318H70.1118V44.4168H70.0823V44.4019H70.0676V44.3869H70.0528V44.372H70.0234V44.357H70.0086V44.3421H69.9939V44.3271H69.9644V44.3121H69.9497V44.2972H69.9349V44.2822H69.9202V44.2673H69.8907V44.2523H69.876V44.2374H69.8612V44.2224H69.8318V44.2074H69.817V44.1925H69.7875V44.1775H69.7728V44.1626H69.7433V44.1476H69.7286V44.1327H69.6991V44.1177H69.6844V44.1028H69.6549V44.0878H69.6402V44.0728H69.6107V44.0579H69.5959V44.0429H69.5665V44.028H69.5517V44.013H69.5223V43.9981H69.5075V43.9831H69.478V43.9682H69.4633V43.9532H69.4338V43.9382H69.4043V43.9233H69.3749V43.9083H69.3601V43.8934H69.3307V43.8784H69.3012V43.8635H69.2864V43.8485H69.257V43.8335H69.2275V43.8186H69.2127V43.8036H69.1833V43.7887H69.1538V43.7737H69.1243V43.7588H69.0948V43.7438H69.0654V43.7289H69.0359V43.7139H69.0212V43.6989H68.9917V43.684H68.9622V43.669H68.9327V43.6541H68.9032V43.6391H68.8738V43.6242H68.8443V43.6092H68.8148V43.5942H68.7853V43.5793H68.7559V43.5643H68.7116V43.5494H68.6822V43.5344H68.6527V43.5195H68.6232V43.5045H68.5937V43.4896H68.5495V43.4746H68.52V43.4596H68.4906V43.4447H68.4611V43.4297H68.4169V43.4148H68.3874V43.3998H68.3432V43.3849H68.3137V43.3699H68.2695V43.355H68.2253V43.34H68.1958V43.325H68.1516V43.3101H68.1074V43.2951H68.0779V43.2802H68.0337V43.2652H67.9895V43.2503H67.9453V43.2353H67.901V43.2203H67.8568V43.2054H67.8126V43.1904H67.7684V43.1755H67.7242V43.1605H67.6652V43.1456H67.621V43.1306H67.5768V43.1157H67.5178V43.1007H67.4589V43.0857H67.3999V43.0708H67.3557V43.0558H67.2968V43.0409H67.2378V43.0259H67.1789V43.011H67.1052V42.996H67.0462V42.981H66.9725V42.9661H66.8988V42.9511H66.8251V42.9362H66.7515V42.9212H66.663V42.9063H66.5746V42.8913H66.4862V42.8764H66.3977V42.8614H66.2946V42.8464H66.1619V42.8315H66.0293V42.8165H65.8966V42.8016H65.7198V42.7866H65.4987V42.7717H65.1892V42.7567H64.526V42.7717H64.2165V42.7866H64.0101V42.8016H63.8038V42.8165H63.6859V42.8315H63.568V42.8464H63.4501V42.8614H63.3322V42.8764H63.2437V42.8913H63.1553V42.9063H63.0669V42.9212H62.9932V42.9362H62.9048V42.9511H62.8311V42.9661H62.7574V42.981H62.6984V42.996H62.6395V43.011H62.5658V43.0259H62.5068V43.0409H62.4479V43.0558H62.3889V43.0708H62.33V43.0857H62.271V43.1007H62.2268V43.1157H62.1679V43.1306H62.1236V43.1456H62.0794V43.1605H62.0205V43.1755H61.9763V43.1904H61.9173V43.2054H61.8731V43.2203H61.8289V43.2353H61.7847V43.2503H61.7552V43.2652H61.711V43.2802H61.6668V43.2951H61.6225V43.3101H61.5783V43.325H61.5488V43.34H61.5046V43.355H61.4604V43.3699H61.4162V43.3849H61.3867V43.3998H61.3572V43.4148H61.313V43.4297H61.2836V43.4447H61.2393V43.4596H61.2099V43.4746H61.1804V43.4896H61.1362V43.5045H61.1067V43.5195H61.0772V43.5344H61.033V43.5494H61.0035V43.5643H60.9741V43.5793H60.9446V43.5942H60.9151V43.6092H60.8856V43.6242H60.8561V43.6391H60.8267V43.6541H60.7972V43.669H60.7677V43.684H60.7382V43.6989H60.7088V43.7139H60.6793V43.7289H60.6498V43.7438H60.6203V43.7588H60.5909V43.7737H60.5614V43.7887H60.5319V43.8036H60.5024V43.8186H60.4877V43.8335H60.4582V43.8485H60.4287V43.8635H60.3993V43.8784H60.3845V43.8934H60.355V43.9083H60.3256V43.9233H60.2961V43.9382H60.2666V43.9532H60.2519V43.9682H60.2224V43.9831H60.1929V43.9981H60.1782V44.013H60.1487V44.028H60.134V44.0429H60.1045V44.0579H60.0898V44.0728H60.0603V44.0878H60.0308V44.1028H60.0161V44.1177H59.9866V44.1327H59.9719V44.1476H59.9424V44.1626H59.9276V44.1775H59.8982V44.1925H59.8834V44.2074H59.8539V44.2224H59.8392V44.2374H59.8097V44.2523H59.795V44.2673H59.7803V44.2822H59.7508V44.2972H59.736V44.3121H59.7066V44.3271H59.6918V44.3421H59.6771V44.357H59.6476V44.372H59.6329V44.3869H59.6034V44.4019H59.5887V44.4168H59.5739V44.4318H59.5444V44.4467H59.5297V44.4617H59.515V44.4767H59.4855V44.4916H59.4707V44.5066H59.456V44.5215H59.4413V44.5365H59.4118V44.5514H59.3971V44.5664H59.3823V44.5813H59.3676V44.5963H59.3528V44.6113H59.3234V44.6262H59.3086V44.6412H59.2939V44.6561H59.2792V44.6711H59.2497V44.686H59.2349V44.701H59.2202V44.716H59.2055V44.7309H59.1907V44.7459H59.1612V44.7608H59.1465V44.7758H59.1318V44.7907H59.117V44.8057H59.1023V44.8206H59.0876V44.8356H59.0728V44.8506H59.0581V44.8655H59.0433V44.8805H59.0139V44.8954H58.9991V44.9104H58.9844V44.9253H58.9696V44.9403H58.9549V44.9552H58.9402V44.9702H58.9254V44.9852H58.9107V45.0001H58.896V45.0151H58.8812V45.03H58.8665V45.045H58.8517V45.0599H58.837V45.0749H58.8223V45.0899H58.8075V45.1048H58.7928V45.1198H58.778V45.1347H58.7633V45.1497H58.7486V45.1646H58.7338V45.1796H58.7191V45.1945H58.7044V45.2095H58.6896V45.2245H58.6749V45.2394H58.6601V45.2544H58.6454V45.2693H58.6307V45.2843H58.6159V45.2992H58.6012V45.3142H58.5865V45.3292H58.5717V45.3441H58.557V45.3591H58.5422V45.374H58.5275V45.389H58.5128V45.4039H58.498V45.4189H58.4833V45.4488H58.4685V45.4638H58.4538V45.4787H58.4391V45.4937H58.4243V45.5086H58.4096V45.5236H58.3949V45.5385H58.3801V45.5685H58.3654V45.5834H58.3506V45.5984H58.3359V45.6133H58.3212V45.6283H58.3064V45.6432H58.2917V45.6582H58.277V45.6731H58.2622V45.7031H58.2475V45.718H58.2327V45.733H58.218V45.7629H58.2033V45.7778H58.1885V45.7928H58.1738V45.8077H58.159V45.8377H58.1443V45.8526H58.1296V45.8676H58.1148V45.8825H58.1001V45.9124H58.0854V45.9274H58.0706V45.9424H58.0559V45.9573H58.0411V45.9872H58.0264V46.0022H58.0117V46.0171H57.9969V46.047H57.9822V46.062H57.9674V46.077H57.9527V46.1069H57.938V46.1218H57.9232V46.1517H57.9085V46.1667H57.8938V46.1816H57.879V46.2116H57.8643V46.2265H57.8495V46.2564H57.8348V46.2714H57.8201V46.3013H57.8053V46.3163H57.7906V46.3312H57.7758V46.3611H57.7611V46.3761H57.7464V46.406H57.7316V46.4209H57.7169V46.4509H57.7022V46.4658H57.6874V46.4957H57.6727V46.5256H57.6579V46.5406H57.6432V46.5705H57.6285V46.5855H57.6137V46.6154H57.599V46.6303H57.5843V46.6602H57.5695V46.6902H57.5548V46.7051H57.54V46.735H57.5253V46.75H57.5106V46.7799H57.4958V46.8098H57.4811V46.8397H57.4663V46.8547H57.4516V46.8846H57.4369V46.9145H57.4221V46.9444H57.4074V46.9594H57.3927V46.9893H57.3779V47.0192H57.3632V47.0491H57.3484V47.0641H57.3337V47.094H57.319V47.1239H57.3042V47.1538H57.2895V47.1837H57.2747V47.2136H57.26V47.2435H57.2453V47.2734H57.2305V47.3034H57.2158V47.3183H57.2011V47.3482H57.1863V47.3781H57.1716V47.408H57.1568V47.438H57.1421V47.4679H57.1274V47.4978H57.1126V47.5277H57.0979V47.5576H57.0832V47.6025H57.0684V47.6324H57.0537V47.6623H57.0389V47.6922H57.0242V47.7371H57.0095V47.767H56.9947V47.7969H56.98V47.8268H56.9652V47.8567H56.9505V47.9016H56.9358V47.9315H56.921V47.9614H56.9063V48.0063H56.8916V48.0362H56.8768V48.0811H56.8621V48.111H56.8473V48.1559H56.8326V48.1858H56.8179V48.2306H56.8031V48.2605H56.7884V48.3054H56.7736V48.3353H56.7589V48.3802H56.7442V48.4251H56.7294V48.4699H56.7147V48.5148H56.7V48.5597H56.6852V48.5896H56.6705V48.6344H56.6557V48.6793H56.641V48.7242H56.6263V48.769H56.6115V48.8139H56.5968V48.8588H56.582V48.9186H56.5673V48.9635H56.5526V49.0083H56.5378V49.0682H56.5231V49.113H56.5084V49.1579H56.4936V49.2177H56.4789V49.2626H56.4641V49.3224H56.4494V49.3822H56.4347V49.4421H56.4199V49.5019H56.4052V49.5617H56.3905V49.6215H56.3757V49.6814H56.361V49.7412H56.3462V49.816H56.3315V49.8908H56.3168V49.9506H56.302V50.0254H56.2873V50.1001H56.2725V50.1749H56.2578V50.2647H56.2431V50.3394H56.2283V50.4292H56.2136V50.5189H56.1989V50.6086H56.1841V50.7133H56.1694V50.833H56.1546V50.9526H56.1399V51.0573H56.1252V51.2069H56.1104V51.3714H56.0957V51.5359H56.0809V51.7603H56.0662V52.0295H56.0515V53.196H56.0662V53.4503H56.0809V53.6597H56.0957V53.8242H56.1104V53.9738H56.1252V54.1084H56.1399V54.2131H56.1546V54.3178H56.1694V54.4224H56.1841V54.5271H56.1989V54.6169H56.2136V54.6917H56.2283V54.7814H56.2431V54.8562H56.2578V54.9459H56.2725V55.0207H56.2873V55.0805H56.302V55.1553H56.3168V55.2151H56.3315V55.2899H56.3462V55.3497H56.361V55.4095H56.3757V55.4694H56.3905V55.5292H56.4052V55.589H56.4199V55.6339H56.4347V55.6937H56.4494V55.7535H56.4641V55.7984H56.4789V55.8582H56.4936V55.9031H56.5084V55.948H56.5231V55.9928H56.5378V56.0527H56.5526V56.0975H56.5673V56.1424H56.582V56.1873H56.5968V56.2321H56.6115V56.277H56.6263V56.3219H56.641V56.3667H56.6557V56.3966H56.6705V56.4415H56.6852V56.4864H56.7V56.5163H56.7147V56.5612H56.7294V56.606H56.7442V56.6509H56.7589V56.6808H56.7736V56.7257H56.7884V56.7556H56.8031V56.8005H56.8179V56.8304H56.8326V56.8603H56.8473V56.9052H56.8621V56.9351H56.8768V56.965H56.8916V57.0098H56.9063V57.0398H56.921V57.0697H56.9358V57.1145H56.9505V57.1444H56.9652V57.1744H56.98V57.2043H56.9947V57.2342H57.0095V57.2641H57.0242V57.294H57.0389V57.3239H57.0537V57.3538H57.0684V57.3987H57.0832V57.4286H57.0979V57.4585H57.1126V57.4884H57.1274V57.5183H57.1421V57.5483H57.1568V57.5632H57.1716V57.5931H57.1863V57.623H57.2011V57.653H57.2158V57.6829H57.2305V57.7128H57.2453V57.7427H57.26V57.7576H57.2747V57.7876H57.2895V57.8175H57.3042V57.8474H57.319V57.8773H57.3337V57.9072H57.3484V57.9222H57.3632V57.9521H57.3779V57.967H57.3927V57.9969H57.4074V58.0269H57.4221V58.0418H57.4369V58.0717H57.4516V58.1016H57.4663V58.1166H57.4811V58.1465H57.4958V58.1764H57.5106V58.1914H57.5253V58.2213H57.54V58.2512H57.5548V58.2662H57.5695V58.2961H57.5843V58.311H57.599V58.3409H57.6137V58.3559H57.6285V58.3858H57.6432V58.4008H57.6579V58.4307H57.6727V58.4456H57.6874V58.4755H57.7022V58.4905H57.7169V58.5055H57.7316V58.5354H57.7464V58.5503H57.7611V58.5802H57.7758V58.5952H57.7906V58.6251H57.8053V58.6401H57.8201V58.655H57.8348V58.6849H57.8495V58.6999H57.8643V58.7148H57.879V58.7447H57.8938V58.7597H57.9085V58.7747H57.9232V58.8046H57.938V58.8195H57.9527V58.8345H57.9674V58.8644H57.9822V58.8794H57.9969V58.8943H58.0117V58.9242H58.0264V58.9392H58.0411V58.9541H58.0559V58.9691H58.0706V58.999H58.0854V59.014H58.1001V59.0289H58.1148V59.0439H58.1296V59.0588H58.1443V59.0887H58.159V59.1037H58.1738V59.1186H58.1885V59.1336H58.2033V59.1486H58.218V59.1785H58.2327V59.1934H58.2475V59.2084H58.2622V59.2233H58.277V59.2383H58.2917V59.2682H58.3064V59.2832H58.3212V59.2981H58.3359V59.3131H58.3506V59.328H58.3654V59.343H58.3801V59.3579H58.3949V59.3729H58.4096V59.3879H58.4243V59.4028H58.4391V59.4178H58.4538V59.4327H58.4685V59.4626H58.4833V59.4776H58.498V59.4926H58.5128V59.5075H58.5275V59.5225H58.5422V59.5374H58.557V59.5524H58.5717V59.5673H58.5865V59.5823H58.6012V59.5972H58.6159V59.6122H58.6307V59.6272H58.6454V59.6421H58.6601V59.6571H58.6749V59.672H58.6896V59.687H58.7044V59.7019H58.7191V59.7169H58.7338V59.7318H58.7486V59.7468H58.7633V59.7618H58.778V59.7767H58.7928V59.7917H58.8075V59.8066H58.8223V59.8216H58.837V59.8365H58.8517V59.8515H58.8812V59.8665H58.896V59.8814H58.9107V59.8964H58.9254V59.9113H58.9402V59.9263H58.9549V59.9412H58.9696V59.9562H58.9991V59.9711H59.0139V59.9861H59.0286V60.0011H59.0433V60.016H59.0581V60.031H59.0728V60.0459H59.0876V60.0609H59.117V60.0758H59.1318V60.0908H59.1465V60.1058H59.1612V60.1207H59.176V60.1357H59.1907V60.1506H59.2202V60.1656H59.2349V60.1805H59.2497V60.1955H59.2792V60.2104H59.2939V60.2254H59.3086V60.2404H59.3234V60.2553H59.3528V60.2703H59.3676V60.2852H59.3823V60.3002H59.4118V60.3151H59.4265V60.3301H59.4413V60.345H59.456V60.36H59.4855V60.375H59.5002V60.3899H59.515V60.4049H59.5444V60.4198H59.5592V60.4348H59.5887V60.4497H59.6034V60.4647H59.6181V60.4797H59.6476V60.4946H59.6623V60.5096H59.6918V60.5245H59.7066V60.5395H59.736V60.5544H59.7508V60.5694H59.7803V60.5843H59.795V60.5993H59.8097V60.6143H59.8392V60.6292H59.8539V60.6442H59.8834V60.6591H59.9129V60.6741H59.9276V60.689H59.9571V60.704H59.9719V60.719H60.0013V60.7339H60.0308V60.7489H60.0455V60.7638H60.075V60.7788H60.0898V60.7937H60.1192V60.8087H60.1487V60.8236H60.1634V60.8386H60.1929V60.8536H60.2224V60.8685H60.2371V60.8835H60.2666V60.8984H60.2961V60.9134H60.3256V60.9283H60.355V60.9433H60.3845V60.9582H60.3993V60.9732H60.4287V60.9882H60.4582V61.0031H60.4877V61.0181H60.5172V61.033H60.5466V61.048H60.5761V61.0629H60.5909V61.0779H60.6351V61.0929H60.6646V61.1078H60.694V61.1228H60.7235V61.1377H60.753V61.1527H60.7825V61.1676H60.8119V61.1826H60.8414V61.1975H60.8709V61.2125H60.9151V61.2275H60.9446V61.2424H60.9741V61.2574H61.0035V61.2723H61.0477V61.2873H61.0772V61.3022H61.1214V61.3172H61.1509V61.3321H61.1804V61.3471H61.2246V61.3621H61.2541V61.377H61.2983V61.392H61.3278V61.4069H61.372V61.4219H61.4015V61.4368H61.4457V61.4518H61.4899V61.4668H61.5341V61.4817H61.5783V61.4967H61.6225V61.5116H61.6668V61.5266H61.711V61.5415H61.7404V61.5565H61.7847V61.5714H61.8436V61.5864H61.8878V61.6014H61.9468V61.6163H61.991V61.6313H62.0499V61.6462H62.0942V61.6612H62.1531V61.6761H62.1973V61.6911H62.2563V61.7061H62.33V61.721H62.3889V61.736H62.4479V61.7509H62.5216V61.7659H62.5805V61.7808H62.6395V61.7958H62.7279V61.8107H62.8016V61.8257H62.89V61.8407H62.9785V61.8556H63.0521V61.8706H63.1406V61.8855H63.2732V61.9005H63.3911V61.9154H63.509V61.9304H63.6417V61.9453H63.848V61.9603H64.0544ZM34.2094 30.0291V29.4159H34.2241V29.2663H34.2388V29.1467H34.2536V29.042H34.2683V28.9523H34.283V28.8476H34.2978V28.7728H34.3125V28.698H34.3273V28.6232H34.342V28.5484H34.3567V28.4737H34.3715V28.4288H34.3862V28.369H34.401V28.3091H34.4157V28.2493H34.4304V28.1895H34.4452V28.1297H34.4599V28.0848H34.4746V28.0399H34.4894V27.9951H34.5041V27.9352H34.5189V27.8904H34.5336V27.8455H34.5483V27.8006H34.5631V27.7558H34.5778V27.7109H34.5925V27.681H34.6073V27.6361H34.622V27.5912H34.6368V27.5613H34.6515V27.5165H34.6662V27.4716H34.681V27.4417H34.6957V27.3968H34.7105V27.3669H34.7252V27.337H34.7399V27.2921H34.7547V27.2622H34.7694V27.2323H34.7841V27.1874H34.7989V27.1575H34.8136V27.1276H34.8284V27.0977H34.8431V27.0678H34.8578V27.0379H34.8726V27.008H34.8873V26.9781H34.9021V26.9481H34.9168V26.9033H34.9315V26.8734H34.9463V26.8434H34.961V26.8135H34.9757V26.7986H34.9905V26.7687H35.0052V26.7388H35.02V26.7088H35.0347V26.6789H35.0494V26.649H35.0642V26.6341H35.0789V26.6042H35.0937V26.5742H35.1084V26.5443H35.1231V26.5144H35.1379V26.4995H35.1526V26.4695H35.1673V26.4396H35.1821V26.4247H35.1968V26.3948H35.2116V26.3649H35.2263V26.3499H35.241V26.32H35.2558V26.2901H35.2705V26.2751H35.2852V26.2452H35.3V26.2302H35.3147V26.2003H35.3295V26.1854H35.3442V26.1555H35.3589V26.1405H35.3737V26.1106H35.3884V26.0956H35.4032V26.0657H35.4179V26.0508H35.4326V26.0209H35.4474V26.0059H35.4621V25.976H35.4768V25.961H35.4916V25.9311H35.5063V25.9162H35.5211V25.9012H35.5358V25.8713H35.5505V25.8563H35.5653V25.8414H35.58V25.8115H35.5948V25.7965H35.6095V25.7666H35.6242V25.7517H35.639V25.7367H35.6537V25.7068H35.6684V25.6918H35.6832V25.6769H35.6979V25.647H35.7127V25.632H35.7274V25.6171H35.7421V25.6021H35.7569V25.5722H35.7716V25.5572H35.7863V25.5423H35.8011V25.5273H35.8158V25.5124H35.8306V25.4824H35.8453V25.4675H35.86V25.4525H35.8748V25.4376H35.8895V25.4077H35.9043V25.3927H35.919V25.3778H35.9337V25.3628H35.9485V25.3478H35.9632V25.3329H35.9779V25.303H35.9927V25.288H36.0074V25.2731H36.0222V25.2581H36.0369V25.2431H36.0516V25.2282H36.0664V25.2132H36.0811V25.1983H36.0959V25.1833H36.1106V25.1534H36.1253V25.1385H36.1401V25.1235H36.1548V25.1085H36.1695V25.0936H36.1843V25.0786H36.199V25.0637H36.2138V25.0487H36.2285V25.0338H36.2432V25.0188H36.258V25.0038H36.2727V24.9889H36.2874V24.9739H36.3022V24.959H36.3169V24.944H36.3317V24.9291H36.3464V24.9141H36.3611V24.8992H36.3759V24.8842H36.3906V24.8692H36.4054V24.8543H36.4201V24.8393H36.4348V24.8244H36.4496V24.8094H36.4643V24.7945H36.479V24.7795H36.4938V24.7646H36.5085V24.7496H36.5233V24.7346H36.538V24.7197H36.5527V24.7047H36.5675V24.6898H36.5822V24.6748H36.6117V24.6599H36.6264V24.6449H36.6412V24.63H36.6559V24.615H36.6706V24.6H36.6854V24.5851H36.7001V24.5701H36.7149V24.5552H36.7296V24.5402H36.7591V24.5253H36.7738V24.5103H36.7886V24.4953H36.8033V24.4804H36.818V24.4654H36.8328V24.4505H36.8622V24.4355H36.877V24.4206H36.8917V24.4056H36.9065V24.3907H36.9212V24.3757H36.9359V24.3607H36.9654V24.3458H36.9801V24.3308H36.9949V24.3159H37.0096V24.3009H37.0391V24.286H37.0538V24.271H37.0686V24.256H37.0981V24.2411H37.1128V24.2261H37.1275V24.2112H37.1423V24.1962H37.1717V24.1813H37.1865V24.1663H37.2012V24.1514H37.216V24.1364H37.2454V24.1214H37.2602V24.1065H37.2897V24.0915H37.3044V24.0766H37.3191V24.0616H37.3486V24.0467H37.3633V24.0317H37.3781V24.0167H37.4076V24.0018H37.4223V23.9868H37.4518V23.9719H37.4665V23.9569H37.4813V23.942H37.5107V23.927H37.5255V23.9121H37.5549V23.8971H37.5697V23.8821H37.5992V23.8672H37.6139V23.8522H37.6434V23.8373H37.6581V23.8223H37.6876V23.8074H37.7023V23.7924H37.7318V23.7775H37.7613V23.7625H37.776V23.7475H37.8055V23.7326H37.8202V23.7176H37.8497V23.7027H37.8644V23.6877H37.8939V23.6728H37.9234V23.6578H37.9381V23.6428H37.9676V23.6279H37.9971V23.6129H38.0118V23.598H38.0413V23.583H38.0708V23.5681H38.0855V23.5531H38.115V23.5382H38.1445V23.5232H38.1592V23.5082H38.1887V23.4933H38.2182V23.4783H38.2476V23.4634H38.2771V23.4484H38.3066V23.4335H38.3361V23.4185H38.3508V23.4036H38.3803V23.3886H38.4098V23.3736H38.4392V23.3587H38.4687V23.3437H38.4982V23.3288H38.5277V23.3138H38.5571V23.2989H38.5866V23.2839H38.6161V23.269H38.6456V23.254H38.675V23.239H38.7045V23.2241H38.734V23.2091H38.7635V23.1942H38.793V23.1792H38.8224V23.1643H38.8666V23.1493H38.8961V23.1343H38.9256V23.1194H38.9698V23.1044H38.9993V23.0895H39.0288V23.0745H39.0582V23.0596H39.1025V23.0446H39.1319V23.0296H39.1614V23.0147H39.2056V22.9997H39.2351V22.9848H39.2793V22.9698H39.3235V22.9549H39.353V22.9399H39.3972V22.925H39.4267V22.91H39.4709V22.895H39.5004V22.8801H39.5446V22.8651H39.5888V22.8502H39.633V22.8352H39.6773V22.8203H39.7215V22.8053H39.7657V22.7904H39.8099V22.7754H39.8541V22.7604H39.8983V22.7455H39.9425V22.7305H40.0015V22.7156H40.0457V22.7006H40.0899V22.6857H40.1489V22.6707H40.1931V22.6557H40.252V22.6408H40.2963V22.6258H40.3552V22.6109H40.4142V22.5959H40.4731V22.581H40.5321V22.566H40.591V22.5511H40.6647V22.5361H40.7237V22.5211H40.7974V22.5062H40.8711V22.4912H40.9447V22.4763H41.0184V22.4613H41.1069V22.4464H41.1953V22.4314H41.2837V22.4165H41.3722V22.4015H41.4901V22.3865H41.608V22.3716H41.7259V22.3566H41.8585V22.3417H42.0354V22.3267H42.787V30.0291H34.2094Z" fill="#043347"/>
</svg>
